<?xml version="1.0" encoding="utf-8"?>
<!-- Generator: Adobe Illustrator 24.3.0, SVG Export Plug-In . SVG Version: 6.00 Build 0)  -->
<svg version="1.1" id="Layer_1" xmlns="http://www.w3.org/2000/svg" xmlns:xlink="http://www.w3.org/1999/xlink" x="0px" y="0px"
	 viewBox="0 0 550 370" style="enable-background:new 0 0 550 370;" xml:space="preserve">
<style type="text/css">
	.st0{fill:#CAE6FE;}
	.st1{fill:#079FF3;}
	.st2{fill:#2A365C;}
	.st3{fill:#439AD7;}
	.st4{fill:#009EF3;}
	.st5{fill:#007CE6;}
	.st6{fill:#FEFDFF;}
	.st7{fill:#ABD3F2;}
	.st8{fill:#16162F;}
	.st9{fill:#445279;}
	.st10{opacity:0.2;}
	.st11{opacity:0.3;fill:#FEFDFF;}
	.st12{opacity:0.5;fill:#FEFDFF;}
	.st13{fill:#FBA691;}
	.st14{fill:#FD857D;}
	.st15{fill:#F05B56;}
	.st16{fill:#033557;}
	.st17{fill:#315272;}
	.st18{fill:#BADFFA;}
	.st19{fill:#FDFCF7;}
	.st20{fill:#00273D;}
	.st21{opacity:0.2;fill:#1D4461;}
	.st22{fill:#C3D5E8;}
	.st23{fill:#F7FCFD;}
	.st24{fill:#FFFFFF;}
</style>
<g>
	<g>
		<g>
			<g>
				<g>
					
						<rect x="149.4" y="195.84" transform="matrix(-1 -4.164192e-11 4.164192e-11 -1 357.165 520.7029)" class="st16" width="58.36" height="129.03"/>
					
						<rect x="145.04" y="190.05" transform="matrix(-1 -4.162283e-11 4.162283e-11 -1 357.2484 387.4012)" class="st16" width="67.17" height="7.3"/>
					<g>
						<g>
							<g>
								
									<rect x="189.45" y="201.54" transform="matrix(-1 -4.170898e-11 4.170898e-11 -1 393.5626 428.7675)" class="st17" width="14.65" height="25.69"/>
								<g>
									
										<rect x="190.78" y="202.92" transform="matrix(-1 -4.142654e-11 4.142654e-11 -1 393.6255 428.8081)" class="st18" width="12.07" height="22.97"/>
									<g>
										<polygon class="st19" points="199.62,202.92 202.85,206.11 202.85,208.43 197.26,202.92 										"/>
										<polygon class="st19" points="190.78,212.9 202.85,224.8 202.85,225.89 202.29,225.89 190.78,214.55 										"/>
										<polygon class="st19" points="196.21,202.92 202.85,209.46 202.85,212.58 193.04,202.92 										"/>
										<polygon class="st19" points="190.78,218.87 197.9,225.89 194.73,225.89 190.78,221.99 										"/>
										<polygon class="st19" points="190.78,207.8 202.85,219.7 202.85,223.43 190.78,211.53 										"/>
									</g>
								</g>
							</g>
							<g>
								
									<rect x="171.26" y="201.54" transform="matrix(-1 -4.170898e-11 4.170898e-11 -1 357.17 428.7675)" class="st17" width="14.65" height="25.69"/>
								<g>
									
										<rect x="172.58" y="202.92" transform="matrix(-1 -4.142654e-11 4.142654e-11 -1 357.2329 428.8081)" class="st18" width="12.07" height="22.97"/>
									<g>
										<polygon class="st19" points="181.42,202.92 184.65,206.11 184.65,208.43 179.06,202.92 										"/>
										<polygon class="st19" points="172.58,212.9 184.65,224.8 184.65,225.89 184.09,225.89 172.58,214.55 										"/>
										<polygon class="st19" points="178.02,202.92 184.65,209.46 184.65,212.58 174.85,202.92 										"/>
										<polygon class="st19" points="172.58,218.87 179.7,225.89 176.53,225.89 172.58,221.99 										"/>
										<polygon class="st19" points="172.58,207.8 184.65,219.7 184.65,223.43 172.58,211.53 										"/>
									</g>
								</g>
							</g>
							<g>
								
									<rect x="153.06" y="201.54" transform="matrix(-1 -4.220547e-11 4.220547e-11 -1 320.7774 428.7675)" class="st17" width="14.65" height="25.69"/>
								<g>
									
										<rect x="154.38" y="202.92" transform="matrix(-1 -4.142654e-11 4.142654e-11 -1 320.8403 428.8081)" class="st18" width="12.07" height="22.97"/>
									<g>
										<polygon class="st19" points="163.22,202.92 166.46,206.11 166.46,208.43 160.86,202.92 										"/>
										<polygon class="st19" points="154.38,212.9 166.46,224.8 166.46,225.89 165.89,225.89 154.38,214.55 										"/>
										<polygon class="st19" points="159.82,202.92 166.46,209.46 166.46,212.58 156.65,202.92 										"/>
										<polygon class="st19" points="154.38,218.87 161.51,225.89 158.34,225.89 154.38,221.99 										"/>
										<polygon class="st19" points="154.38,207.8 166.46,219.7 166.46,223.43 154.38,211.53 										"/>
									</g>
								</g>
							</g>
						</g>
						<g>
							<g>
								
									<rect x="189.46" y="231.74" transform="matrix(-1 -4.158508e-11 4.158508e-11 -1 393.5794 489.1776)" class="st17" width="14.65" height="25.69"/>
								<g>
									
										<rect x="190.78" y="233.12" transform="matrix(-1 -4.233026e-11 4.233026e-11 -1 393.6423 489.2182)" class="st18" width="12.07" height="22.97"/>
									<g>
										<polygon class="st19" points="199.62,233.12 202.86,236.31 202.86,238.64 197.26,233.12 										"/>
										<polygon class="st19" points="190.78,243.1 202.86,255 202.86,256.09 202.29,256.09 190.78,244.75 										"/>
										<polygon class="st19" points="196.22,233.12 202.86,239.66 202.86,242.79 193.05,233.12 										"/>
										<polygon class="st19" points="190.78,249.07 197.91,256.09 194.74,256.09 190.78,252.2 										"/>
										<polygon class="st19" points="190.78,238.01 202.86,249.9 202.86,253.64 190.78,241.74 										"/>
									</g>
								</g>
							</g>
							<g>
								
									<rect x="171.27" y="231.74" transform="matrix(-1 -4.158508e-11 4.158508e-11 -1 357.1868 489.1776)" class="st17" width="14.65" height="25.69"/>
								<g>
									
										<rect x="172.59" y="233.12" transform="matrix(-1 -4.142654e-11 4.142654e-11 -1 357.2497 489.2182)" class="st18" width="12.07" height="22.97"/>
									<g>
										<polygon class="st19" points="181.43,233.12 184.66,236.31 184.66,238.64 179.07,233.12 										"/>
										<polygon class="st19" points="172.59,243.1 184.66,255 184.66,256.09 184.1,256.09 172.59,244.75 										"/>
										<polygon class="st19" points="178.03,233.12 184.66,239.66 184.66,242.79 174.85,233.12 										"/>
										<polygon class="st19" points="172.59,249.07 179.71,256.09 176.54,256.09 172.59,252.2 										"/>
										<polygon class="st19" points="172.59,238.01 184.66,249.9 184.66,253.64 172.59,241.74 										"/>
									</g>
								</g>
							</g>
							<g>
								
									<rect x="153.07" y="231.74" transform="matrix(-1 -4.158508e-11 4.158508e-11 -1 320.7942 489.1776)" class="st17" width="14.65" height="25.69"/>
								<g>
									
										<rect x="154.39" y="233.12" transform="matrix(-1 -4.142654e-11 4.142654e-11 -1 320.8571 489.2182)" class="st18" width="12.07" height="22.97"/>
									<g>
										<polygon class="st19" points="163.23,233.12 166.47,236.31 166.47,238.64 160.87,233.12 										"/>
										<polygon class="st19" points="154.39,243.1 166.47,255 166.47,256.09 165.9,256.09 154.39,244.75 										"/>
										<polygon class="st19" points="159.83,233.12 166.47,239.66 166.47,242.79 156.66,233.12 										"/>
										<polygon class="st19" points="154.39,249.07 161.52,256.09 158.34,256.09 154.39,252.2 										"/>
										<polygon class="st19" points="154.39,238.01 166.47,249.9 166.47,253.64 154.39,241.74 										"/>
									</g>
								</g>
							</g>
						</g>
						<g>
							<g>
								
									<rect x="189.46" y="261.95" transform="matrix(-1 -4.096424e-11 4.096424e-11 -1 393.5736 549.5877)" class="st17" width="14.65" height="25.69"/>
								<g>
									
										<rect x="190.78" y="263.33" transform="matrix(-1 -4.217971e-11 4.217971e-11 -1 393.6365 549.6283)" class="st18" width="12.07" height="22.97"/>
									<g>
										<polygon class="st19" points="199.62,263.33 202.86,266.52 202.86,268.84 197.26,263.33 										"/>
										<polygon class="st19" points="190.78,273.31 202.86,285.21 202.86,286.3 202.29,286.3 190.78,274.96 										"/>
										<polygon class="st19" points="196.22,263.33 202.86,269.87 202.86,272.99 193.05,263.33 										"/>
										<polygon class="st19" points="190.78,279.28 197.91,286.3 194.73,286.3 190.78,282.4 										"/>
										<polygon class="st19" points="190.78,268.21 202.86,280.11 202.86,283.84 190.78,271.94 										"/>
									</g>
								</g>
							</g>
							<g>
								
									<rect x="171.26" y="261.95" transform="matrix(-1 -4.170898e-11 4.170898e-11 -1 357.181 549.5877)" class="st17" width="14.65" height="25.69"/>
								<g>
									
										<rect x="172.58" y="263.33" transform="matrix(-1 -4.127599e-11 4.127599e-11 -1 357.2439 549.6283)" class="st18" width="12.07" height="22.97"/>
									<g>
										<polygon class="st19" points="181.42,263.33 184.66,266.52 184.66,268.84 179.06,263.33 										"/>
										<polygon class="st19" points="172.58,273.31 184.66,285.21 184.66,286.3 184.1,286.3 172.58,274.96 										"/>
										<polygon class="st19" points="178.02,263.33 184.66,269.87 184.66,272.99 174.85,263.33 										"/>
										<polygon class="st19" points="172.58,279.28 179.71,286.3 176.54,286.3 172.58,282.4 										"/>
										<polygon class="st19" points="172.58,268.21 184.66,280.11 184.66,283.84 172.58,271.94 										"/>
									</g>
								</g>
							</g>
							<g>
								
									<rect x="153.07" y="261.95" transform="matrix(-1 -4.170898e-11 4.170898e-11 -1 320.7885 549.5877)" class="st17" width="14.65" height="25.69"/>
								<g>
									
										<rect x="154.39" y="263.33" transform="matrix(-1 -4.142654e-11 4.142654e-11 -1 320.8513 549.6283)" class="st18" width="12.07" height="22.97"/>
									<g>
										<polygon class="st19" points="163.23,263.33 166.46,266.52 166.46,268.84 160.87,263.33 										"/>
										<polygon class="st19" points="154.39,273.31 166.46,285.21 166.46,286.3 165.9,286.3 154.39,274.96 										"/>
										<polygon class="st19" points="159.83,263.33 166.46,269.87 166.46,272.99 156.66,263.33 										"/>
										<polygon class="st19" points="154.39,279.28 161.51,286.3 158.34,286.3 154.39,282.4 										"/>
										<polygon class="st19" points="154.39,268.21 166.46,280.11 166.46,283.84 154.39,271.94 										"/>
									</g>
								</g>
							</g>
						</g>
						<g>
							<g>
								
									<rect x="189.46" y="292.17" transform="matrix(-1 -4.170898e-11 4.170898e-11 -1 393.5785 610.0325)" class="st17" width="14.65" height="25.69"/>
								<g>
									
										<rect x="190.78" y="293.55" transform="matrix(-1 -4.142654e-11 4.142654e-11 -1 393.6414 610.0731)" class="st18" width="12.07" height="22.97"/>
									<g>
										<polygon class="st19" points="199.62,293.55 202.86,296.74 202.86,299.07 197.26,293.55 										"/>
										<polygon class="st19" points="190.78,303.53 202.86,315.43 202.86,316.52 202.29,316.52 190.78,305.18 										"/>
										<polygon class="st19" points="196.22,293.55 202.86,300.09 202.86,303.22 193.05,293.55 										"/>
										<polygon class="st19" points="190.78,309.5 197.91,316.52 194.74,316.52 190.78,312.63 										"/>
										<polygon class="st19" points="190.78,298.43 202.86,310.33 202.86,314.06 190.78,302.17 										"/>
									</g>
								</g>
							</g>
							<g>
								
									<rect x="171.27" y="292.17" transform="matrix(-1 -4.158508e-11 4.158508e-11 -1 357.1859 610.0325)" class="st17" width="14.65" height="25.69"/>
								<g>
									
										<rect x="172.59" y="293.55" transform="matrix(-1 -4.142654e-11 4.142654e-11 -1 357.2488 610.0731)" class="st18" width="12.07" height="22.97"/>
									<g>
										<polygon class="st19" points="181.43,293.55 184.66,296.74 184.66,299.07 179.07,293.55 										"/>
										<polygon class="st19" points="172.59,303.53 184.66,315.43 184.66,316.52 184.1,316.52 172.59,305.18 										"/>
										<polygon class="st19" points="178.03,293.55 184.66,300.09 184.66,303.22 174.85,293.55 										"/>
										<polygon class="st19" points="172.59,309.5 179.71,316.52 176.54,316.52 172.59,312.63 										"/>
										<polygon class="st19" points="172.59,298.43 184.66,310.33 184.66,314.06 172.59,302.17 										"/>
									</g>
								</g>
							</g>
							<g>
								
									<rect x="153.07" y="292.17" transform="matrix(-1 -4.158508e-11 4.158508e-11 -1 320.7933 610.0325)" class="st17" width="14.65" height="25.69"/>
								<g>
									
										<rect x="154.39" y="293.55" transform="matrix(-1 -4.142654e-11 4.142654e-11 -1 320.8562 610.0731)" class="st18" width="12.07" height="22.97"/>
									<g>
										<polygon class="st19" points="163.23,293.55 166.47,296.74 166.47,299.07 160.87,293.55 										"/>
										<polygon class="st19" points="154.39,303.53 166.47,315.43 166.47,316.52 165.9,316.52 154.39,305.18 										"/>
										<polygon class="st19" points="159.83,293.55 166.47,300.09 166.47,303.22 156.66,293.55 										"/>
										<polygon class="st19" points="154.39,309.5 161.52,316.52 158.34,316.52 154.39,312.63 										"/>
										<polygon class="st19" points="154.39,298.43 166.47,310.33 166.47,314.06 154.39,302.17 										"/>
									</g>
								</g>
							</g>
						</g>
					</g>
				</g>
				<g>
					
						<rect x="339.73" y="166.22" transform="matrix(-1 -4.492729e-11 4.492729e-11 -1 739.5803 491.0298)" class="st1" width="60.12" height="158.58"/>
					
						<rect x="335.23" y="160.44" transform="matrix(-1 -4.486956e-11 4.486956e-11 -1 739.6661 328.8936)" class="st16" width="69.2" height="8.02"/>
					<g>
						
							<rect x="338.16" y="184.1" transform="matrix(-1 -4.490775e-11 4.490775e-11 -1 739.6257 370.5585)" class="st16" width="63.31" height="2.36"/>
						<g>
							<g>
								
									<rect x="371.72" y="171.12" transform="matrix(-1 -4.483626e-11 4.483626e-11 -1 767.5881 353.65)" class="st16" width="24.14" height="11.42"/>
								<g>
									
										<rect x="373.03" y="172.3" transform="matrix(-1 -4.488111e-11 4.488111e-11 -1 767.6669 353.5804)" class="st18" width="21.6" height="8.98"/>
									<g>
										<g>
											<g>
												<polygon class="st19" points="391.91,172.3 394.63,175.23 394.63,177.34 389.95,172.3 												"/>
											</g>
											<g>
												<polygon class="st19" points="376.3,172.3 384.65,181.28 382.69,181.28 374.34,172.3 												"/>
											</g>
											<g>
												<polygon class="st19" points="373.03,172.3 373.27,172.3 381.62,181.28 378.71,181.28 373.03,175.17 												"/>
											</g>
											<g>
												<polygon class="st19" points="384.44,172.3 392.79,181.28 390.83,181.28 382.48,172.3 												"/>
											</g>
											<g>
												<polygon class="st19" points="388.97,172.3 394.63,178.39 394.63,181.28 393.81,181.28 385.46,172.3 												"/>
											</g>
										</g>
									</g>
								</g>
							</g>
							<g>
								
									<rect x="343.74" y="171.12" transform="matrix(-1 -4.498725e-11 4.498725e-11 -1 711.6212 353.65)" class="st16" width="24.14" height="11.42"/>
								<g>
									
										<rect x="345.05" y="172.3" transform="matrix(-1 -4.488111e-11 4.488111e-11 -1 711.6999 353.5804)" class="st18" width="21.6" height="8.98"/>
									<g>
										<g>
											<g>
												<polygon class="st19" points="363.93,172.3 366.65,175.23 366.65,177.34 361.97,172.3 												"/>
											</g>
											<g>
												<polygon class="st19" points="348.32,172.3 356.67,181.28 354.71,181.28 346.36,172.3 												"/>
											</g>
											<g>
												<polygon class="st19" points="345.05,172.3 345.28,172.3 353.64,181.28 350.73,181.28 345.05,175.17 												"/>
											</g>
											<g>
												<polygon class="st19" points="356.46,172.3 364.81,181.28 362.85,181.28 354.5,172.3 												"/>
											</g>
											<g>
												<polygon class="st19" points="360.99,172.3 366.65,178.39 366.65,181.28 365.83,181.28 357.48,172.3 												"/>
											</g>
										</g>
									</g>
								</g>
							</g>
						</g>
					</g>
					<g>
						
							<rect x="338.22" y="202.14" transform="matrix(-1 -4.490775e-11 4.490775e-11 -1 739.7518 406.6488)" class="st16" width="63.31" height="2.36"/>
						<g>
							<g>
								
									<rect x="371.79" y="189.16" transform="matrix(-1 -4.483626e-11 4.483626e-11 -1 767.7142 389.7403)" class="st16" width="24.14" height="11.42"/>
								<g>
									
										<rect x="373.1" y="190.34" transform="matrix(-1 -4.488111e-11 4.488111e-11 -1 767.793 389.6707)" class="st18" width="21.6" height="8.98"/>
									<g>
										<g>
											<g>
												<polygon class="st19" points="391.97,190.34 394.7,193.28 394.7,195.38 390.02,190.34 												"/>
											</g>
											<g>
												<polygon class="st19" points="376.36,190.34 384.71,199.33 382.76,199.33 374.41,190.34 												"/>
											</g>
											<g>
												<polygon class="st19" points="373.1,190.34 373.33,190.34 381.68,199.33 378.78,199.33 373.1,193.22 												"/>
											</g>
											<g>
												<polygon class="st19" points="384.5,190.34 392.85,199.33 390.9,199.33 382.54,190.34 												"/>
											</g>
											<g>
												<polygon class="st19" points="389.04,190.34 394.7,196.43 394.7,199.33 393.88,199.33 385.52,190.34 												"/>
											</g>
										</g>
									</g>
								</g>
							</g>
							<g>
								
									<rect x="343.8" y="189.16" transform="matrix(-1 -4.491175e-11 4.491175e-11 -1 711.7472 389.7403)" class="st16" width="24.14" height="11.42"/>
								<g>
									
										<rect x="345.11" y="190.34" transform="matrix(-1 -4.488111e-11 4.488111e-11 -1 711.826 389.6707)" class="st18" width="21.6" height="8.98"/>
									<g>
										<g>
											<g>
												<polygon class="st19" points="363.99,190.34 366.71,193.28 366.71,195.38 362.03,190.34 												"/>
											</g>
											<g>
												<polygon class="st19" points="348.38,190.34 356.73,199.33 354.77,199.33 346.42,190.34 												"/>
											</g>
											<g>
												<polygon class="st19" points="345.11,190.34 345.35,190.34 353.7,199.33 350.79,199.33 345.11,193.22 												"/>
											</g>
											<g>
												<polygon class="st19" points="356.52,190.34 364.87,199.33 362.91,199.33 354.56,190.34 												"/>
											</g>
											<g>
												<polygon class="st19" points="361.05,190.34 366.71,196.43 366.71,199.33 365.89,199.33 357.54,190.34 												"/>
											</g>
										</g>
									</g>
								</g>
							</g>
						</g>
					</g>
					<g>
						
							<rect x="338.28" y="220.19" transform="matrix(-1 -4.485047e-11 4.485047e-11 -1 739.8779 442.7391)" class="st16" width="63.31" height="2.36"/>
						<g>
							<g>
								
									<rect x="371.85" y="207.21" transform="matrix(-1 -4.513779e-11 4.513779e-11 -1 767.8402 425.8306)" class="st16" width="24.14" height="11.42"/>
								<g>
									
										<rect x="373.16" y="208.39" transform="matrix(-1 -4.488111e-11 4.488111e-11 -1 767.919 425.761)" class="st18" width="21.6" height="8.98"/>
									<g>
										<g>
											<g>
												<polygon class="st19" points="392.04,208.39 394.76,211.32 394.76,213.43 390.08,208.39 												"/>
											</g>
											<g>
												<polygon class="st19" points="376.43,208.39 384.78,217.37 382.82,217.37 374.47,208.39 												"/>
											</g>
											<g>
												<polygon class="st19" points="373.16,208.39 373.39,208.39 381.74,217.37 378.84,217.37 373.16,211.26 												"/>
											</g>
											<g>
												<polygon class="st19" points="384.57,208.39 392.92,217.37 390.96,217.37 382.61,208.39 												"/>
											</g>
											<g>
												<polygon class="st19" points="389.1,208.39 394.76,214.48 394.76,217.37 393.94,217.37 385.59,208.39 												"/>
											</g>
										</g>
									</g>
								</g>
							</g>
							<g>
								
									<rect x="343.87" y="207.21" transform="matrix(-1 -4.476121e-11 4.476121e-11 -1 711.8732 425.8306)" class="st16" width="24.14" height="11.42"/>
								<g>
									
										<rect x="345.17" y="208.39" transform="matrix(-1 -4.488111e-11 4.488111e-11 -1 711.952 425.761)" class="st18" width="21.6" height="8.98"/>
									<g>
										<g>
											<g>
												<polygon class="st19" points="364.05,208.39 366.78,211.32 366.78,213.43 362.09,208.39 												"/>
											</g>
											<g>
												<polygon class="st19" points="348.44,208.39 356.79,217.37 354.84,217.37 346.49,208.39 												"/>
											</g>
											<g>
												<polygon class="st19" points="345.17,208.39 345.41,208.39 353.76,217.37 350.85,217.37 345.17,211.26 												"/>
											</g>
											<g>
												<polygon class="st19" points="356.58,208.39 364.93,217.37 362.97,217.37 354.62,208.39 												"/>
											</g>
											<g>
												<polygon class="st19" points="361.12,208.39 366.78,214.48 366.78,217.37 365.95,217.37 357.6,208.39 												"/>
											</g>
										</g>
									</g>
								</g>
							</g>
						</g>
					</g>
					<g>
						
							<rect x="338.35" y="238.23" transform="matrix(-1 -4.487889e-11 4.487889e-11 -1 740.0039 478.8294)" class="st16" width="63.31" height="2.36"/>
						<g>
							<g>
								
									<rect x="371.91" y="225.25" transform="matrix(-1 -4.468571e-11 4.468571e-11 -1 767.9663 461.9209)" class="st16" width="24.14" height="11.42"/>
								<g>
									
										<rect x="373.22" y="226.44" transform="matrix(-1 -4.488111e-11 4.488111e-11 -1 768.045 461.8512)" class="st18" width="21.6" height="8.98"/>
									<g>
										<g>
											<g>
												<polygon class="st19" points="392.1,226.44 394.82,229.37 394.82,231.47 390.14,226.44 												"/>
											</g>
											<g>
												<polygon class="st19" points="376.49,226.44 384.84,235.42 382.88,235.42 374.53,226.44 												"/>
											</g>
											<g>
												<polygon class="st19" points="373.22,226.44 373.46,226.44 381.81,235.42 378.9,235.42 373.22,229.31 												"/>
											</g>
											<g>
												<polygon class="st19" points="384.63,226.44 392.98,235.42 391.02,235.42 382.67,226.44 												"/>
											</g>
											<g>
												<polygon class="st19" points="389.16,226.44 394.82,232.52 394.82,235.42 394,235.42 385.65,226.44 												"/>
											</g>
										</g>
									</g>
								</g>
							</g>
							<g>
								
									<rect x="343.93" y="225.25" transform="matrix(-1 -4.468571e-11 4.468571e-11 -1 711.9993 461.9209)" class="st16" width="24.14" height="11.42"/>
								<g>
									
										<rect x="345.24" y="226.44" transform="matrix(-1 -4.538604e-11 4.538604e-11 -1 712.0781 461.8512)" class="st18" width="21.6" height="8.98"/>
									<g>
										<g>
											<g>
												<polygon class="st19" points="364.12,226.44 366.84,229.37 366.84,231.47 362.16,226.44 												"/>
											</g>
											<g>
												<polygon class="st19" points="348.51,226.44 356.86,235.42 354.9,235.42 346.55,226.44 												"/>
											</g>
											<g>
												<polygon class="st19" points="345.24,226.44 345.47,226.44 353.82,235.42 350.92,235.42 345.24,229.31 												"/>
											</g>
											<g>
												<polygon class="st19" points="356.64,226.44 365,235.42 363.04,235.42 354.69,226.44 												"/>
											</g>
											<g>
												<polygon class="st19" points="361.18,226.44 366.84,232.52 366.84,235.42 366.02,235.42 357.67,226.44 												"/>
											</g>
										</g>
									</g>
								</g>
							</g>
						</g>
					</g>
					<g>
						
							<rect x="338.41" y="256.28" transform="matrix(-1 -4.485047e-11 4.485047e-11 -1 740.1299 514.9197)" class="st16" width="63.31" height="2.36"/>
						<g>
							<g>
								
									<rect x="371.98" y="243.3" transform="matrix(-1 -4.521329e-11 4.521329e-11 -1 768.0923 498.0112)" class="st16" width="24.14" height="11.42"/>
								<g>
									
										<rect x="373.28" y="244.48" transform="matrix(-1 -4.488111e-11 4.488111e-11 -1 768.1711 497.9415)" class="st18" width="21.6" height="8.98"/>
									<g>
										<g>
											<g>
												<polygon class="st19" points="392.16,244.48 394.89,247.41 394.89,249.52 390.2,244.48 												"/>
											</g>
											<g>
												<polygon class="st19" points="376.55,244.48 384.9,253.46 382.95,253.46 374.59,244.48 												"/>
											</g>
											<g>
												<polygon class="st19" points="373.28,244.48 373.52,244.48 381.87,253.46 378.96,253.46 373.28,247.35 												"/>
											</g>
											<g>
												<polygon class="st19" points="384.69,244.48 393.04,253.46 391.08,253.46 382.73,244.48 												"/>
											</g>
											<g>
												<polygon class="st19" points="389.23,244.48 394.89,250.57 394.89,253.46 394.06,253.46 385.71,244.48 												"/>
											</g>
										</g>
									</g>
								</g>
							</g>
							<g>
								
									<rect x="343.99" y="243.3" transform="matrix(-1 -4.476121e-11 4.476121e-11 -1 712.1254 498.0112)" class="st16" width="24.14" height="11.42"/>
								<g>
									
										<rect x="345.3" y="244.48" transform="matrix(-1 -4.488111e-11 4.488111e-11 -1 712.2041 497.9415)" class="st18" width="21.6" height="8.98"/>
									<g>
										<g>
											<g>
												<polygon class="st19" points="364.18,244.48 366.9,247.41 366.9,249.52 362.22,244.48 												"/>
											</g>
											<g>
												<polygon class="st19" points="348.57,244.48 356.92,253.46 354.96,253.46 346.61,244.48 												"/>
											</g>
											<g>
												<polygon class="st19" points="345.3,244.48 345.54,244.48 353.89,253.46 350.98,253.46 345.3,247.35 												"/>
											</g>
											<g>
												<polygon class="st19" points="356.71,244.48 365.06,253.46 363.1,253.46 354.75,244.48 												"/>
											</g>
											<g>
												<polygon class="st19" points="361.24,244.48 366.9,250.57 366.9,253.46 366.08,253.46 357.73,244.48 												"/>
											</g>
										</g>
									</g>
								</g>
							</g>
						</g>
					</g>
					<g>
						
							<rect x="338.47" y="274.32" transform="matrix(-1 -4.499391e-11 4.499391e-11 -1 740.256 551.01)" class="st17" width="63.31" height="2.36"/>
						<g>
							<g>
								
									<rect x="372.04" y="261.34" transform="matrix(-1 -4.513779e-11 4.513779e-11 -1 768.2184 534.1014)" class="st16" width="24.14" height="11.42"/>
								<g>
									
										<rect x="373.35" y="262.53" transform="matrix(-1 -4.488111e-11 4.488111e-11 -1 768.2972 534.0319)" class="st18" width="21.6" height="8.98"/>
									<g>
										<g>
											<g>
												<polygon class="st19" points="392.22,262.53 394.95,265.46 394.95,267.56 390.27,262.53 												"/>
											</g>
											<g>
												<polygon class="st19" points="376.62,262.53 384.97,271.51 383.01,271.51 374.66,262.53 												"/>
											</g>
											<g>
												<polygon class="st19" points="373.35,262.53 373.58,262.53 381.93,271.51 379.03,271.51 373.35,265.4 												"/>
											</g>
											<g>
												<polygon class="st19" points="384.75,262.53 393.11,271.51 391.15,271.51 382.8,262.53 												"/>
											</g>
											<g>
												<polygon class="st19" points="389.29,262.53 394.95,268.61 394.95,271.51 394.13,271.51 385.78,262.53 												"/>
											</g>
										</g>
									</g>
								</g>
							</g>
							<g>
								
									<rect x="344.06" y="261.34" transform="matrix(-1 -4.468571e-11 4.468571e-11 -1 712.2514 534.1014)" class="st16" width="24.14" height="11.42"/>
								<g>
									
										<rect x="345.36" y="262.53" transform="matrix(-1 -4.488111e-11 4.488111e-11 -1 712.3302 534.0319)" class="st18" width="21.6" height="8.98"/>
									<g>
										<g>
											<g>
												<polygon class="st19" points="364.24,262.53 366.97,265.46 366.97,267.56 362.28,262.53 												"/>
											</g>
											<g>
												<polygon class="st19" points="348.63,262.53 356.98,271.51 355.02,271.51 346.67,262.53 												"/>
											</g>
											<g>
												<polygon class="st19" points="345.36,262.53 345.6,262.53 353.95,271.51 351.04,271.51 345.36,265.4 												"/>
											</g>
											<g>
												<polygon class="st19" points="356.77,262.53 365.12,271.51 363.16,271.51 354.81,262.53 												"/>
											</g>
											<g>
												<polygon class="st19" points="361.3,262.53 366.97,268.61 366.97,271.51 366.14,271.51 357.79,262.53 												"/>
											</g>
										</g>
									</g>
								</g>
							</g>
						</g>
					</g>
					<g>
						
							<rect x="338.54" y="292.37" transform="matrix(-1 -4.487889e-11 4.487889e-11 -1 740.3821 587.1003)" class="st17" width="63.31" height="2.36"/>
						<g>
							<g>
								
									<rect x="372.1" y="279.39" transform="matrix(-1 -4.521329e-11 4.521329e-11 -1 768.3444 570.1918)" class="st17" width="24.14" height="11.42"/>
								<g>
									
										<rect x="373.41" y="280.57" transform="matrix(-1 -4.488111e-11 4.488111e-11 -1 768.4232 570.1221)" class="st18" width="21.6" height="8.98"/>
									<g>
										<g>
											<g>
												<polygon class="st19" points="392.29,280.57 395.01,283.5 395.01,285.61 390.33,280.57 												"/>
											</g>
											<g>
												<polygon class="st19" points="376.68,280.57 385.03,289.55 383.07,289.55 374.72,280.57 												"/>
											</g>
											<g>
												<polygon class="st19" points="373.41,280.57 373.65,280.57 382,289.55 379.09,289.55 373.41,283.44 												"/>
											</g>
											<g>
												<polygon class="st19" points="384.82,280.57 393.17,289.55 391.21,289.55 382.86,280.57 												"/>
											</g>
											<g>
												<polygon class="st19" points="389.35,280.57 395.01,286.66 395.01,289.55 394.19,289.55 385.84,280.57 												"/>
											</g>
										</g>
									</g>
								</g>
							</g>
							<g>
								
									<rect x="344.12" y="279.39" transform="matrix(-1 -4.476121e-11 4.476121e-11 -1 712.3774 570.1918)" class="st17" width="24.14" height="11.42"/>
								<g>
									
										<rect x="345.43" y="280.57" transform="matrix(-1 -4.488111e-11 4.488111e-11 -1 712.4562 570.1221)" class="st18" width="21.6" height="8.98"/>
									<g>
										<g>
											<g>
												<polygon class="st19" points="364.3,280.57 367.03,283.5 367.03,285.61 362.35,280.57 												"/>
											</g>
											<g>
												<polygon class="st19" points="348.69,280.57 357.05,289.55 355.09,289.55 346.74,280.57 												"/>
											</g>
											<g>
												<polygon class="st19" points="345.43,280.57 345.66,280.57 354.01,289.55 351.11,289.55 345.43,283.44 												"/>
											</g>
											<g>
												<polygon class="st19" points="356.83,280.57 365.18,289.55 363.23,289.55 354.88,280.57 												"/>
											</g>
											<g>
												<polygon class="st19" points="361.37,280.57 367.03,286.66 367.03,289.55 366.21,289.55 357.86,280.57 												"/>
											</g>
										</g>
									</g>
								</g>
							</g>
						</g>
					</g>
					<g>
						
							<rect x="338.6" y="310.41" transform="matrix(-1 -4.502277e-11 4.502277e-11 -1 740.5081 623.1906)" class="st17" width="63.31" height="2.36"/>
						<g>
							<g>
								
									<rect x="372.17" y="297.43" transform="matrix(-1 -4.468571e-11 4.468571e-11 -1 768.4705 606.282)" class="st17" width="24.14" height="11.42"/>
								<g>
									
										<rect x="373.47" y="298.62" transform="matrix(-1 -4.496504e-11 4.496504e-11 -1 768.5493 606.2125)" class="st18" width="21.6" height="8.98"/>
									<g>
										<g>
											<g>
												<polygon class="st19" points="392.35,298.62 395.08,301.55 395.08,303.65 390.39,298.62 												"/>
											</g>
											<g>
												<polygon class="st19" points="376.74,298.62 385.09,307.6 383.13,307.6 374.78,298.62 												"/>
											</g>
											<g>
												<polygon class="st19" points="373.47,298.62 373.71,298.62 382.06,307.6 379.15,307.6 373.47,301.49 												"/>
											</g>
											<g>
												<polygon class="st19" points="384.88,298.62 393.23,307.6 391.27,307.6 382.92,298.62 												"/>
											</g>
											<g>
												<polygon class="st19" points="389.41,298.62 395.08,304.7 395.08,307.6 394.25,307.6 385.9,298.62 												"/>
											</g>
										</g>
									</g>
								</g>
							</g>
							<g>
								
									<rect x="344.18" y="297.43" transform="matrix(-1 -4.476121e-11 4.476121e-11 -1 712.5035 606.282)" class="st17" width="24.14" height="11.42"/>
								<g>
									
										<rect x="345.49" y="298.62" transform="matrix(-1 -4.488111e-11 4.488111e-11 -1 712.5823 606.2125)" class="st18" width="21.6" height="8.98"/>
									<g>
										<g>
											<g>
												<polygon class="st19" points="364.37,298.62 367.09,301.55 367.09,303.65 362.41,298.62 												"/>
											</g>
											<g>
												<polygon class="st19" points="348.76,298.62 357.11,307.6 355.15,307.6 346.8,298.62 												"/>
											</g>
											<g>
												<polygon class="st19" points="345.49,298.62 345.73,298.62 354.08,307.6 351.17,307.6 345.49,301.49 												"/>
											</g>
											<g>
												<polygon class="st19" points="356.9,298.62 365.25,307.6 363.29,307.6 354.94,298.62 												"/>
											</g>
											<g>
												<polygon class="st19" points="361.43,298.62 367.09,304.7 367.09,307.6 366.27,307.6 357.92,298.62 												"/>
											</g>
										</g>
									</g>
								</g>
							</g>
						</g>
					</g>
				</g>
			</g>
			<g>
				<g>
					<g>
						<g>
							<g>
								<polygon class="st1" points="198.94,288.56 127.07,288.56 136.65,274.42 188.82,274.71 								"/>
								<polygon class="st1" points="183.62,288.57 142.4,288.57 163.02,268.57 								"/>
							</g>
							<g>
								<rect x="127.07" y="288.52" class="st20" width="71.92" height="36.35"/>
								<g>
									<rect x="145.73" y="288.48" class="st16" width="34.55" height="36.39"/>
									<polygon class="st16" points="183.46,291.99 142.25,291.99 162.86,271.99 									"/>
								</g>
							</g>
						</g>
						<g>
							<g>
								<polygon class="st1" points="169.9,294.53 156.16,294.53 163.03,286.37 								"/>
								<polygon class="st18" points="167.39,293.48 158.67,293.48 163.03,288.3 								"/>
							</g>
							<rect x="156.8" y="300.41" class="st1" width="12.41" height="23.02"/>
							<g>
								
									<rect x="129.38" y="300.39" transform="matrix(-1 -2.581814e-11 2.581814e-11 -1 273.0631 616.2837)" class="st1" width="14.3" height="15.51"/>
								<g>
									
										<rect x="130.67" y="301.74" transform="matrix(-1 -2.284274e-11 2.284274e-11 -1 273.1245 616.0801)" class="st18" width="11.79" height="12.61"/>
									<g>
										<g>
											<polygon class="st19" points="139.3,301.74 142.45,304.85 142.45,307.12 136.99,301.74 											"/>
											<polygon class="st19" points="135.98,301.74 142.45,308.12 142.45,311.17 132.88,301.74 											"/>
										</g>
										<g>
											<polygon class="st18" points="130.67,314.35 131.95,314.35 130.67,313.08 											"/>
											<polygon class="st19" points="130.67,313.08 131.95,314.35 133.58,314.35 130.67,311.48 											"/>
											<polygon class="st19" points="130.67,310.14 134.93,314.35 138.63,314.35 130.67,306.5 											"/>
										</g>
									</g>
								</g>
							</g>
							<g>
								
									<rect x="182.51" y="300.39" transform="matrix(-1 -2.581814e-11 2.581814e-11 -1 379.3143 616.2947)" class="st1" width="14.3" height="15.51"/>
								<g>
									
										<rect x="183.8" y="301.74" transform="matrix(-1 -2.299728e-11 2.299728e-11 -1 379.3757 616.091)" class="st18" width="11.79" height="12.61"/>
									<g>
										<g>
											<polygon class="st19" points="192.42,301.74 195.58,304.85 195.58,307.12 190.12,301.74 											"/>
											<polygon class="st19" points="189.1,301.74 195.58,308.12 195.58,311.17 186.01,301.74 											"/>
										</g>
										<g>
											<polygon class="st18" points="183.8,314.35 185.08,314.35 183.8,313.09 											"/>
											<polygon class="st19" points="183.8,313.09 185.08,314.35 186.71,314.35 183.8,311.48 											"/>
											<polygon class="st19" points="183.8,310.15 188.06,314.35 191.76,314.35 183.8,306.51 											"/>
										</g>
									</g>
								</g>
							</g>
						</g>
					</g>
					<polygon class="st21" points="127.07,288.52 127.15,293.88 147.44,290.59 163.11,277.51 180.29,292.05 199.39,292.86 
						198.99,288.52 180.29,288.48 162.86,271.99 145.78,288.56 					"/>
				</g>
				<g>
					<g>
						<g>
							<polygon class="st1" points="343.19,288.71 414.63,288.71 405.11,272.85 356.99,272.85 							"/>
							<polygon class="st1" points="381.96,288.71 422.93,288.71 402.44,268.84 							"/>
						</g>
						<g>
							
								<rect x="343.14" y="288.67" transform="matrix(-1 -4.491175e-11 4.491175e-11 -1 757.7731 613.4721)" class="st20" width="71.49" height="36.13"/>
							<g>
								<g>
									<g>
										<rect x="385.27" y="288.63" class="st16" width="34.35" height="36.18"/>
									</g>
									<g>
										<g>
											<polygon class="st16" points="402.6,272.24 419.58,288.71 385.62,288.71 											"/>
										</g>
									</g>
								</g>
							</g>
						</g>
					</g>
					<g>
						<g>
							<g>
								<circle class="st1" cx="373.73" cy="307.08" r="6.6"/>
								<g>
									<circle class="st18" cx="373.73" cy="307.07" r="5.47"/>
									<g>
										<g>
											<g>
												<path class="st19" d="M377.32,302.95l-7.71,7.71c-0.44-0.51-0.79-1.1-1.03-1.75l6.99-6.99
													C376.22,302.15,376.82,302.5,377.32,302.95z"/>
											</g>
											<g>
												<path class="st19" d="M368.26,307.07c0-0.25,0.02-0.5,0.06-0.74l4.68-4.68c0.24-0.03,0.49-0.06,0.74-0.06
													c0.37,0,0.74,0.04,1.09,0.11l-6.45,6.45C368.3,307.81,368.26,307.44,368.26,307.07z"/>
											</g>
											<g>
												<path class="st19" d="M379.18,306.62l-5.9,5.9c-0.54-0.04-1.05-0.16-1.53-0.35l7.08-7.08
													C379.02,305.57,379.14,306.09,379.18,306.62z"/>
											</g>
										</g>
									</g>
								</g>
							</g>
							<g>
								<circle class="st1" cx="353.7" cy="307.08" r="6.6"/>
								<g>
									<circle class="st18" cx="353.7" cy="307.06" r="5.47"/>
									<g>
										<g>
											<g>
												<path class="st19" d="M357.3,302.94l-7.71,7.71c-0.44-0.51-0.79-1.1-1.03-1.75l6.99-6.99
													C356.19,302.15,356.79,302.5,357.3,302.94z"/>
											</g>
											<g>
												<path class="st19" d="M348.23,307.06c0-0.25,0.02-0.5,0.06-0.74l4.68-4.68c0.24-0.03,0.49-0.06,0.74-0.06
													c0.37,0,0.74,0.04,1.09,0.11l-6.45,6.45C348.27,307.8,348.23,307.44,348.23,307.06z"/>
											</g>
											<g>
												<path class="st19" d="M359.15,306.61l-5.9,5.9c-0.54-0.04-1.05-0.16-1.53-0.35l7.08-7.08
													C358.99,305.57,359.11,306.08,359.15,306.61z"/>
											</g>
										</g>
									</g>
								</g>
							</g>
						</g>
						<g>
							
								<rect x="396.28" y="300.48" transform="matrix(-1 -4.541757e-11 4.541757e-11 -1 804.8922 623.8462)" class="st1" width="12.34" height="22.88"/>
							<g>
								<circle class="st1" cx="402.48" cy="289.67" r="5.92"/>
								<g>
									<circle class="st18" cx="402.48" cy="289.65" r="4.91"/>
									<g>
										<g>
											<g>
												<path class="st19" d="M405.7,285.96l-6.92,6.92c-0.4-0.46-0.71-0.99-0.92-1.57l6.27-6.27
													C404.71,285.24,405.24,285.56,405.7,285.96z"/>
											</g>
											<g>
												<path class="st19" d="M397.57,289.65c0-0.23,0.02-0.45,0.05-0.66l4.2-4.2c0.22-0.03,0.44-0.05,0.66-0.05
													c0.33,0,0.66,0.03,0.97,0.1l-5.79,5.79C397.6,290.31,397.57,289.99,397.57,289.65z"/>
											</g>
											<g>
												<path class="st19" d="M407.37,289.25l-5.29,5.29c-0.48-0.04-0.94-0.15-1.37-0.31l6.35-6.35
													C407.22,288.31,407.33,288.77,407.37,289.25z"/>
											</g>
										</g>
									</g>
								</g>
							</g>
						</g>
					</g>
				</g>
			</g>
		</g>
		<g>
			<g>
				<g>
					<path class="st1" d="M337.42,324.86H212.04c-9.23,0-16.71-7.48-16.71-16.71V114.31c0-9.23,7.48-16.71,16.71-16.71h125.38
						c9.23,0,16.71,7.48,16.71,16.71v193.85C354.13,317.39,346.65,324.86,337.42,324.86z"/>
					<path class="st19" d="M337.91,317.3H211.62c-5.13,0-9.28-4.16-9.28-9.28V114.44c0-5.13,4.16-9.28,9.28-9.28h126.29
						c5.13,0,9.28,4.16,9.28,9.28v193.58C347.19,313.14,343.03,317.3,337.91,317.3z"/>
				</g>
				<g>
					<g>
						<path class="st16" d="M265.75,307.02h-48.53c-3.98,0-7.2-3.22-7.2-7.2V257.9c0-3.98,3.22-7.2,7.2-7.2h48.53
							c3.98,0,7.2,3.22,7.2,7.2v41.91C272.95,303.79,269.73,307.02,265.75,307.02z"/>
						<g>
							<path class="st19" d="M234.1,302.09h-15.94c-1.67,0-3.03-1.36-3.03-3.03V258.8c0-1.67,1.36-3.03,3.03-3.03h15.94
								c1.67,0,3.03,1.36,3.03,3.03v40.26C237.13,300.73,235.77,302.09,234.1,302.09z"/>
							<g>
								<g>
									<rect x="241.9" y="262.49" class="st19" width="25.08" height="3.28"/>
									<rect x="241.9" y="267.68" class="st19" width="18" height="3.28"/>
									<rect x="241.9" y="272.87" class="st19" width="21" height="3.28"/>
								</g>
								<g>
									<rect x="241.9" y="283.24" class="st19" width="25.08" height="3.28"/>
									<rect x="241.9" y="288.43" class="st19" width="18.82" height="3.28"/>
									<rect x="241.9" y="293.62" class="st19" width="22.54" height="3.28"/>
									<rect x="241.9" y="298.81" class="st19" width="12.92" height="3.28"/>
								</g>
							</g>
						</g>
					</g>
					<g>
						<path class="st16" d="M332.6,279.5h-48.53c-3.98,0-7.2-3.22-7.2-7.2v-14.42c0-3.98,3.22-7.2,7.2-7.2h48.53
							c3.98,0,7.2,3.22,7.2,7.2v14.42C339.8,276.27,336.58,279.5,332.6,279.5z"/>
						<g>
							<g>
								<rect x="281.3" y="256.29" class="st19" width="48.05" height="3.28"/>
								<rect x="281.3" y="261.48" class="st19" width="34.49" height="3.28"/>
							</g>
							<g>
								<polygon class="st19" points="284.06,270.49 285.18,268.13 286.51,270.42 289.11,270.62 287.23,272.62 287.85,275.29 
									285.42,273.81 283.15,275.29 283.46,272.66 281.26,270.75 								"/>
								<polygon class="st19" points="295.75,270.51 296.87,268.15 298.21,270.43 300.8,270.63 298.92,272.63 299.55,275.3 
									297.11,273.82 294.85,275.3 295.16,272.68 292.96,270.76 								"/>
								<polygon class="st19" points="307.45,270.49 308.57,268.13 309.9,270.42 312.5,270.62 310.62,272.62 311.24,275.29 
									308.81,273.81 306.54,275.29 306.85,272.67 304.65,270.75 								"/>
								<polygon class="st19" points="319.15,270.49 320.27,268.13 321.61,270.42 324.2,270.62 322.32,272.62 322.94,275.29 
									320.51,273.81 318.25,275.29 318.56,272.66 316.36,270.75 								"/>
								<polygon class="st19" points="330.84,270.49 331.96,268.13 333.3,270.42 335.9,270.62 334.02,272.61 334.64,275.28 
									332.2,273.8 329.94,275.28 330.25,272.66 328.05,270.74 								"/>
							</g>
						</g>
					</g>
					<g>
						<path class="st16" d="M332.61,307.01h-48.53c-3.98,0-7.2-3.22-7.2-7.2v-6.72c0-3.98,3.22-7.2,7.2-7.2h48.53
							c3.98,0,7.2,3.22,7.2,7.2v6.72C339.82,303.79,336.59,307.01,332.61,307.01z"/>
						<g>
							<g>
								<g>
									<path class="st19" d="M286.86,299.41l0.97-1.15c0.53,0.46,1.21,0.78,1.83,0.78c0.7,0,1.05-0.28,1.05-0.72
										c0-0.47-0.42-0.62-1.07-0.89l-0.97-0.41c-0.77-0.31-1.5-0.95-1.5-2.03c0-1.23,1.1-2.22,2.65-2.22
										c0.86,0,1.75,0.34,2.39,0.98l-0.85,1.06c-0.49-0.38-0.96-0.58-1.54-0.58c-0.58,0-0.95,0.24-0.95,0.67
										c0,0.46,0.49,0.62,1.14,0.88l0.95,0.38c0.91,0.37,1.48,0.97,1.48,2.02c0,1.24-1.03,2.31-2.8,2.31
										C288.64,300.48,287.62,300.11,286.86,299.41z"/>
									<path class="st19" d="M294.25,292.91h4.66v1.41h-2.98v1.49h2.54v1.41h-2.54v1.71h3.09v1.41h-4.78V292.91z"/>
									<path class="st19" d="M302.46,292.91h2.01l2.34,7.44h-1.78l-0.97-3.77c-0.21-0.74-0.41-1.62-0.6-2.4h-0.05
										c-0.18,0.79-0.38,1.66-0.58,2.4l-0.98,3.77h-1.72L302.46,292.91z M301.67,297.26h3.58v1.31h-3.58V297.26z"/>
									<path class="st19" d="M308.19,292.91h2.68c1.58,0,2.87,0.55,2.87,2.32c0,1.71-1.29,2.45-2.87,2.45h-1v2.68h-1.68V292.91z
										 M310.73,296.33c0.88,0,1.36-0.38,1.36-1.11c0-0.74-0.48-0.98-1.36-0.98h-0.86v2.09H310.73z M310.56,297.22l1.16-1.08
										l2.37,4.2h-1.88L310.56,297.22z"/>
									<path class="st19" d="M315.4,296.67c0-2.47,1.63-3.9,3.51-3.9c0.96,0,1.74,0.45,2.24,0.97l-0.89,1.08
										c-0.37-0.35-0.77-0.59-1.31-0.59c-1.02,0-1.83,0.9-1.83,2.39c0,1.53,0.71,2.42,1.8,2.42c0.61,0,1.09-0.3,1.46-0.7
										l0.89,1.06c-0.62,0.72-1.44,1.09-2.4,1.09C316.97,300.48,315.4,299.17,315.4,296.67z"/>
									<path class="st19" d="M322.96,292.91h1.68v2.87h2.57v-2.87h1.68v7.44h-1.68v-3.11h-2.57v3.11h-1.68V292.91z"/>
								</g>
							</g>
						</g>
					</g>
					<g>
						<g>
							<rect x="209.61" y="114.75" class="st22" width="36.31" height="45.85"/>
							<g>
								<rect x="210.02" y="196.4" class="st22" width="21.41" height="45.85"/>
								<rect x="233.95" y="196.41" class="st22" width="21.41" height="45.85"/>
								<rect x="257.88" y="196.4" class="st22" width="21.41" height="45.85"/>
							</g>
							<rect x="269.34" y="114.67" class="st22" width="36.14" height="26.06"/>
							<rect x="286.37" y="196.43" class="st22" width="53.59" height="32.26"/>
							<rect x="286.37" y="230.45" class="st22" width="53.59" height="11.8"/>
							<rect x="312.53" y="114.67" class="st22" width="27.47" height="63.37"/>
							<rect x="312.5" y="179.48" class="st22" width="27.47" height="11.21"/>
							<rect x="269.33" y="142.37" class="st22" width="36.14" height="18.16"/>
							<rect x="209.53" y="166.68" class="st22" width="53.24" height="24"/>
							<rect x="264.21" y="166.68" class="st22" width="41.25" height="24"/>
							<rect x="248.52" y="114.72" class="st22" width="14.31" height="45.8"/>
						</g>
						<g>
							<g>
								<g>
									<g>
										<g>
											<circle class="st16" cx="285.81" cy="152.31" r="20.25"/>
										</g>
										<g>
											<polygon class="st16" points="295.84,168.27 275.61,168.27 285.73,181.14 											"/>
										</g>
									</g>
								</g>
								<g>
									<g>
										<rect x="274.33" y="148.72" class="st23" width="22.43" height="15.13"/>
										<polygon class="st23" points="299.81,150.68 271.64,150.68 285.73,137.49 										"/>
									</g>
									<g>
										<g>
											<rect x="286.61" y="152.08" class="st16" width="6.54" height="11.77"/>
											<rect x="277.17" y="152.08" class="st16" width="6.54" height="5.95"/>
										</g>
									</g>
								</g>
							</g>
							<g>
								<g>
									<circle class="st16" cx="220.38" cy="214.63" r="8.21"/>
									<polygon class="st16" points="224.45,221.1 216.24,221.1 220.35,226.32 									"/>
								</g>
								<g>
									<g>
										<rect x="215.72" y="213.17" class="st23" width="9.1" height="6.13"/>
										<polygon class="st23" points="226.05,213.97 214.63,213.97 220.34,208.62 										"/>
									</g>
									<g>
										<rect x="220.7" y="214.53" class="st16" width="2.65" height="4.77"/>
										<rect x="216.87" y="214.53" class="st16" width="2.65" height="2.41"/>
									</g>
								</g>
							</g>
							<g>
								<g>
									<circle class="st16" cx="314.05" cy="210.48" r="8.21"/>
									<polygon class="st16" points="318.12,216.95 309.91,216.95 314.02,222.17 									"/>
								</g>
								<g>
									<g>
										<rect x="309.4" y="209.02" class="st23" width="9.1" height="6.13"/>
										<polygon class="st23" points="319.73,209.82 308.3,209.82 314.02,204.47 										"/>
									</g>
									<g>
										<rect x="314.37" y="210.38" class="st16" width="2.65" height="4.77"/>
										<rect x="310.55" y="210.38" class="st16" width="2.65" height="2.41"/>
									</g>
								</g>
							</g>
							<g>
								<g>
									<circle class="st16" cx="226.65" cy="132" r="8.21"/>
									<polygon class="st16" points="230.72,138.47 222.51,138.47 226.62,143.69 									"/>
								</g>
								<g>
									<g>
										<rect x="222" y="130.55" class="st23" width="9.1" height="6.13"/>
										<polygon class="st23" points="232.33,131.34 220.9,131.34 226.62,125.99 										"/>
									</g>
									<g>
										<g>
											<rect x="226.97" y="131.91" class="st16" width="2.65" height="4.77"/>
											<rect x="223.15" y="131.91" class="st16" width="2.65" height="2.41"/>
										</g>
									</g>
								</g>
							</g>
						</g>
					</g>
				</g>
			</g>
			<g>
				<path class="st1" d="M316.37,182.64c-15.64,17.85-42.88,19.65-60.73,4.02s-19.65-42.88-4.02-60.73s42.88-19.65,60.73-4.02
					S332,164.79,316.37,182.64z M257.18,130.8c-12.95,14.79-11.46,37.35,3.33,50.31s37.35,11.46,50.31-3.33
					c12.95-14.79,11.46-37.35-3.33-50.31C292.7,114.52,270.13,116.01,257.18,130.8z"/>
				<g>
					
						<rect x="325.09" y="171.55" transform="matrix(0.6589 -0.7522 0.7522 0.6589 -33.638 313.9716)" class="st1" width="8.57" height="45.06"/>
					<path class="st16" d="M388.93,242.58l-3.58,4.09c-2.48,2.84-6.79,3.12-9.63,0.64l-41.95-36.74c-2.84-2.48-3.12-6.79-0.64-9.63
						l3.58-4.09c2.48-2.84,6.79-3.12,9.63-0.64l41.95,36.74C391.13,235.43,391.41,239.74,388.93,242.58z"/>
				</g>
			</g>
		</g>
		<g>
			<g>
				<g>
					<g>
						<polygon class="st1" points="369.93,113.56 369.93,123.53 372.76,125.57 370.38,126.93 370.27,131.01 372.99,132.93 
							370.38,135.08 370.16,141.09 377.75,146.86 377.29,113.9 						"/>
						<circle class="st1" cx="373.84" cy="100.57" r="14.07"/>
					</g>
					<circle class="st24" cx="373.75" cy="92.49" r="4.13"/>
				</g>
				<g>
					<g>
						<polygon class="st1" points="170.84,151.59 167.59,142.17 164.25,141.16 166.06,139.1 164.84,135.21 161.64,134.28 
							163.4,131.39 161.66,125.64 152.61,122.65 163.76,153.67 						"/>
						<circle class="st1" cx="171.37" cy="165.16" r="14.07"/>
					</g>
					<circle class="st24" cx="174.08" cy="172.76" r="4.13"/>
				</g>
			</g>
		</g>
	</g>
	<path class="st1" d="M189.04,97.92c0.74-1.33,0.86-2.57,0.75-3.59c-0.21-1.86-1.35-3.5-3.03-4.33c-2.85-1.4-5.67,0.33-5.67,0.33
		c0.18-6.75-6.57-5.84-6.57-5.84c-7.83,1.27-7.17,6.03-7.17,6.03c-0.39-0.38-0.81-0.65-1.23-0.85c-1.09-0.53-2.35-0.61-3.52-0.27
		c-4.94,1.43-4.47,5.58-4.47,5.58c-5.48-0.3-5.97,4.82-5.97,4.82c-0.3,4.82,5.06,5.06,5.06,5.06c0.01,0.05,0.02,0.1,0.02,0.15
		c0.66,4.02,4.61,6.62,8.55,5.58c2.97-0.79,3.9-3.08,3.9-3.08c1.25,1.66,2.54,2.56,3.65,3.03c1.47,0.62,3.14,0.53,4.56-0.2
		c4.11-2.12,4.26-5.06,4.26-5.06c1.51,1.45,4.34,1.02,4.34,1.02c3.74-0.69,4.3-3.31,4.39-3.95c0.01-0.12,0.03-0.23,0.05-0.35
		C191.41,98.85,189.04,97.92,189.04,97.92z M189.36,103.27c-0.17,0.4-0.46,0.74-0.82,0.98c-1.2,0.8-4.14,2.14-6.86-1.36
		c-0.12-0.15-0.3-0.24-0.48-0.23c-0.32,0.02-0.68,0.32-0.36,1.77c0.01,0.04,0.01,0.08,0.01,0.12c0,0.55-0.14,4.45-5.12,5.12
		c0,0-3.34,0.35-5.52-3.53c-0.09-0.16-0.26-0.27-0.45-0.27h-0.01c-0.2,0-0.39,0.12-0.47,0.31c-0.43,0.98-2.08,3.9-6.21,3.49
		c0,0-4.52-0.37-4.88-5.61c0,0-6.03-0.12-5.24-4.7c0,0,0.84-4.64,6.09-3.68c0,0-1.02-3.92,3.8-5.48c0,0,2.37-0.68,4.59,1.84
		c0.14,0.16,0.37,0.21,0.56,0.13l0.09-0.04c0.23-0.1,0.35-0.35,0.28-0.59c-0.33-1.18-0.77-4.57,4.72-5.86c0,0,4.4-1.27,6.39,1.39
		c0,0,1.12,1.28,0.45,4.15c-0.07,0.28,0.15,0.55,0.43,0.55c0.09,0,0.18-0.03,0.25-0.08c0.64-0.45,3.94-2.55,6.7-0.22
		c0,0,3.23,3.46,0.01,6.2c-0.19,0.16-0.26,0.41-0.19,0.65l0,0.01c0.07,0.22,0.25,0.38,0.48,0.42
		C188.53,98.92,190.88,99.7,189.36,103.27z"/>
	<path class="st1" d="M352.54,75.97c0.55-0.99,0.64-1.91,0.56-2.67c-0.16-1.38-1.01-2.6-2.25-3.21c-2.12-1.04-4.21,0.25-4.21,0.25
		c0.13-5.01-4.88-4.34-4.88-4.34c-5.82,0.94-5.32,4.47-5.32,4.47c-0.29-0.28-0.6-0.48-0.91-0.63c-0.81-0.4-1.75-0.45-2.62-0.2
		c-3.67,1.06-3.32,4.15-3.32,4.15c-4.07-0.22-4.43,3.58-4.43,3.58c-0.22,3.58,3.76,3.76,3.76,3.76c0.01,0.04,0.01,0.07,0.02,0.11
		c0.49,2.98,3.42,4.92,6.35,4.15c2.21-0.58,2.9-2.29,2.9-2.29c0.93,1.23,1.88,1.9,2.71,2.25c1.09,0.46,2.33,0.4,3.38-0.15
		c3.06-1.57,3.17-3.76,3.17-3.76c1.12,1.07,3.22,0.76,3.22,0.76c2.78-0.51,3.2-2.46,3.26-2.94c0.01-0.09,0.02-0.17,0.03-0.26
		C354.3,76.66,352.54,75.97,352.54,75.97z M352.78,79.94c-0.13,0.3-0.34,0.55-0.61,0.73c-0.89,0.59-3.07,1.59-5.1-1.01
		c-0.09-0.11-0.22-0.18-0.36-0.17c-0.24,0.01-0.51,0.23-0.27,1.32c0.01,0.03,0.01,0.06,0.01,0.09c0,0.41-0.11,3.3-3.8,3.8
		c0,0-2.48,0.26-4.1-2.62c-0.07-0.12-0.2-0.2-0.34-0.2h0c-0.15,0-0.29,0.09-0.35,0.23c-0.32,0.72-1.55,2.9-4.61,2.6
		c0,0-3.35-0.27-3.62-4.17c0,0-4.47-0.09-3.89-3.49c0,0,0.63-3.45,4.52-2.73c0,0-0.76-2.91,2.82-4.07c0,0,1.76-0.5,3.41,1.37
		c0.1,0.12,0.27,0.16,0.42,0.09l0.07-0.03c0.17-0.07,0.26-0.26,0.21-0.44c-0.25-0.87-0.57-3.4,3.5-4.35c0,0,3.27-0.94,4.74,1.03
		c0,0,0.83,0.95,0.33,3.08c-0.05,0.21,0.11,0.41,0.32,0.41c0.07,0,0.13-0.02,0.19-0.06c0.47-0.33,2.92-1.89,4.97-0.16
		c0,0,2.4,2.57,0.01,4.6c-0.14,0.12-0.2,0.31-0.14,0.48l0,0.01c0.05,0.16,0.19,0.28,0.35,0.31
		C352.17,76.71,353.91,77.29,352.78,79.94z"/>
	<path class="st1" d="M286.5,66.35c1.16-2.09,1.36-4.05,1.18-5.66c-0.33-2.93-2.13-5.52-4.78-6.82c-4.49-2.21-8.93,0.52-8.93,0.52
		c0.28-10.63-10.34-9.2-10.34-9.2c-12.34,1.99-11.29,9.49-11.29,9.49c-0.62-0.59-1.28-1.03-1.93-1.34
		c-1.72-0.84-3.71-0.96-5.55-0.43c-7.78,2.26-7.04,8.79-7.04,8.79c-8.64-0.47-9.39,7.59-9.39,7.59c-0.47,7.59,7.97,7.97,7.97,7.97
		c0.01,0.08,0.02,0.15,0.04,0.23c1.04,6.33,7.26,10.43,13.46,8.8c4.68-1.24,6.15-4.85,6.15-4.85c1.97,2.62,4,4.03,5.75,4.77
		c2.31,0.98,4.94,0.84,7.17-0.31c6.48-3.34,6.71-7.97,6.71-7.97c2.37,2.28,6.83,1.61,6.83,1.61c5.89-1.08,6.78-5.21,6.91-6.23
		c0.02-0.18,0.05-0.36,0.07-0.55C290.23,67.81,286.5,66.35,286.5,66.35z M287,74.77c-0.27,0.63-0.72,1.17-1.29,1.55
		c-1.89,1.25-6.52,3.37-10.81-2.15c-0.18-0.23-0.46-0.38-0.76-0.36c-0.5,0.03-1.07,0.5-0.57,2.79c0.01,0.06,0.02,0.13,0.02,0.19
		c0.01,0.87-0.22,7-8.07,8.06c0,0-5.27,0.54-8.69-5.56c-0.14-0.26-0.42-0.42-0.71-0.42h-0.01c-0.32,0-0.61,0.19-0.74,0.49
		c-0.68,1.54-3.28,6.15-9.77,5.5c0,0-7.11-0.58-7.68-8.84c0,0-9.49-0.19-8.26-7.4c0,0,1.33-7.31,9.58-5.79c0,0-1.61-6.17,5.98-8.64
		c0,0,3.73-1.06,7.23,2.9c0.22,0.25,0.58,0.33,0.88,0.2l0.14-0.06c0.36-0.15,0.54-0.55,0.44-0.93c-0.52-1.85-1.21-7.2,7.43-9.23
		c0,0,6.93-1.99,10.06,2.18c0,0,1.77,2.02,0.7,6.54c-0.1,0.44,0.23,0.86,0.68,0.86c0.14,0,0.28-0.04,0.4-0.13
		c1.01-0.71,6.2-4.02,10.55-0.35c0,0,5.09,5.45,0.02,9.76c-0.3,0.25-0.42,0.65-0.3,1.02l0,0.02c0.11,0.34,0.39,0.6,0.75,0.66
		C285.7,67.92,289.41,69.15,287,74.77z"/>
</g>
</svg>
