<?xml version="1.0" encoding="utf-8"?>
<!-- Generator: Adobe Illustrator 24.3.0, SVG Export Plug-In . SVG Version: 6.00 Build 0)  -->
<svg version="1.1" id="Layer_1" xmlns="http://www.w3.org/2000/svg" xmlns:xlink="http://www.w3.org/1999/xlink" x="0px" y="0px"
	 viewBox="0 0 550 370" style="enable-background:new 0 0 550 370;" xml:space="preserve">
<style type="text/css">
	.st0{fill:#CAE6FE;}
	.st1{fill:#079FF3;}
	.st2{fill:#2A365C;}
	.st3{fill:#439AD7;}
	.st4{fill:#009EF3;}
	.st5{fill:#007CE6;}
	.st6{fill:#FEFDFF;}
	.st7{fill:#ABD3F2;}
	.st8{fill:#16162F;}
	.st9{fill:#445279;}
	.st10{opacity:0.2;}
	.st11{opacity:0.3;fill:#FEFDFF;}
	.st12{opacity:0.5;fill:#FEFDFF;}
	.st13{fill:#FBA691;}
	.st14{fill:#FD857D;}
	.st15{fill:#F05B56;}
	.st16{fill:#033557;}
	.st17{fill:#315272;}
	.st18{fill:#BADFFA;}
	.st19{fill:#FDFCF7;}
	.st20{fill:#00273D;}
	.st21{opacity:0.2;fill:#1D4461;}
	.st22{fill:#C3D5E8;}
	.st23{fill:#F7FCFD;}
	.st24{fill:#FFFFFF;}
</style>
<g>
	<g>
		<ellipse class="st0" cx="275" cy="315.79" rx="151.74" ry="9.6"/>
	</g>
	<g>
		<path class="st0" d="M400.26,142.13c0,0.82-0.33,1.57-0.88,2.11c-0.54,0.55-1.29,0.88-2.11,0.88h-63.95
			c-1.64,0-2.99-1.35-2.99-2.99c0-0.82,0.33-1.57,0.88-2.11c0.54-0.55,1.29-0.88,2.11-0.88h3.02c1.19-2.77,3.95-4.71,7.16-4.71
			c2.16,0,4.11,0.88,5.53,2.3c1.88-3.19,5.36-5.34,9.34-5.34c1.09,0,2.15,0.17,3.14,0.47c2.08-3.91,6.19-6.58,10.93-6.58
			c5.69,0,10.48,3.84,11.93,9.07c1.05-0.52,2.23-0.82,3.49-0.82c3.55,0,6.55,2.37,7.49,5.62h1.93
			C398.91,139.14,400.26,140.48,400.26,142.13z"/>
		<path class="st1" d="M169.08,82.48c0.73-1.32,0.86-2.56,0.75-3.58c-0.21-1.85-1.35-3.49-3.02-4.31c-2.84-1.4-5.64,0.33-5.64,0.33
			c0.18-6.72-6.54-5.82-6.54-5.82c-7.79,1.26-7.14,6-7.14,6c-0.39-0.37-0.81-0.65-1.22-0.85c-1.09-0.53-2.34-0.61-3.51-0.27
			c-4.92,1.43-4.45,5.56-4.45,5.56c-5.46-0.3-5.94,4.8-5.94,4.8c-0.3,4.8,5.04,5.04,5.04,5.04c0.01,0.05,0.01,0.1,0.02,0.14
			c0.66,4,4.59,6.59,8.5,5.56c2.96-0.78,3.88-3.06,3.88-3.06c1.25,1.65,2.53,2.55,3.64,3.01c1.46,0.62,3.12,0.53,4.53-0.19
			c4.09-2.11,4.24-5.04,4.24-5.04c1.5,1.44,4.32,1.02,4.32,1.02c3.72-0.68,4.28-3.29,4.36-3.93c0.01-0.12,0.03-0.23,0.05-0.35
			C171.44,83.4,169.08,82.48,169.08,82.48z M169.4,87.8c-0.17,0.4-0.45,0.74-0.81,0.98c-1.2,0.79-4.12,2.13-6.83-1.36
			c-0.11-0.15-0.29-0.24-0.48-0.23c-0.32,0.02-0.68,0.31-0.36,1.77c0.01,0.04,0.01,0.08,0.01,0.12c0,0.55-0.14,4.42-5.1,5.09
			c0,0-3.33,0.34-5.49-3.51c-0.09-0.16-0.26-0.26-0.45-0.26h-0.01c-0.2,0-0.39,0.12-0.47,0.31c-0.43,0.97-2.07,3.88-6.18,3.48
			c0,0-4.49-0.37-4.85-5.58c0,0-6-0.12-5.22-4.68c0,0,0.84-4.62,6.06-3.66c0,0-1.02-3.9,3.78-5.46c0,0,2.36-0.67,4.57,1.83
			c0.14,0.16,0.36,0.21,0.56,0.13l0.09-0.04c0.23-0.1,0.34-0.35,0.28-0.59c-0.33-1.17-0.77-4.55,4.7-5.83c0,0,4.38-1.26,6.36,1.38
			c0,0,1.12,1.28,0.44,4.13c-0.07,0.28,0.14,0.55,0.43,0.55c0.09,0,0.18-0.03,0.25-0.08c0.64-0.45,3.92-2.54,6.67-0.22
			c0,0,3.22,3.44,0.01,6.17c-0.19,0.16-0.26,0.41-0.19,0.64l0,0.01c0.07,0.22,0.25,0.38,0.47,0.42
			C168.57,83.47,170.92,84.25,169.4,87.8z"/>
		<path class="st1" d="M277.76,64.6c1.09-1.97,1.28-3.82,1.11-5.33c-0.31-2.76-2.01-5.2-4.5-6.42c-4.23-2.08-8.41,0.49-8.41,0.49
			c0.27-10.01-9.74-8.67-9.74-8.67c-11.62,1.88-10.63,8.94-10.63,8.94c-0.58-0.56-1.21-0.97-1.82-1.26
			c-1.62-0.79-3.49-0.91-5.23-0.4c-7.33,2.13-6.63,8.28-6.63,8.28c-8.13-0.45-8.85,7.15-8.85,7.15c-0.45,7.15,7.51,7.51,7.51,7.51
			c0.01,0.07,0.02,0.14,0.03,0.22c0.98,5.96,6.83,9.82,12.67,8.28c4.41-1.16,5.79-4.57,5.79-4.57c1.86,2.46,3.76,3.79,5.42,4.49
			c2.18,0.92,4.65,0.79,6.76-0.29c6.1-3.14,6.32-7.51,6.32-7.51c2.23,2.14,6.43,1.52,6.43,1.52c5.55-1.02,6.38-4.91,6.5-5.86
			c0.02-0.17,0.04-0.34,0.07-0.51C281.28,65.97,277.76,64.6,277.76,64.6z M278.24,72.53c-0.25,0.59-0.68,1.1-1.21,1.46
			c-1.78,1.18-6.14,3.17-10.18-2.02c-0.17-0.22-0.44-0.35-0.72-0.34c-0.47,0.03-1.01,0.47-0.54,2.63c0.01,0.06,0.02,0.12,0.02,0.18
			c0.01,0.82-0.21,6.59-7.6,7.59c0,0-4.96,0.51-8.19-5.24c-0.14-0.24-0.39-0.39-0.67-0.39h-0.01c-0.3,0-0.58,0.18-0.7,0.46
			c-0.64,1.45-3.09,5.79-9.2,5.18c0,0-6.7-0.55-7.24-8.32c0,0-8.94-0.18-7.77-6.97c0,0,1.25-6.88,9.03-5.45c0,0-1.52-5.81,5.63-8.13
			c0,0,3.51-1,6.81,2.73c0.21,0.24,0.54,0.31,0.83,0.19l0.13-0.06c0.34-0.14,0.51-0.52,0.41-0.87c-0.49-1.74-1.14-6.78,7-8.69
			c0,0,6.52-1.88,9.47,2.06c0,0,1.66,1.9,0.66,6.16c-0.1,0.41,0.22,0.81,0.64,0.81c0.13,0,0.27-0.04,0.38-0.12
			c0.95-0.67,5.84-3.78,9.93-0.33c0,0,4.8,5.13,0.02,9.19c-0.28,0.24-0.39,0.61-0.29,0.96l0,0.01c0.1,0.32,0.37,0.56,0.71,0.62
			C277.01,66.07,280.5,67.23,278.24,72.53z"/>
	</g>
	<g>
		<g>
			<g>
				<g>
					<path class="st2" d="M402.75,124.03c2.08,0,3.77,1.69,3.77,3.77s-1.69,3.77-3.77,3.77c-2.08,0-3.77-1.69-3.77-3.77
						S400.67,124.03,402.75,124.03z M402.75,125.22c-1.43,0-2.59,1.16-2.59,2.59c0,1.43,1.16,2.59,2.59,2.59s2.59-1.16,2.59-2.59
						C405.34,126.38,404.18,125.22,402.75,125.22z"/>
				</g>
				<g>
					<g>
						<path class="st3" d="M398.92,104.87c2.08,0,3.77,1.69,3.77,3.77s-1.69,3.77-3.77,3.77c-2.08,0-3.77-1.69-3.77-3.77
							S396.84,104.87,398.92,104.87z M398.92,106.05c-1.43,0-2.59,1.16-2.59,2.59s1.16,2.59,2.59,2.59c1.43,0,2.59-1.16,2.59-2.59
							S400.34,106.05,398.92,106.05z"/>
					</g>
				</g>
				<g>
					<g>
						<g>
							<path class="st4" d="M387.45,99.56c0,0.33,0.26,0.59,0.59,0.59h2.61c0.33,0,0.59-0.26,0.59-0.59c0-0.33-0.26-0.59-0.59-0.59
								h-2.61C387.71,98.96,387.45,99.23,387.45,99.56z"/>
						</g>
						<g>
							<path class="st4" d="M382.88,99.56c0,0.33,0.26,0.59,0.59,0.59h2.61c0.33,0,0.59-0.26,0.59-0.59c0-0.33-0.26-0.59-0.59-0.59
								h-2.61C383.14,98.96,382.88,99.23,382.88,99.56z"/>
						</g>
					</g>
					<g>
						<g>
							<path class="st4" d="M386.47,95.89v2.34c0,0.33,0.26,0.59,0.59,0.59c0.33,0,0.59-0.26,0.59-0.59v-2.34
								c0-0.33-0.26-0.59-0.59-0.59C386.73,95.3,386.47,95.57,386.47,95.89z"/>
						</g>
						<g>
							<path class="st4" d="M386.47,100.87v2.34c0,0.33,0.26,0.59,0.59,0.59c0.33,0,0.59-0.26,0.59-0.59v-2.34
								c0-0.33-0.26-0.59-0.59-0.59C386.73,100.28,386.47,100.55,386.47,100.87z"/>
						</g>
					</g>
				</g>
				<g>
					<g>
						<g>
							<g>
								<path class="st5" d="M391.7,119.7c0,0.33,0.26,0.59,0.59,0.59h2.61c0.33,0,0.59-0.26,0.59-0.59c0-0.33-0.26-0.59-0.59-0.59
									h-2.61C391.96,119.11,391.7,119.37,391.7,119.7z"/>
							</g>
							<g>
								<path class="st5" d="M387.13,119.7c0,0.33,0.26,0.59,0.59,0.59h2.61c0.33,0,0.59-0.26,0.59-0.59c0-0.33-0.26-0.59-0.59-0.59
									h-2.61C387.4,119.11,387.13,119.37,387.13,119.7z"/>
							</g>
						</g>
						<g>
							<g>
								<path class="st5" d="M390.72,116.04v2.34c0,0.33,0.26,0.59,0.59,0.59c0.33,0,0.59-0.26,0.59-0.59v-2.34
									c0-0.33-0.26-0.59-0.59-0.59C390.99,115.44,390.72,115.71,390.72,116.04z"/>
							</g>
							<g>
								<path class="st5" d="M390.72,121.02v2.34c0,0.33,0.26,0.59,0.59,0.59c0.33,0,0.59-0.26,0.59-0.59v-2.34
									c0-0.33-0.26-0.59-0.59-0.59C390.99,120.43,390.72,120.69,390.72,121.02z"/>
							</g>
						</g>
					</g>
				</g>
			</g>
		</g>
		<g>
			<g>
				<g>
					<path class="st4" d="M149.47,142.3c0,2.08-1.69,3.77-3.77,3.77c-2.08,0-3.77-1.69-3.77-3.77s1.69-3.77,3.77-3.77
						C147.77,138.53,149.47,140.22,149.47,142.3z M148.28,142.3c0-1.43-1.16-2.59-2.59-2.59s-2.59,1.16-2.59,2.59
						c0,1.43,1.16,2.59,2.59,2.59S148.28,143.73,148.28,142.3z"/>
				</g>
				<g>
					<g>
						<path class="st2" d="M164.86,137.21c0,2.08-1.69,3.77-3.77,3.77c-2.08,0-3.77-1.69-3.77-3.77c0-2.08,1.69-3.77,3.77-3.77
							C163.17,133.44,164.86,135.13,164.86,137.21z M163.68,137.21c0-1.43-1.16-2.59-2.59-2.59c-1.43,0-2.59,1.16-2.59,2.59
							c0,1.43,1.16,2.59,2.59,2.59C162.52,139.8,163.68,138.64,163.68,137.21z"/>
					</g>
				</g>
				<g>
					<g>
						<g>
							<path class="st5" d="M165.34,121.02c-0.33,0-0.59,0.26-0.59,0.59v2.61c0,0.33,0.26,0.59,0.59,0.59s0.59-0.26,0.59-0.59v-2.61
								C165.93,121.29,165.67,121.02,165.34,121.02z"/>
						</g>
						<g>
							<path class="st5" d="M165.34,116.46c-0.33,0-0.59,0.26-0.59,0.59v2.61c0,0.33,0.26,0.59,0.59,0.59s0.59-0.26,0.59-0.59v-2.61
								C165.93,116.72,165.67,116.46,165.34,116.46z"/>
						</g>
					</g>
					<g>
						<g>
							<path class="st5" d="M169,120.04h-2.34c-0.33,0-0.59,0.26-0.59,0.59c0,0.33,0.26,0.59,0.59,0.59H169
								c0.33,0,0.59-0.26,0.59-0.59C169.6,120.31,169.33,120.04,169,120.04z"/>
						</g>
						<g>
							<path class="st5" d="M164.02,120.04h-2.34c-0.33,0-0.59,0.26-0.59,0.59c0,0.33,0.26,0.59,0.59,0.59h2.34
								c0.33,0,0.59-0.26,0.59-0.59C164.62,120.31,164.35,120.04,164.02,120.04z"/>
						</g>
					</g>
				</g>
				<g>
					<g>
						<g>
							<g>
								<path class="st3" d="M149.36,125.2c-0.33,0-0.59,0.26-0.59,0.59v2.61c0,0.33,0.26,0.59,0.59,0.59
									c0.33,0,0.59-0.26,0.59-0.59v-2.61C149.95,125.47,149.68,125.2,149.36,125.2z"/>
							</g>
							<g>
								<path class="st3" d="M149.36,120.64c-0.33,0-0.59,0.26-0.59,0.59v2.61c0,0.33,0.26,0.59,0.59,0.59
									c0.33,0,0.59-0.26,0.59-0.59v-2.61C149.95,120.9,149.68,120.64,149.36,120.64z"/>
							</g>
						</g>
						<g>
							<g>
								<path class="st3" d="M153.02,124.22h-2.34c-0.33,0-0.59,0.26-0.59,0.59c0,0.33,0.26,0.59,0.59,0.59h2.34
									c0.33,0,0.59-0.26,0.59-0.59C153.61,124.49,153.34,124.22,153.02,124.22z"/>
							</g>
							<g>
								<path class="st3" d="M148.04,124.22h-2.34c-0.33,0-0.59,0.26-0.59,0.59c0,0.33,0.26,0.59,0.59,0.59h2.34
									c0.33,0,0.59-0.26,0.59-0.59C148.63,124.49,148.36,124.22,148.04,124.22z"/>
							</g>
						</g>
					</g>
				</g>
			</g>
		</g>
		<g>
			<g>
				<path class="st2" d="M161.51,162.14v12.59c0,0.81-0.65,1.45-1.45,1.45h-12.6c-0.55,0-1.03-0.3-1.28-0.76
					c-0.02-0.05-0.05-0.1-0.06-0.15c-0.02-0.07-0.05-0.15-0.07-0.23c0-0.01,0-0.01,0-0.02c0-0.01,0-0.02,0-0.03
					c-0.02-0.08-0.02-0.17-0.02-0.26v-12.59c0-0.76,0.57-1.37,1.3-1.45c0.05,0,0.1,0,0.15,0h12.6c0.15,0,0.29,0.02,0.43,0.06
					c0,0,0,0,0,0C161.08,160.93,161.51,161.48,161.51,162.14z"/>
			</g>
			<g>
				<g>
					<g>
						<g>
							<path class="st6" d="M154.68,172.71l-0.01,1.26l-1.6-0.01l0.01-1.2c-1.13-0.08-2.23-0.39-2.9-0.82l0.88-1.94
								c0.74,0.45,1.74,0.74,2.61,0.75c0.76,0.01,1.03-0.15,1.03-0.42c0.01-1-4.38-0.23-4.35-3.18c0.01-1.28,0.95-2.35,2.8-2.59
								l0.01-1.23l1.6,0.01l-0.01,1.21c0.84,0.09,1.65,0.31,2.29,0.67l-0.82,1.93c-0.78-0.4-1.51-0.6-2.2-0.61
								c-0.78-0.01-1.03,0.22-1.03,0.49c-0.01,0.95,4.38,0.19,4.35,3.11C157.32,171.36,156.43,172.42,154.68,172.71z"/>
						</g>
					</g>
				</g>
			</g>
		</g>
		<g>
			<g>
				<g>
					<path class="st3" d="M410.52,249.63v12.61c0,0.81-0.65,1.46-1.46,1.46h-12.61c-0.55,0-1.03-0.3-1.28-0.76
						c-0.02-0.05-0.05-0.1-0.06-0.15c-0.02-0.07-0.05-0.15-0.07-0.23c0-0.01,0-0.01,0-0.02c0-0.01,0-0.02,0-0.03
						c-0.02-0.08-0.02-0.17-0.02-0.26v-12.61c0-0.76,0.57-1.37,1.3-1.45c0.05,0,0.1-0.01,0.15-0.01h12.61
						c0.15,0,0.29,0.02,0.43,0.06c0,0,0,0,0.01,0C410.1,248.42,410.52,248.97,410.52,249.63z"/>
				</g>
			</g>
			<g>
				<g>
					<path class="st6" d="M402.92,251.33c-2.68,0-4.86,2.18-4.86,4.86c0,2.68,2.18,4.86,4.86,4.86c2.68,0,4.86-2.18,4.86-4.86
						C407.78,253.51,405.6,251.33,402.92,251.33z M403.11,257.98v-1.7h2.2c-0.01,0.6-0.1,1.17-0.26,1.7H403.11z M404.49,259.92
						c0.36-0.45,0.64-0.97,0.85-1.55h1.48c-0.63,1.11-1.68,1.9-2.91,2.17C404.11,260.36,404.31,260.15,404.49,259.92z
						 M404.92,258.37c-0.18,0.48-0.43,0.91-0.73,1.3c-0.47,0.6-0.93,0.9-1.08,0.98l0-2.28H404.92z M403.11,253.79v-2.07
						c0.06,0,0.12,0.01,0.17,0.01c0.24,0.21,1.01,0.91,1.52,2.06H403.11z M405.24,253.79c-0.17-0.42-0.39-0.82-0.65-1.19
						c-0.19-0.27-0.4-0.53-0.62-0.76c1.12,0.27,2.1,0.97,2.72,1.95H405.24z M403.11,255.89v-1.7h1.86c0.2,0.55,0.31,1.12,0.34,1.7
						H403.11z M405.7,255.89c-0.02-0.58-0.13-1.15-0.31-1.7h1.53c0.27,0.53,0.42,1.11,0.46,1.7H405.7z M407.39,256.28
						c-0.01,0.59-0.14,1.16-0.38,1.7h-1.55c0.15-0.53,0.23-1.11,0.24-1.7H407.39z M400.42,257.98h-1.6
						c-0.24-0.54-0.36-1.11-0.38-1.7h1.73C400.19,256.88,400.27,257.45,400.42,257.98z M401.07,253.79
						c0.15-0.34,0.33-0.66,0.54-0.96c0.41-0.59,0.82-0.96,0.99-1.1c0.04,0,0.08-0.01,0.12-0.01v2.07H401.07z M402.72,254.19v1.7
						h-2.15c0.02-0.58,0.14-1.15,0.34-1.7H402.72z M399.14,253.79c0.63-1,1.64-1.71,2.78-1.97c-0.22,0.24-0.44,0.5-0.63,0.77
						c-0.26,0.37-0.48,0.78-0.66,1.19H399.14z M402.72,256.28v1.7h-1.89c-0.16-0.53-0.25-1.1-0.26-1.7H402.72z M398.46,255.89
						c0.04-0.6,0.2-1.17,0.46-1.7h1.57c-0.19,0.55-0.29,1.12-0.31,1.7H398.46z M400.55,258.37c0.2,0.58,0.49,1.1,0.84,1.55
						c0.18,0.23,0.39,0.45,0.6,0.64c-1.25-0.27-2.34-1.07-2.97-2.19H400.55z M402.72,258.37v2.25c-0.3-0.18-1.22-0.85-1.76-2.25
						H402.72z"/>
				</g>
			</g>
		</g>
	</g>
	<g>
		<g>
			<path class="st7" d="M309.61,121.91l1.74,0.57l0.92,0.3l2.61,0.86c0,0,38.92-31.48,28.95-50.24
				c-3.07-5.77-12.35-5.42-17.56,13.89C321.44,105.19,309.61,121.91,309.61,121.91z"/>
			<g>
				<g>
					<path class="st3" d="M311.35,122.48l0.92,0.3c7.82-8.23,13.85-17.96,17.66-24.95c4.52-8.3,6.96-14.64,6.98-14.7
						c0.09-0.23-0.03-0.48-0.25-0.57c-0.23-0.09-0.48,0.03-0.57,0.25c-0.02,0.06-2.45,6.36-6.94,14.61
						C325.32,104.45,319.23,114.26,311.35,122.48z"/>
				</g>
			</g>
		</g>
		<g>
			<path class="st7" d="M208.13,287.91l-1.71,0.11l-0.91,0.06l-2.58,0.17c0,0-27.92-37.75-14.45-52.43
				c4.15-4.52,12.49-2.01,12.67,16.74C201.32,269.94,208.13,287.91,208.13,287.91z"/>
			<g>
				<g>
					<g>
						<path class="st3" d="M206.42,288.02l-0.91,0.06c-5.16-9.32-8.35-19.57-10.15-26.81c-2.15-8.6-2.87-14.93-2.87-14.99
							c-0.03-0.23,0.14-0.43,0.36-0.45c0.23-0.03,0.43,0.14,0.46,0.36c0.01,0.06,0.72,6.35,2.86,14.9
							C197.97,268.36,201.19,278.69,206.42,288.02z"/>
					</g>
				</g>
			</g>
		</g>
		<g>
			<path class="st0" d="M216.75,293.6l-2,1.47l-1.06,0.78l-3.01,2.21c0,0-63.52-24.22-58.56-52.63c1.53-8.75,13.66-12.2,28.52,10.52
				C194.42,277.01,216.75,293.6,216.75,293.6z"/>
			<g>
				<path class="st7" d="M214.75,295.07l-1.06,0.78c-13.57-7.33-25.46-17.34-33.32-24.76c-9.33-8.81-15.16-15.96-15.21-16.03
					c-0.21-0.26-0.17-0.63,0.09-0.84c0.26-0.21,0.63-0.17,0.84,0.09c0.06,0.07,5.84,7.18,15.12,15.93
					C189.1,277.7,201.1,287.78,214.75,295.07z"/>
			</g>
		</g>
		<g>
			<path class="st0" d="M300.58,127.96l1.92,1.83l1.02,0.97l2.88,2.75c0,0,70.47-16.91,69.12-47.63
				c-0.42-9.46-12.77-14.77-31.6,7.22C326.46,113.48,300.58,127.96,300.58,127.96z"/>
			<g>
				<path class="st7" d="M302.49,129.8l1.02,0.97c15.35-5.89,29.29-14.85,38.62-21.61c11.07-8.03,18.21-14.8,18.28-14.87
					c0.26-0.24,0.26-0.64,0.02-0.9c-0.24-0.26-0.64-0.26-0.9-0.02c-0.07,0.07-7.16,6.79-18.17,14.77
					C331.99,114.94,317.92,123.96,302.49,129.8z"/>
			</g>
		</g>
		<g>
			<path class="st7" d="M174.46,107.4c2.62,7.64,10.33,7.08,10.42,13.36c0.09,6.28,4.23,10.88,9.6,9.51
				c5.37-1.37,9.25-2.68,11.98,3.46c2.73,6.14,10.74,8.94,13.66,3.88c0.73-1.26,1.51-2.62,2.28-3.96c0.21-0.37,0.42-0.73,0.62-1.09
				c0.05-0.08,0.1-0.17,0.14-0.25c3.09-5.38,1.71-12.29-3.31-15.92c-2.04-1.47-4.43-2.25-7.07-1.35c-8.28,2.81-5.6-5.74-10.74-9.1
				c-5.92-3.87-10.66,0.98-14.74-2.36C181.63,98.95,171.85,99.77,174.46,107.4z"/>
			<g>
				<g>
					<g>
						<path class="st3" d="M184.59,110.34l37.81,23.33c0.21-0.37,0.42-0.73,0.62-1.09l-37.78-23.31c-0.29-0.18-0.68-0.09-0.86,0.2
							C184.21,109.77,184.3,110.16,184.59,110.34z"/>
					</g>
				</g>
			</g>
		</g>
		<g>
			<path class="st0" d="M180.27,64.74c-1.15,9.92,7.76,13.42,4.51,20.48c-3.25,7.07-1.08,14.41,5.65,15.75
				c6.74,1.33,11.77,1.94,11.54,10.25c-0.23,8.31,7.23,15.71,13.19,11.62c1.48-1.02,3.09-2.12,4.66-3.21
				c0.43-0.3,0.86-0.59,1.28-0.88c0.1-0.07,0.2-0.13,0.29-0.2c6.32-4.36,8.47-12.81,4.79-19.55c-1.49-2.73-3.75-4.87-7.18-5.28
				c-10.74-1.28-3.19-9.4-7.14-15.9c-4.54-7.48-12.43-4.59-15.21-10.5C192.79,59.12,181.42,54.82,180.27,64.74z"/>
			<g>
				<path class="st7" d="M190.02,73.42l29.79,46.22c0.43-0.3,0.86-0.59,1.28-0.88l-29.77-46.18c-0.23-0.36-0.71-0.46-1.07-0.23
					C189.9,72.58,189.79,73.06,190.02,73.42z"/>
			</g>
		</g>
		<g>
			<path class="st7" d="M342.57,233.35c-7.67,2.51-7.22,10.23-13.5,10.24c-6.28,0.01-10.94,4.08-9.64,9.47
				c1.3,5.39,2.56,9.29-3.62,11.93c-6.18,2.64-9.08,10.62-4.07,13.61c1.25,0.74,2.6,1.55,3.93,2.33c0.36,0.21,0.72,0.43,1.08,0.64
				c0.08,0.05,0.16,0.1,0.25,0.15c5.34,3.16,12.27,1.88,15.97-3.1c1.5-2.02,2.31-4.4,1.45-7.05c-2.69-8.31,5.82-5.52,9.25-10.62
				c3.95-5.86-0.83-10.67,2.56-14.71C350.93,240.63,350.24,230.84,342.57,233.35z"/>
			<g>
				<g>
					<g>
						<path class="st3" d="M339.5,243.44l-23.83,37.49c0.36,0.21,0.72,0.43,1.08,0.64l23.81-37.46c0.19-0.29,0.1-0.68-0.19-0.87
							C340.08,243.06,339.69,243.15,339.5,243.44z"/>
					</g>
				</g>
			</g>
		</g>
		<g>
			<path class="st0" d="M371.74,249.35c-9.91-1.29-13.52,7.58-20.54,4.23c-7.02-3.34-14.4-1.27-15.82,5.44
				c-1.42,6.72-2.1,11.74-10.41,11.4c-8.31-0.34-15.81,7.02-11.8,13.03c1,1.5,2.08,3.12,3.14,4.7c0.29,0.43,0.58,0.87,0.86,1.29
				c0.07,0.1,0.13,0.2,0.2,0.3c4.28,6.38,12.7,8.64,19.49,5.05c2.75-1.45,4.92-3.68,5.38-7.11c1.42-10.72,9.45-3.07,15.99-6.93
				c7.54-4.44,4.76-12.36,10.7-15.06C377.2,261.94,381.65,250.64,371.74,249.35z"/>
			<g>
				<path class="st7" d="M362.93,258.99l-46.62,29.17c0.29,0.43,0.58,0.87,0.86,1.29l46.58-29.14c0.36-0.23,0.47-0.71,0.25-1.07
					C363.77,258.87,363.3,258.76,362.93,258.99z"/>
			</g>
		</g>
		<g>
			<g>
				<path class="st7" d="M214.64,211.13c-9.69-11.17-26.94-33.19-32.26-42.03c-6.94-11.55-9.99-20.95-9.04-27.93
					c0.06-0.46,0.49-0.79,0.95-0.72c0.46,0.06,0.79,0.49,0.72,0.95c-1.65,12.21,8.28,30.04,40.47,68.21L214.64,211.13z"/>
			</g>
			<path class="st0" d="M177.05,158.28c0,0-5.64,4.26-12.74-5.96C164.31,152.32,174.8,148.26,177.05,158.28z"/>
			<path class="st0" d="M180.44,163.74c0,0-4.56-5.4,5.24-13.05C185.68,150.69,190.32,160.93,180.44,163.74z"/>
			<path class="st0" d="M174.23,146.58c0,0-6.1-3.57,0.59-14.05C174.82,132.52,182.61,140.63,174.23,146.58z"/>
			<path class="st0" d="M186.91,174.93c0,0-3.87,5.92-14.01-1.3C172.91,173.63,181.4,166.25,186.91,174.93z"/>
			<path class="st0" d="M191.2,179.96c0,0-5.43-4.53,2.9-13.76C194.11,166.2,200.45,175.49,191.2,179.96z"/>
			<path class="st0" d="M196.39,187.44c0,0-3.76,5.99-14.03-1.03C182.37,186.41,190.72,178.88,196.39,187.44z"/>
		</g>
		<g>
			<g>
				<path class="st7" d="M280.72,110.3c5.03-13.91,10.17-25.47,15.3-34.42c6.71-11.69,13.43-18.93,19.99-21.51
					c0.43-0.17,0.93,0.04,1.1,0.48c0.17,0.43-0.04,0.93-0.48,1.1c-11.46,4.51-23.76,24.73-35.59,58.51L280.72,110.3z"/>
			</g>
			<path class="st0" d="M302.86,65.95c0,0-6.47-2.85-1-14.03C301.86,51.92,310.52,59.1,302.86,65.95z"/>
			<path class="st0" d="M299.75,71.56c0,0,2.49-6.62,13.95-1.78C313.7,69.78,307.02,78.83,299.75,71.56z"/>
			<path class="st0" d="M311.71,57.78c0,0,0.14-7.07,12.56-6.33C324.27,51.45,320.99,62.2,311.71,57.78z"/>
			<path class="st0" d="M293.14,82.67c0,0-7.05-0.5-5.69-12.86C287.44,69.81,298.02,73.63,293.14,82.67z"/>
			<path class="st0" d="M290.83,88.87c0,0,1.31-6.95,13.43-4.17C304.26,84.7,299.24,94.77,290.83,88.87z"/>
			<path class="st0" d="M286.83,97.05c0,0-7.06-0.36-5.93-12.75C280.89,84.29,291.54,87.92,286.83,97.05z"/>
		</g>
	</g>
	<g>
		<g>
			<path class="st2" d="M327.36,105.44v199.85c0,6.26-5.08,11.34-11.34,11.34h-99.52c-3.15,0-5.99-1.28-8.05-3.35
				c-2.03-2.05-3.29-4.88-3.29-7.99V105.44c0-6.26,5.08-11.34,11.34-11.34h99.52c1.85,0,3.6,0.44,5.14,1.23
				C324.84,97.21,327.36,101.03,327.36,105.44z"/>
			<path class="st8" d="M327.36,105.44v199.85c0,6.26-5.08,11.34-11.34,11.34h-99.52c-3.15,0-5.99-1.28-8.05-3.35L321.16,95.33
				C324.84,97.21,327.36,101.03,327.36,105.44z"/>
		</g>
		<g>
			<path class="st8" d="M205.15,156.45h-1.64c-1.39,0-2.51-1.12-2.51-2.51v-21.38c0-1.39,1.12-2.51,2.51-2.51h1.64V156.45z"/>
			<path class="st8" d="M327.36,149.55h1.34c1.13,0,2.05-0.92,2.05-2.05V130.1c0-1.13-0.92-2.05-2.05-2.05h-1.34V149.55z"/>
			<path class="st8" d="M205.15,186.44h-1.64c-1.39,0-2.51-1.12-2.51-2.51v-21.38c0-1.39,1.12-2.51,2.51-2.51h1.64V186.44z"/>
		</g>
		<g>
			<path class="st6" d="M321.7,104.95v200.84c0,2.87-2.32,5.19-5.19,5.19H216c-2.14,0-3.97-1.29-4.77-3.14
				c-0.27-0.63-0.42-1.32-0.42-2.05V104.95c0-2.87,2.32-5.19,5.19-5.19h100.51c0.76,0,1.48,0.16,2.13,0.45
				C320.44,101.03,321.7,102.84,321.7,104.95z"/>
			<g>
				<g>
					<g>
						<g>
							<path class="st0" d="M311.45,253.33h-61.18c-1.11,0-2.01-0.9-2.01-2.01l0,0c0-1.11,0.9-2.01,2.01-2.01h61.18
								c1.11,0,2.01,0.9,2.01,2.01l0,0C313.46,252.43,312.56,253.33,311.45,253.33z"/>
						</g>
						<g>
							<path class="st0" d="M311.45,262.05h-61.18c-1.11,0-2.01-0.9-2.01-2.01l0,0c0-1.11,0.9-2.01,2.01-2.01h61.18
								c1.11,0,2.01,0.9,2.01,2.01l0,0C313.46,261.15,312.56,262.05,311.45,262.05z"/>
						</g>
						<g>
							<path class="st0" d="M311.45,270.77h-61.18c-1.11,0-2.01-0.9-2.01-2.01l0,0c0-1.11,0.9-2.01,2.01-2.01h61.18
								c1.11,0,2.01,0.9,2.01,2.01l0,0C313.46,269.87,312.56,270.77,311.45,270.77z"/>
						</g>
					</g>
				</g>
				<rect x="221.34" y="249.31" class="st0" width="21.45" height="21.45"/>
				<g>
					<g>
						<g>
							<g>
								<path class="st0" d="M256.66,125.88h-33.3c-1.11,0-2.01,0.9-2.01,2.01l0,0c0,1.11,0.9,2.01,2.01,2.01h33.3
									c1.11,0,2.01-0.9,2.01-2.01l0,0C258.67,126.78,257.77,125.88,256.66,125.88z"/>
							</g>
							<g>
								<path class="st0" d="M256.66,134.6h-33.3c-1.11,0-2.01,0.9-2.01,2.01l0,0c0,1.11,0.9,2.01,2.01,2.01h33.3
									c1.11,0,2.01-0.9,2.01-2.01l0,0C258.67,135.5,257.77,134.6,256.66,134.6z"/>
							</g>
							<g>
								<path class="st0" d="M256.66,143.32h-33.3c-1.11,0-2.01,0.9-2.01,2.01l0,0c0,1.11,0.9,2.01,2.01,2.01h33.3
									c1.11,0,2.01-0.9,2.01-2.01l0,0C258.67,144.22,257.77,143.32,256.66,143.32z"/>
							</g>
						</g>
					</g>
					<g>
						<g>
							<g>
								<path class="st0" d="M311.39,125.88h-33.3c-1.11,0-2.01,0.9-2.01,2.01l0,0c0,1.11,0.9,2.01,2.01,2.01h33.3
									c1.11,0,2.01-0.9,2.01-2.01l0,0C313.4,126.78,312.5,125.88,311.39,125.88z"/>
							</g>
							<g>
								<path class="st0" d="M311.39,134.6h-33.3c-1.11,0-2.01,0.9-2.01,2.01v0c0,1.11,0.9,2.01,2.01,2.01h33.3
									c1.11,0,2.01-0.9,2.01-2.01v0C313.4,135.5,312.5,134.6,311.39,134.6z"/>
							</g>
							<g>
								<path class="st0" d="M311.39,143.32h-33.3c-1.11,0-2.01,0.9-2.01,2.01l0,0c0,1.11,0.9,2.01,2.01,2.01h33.3
									c1.11,0,2.01-0.9,2.01-2.01l0,0C313.4,144.22,312.5,143.32,311.39,143.32z"/>
							</g>
						</g>
					</g>
				</g>
			</g>
			<g>
				<path class="st2" d="M227.26,101.34l5.5,8.36c1.53,2.33,4.14,3.74,6.93,3.74h53.13c2.79,0,5.4-1.4,6.93-3.74l5.5-8.36
					c0-0.87-0.71-1.58-1.58-1.58h-74.83C227.97,99.76,227.26,100.47,227.26,101.34z"/>
				<path class="st9" d="M284.3,107.38h-45.52c-0.93,0-1.68-0.76-1.68-1.68l0,0c0-0.93,0.76-1.68,1.68-1.68h45.52
					c0.92,0,1.68,0.76,1.68,1.68l0,0C285.99,106.63,285.23,107.38,284.3,107.38z"/>
				<path class="st9" d="M294.91,105.59c0,1.11-0.9,2.02-2.02,2.02c-1.11,0-2.02-0.9-2.02-2.02c0-1.11,0.9-2.02,2.02-2.02
					C294.01,103.57,294.91,104.48,294.91,105.59z"/>
			</g>
		</g>
		<g>
			<g>
				<g>
					<rect x="218.65" y="188.55" class="st4" width="95.75" height="43.5"/>
					<rect x="218.65" y="188.55" class="st5" width="95.75" height="3.45"/>
					<polygon class="st9" points="314.4,185.96 218.65,185.96 226.11,168.32 306.94,168.32 					"/>
					<rect x="214.4" y="185.84" class="st2" width="103.04" height="2.71"/>
					<polygon class="st4" points="286.69,232.05 246.36,232.05 246.36,198.31 267.07,187.06 286.69,197.2 					"/>
					<rect x="244.06" y="201.39" class="st5" width="3.39" height="30.67"/>
					<rect x="285.64" y="201.39" class="st5" width="3.39" height="30.67"/>
					<g>
						<rect x="259.63" y="209.34" class="st2" width="13.79" height="22.77"/>
						<rect x="261.02" y="210.73" class="st9" width="11.02" height="21.38"/>
						<path class="st2" d="M271.33,222.07c0,0.64-0.52,1.16-1.16,1.16c-0.64,0-1.16-0.52-1.16-1.16c0-0.64,0.52-1.16,1.16-1.16
							C270.81,220.91,271.33,221.43,271.33,222.07z"/>
						<path class="st2" d="M275.04,209.34h-17.03c-0.57,0-1.03-0.46-1.03-1.03v-0.67h19.09v0.67
							C276.07,208.88,275.61,209.34,275.04,209.34z"/>
						<g>
							<rect x="262.52" y="212.3" class="st0" width="3.4" height="6.92"/>
							<polygon class="st6" points="265.92,212.57 265.92,214.62 262.52,218.02 262.52,215.97 							"/>
							<rect x="262.52" y="212.3" class="st10" width="3.4" height="0.98"/>
						</g>
						<g>
							<rect x="267.31" y="212.3" class="st0" width="3.4" height="6.92"/>
							<polygon class="st6" points="270.71,212.57 270.71,214.62 267.31,218.02 267.31,215.97 							"/>
							<rect x="267.31" y="212.3" class="st10" width="3.4" height="0.98"/>
						</g>
					</g>
					<path class="st2" d="M317.44,185.86H214.4v-1.46c0-1.23,1-2.23,2.23-2.23h98.57c1.23,0,2.23,1,2.23,2.23V185.86z"/>
					<g>
						<g>
							<polygon class="st9" points="296.86,201.42 291.34,201.4 285.6,201.39 266.52,188.53 247.45,201.39 241.71,201.4 
								236.19,201.42 266.52,180.97 							"/>
						</g>
						<g>
							<polygon class="st2" points="291.34,201.4 285.6,201.39 266.52,188.53 247.45,201.39 241.71,201.4 266.52,184.67 							"/>
						</g>
					</g>
					<g>
						<g>
							<g>
								<g>
									<g>
										<rect x="228.21" y="207.3" class="st0" width="8.13" height="15.17"/>
										<g>
											<polygon class="st6" points="236.34,207.3 233.47,207.3 228.23,212.54 228.23,216.83 236.34,208.72 											"/>
										</g>
										<g>
											<polygon class="st6" points="236.34,213.71 228.23,221.82 228.23,222.47 229.72,222.47 236.34,215.86 											"/>
										</g>
										<path class="st9" d="M227.09,206.19v17.4h9.24v-17.4H227.09z M228.21,207.3h7v7.01h-7V207.3z M228.21,222.47v-7.01h7v7.01
											H228.21z"/>
									</g>
									<rect x="227.09" y="206.28" class="st10" width="9.24" height="1.79"/>
								</g>
							</g>
							<path class="st2" d="M237.28,206.19h-11.12c-0.47,0-0.85-0.38-0.85-0.85v-0.56h12.82v0.56
								C238.13,205.81,237.75,206.19,237.28,206.19z"/>
						</g>
						<rect x="227.09" y="223.58" class="st5" width="9.24" height="1.78"/>
					</g>
					<g>
						<g>
							<g>
								<g>
									<g>
										<rect x="299.76" y="207.3" class="st0" width="8.13" height="15.17"/>
										<g>
											<polygon class="st6" points="307.9,207.3 305.03,207.3 299.79,212.54 299.79,216.83 307.9,208.72 											"/>
										</g>
										<g>
											<polygon class="st6" points="307.9,213.71 299.79,221.82 299.79,222.47 301.28,222.47 307.9,215.86 											"/>
										</g>
										<path class="st9" d="M298.65,206.19v17.4h9.24v-17.4H298.65z M299.76,207.3h7v7.01h-7V207.3z M299.76,222.47v-7.01h7v7.01
											H299.76z"/>
									</g>
									<rect x="298.65" y="206.28" class="st10" width="9.24" height="1.79"/>
								</g>
							</g>
							<path class="st2" d="M308.84,206.19h-11.12c-0.47,0-0.85-0.38-0.85-0.85v-0.56h12.82v0.56
								C309.69,205.81,309.31,206.19,308.84,206.19z"/>
						</g>
						<rect x="298.65" y="223.58" class="st5" width="9.24" height="1.78"/>
					</g>
					<path class="st2" d="M304.88,171.83h-76.19c-0.27,0-0.49-0.22-0.49-0.49v-0.63c0-0.27,0.22-0.49,0.49-0.49h76.19
						c0.27,0,0.48,0.22,0.48,0.49v0.63C305.37,171.61,305.15,171.83,304.88,171.83z"/>
					<path class="st2" d="M305.9,176.04h-78.82c-0.27,0-0.49-0.22-0.49-0.49v-0.63c0-0.27,0.22-0.48,0.49-0.48h78.82
						c0.27,0,0.48,0.22,0.48,0.48v0.63C306.39,175.83,306.17,176.04,305.9,176.04z"/>
					<path class="st2" d="M309.2,180.26h-84.53c-0.27,0-0.49-0.22-0.49-0.49v-0.63c0-0.27,0.22-0.48,0.49-0.48h84.53
						c0.27,0,0.48,0.22,0.48,0.48v0.63C309.69,180.04,309.47,180.26,309.2,180.26z"/>
					<g>
						<g>
							<rect x="231.72" y="162.74" class="st4" width="10.69" height="12.06"/>
							<rect x="231.72" y="162.74" class="st5" width="10.69" height="3.1"/>
						</g>
						<g>
							<path class="st9" d="M244.64,158.66v1.43c0,0.21-0.02,0.41-0.07,0.61c-0.27,1.17-1.32,2.04-2.58,2.04h-9.86
								c-1.25,0-2.3-0.87-2.58-2.04c-0.05-0.2-0.07-0.4-0.07-0.61v-1.43H244.64z"/>
							<path class="st2" d="M244.57,160.7c-0.27,1.17-1.32,2.04-2.58,2.04h-9.86c-1.25,0-2.3-0.87-2.58-2.04H244.57z"/>
						</g>
					</g>
					<path class="st9" d="M316.17,234.75h-99.41c-0.45,0-0.82-0.37-0.82-0.82v-1.07c0-0.45,0.37-0.82,0.82-0.82h99.41
						c0.45,0,0.82,0.37,0.82,0.82v1.07C316.99,234.39,316.62,234.75,316.17,234.75z"/>
					<path class="st2" d="M318.7,237.41H214.23c-0.45,0-0.82-0.37-0.82-0.82v-1.07c0-0.45,0.37-0.82,0.82-0.82H318.7
						c0.45,0,0.82,0.37,0.82,0.82v1.07C319.51,237.04,319.15,237.41,318.7,237.41z"/>
				</g>
				<polygon class="st5" points="247.45,201.42 247.45,205.52 266.79,193.07 285.64,205.52 285.6,201.42 266.52,188.56 				"/>
			</g>
		</g>
		<path class="st11" d="M321.7,104.95v200.84c0,2.87-2.32,5.19-5.19,5.19H216c-2.14,0-3.97-1.29-4.77-3.14l107.4-207.63
			C320.44,101.03,321.7,102.84,321.7,104.95z"/>
	</g>
	<g>
		<path class="st3" d="M147.31,279.94l8.33,2.79c1.05,0.35,2.19-0.22,2.55-1.27l7.06-21.11l2.92-8.73l-12.15-4.07l-1.73,5.17
			l-8.26,24.67C145.69,278.45,146.26,279.59,147.31,279.94z"/>
		<path class="st4" d="M154.3,252.72c2.42,2.69,6.07,5.85,10.96,7.62l2.92-8.73l-12.15-4.07L154.3,252.72z"/>
		<g>
			<path class="st2" d="M155.25,282.6l-0.81,2.43l-10.47,31.27c-0.7,2.08-2.95,3.21-5.03,2.51c-2.08-0.7-3.21-2.95-2.51-5.03
				l9.48-28.32l1.8-5.38L155.25,282.6z"/>
			<polygon class="st8" points="155.25,282.6 154.44,285.02 145.91,285.45 147.71,280.07 			"/>
		</g>
		<g>
			<path class="st9" d="M138.29,207.19c-6.41,18.84,3.66,39.31,22.5,45.72c18.84,6.41,39.31-3.66,45.72-22.5
				c6.41-18.84-3.66-39.31-22.5-45.72C165.17,178.28,144.71,188.36,138.29,207.19z M143.53,208.97
				c5.42-15.92,22.78-24.47,38.71-19.05c15.92,5.42,24.47,22.78,19.05,38.71c-5.42,15.92-22.78,24.47-38.71,19.05
				C146.65,242.26,138.11,224.9,143.53,208.97z"/>
			<path class="st12" d="M141.97,220.94c1.18,16.78,15.79,29.47,32.57,28.29c1.44-0.1,2.85-0.3,4.22-0.59
				c3.56-0.76,6.88-2.13,9.84-4c3.09-1.95,5.8-4.43,8-7.31c3.47-4.52,5.69-10.01,6.19-15.94c0.13-1.55,0.15-3.14,0.03-4.74
				c-1.18-16.78-15.79-29.47-32.57-28.29c-1.6,0.11-3.17,0.35-4.69,0.7c-5.8,1.33-10.93,4.3-14.91,8.36
				c-2.54,2.58-4.62,5.61-6.11,8.95c-1.43,3.2-2.33,6.67-2.58,10.3C141.87,218.08,141.87,219.5,141.97,220.94z"/>
			<path class="st12" d="M150.66,197.43l45.95,39.91c3.47-4.52,5.69-10.01,6.19-15.94l-37.23-32.33
				C159.78,190.39,154.65,193.36,150.66,197.43z"/>
			<path class="st12" d="M141.97,216.68l36.8,31.96c3.56-0.76,6.88-2.13,9.84-4l-44.06-38.27
				C143.12,209.57,142.22,213.05,141.97,216.68z"/>
		</g>
	</g>
	<g>
		<g>
			<g>
				<g>
					<polygon class="st13" points="345.66,301.32 345.27,308.24 350.89,308.36 351.57,301.09 					"/>
					<g>
						<path class="st4" d="M347.5,307.26c0,0,2.89-0.66,3.68-0.61c0.79,0.05,5.87,6.17,7.64,6.59c3.21,0.76,3.02,5.81,1.05,5.99
							c-5.72,0.51-15.38-2.27-15.38-2.27s-0.65-6.52-0.18-8.54C344.77,306.41,345.88,307.8,347.5,307.26z"/>
						<g>
							<g>
								<path class="st6" d="M352.01,312.98c-0.1,0.02-0.21,0-0.3-0.07c-0.18-0.13-0.21-0.38-0.09-0.55
									c0.04-0.06,1.06-1.45,2.28-1.9c1.62-0.6,2.72,0.4,2.76,0.44c0.16,0.15,0.17,0.4,0.02,0.56c-0.15,0.16-0.4,0.17-0.56,0.02
									c-0.03-0.03-0.8-0.7-1.95-0.28c-0.99,0.37-1.91,1.61-1.92,1.62C352.19,312.91,352.1,312.96,352.01,312.98z"/>
							</g>
							<g>
								<path class="st6" d="M350.96,311.74c-0.1,0.02-0.21,0-0.3-0.07c-0.18-0.13-0.22-0.38-0.09-0.55
									c0.04-0.06,1.06-1.45,2.28-1.9c1.62-0.6,2.72,0.4,2.76,0.44c0.16,0.15,0.17,0.4,0.02,0.56c-0.15,0.16-0.4,0.17-0.56,0.02
									c-0.03-0.03-0.8-0.7-1.95-0.28c-1,0.37-1.91,1.61-1.92,1.62C351.15,311.67,351.06,311.73,350.96,311.74z"/>
							</g>
							<g>
								<path class="st6" d="M353.49,314.05c-0.1,0.02-0.21,0-0.3-0.07c-0.18-0.13-0.22-0.38-0.09-0.55
									c0.04-0.06,1.06-1.45,2.28-1.9c1.62-0.6,2.72,0.4,2.76,0.44c0.16,0.15,0.17,0.4,0.02,0.56c-0.15,0.16-0.4,0.17-0.56,0.02
									c-0.03-0.03-0.8-0.7-1.95-0.28c-1,0.37-1.91,1.61-1.92,1.62C353.68,313.98,353.59,314.04,353.49,314.05z"/>
							</g>
						</g>
					</g>
				</g>
				<g>
					<path class="st2" d="M366.3,216.98c0,0-0.12,1.63-0.33,4.32c-0.05,0.71-0.12,1.5-0.19,2.36c-0.73,9.05-2.13,25.4-3.67,37.01
						c-2.15,16.27-8.94,43-8.94,43l-7-0.24l-0.69-0.03l-1.66-0.05c0,0,1.17-16.91,2.65-31.59c0.98-9.68,1.56-32.6,1.84-47.07
						c0.14-7.46,0.21-12.68,0.21-12.68L366.3,216.98z"/>
				</g>
				<path class="st8" d="M366.3,216.98c0,0-0.12,1.63-0.33,4.32c-0.05,0.71-0.12,1.5-0.19,2.36c-3.23,0.6-12.11,1.02-17.46,1.02
					c0.14-7.46,0.21-12.68,0.21-12.68L366.3,216.98z"/>
				<g>
					<path class="st8" d="M352.31,221.19c-0.01,0.56-0.65,53.27-6.13,82.24l-0.69-0.03c5.49-28.88,6.13-81.67,6.14-82.22
						L352.31,221.19z"/>
				</g>
			</g>
			<g>
				<g>
					<polygon class="st13" points="389.57,302.65 389.34,308.89 383.63,308.59 383.5,301.96 					"/>
					<g>
						<g>
							<g>
								<path class="st4" d="M387.88,308.6c0,0,1.24-1.62,2.21-1.54c0.97,0.08,8.35,6.13,10.9,6.66c2.55,0.53,2.03,2.41,1.54,3.36
									c-0.48,0.96-20.41-0.66-20.41-0.66s-0.46-5.95,0.22-7.75C383.03,306.87,385.88,309,387.88,308.6z"/>
								<g>
									<g>
										<path class="st6" d="M391.95,312.81c-0.09,0.03-0.19,0.02-0.28-0.04c-0.17-0.1-0.23-0.32-0.13-0.49
											c0.03-0.06,0.84-1.4,1.9-1.92c1.41-0.69,2.49,0.12,2.54,0.16c0.16,0.12,0.19,0.35,0.07,0.5c-0.12,0.16-0.35,0.19-0.5,0.07
											c-0.03-0.02-0.78-0.57-1.79-0.08c-0.86,0.42-1.58,1.62-1.59,1.64C392.11,312.73,392.04,312.78,391.95,312.81z"/>
									</g>
									<g>
										<path class="st6" d="M390.9,311.78c-0.09,0.03-0.19,0.02-0.28-0.04c-0.17-0.1-0.23-0.32-0.13-0.49
											c0.03-0.06,0.84-1.4,1.9-1.92c1.41-0.69,2.49,0.12,2.54,0.16c0.16,0.12,0.19,0.35,0.07,0.5c-0.12,0.16-0.35,0.19-0.5,0.07
											c-0.03-0.02-0.78-0.57-1.79-0.08c-0.87,0.42-1.58,1.62-1.59,1.64C391.06,311.7,390.98,311.76,390.9,311.78z"/>
									</g>
									<g>
										<path class="st6" d="M393.39,313.65c-0.09,0.03-0.19,0.02-0.28-0.04c-0.17-0.1-0.23-0.32-0.13-0.49
											c0.03-0.06,0.84-1.4,1.9-1.92c1.41-0.69,2.49,0.12,2.54,0.16c0.16,0.12,0.19,0.35,0.07,0.5c-0.12,0.16-0.35,0.19-0.5,0.07
											c-0.03-0.02-0.78-0.57-1.79-0.08c-0.87,0.42-1.58,1.62-1.59,1.64C393.55,313.57,393.47,313.62,393.39,313.65z"/>
									</g>
								</g>
							</g>
						</g>
					</g>
				</g>
				<path class="st2" d="M390.61,304.27l-5.8-0.43l-0.69-0.05l-1.41-0.11c0,0-3.56-33.92-4.67-42.95
					c-0.96-7.85-5.46-25.48-8.38-36.46c-0.83-3.11-1.53-5.69-1.99-7.36c-0.35-1.31-0.56-2.05-0.56-2.05l19.39-1.88
					c0,0,0.05,0.43,0.14,1.19c0.19,1.57,0.55,4.58,0.99,8.35c1.21,10.29,3.05,26.29,3.77,34.44
					C393.22,277.96,390.61,304.27,390.61,304.27z"/>
				<path class="st8" d="M387.63,222.54l-17.97,1.74c-0.83-3.11-1.53-5.69-1.99-7.36l18.98-2.74
					C386.82,215.75,387.19,218.76,387.63,222.54z"/>
				<g>
					<path class="st8" d="M384.81,303.84l-0.69-0.05c-0.34-10.49-1.37-36.68-3.47-47.79c-2.64-14-8.71-34.38-8.78-34.59l0.66-0.2
						c0.06,0.21,6.15,20.62,8.79,34.66C383.44,267.06,384.47,293.38,384.81,303.84z"/>
				</g>
			</g>
			<g>
				<path class="st13" d="M385.39,164.54c0.38,2.53,0.77,4.97,1.12,7c0.55,3.29,0.97,5.54,0.97,5.54l2.98,8.53
					c1.02,2.92,4.41,4.23,7.12,2.76c0.05-0.02,0.1-0.04,0.14-0.07c0.99-0.76,1.78-2.25,2.51-5.74c0,0,0,0,0,0
					c0.02-0.3,2.66-13.32,2.68-18l-6.03-0.57c-0.26-0.56-1.55,6.13-1.84,5.51c-0.18-0.4-0.37-0.81-0.56-1.22
					c-0.32-0.69-0.65-1.4-0.99-2.13c-0.48-1.03-0.98-2.1-1.48-3.17c-3.69-7.93-7.61-16.32-7.61-16.32
					C383.14,147.36,384.19,156.47,385.39,164.54z"/>
				<path class="st14" d="M385.39,164.54c0.38,2.54,0.77,4.97,1.11,7c3.5-1.32,5.74-3.69,6.99-5.4c-0.48-1.03-0.98-2.1-1.48-3.17
					L385.39,164.54z"/>
				<g>
					<path class="st14" d="M393.4,179.8c0.02,0,0.04,0,0.06,0c0.19-0.01,0.34-0.16,0.36-0.35c0.41-4.55,0.9-7.93,1.23-9.95
						c-0.18-0.4-0.37-0.81-0.57-1.22c-0.32,1.79-0.94,5.59-1.43,11.11C393.03,179.6,393.19,179.78,393.4,179.8z"/>
				</g>
				<path class="st3" d="M395.88,162.48c0,0-0.74,0.99-2.06,2.1c-1.6,1.36-4.58,3.08-7.62,3.3c-2.92-9.16-3.84-20.71-2.95-23.76
					C384.76,145.76,392.42,154.92,395.88,162.48z"/>
				<g>
					<path class="st2" d="M393.83,162.64l0.1,0.06l0.81,0.47l0.19-0.34l7.05-0.19c0.6-0.01,1.09-0.48,1.14-1.07l1.3-14.74
						c0.01-0.07,0.01-0.15,0-0.22l0.27-0.42l-0.85-0.49l-0.03-0.02l-0.02-0.01c-0.17-0.09-0.36-0.13-0.56-0.13l-7.48,0.2
						c-0.6,0.01-1.09,0.48-1.13,1.07l-1.3,14.74C393.26,162,393.48,162.41,393.83,162.64z"/>
					<path class="st9" d="M395.36,163.32l7.48-0.2c0.6-0.02,1.09-0.48,1.14-1.07l1.3-14.74c0.06-0.7-0.5-1.29-1.2-1.28l-7.48,0.2
						c-0.6,0.02-1.09,0.48-1.14,1.07l-1.3,14.74C394.1,162.75,394.66,163.34,395.36,163.32z"/>
				</g>
				<path class="st13" d="M404.7,153.76c0.69,0.08,0.12,1.1,0.58,2.52c0.57,1.78-2.38,9.07-2.38,9.07c-2.86,1.3-6.3-0.98-6.3-0.98
					s-0.74-5.56-0.05-8.07c0,0,0.41-2.25,0.53-3.56c0.12-1.31,0.7-2.81,1.12-2.54c0.41,0.27,0.52,1.34,0.53,2.15
					c0.01,0.81,0.17,2.36,0.17,2.36s0.22-1.92,0.26-2.98c0.03-1.06-0.05-2.74,0.6-3.07c0.81-0.41,1.04,1.84,1.14,2.65
					c0.1,0.82-0.22,3.35-0.22,3.35s0.55-2.85,0.41-3.69c-0.14-0.84-0.31-2.49-0.27-3.19c0.04-0.7,0.94-0.58,1.21,0.28
					c0.27,0.86,0.58,2.58,0.65,3.16c0.09,0.74-0.09,3.19-0.09,3.19s0.35-2.8,0.33-3.53c-0.02-0.6-0.2-1.79,0.01-2.48
					c0.21-0.69,1.04-0.82,1.31,0.99c0.26,1.82,0.31,2.03,0.26,2.57c-0.09,0.96-0.25,2.02-0.14,2.41c0.05,0.2,0.28,0.2,0.28,0.2
					L404.7,153.76z"/>
			</g>
			<g>
				<g>
					<g>
						<path class="st3" d="M389.63,214.49c-14.45,4.6-29.13,5.48-44.06,2.66c-0.29-4.06-1.04-17.4-1.61-31.46
							c-0.02-0.47-0.04-0.93-0.06-1.4c-0.01-0.37-0.03-0.75-0.04-1.12c-0.01-0.27-0.02-0.54-0.03-0.81
							c-0.01-0.12-0.01-0.25-0.01-0.37c-0.02-0.37-0.03-0.74-0.04-1.11c-0.01-0.31-0.03-0.61-0.04-0.92c0-0.04,0-0.09,0-0.13
							c0-0.04,0-0.07,0-0.11c-0.01-0.32-0.02-0.65-0.04-0.96c0-0.06-0.01-0.13-0.01-0.19c-0.01-0.39-0.03-0.77-0.04-1.16
							c-0.01-0.27-0.02-0.53-0.03-0.79c0-0.11-0.01-0.21-0.01-0.32c-0.01-0.3-0.02-0.59-0.03-0.89c0-0.09-0.01-0.18-0.01-0.27
							c-0.01-0.27-0.02-0.54-0.02-0.81c0-0.11-0.01-0.23-0.01-0.35c-0.01-0.39-0.03-0.77-0.03-1.15c-0.02-0.37-0.03-0.74-0.03-1.11
							c-0.01-0.25-0.02-0.49-0.03-0.73c-0.02-0.53-0.03-1.06-0.04-1.58c-0.31-12.04-0.27-21.92,0.59-23.28
							c2.01-3.13,11.71-8.18,14.64-10.51l0.03,0.48c0,0,2.07,2.42,4.21,2.1c1.95-0.28,3.31-2.64,3.54-3.07
							c1.59,0.98,5.21,2.5,8.72,4.15c3.52,1.64,6.93,3.39,8.12,4.83c1.01,1.24,2.15,10.87,3.18,22.7l0,0.04
							c0.02,0.22,0.04,0.44,0.06,0.66l0,0.03c0.01,0.17,0.03,0.34,0.05,0.52c0.01,0.11,0.02,0.21,0.03,0.32
							c0.02,0.24,0.04,0.49,0.06,0.73c0.03,0.36,0.06,0.73,0.09,1.1c0.03,0.38,0.06,0.76,0.09,1.15c0.01,0.11,0.02,0.23,0.03,0.34
							c0.02,0.27,0.04,0.54,0.07,0.81c0.01,0.09,0.01,0.18,0.02,0.27c0.02,0.29,0.05,0.59,0.07,0.88l0.02,0.32
							c0.02,0.26,0.04,0.52,0.06,0.79c0.03,0.38,0.06,0.77,0.09,1.15c0,0.06,0.01,0.12,0.01,0.19c0.02,0.32,0.05,0.64,0.07,0.96
							c0,0.04,0.01,0.07,0.01,0.11c0,0.04,0.01,0.09,0.01,0.13c0.03,0.31,0.05,0.61,0.07,0.92c0.03,0.36,0.06,0.73,0.08,1.1
							c0.01,0.12,0.02,0.25,0.03,0.37c0.02,0.27,0.04,0.54,0.06,0.81c0.03,0.37,0.06,0.75,0.08,1.12c0.03,0.47,0.07,0.93,0.1,1.4
							C388.69,197.04,389.44,210.38,389.63,214.49z"/>
					</g>
				</g>
				<g>
					<path class="st4" d="M386.84,171.72l-43.29,2.62c0-0.11-0.01-0.23-0.01-0.35c-0.01-0.39-0.03-0.77-0.03-1.15
						c-0.02-0.37-0.03-0.74-0.03-1.11c-0.01-0.25-0.02-0.49-0.03-0.73l43.12-2.61c0.02,0.24,0.04,0.49,0.06,0.73
						c0.03,0.36,0.06,0.73,0.09,1.1c0.03,0.38,0.06,0.76,0.09,1.15C386.82,171.49,386.83,171.6,386.84,171.72z"/>
					<path class="st4" d="M387.27,177.32l-43.54,2.63c0-0.04,0-0.09,0-0.13c0-0.04,0-0.07,0-0.11c-0.01-0.32-0.02-0.65-0.04-0.96
						c0-0.06-0.01-0.13-0.01-0.19c-0.01-0.39-0.03-0.77-0.04-1.16c-0.01-0.27-0.02-0.53-0.03-0.79l43.4-2.62
						c0.02,0.26,0.04,0.52,0.06,0.79c0.03,0.38,0.06,0.77,0.09,1.15c0,0.06,0.01,0.12,0.01,0.19c0.02,0.32,0.05,0.64,0.07,0.96
						c0,0.04,0.01,0.07,0.01,0.11C387.27,177.24,387.27,177.28,387.27,177.32z"/>
					<path class="st4" d="M387.7,183.04l-43.74,2.64c-0.02-0.47-0.04-0.93-0.06-1.4c-0.01-0.37-0.03-0.75-0.04-1.12
						c-0.01-0.27-0.02-0.54-0.03-0.81l43.62-2.64c0.02,0.27,0.04,0.54,0.06,0.81c0.03,0.37,0.06,0.75,0.08,1.12
						C387.63,182.11,387.66,182.58,387.7,183.04z"/>
				</g>
				<g>
					<path class="st4" d="M381.63,160.95c1.37,1.63,3.44,5.39,4.38,7.12c0.13,0.24,0.23,0.44,0.31,0.59
						c0.11,0.2,0.17,0.32,0.17,0.32c0.03,0.06,0.08,0.11,0.13,0.14c-0.03-0.35-0.06-0.7-0.09-1.05c-0.01-0.17-0.03-0.35-0.04-0.52
						l0-0.03c-0.19-0.35-0.42-0.77-0.67-1.23c-1.06-1.91-2.56-4.47-3.66-5.79c-0.12-0.14-0.34-0.16-0.48-0.04
						C381.53,160.59,381.51,160.8,381.63,160.95z"/>
				</g>
				<g>
					<path class="st4" d="M352.68,149.41c0,0,0.01,0,0.01,0c5.83-0.54,10.19-3.24,12.82-5.41c2.85-2.35,4.3-4.55,4.37-4.64
						c0.1-0.16,0.06-0.37-0.1-0.47c-0.16-0.1-0.37-0.06-0.47,0.1c-0.06,0.09-5.86,8.75-16.68,9.75c-0.19,0.02-0.33,0.18-0.31,0.37
						C352.33,149.28,352.49,149.42,352.68,149.41z"/>
				</g>
				<g>
					<path class="st4" d="M377.88,207.13c0.18-0.01,0.32-0.16,0.32-0.34c0-0.19-0.15-0.34-0.34-0.34
						c-9.62-0.05-15.63-4.56-18.98-8.34c-3.64-4.11-5.02-8.26-5.03-8.3c-0.06-0.18-0.25-0.28-0.43-0.22
						c-0.18,0.06-0.28,0.25-0.22,0.43c0.06,0.17,1.42,4.31,5.15,8.52c3.44,3.89,9.62,8.54,19.51,8.59
						C377.87,207.13,377.87,207.13,377.88,207.13z"/>
				</g>
				<g>
					<path class="st4" d="M369.75,201.42c0.15-0.01,0.28-0.12,0.31-0.27c0.04-0.18-0.08-0.36-0.27-0.4
						c-8.47-1.75-10.49-8.61-10.51-8.68c-0.05-0.18-0.24-0.29-0.42-0.24c-0.18,0.05-0.29,0.24-0.24,0.42
						c0.02,0.08,0.53,1.87,2.15,3.9c1.49,1.87,4.24,4.3,8.88,5.26C369.69,201.42,369.72,201.42,369.75,201.42z"/>
				</g>
			</g>
			<g>
				<path class="st4" d="M347.61,161.88c-1.16,1.78-2.77,5.76-3.49,7.6c-0.1,0.25-0.18,0.46-0.24,0.62
					c-0.08,0.21-0.13,0.33-0.13,0.34c-0.05,0.13-0.17,0.21-0.3,0.22l-0.01,0c-0.01-0.17-0.01-0.35-0.02-0.52
					c-0.1,0.01-0.2,0.01-0.3,0.01c0.04-0.1,0.14-0.36,0.27-0.71c0.17-0.45,0.41-1.06,0.7-1.76c0.82-2.02,2-4.75,2.94-6.18
					c0.1-0.16,0.31-0.2,0.47-0.1C347.67,161.51,347.71,161.73,347.61,161.88z"/>
			</g>
			<g>
				<path class="st2" d="M350.87,114.61c0,0-0.97-4.28-0.01-5.81c0.96-1.53,2.7-1.2,4.42-3c1.73-1.8,7.39-0.52,9.8-1.11
					c1.33-0.32,2.76-0.23,4.06-0.58c1.85-0.49,2.97,1.31,2.63,3.17c-0.22,1.19-0.7,2.98-2.36,3.54
					C369.41,110.83,353.03,108.86,350.87,114.61z"/>
				<path class="st2" d="M350.7,118.09c0.38,6.26,4.49,10.34,10.75,9.96c6.26-0.38,10.34-5.28,9.96-11.54
					c-0.38-6.26-4.37-10.78-10.63-10.4C353.28,106.57,350.33,111.83,350.7,118.09z"/>
				<g>
					<path class="st14" d="M352.27,120.7c0,0-1.88-2.21-3.06-0.22c-1.18,2,0.99,7.55,4.07,5.97L352.27,120.7z"/>
					<g>
						<g>
							<g>
								<path class="st15" d="M352.49,124.75c-0.12,0.01-0.23-0.06-0.27-0.18c-0.6-1.72-2.45-2.32-2.47-2.32
									c-0.14-0.04-0.22-0.19-0.18-0.34c0.04-0.14,0.19-0.22,0.33-0.18c0.09,0.03,2.13,0.68,2.82,2.66
									c0.05,0.14-0.03,0.29-0.17,0.34C352.54,124.74,352.52,124.74,352.49,124.75z"/>
							</g>
						</g>
					</g>
					<g>
						<path class="st15" d="M350.61,123.98c-0.05,0-0.1-0.01-0.15-0.03c-0.13-0.07-0.17-0.24-0.1-0.36c0.01-0.02,0.3-0.53,0.96-0.87
							c0.13-0.07,0.29-0.02,0.36,0.11c0.07,0.13,0.02,0.29-0.11,0.36c-0.5,0.26-0.73,0.65-0.74,0.66
							C350.78,123.92,350.7,123.97,350.61,123.98z"/>
					</g>
				</g>
				<g>
					<path class="st14" d="M370.19,119.62c0,0,1.6-2.42,3.01-0.58c1.41,1.84-0.08,7.61-3.33,6.42L370.19,119.62z"/>
					<g>
						<g>
							<g>
								<path class="st15" d="M370.46,123.66c0.12-0.01,0.22-0.09,0.25-0.21c0.38-1.78,2.15-2.6,2.17-2.6
									c0.13-0.06,0.19-0.22,0.13-0.35c-0.06-0.13-0.22-0.2-0.35-0.13c-0.08,0.04-2.03,0.93-2.48,2.98
									c-0.03,0.14,0.06,0.29,0.21,0.32C370.41,123.66,370.43,123.66,370.46,123.66z"/>
							</g>
						</g>
					</g>
					<g>
						<g>
							<g>
								<path class="st15" d="M372.23,122.67c0.05,0,0.1-0.02,0.14-0.05c0.12-0.09,0.15-0.26,0.06-0.37
									c-0.01-0.02-0.36-0.49-1.05-0.75c-0.14-0.05-0.29,0.02-0.35,0.16c-0.05,0.14,0.02,0.29,0.16,0.35
									c0.53,0.2,0.81,0.56,0.81,0.56C372.06,122.64,372.15,122.67,372.23,122.67z"/>
							</g>
						</g>
					</g>
				</g>
				<path class="st13" d="M366.15,130.5l0.34,5.63c0,0-1.51,2.97-3.77,3.3c-2.26,0.34-4.43-2.21-4.43-2.21l-0.35-5.83L366.15,130.5z
					"/>
				<path class="st14" d="M366.15,130.5l0.15,2.5c-1.42,1.78-4.1,2.37-8.14,2.02l-0.22-3.62L366.15,130.5z"/>
				<path class="st13" d="M351.34,120.65c0.04,0.32,0.09,0.65,0.14,0.99c0.14,0.83,0.3,1.69,0.51,2.54
					c0.01,0.03,0.01,0.06,0.02,0.09c1.01,4.11,2.95,8.09,6.7,9.17c8.48,2.46,11.01-4.83,11.95-9.05c0.1-0.47,0.19-0.99,0.26-1.54
					c0-0.02,0.01-0.04,0.01-0.07c0.08-0.62,0.14-1.28,0.18-1.96c0.03-0.5,0.06-1.01,0.07-1.53c0.05-1.25,0.05-2.5,0.03-3.6
					c-0.03-2.53-1.68-4.76-4.1-5.52c-3.48-1.1-8.71-1.83-13.44,1.25c-1.75,1.13-2.77,3.1-2.68,5.18
					C351.04,117.73,351.14,119.14,351.34,120.65z"/>
				<path class="st2" d="M357.97,120.8c0.04,0.6-0.24,1.11-0.63,1.13c-0.38,0.02-0.72-0.45-0.76-1.05c-0.04-0.6,0.24-1.11,0.63-1.13
					C357.59,119.73,357.93,120.2,357.97,120.8z"/>
				<path class="st2" d="M366.45,120.29c0.04,0.6-0.24,1.11-0.63,1.13c-0.38,0.02-0.72-0.45-0.76-1.05
					c-0.04-0.6,0.24-1.11,0.63-1.13C366.07,119.22,366.41,119.69,366.45,120.29z"/>
				<path class="st2" d="M367.42,116.51c0,0-2.24-0.73-3.87,0.1l0.22,0.92c0,0,2.45-0.36,3.73,0.07
					C367.59,117.24,367.59,116.87,367.42,116.51z"/>
				<path class="st2" d="M354.48,117.3c0,0,2.13-0.99,3.86-0.37l-0.11,0.95c0,0-2.48-0.06-3.69,0.52
					C354.4,118.04,354.36,117.67,354.48,117.3z"/>
				<g>
					<path class="st14" d="M361.81,125.19c-0.44,0.08-0.92-0.01-0.99-0.03c-0.14-0.03-0.24-0.17-0.21-0.32
						c0.03-0.14,0.17-0.24,0.32-0.21c0.26,0.05,0.86,0.1,1.08-0.09c0.04-0.04,0.1-0.11,0.08-0.27c-0.07-0.94-0.89-3.98-0.9-4.01
						c-0.04-0.14,0.05-0.29,0.19-0.33c0.14-0.04,0.29,0.05,0.33,0.19c0.03,0.13,0.84,3.12,0.92,4.1c0.03,0.37-0.13,0.59-0.26,0.71
						C362.21,125.08,362.01,125.15,361.81,125.19z"/>
				</g>
				<path class="st6" d="M358.25,127.01c0.29,1.09,1.13,3.07,3.58,2.92c2.45-0.15,3.03-2.04,3.19-3.33L358.25,127.01z"/>
				<path class="st2" d="M371.17,119.6l-1.21,0.07c0.06-1.23-0.47-2.67-0.9-3.63c-0.96-2.17,0.74-3.26-0.75-4.29
					c-1.49-1.03-5.01-0.34-7.49-0.27c-2.49,0.07-6.48,0.35-7.43,0.63c-0.96,0.28-0.33,1.86,0.1,3.09c0.43,1.22-1.03,2.7-1.21,4.01
					c-0.05,0.38,0,0.93,0.09,1.52l-1.01,0.06c-0.21-1.57-0.32-3.03-0.37-4.22c-0.09-2.08,0.93-4.05,2.68-5.18
					c4.73-3.07,9.96-2.35,13.44-1.25c2.42,0.76,4.07,2.99,4.1,5.52C371.23,116.88,371.22,118.25,371.17,119.6z"/>
				<g>
					<g>
						<path class="st6" d="M362.6,120.95c-0.11-1.76,1.24-3.27,2.99-3.38c1.76-0.11,3.27,1.24,3.38,2.99
							c0.11,1.76-1.24,3.27-2.99,3.38C364.23,124.05,362.71,122.7,362.6,120.95z M363.1,120.92c0.09,1.48,1.37,2.62,2.85,2.53
							c1.48-0.09,2.62-1.37,2.53-2.85c-0.09-1.48-1.37-2.62-2.85-2.53C364.15,118.15,363.01,119.43,363.1,120.92z"/>
					</g>
					<g>
						<path class="st6" d="M353.89,121.47c-0.11-1.76,1.24-3.27,2.99-3.38c1.76-0.11,3.27,1.24,3.38,2.99
							c0.11,1.76-1.24,3.27-2.99,3.38C355.52,124.57,354,123.23,353.89,121.47z M354.39,121.44c0.09,1.48,1.37,2.62,2.85,2.53
							c1.48-0.09,2.62-1.37,2.53-2.85c-0.09-1.48-1.37-2.62-2.85-2.53C355.43,118.68,354.3,119.96,354.39,121.44z"/>
					</g>
					<g>
						<path class="st6" d="M368.38,119.57c0.06,0,0.13-0.03,0.17-0.08l0,0c0.01-0.02,1.38-1.51,3.3-1.18
							c0.14,0.02,0.26-0.07,0.29-0.2c0.02-0.14-0.07-0.26-0.2-0.29c-2.2-0.38-3.7,1.27-3.76,1.34c-0.09,0.1-0.08,0.26,0.02,0.35
							C368.25,119.55,368.31,119.57,368.38,119.57z"/>
					</g>
					<g>
						<path class="st6" d="M354.31,120.42c0.08,0,0.16-0.05,0.2-0.13c0.07-0.12,0.03-0.27-0.09-0.34c-0.1-0.06-2.44-1.37-4.34-0.94
							c-0.13,0.03-0.22,0.16-0.19,0.3c0.03,0.13,0.16,0.22,0.3,0.19c1.71-0.39,3.96,0.88,3.98,0.89
							C354.22,120.41,354.26,120.42,354.31,120.42z"/>
					</g>
					<g>
						<path class="st6" d="M360.05,120.38c0.01-0.01,0.55-0.84,1.32-0.89c0.77-0.05,1.35,0.72,1.36,0.73l0.4-0.3
							c-0.03-0.04-0.75-0.99-1.79-0.93c-1.03,0.06-1.69,1.08-1.71,1.12L360.05,120.38z"/>
					</g>
				</g>
			</g>
			<g>
				<path class="st13" d="M346.48,211.22l-2.82,3.85c0,0-1.63-1.02-3.85-2.8c-0.01-0.01-0.01-0.01-0.01-0.01
					c-3.37-2.7-8.1-7.13-10.51-12.35c-3.02-6.52-2.13-11.8-2.13-11.8c0.4-3.87,2.99-11.73,5.05-17.56c0.75-2.12,1.44-3.96,1.92-5.26
					l6.3,1.45l2.7,1.66l-1.04,2.74l-6.95,18.45c0.61,5.41,3.35,10.73,5.99,14.74C343.86,208.47,346.48,211.22,346.48,211.22z"/>
				<path class="st14" d="M346.48,211.22l-2.82,3.85c0,0-1.63-1.02-3.85-2.8c-0.01-0.01-0.01-0.01-0.01-0.01
					c-0.49-2.91-0.19-7.02,1.33-7.95C343.86,208.47,346.48,211.22,346.48,211.22z"/>
				<path class="st13" d="M344.98,206.78c0.57,0.04,3.59,0.19,3.26-0.85c-0.36-1.14-3.33-2.48-3.33-2.48s-0.02-0.06,0.01-0.13
					l-0.03-0.24l-0.13-2.45c-0.57,0-1.1,0.12-1.39,0.2c-1.3,0.4-1.12,3.38-1.12,3.38s-1.64,0.59-1.58,1.79
					c0.06,1.2,1.38,1.38,1.38,1.38s-1.81,0.9-1.38,1.92c0.42,1.02,1.79,1.32,1.79,1.32s-1.55,1.02-1.01,1.74
					c0.54,0.72,1.8,1.08,1.8,1.08s-1.08,1.46,0.02,2.26c1.1,0.8,2.71,0.62,3.75,0.26c1.04-0.36,0.86-1.68-1.18-2.64
					c0,0,1.8,0.18,2.7-1.32c0.75-1.25-1.17-1.79-2.8-2.01c1.28,0.09,3.5,0.05,3.88-1.18C350.12,207.21,345.67,206.83,344.98,206.78z
					"/>
				<path class="st14" d="M343.13,168.39l-1.04,2.74c-2.09,0.13-5.84,0.19-9.88-0.58c0.75-2.12,1.44-3.96,1.92-5.26l6.3,1.45
					L343.13,168.39z"/>
				<path class="st3" d="M344,146.14c0,0-7.67,7.7-13.27,21.12c4.39,1.42,8.55,2.42,12.4,2.9c0.51-0.89,2.52-6.63,4.04-10.78
					L344,146.14z"/>
			</g>
		</g>
	</g>
</g>
</svg>
