<?xml version="1.0" encoding="utf-8"?>
<!-- Generator: Adobe Illustrator 24.3.0, SVG Export Plug-In . SVG Version: 6.00 Build 0)  -->
<svg version="1.1" id="Layer_1" xmlns="http://www.w3.org/2000/svg" xmlns:xlink="http://www.w3.org/1999/xlink" x="0px" y="0px"
	 viewBox="0 0 550 370" style="enable-background:new 0 0 550 370;" xml:space="preserve">
<style type="text/css">
	.st0{fill:#CAE6FE;}
	.st1{fill:#2A365C;}
	.st2{fill:#439AD7;}
	.st3{fill:#009EF3;}
	.st4{fill:#007CE6;}
	.st5{fill:#FEFDFF;}
	.st6{fill:#ABD3F2;}
	.st7{fill:#16162F;}
	.st8{fill:#445279;}
	.st9{opacity:0.2;}
	.st10{opacity:0.3;fill:#FEFDFF;}
	.st11{opacity:0.5;fill:#FEFDFF;}
	.st12{fill:#FBA691;}
	.st13{fill:#FD857D;}
	.st14{fill:#F05B56;}
	.st15{fill:#FFFFFF;stroke:#FFFFFF;stroke-width:0.5;stroke-miterlimit:10;}
	.st16{fill:#ECECEC;}
	.st17{fill:#E1E1E1;}
	.st18{fill:#F0F0F0;}
	.st19{fill:#F5F5F5;}
	.st20{fill:#033557;}
	.st21{fill:#439AD4;}
	.st22{opacity:0.3;fill:#007CFF;}
	.st23{fill:#FFFFFF;}
	.st24{fill:#002A68;}
	.st25{opacity:0.3;fill:#FFFFFF;}
	.st26{fill:#007CFF;}
</style>
<g>
	<g>
		<g>
			<path class="st16" d="M260.39,150.33l0.3-8.89l-5.46-1.78c-0.22-3.04-0.73-6.04-1.46-8.93l4.63-3.41l-3.14-8.35l-5.72,0.46
				c-1.36-2.7-2.97-5.27-4.76-7.68l2.96-4.95l-6.09-6.5l-5.12,2.62c-2.3-1.96-4.73-3.73-7.33-5.3l0.83-5.68l-8.12-3.68l-3.72,4.36
				c-2.83-0.92-5.77-1.61-8.8-2.06L208.01,85l-8.91-0.31l-1.76,5.46c-3.06,0.25-6.04,0.73-8.93,1.46l-3.43-4.6l-8.35,3.12l0.46,5.72
				c-2.7,1.39-5.27,2.99-7.68,4.79l-4.92-2.96l-6.52,6.07l2.62,5.14c-1.96,2.28-3.73,4.73-5.28,7.33l-5.68-0.85l-3.71,8.11
				l4.38,3.72c-0.92,2.83-1.63,5.79-2.06,8.81l-5.59,1.4l-0.3,8.89l5.48,1.78c0.22,3.06,0.73,6.04,1.46,8.93l-4.63,3.41l3.14,8.35
				l5.72-0.46c1.36,2.7,2.97,5.27,4.76,7.68l-2.96,4.95l6.09,6.5l5.11-2.62c2.28,1.96,4.73,3.73,7.33,5.3l-0.85,5.68l8.12,3.68
				l3.74-4.36c2.83,0.92,5.77,1.61,8.81,2.06l1.38,5.57l8.91,0.31l1.76-5.46c3.06-0.25,6.04-0.73,8.93-1.46l3.41,4.6l8.35-3.12
				l-0.44-5.72c2.7-1.39,5.25-2.99,7.68-4.79l4.92,2.96l6.52-6.07l-2.62-5.14c1.96-2.28,3.73-4.73,5.28-7.33l5.68,0.85l3.71-8.12
				l-4.38-3.72c0.92-2.83,1.63-5.77,2.06-8.8L260.39,150.33z M200.32,179.13c-19.47-0.67-34.71-16.99-34.04-36.46
				c0.67-19.49,16.99-34.73,36.46-34.07c19.47,0.67,34.71,16.99,34.04,36.48C236.11,164.55,219.79,179.79,200.32,179.13z"/>
		</g>
		<g>
			<path class="st16" d="M412.51,120.94l2.24-2.09l-0.9-1.77c0.69-0.8,1.29-1.65,1.82-2.53l1.96,0.3l1.27-2.8l-1.51-1.28
				c0.33-0.99,0.56-2.01,0.71-3.03l1.93-0.48l0.1-3.07l-1.89-0.61c-0.08-1.04-0.24-2.06-0.5-3.08l1.59-1.18l-1.08-2.88l-1.97,0.16
				c-0.47-0.91-1.01-1.8-1.64-2.65l1.02-1.69l-2.1-2.25l-1.76,0.9c-0.81-0.69-1.65-1.29-2.53-1.82l0.28-1.96l-2.8-1.28l-1.28,1.51
				c-1-0.32-2.01-0.56-3.04-0.71l-0.48-1.92l-3.07-0.11l-0.61,1.89c-1.03,0.08-2.06,0.24-3.07,0.5l-1.18-1.59l-2.88,1.07l0.16,1.98
				c-0.91,0.47-1.81,1.01-2.65,1.64l-1.71-1.02l-2.24,2.09l0.9,1.77c-0.69,0.8-1.29,1.65-1.82,2.53l-1.96-0.3l-1.27,2.8l1.51,1.28
				c-0.33,0.99-0.56,2.01-0.71,3.03l-1.93,0.48l-0.1,3.07l1.89,0.61c0.08,1.03,0.24,2.06,0.5,3.08l-1.59,1.18l1.08,2.88l1.97-0.15
				c0.47,0.91,1.01,1.8,1.64,2.65l-1.02,1.69l2.1,2.25l1.76-0.9c0.81,0.69,1.65,1.29,2.53,1.82l-0.29,1.95l2.8,1.28l1.29-1.5
				c1,0.32,2.01,0.55,3.04,0.71l0.48,1.92l3.07,0.11l0.61-1.89c1.03-0.08,2.06-0.24,3.07-0.5l1.18,1.59l2.88-1.08l-0.16-1.98
				c0.91-0.47,1.8-1.01,2.65-1.64L412.51,120.94z M396.53,108c-1.65-1.77-1.55-4.54,0.21-6.19c1.77-1.65,4.54-1.56,6.19,0.21
				c1.65,1.77,1.55,4.54-0.21,6.19C400.95,109.86,398.18,109.76,396.53,108z"/>
		</g>
		<path class="st16" d="M330.68,212.2l-7-4.83c0-0.01,0-0.01,0-0.02c-0.69-2.54-1.65-4.99-2.81-7.29l1.79-7.03l-10.15-10.87
			l-7.14,1.31c-2.21-1.32-4.59-2.44-7.07-3.3c-0.01,0-0.01,0-0.02-0.01l-4.34-7.31l-14.86-0.51l-4.83,7c-0.01,0-0.02,0-0.03,0.01
			c-2.54,0.69-4.98,1.64-7.28,2.81l-7.03-1.79l-10.87,10.15l1.3,7.13c0,0,0,0,0,0.01c-1.35,2.24-2.44,4.61-3.3,7.1l-7.31,4.34
			l-0.51,14.86l7,4.83c0.69,2.56,1.62,5,2.81,7.32c0,0,0,0,0,0l-1.79,7.01l10.15,10.87l7.1-1.3c2.24,1.32,4.62,2.44,7.13,3.31
			c0,0,0,0,0.01,0l4.34,7.3l14.86,0.51l4.83-6.99c2.57-0.69,5.02-1.64,7.34-2.81c0,0,0,0,0,0l7,1.78l10.87-10.15l-1.3-7.13
			c1.35-2.24,2.44-4.61,3.3-7.1c0,0,0,0,0,0l7.31-4.34L330.68,212.2z M284.38,234.78c-9.24-0.32-16.45-8.07-16.14-17.28
			c0.32-9.24,8.04-16.45,17.28-16.14c9.24,0.32,16.45,8.04,16.14,17.28C301.34,227.86,293.61,235.1,284.38,234.78z"/>
		<path class="st16" d="M346.62,170c-0.02,0-0.03,0-0.05,0l-11.71-0.4c-0.49-0.02-0.93-0.28-1.18-0.7l-3.15-5.31
			c-1.68-0.61-3.33-1.38-4.93-2.28l-5.08,0.93c-0.48,0.09-0.97-0.07-1.3-0.43l-8-8.57c-0.33-0.36-0.46-0.86-0.34-1.33l1.28-5.01
			c-0.78-1.59-1.43-3.28-1.93-5.05l-5.09-3.52c-0.4-0.28-0.63-0.74-0.62-1.22l0.4-11.71c0.02-0.49,0.28-0.93,0.7-1.18l5.32-3.16
			c0.63-1.73,1.4-3.37,2.28-4.9l-0.93-5.1c-0.09-0.48,0.07-0.97,0.43-1.3l8.57-8c0.36-0.33,0.86-0.46,1.33-0.34l5.03,1.28
			c1.63-0.79,3.32-1.44,5.04-1.94l3.52-5.09c0.28-0.4,0.73-0.65,1.22-0.62l11.71,0.4c0.49,0.02,0.93,0.28,1.18,0.7l3.16,5.32
			c1.68,0.62,3.32,1.38,4.89,2.28l5.11-0.94c0.48-0.09,0.97,0.07,1.3,0.43l8,8.57c0.33,0.36,0.46,0.86,0.34,1.33l-1.28,5.03
			c0.79,1.63,1.44,3.32,1.94,5.04l5.09,3.51c0.4,0.28,0.63,0.74,0.62,1.22l-0.4,11.71c-0.02,0.49-0.28,0.93-0.7,1.18l-5.32,3.16
			c-0.63,1.73-1.39,3.37-2.28,4.9l0.93,5.1c0.09,0.48-0.07,0.97-0.43,1.3l-8.57,8c-0.36,0.33-0.85,0.46-1.33,0.34l-5.01-1.28
			c-1.65,0.8-3.35,1.45-5.07,1.94l-3.51,5.09C347.52,169.77,347.08,170,346.62,170z M335.73,166.77l10.15,0.35l3.36-4.87
			c0.19-0.28,0.48-0.48,0.8-0.57c1.87-0.5,3.73-1.21,5.52-2.11c0,0,0.01,0,0.01,0c0.3-0.15,0.65-0.19,0.99-0.1l4.76,1.21l7.42-6.93
			l-0.89-4.85c-0.06-0.34,0-0.7,0.18-0.99c0.98-1.63,1.81-3.41,2.47-5.3c0.11-0.34,0.34-0.62,0.64-0.79l5.09-3.02l0.35-10.15
			l-4.87-3.36c-0.25-0.18-0.45-0.43-0.54-0.72c-0.01-0.04-0.02-0.08-0.03-0.11c-0.51-1.87-1.22-3.7-2.11-5.45
			c-0.16-0.31-0.2-0.66-0.11-1l1.22-4.79l-6.93-7.43l-4.86,0.89c-0.34,0.06-0.69,0-0.99-0.18c-1.69-1.01-3.48-1.84-5.31-2.48
			c-0.1-0.04-0.21-0.08-0.3-0.14c-0.2-0.12-0.36-0.29-0.48-0.49l-3.03-5.09l-10.15-0.35l-3.36,4.87c-0.2,0.29-0.5,0.49-0.84,0.58
			c-1.88,0.51-3.71,1.22-5.45,2.11c-0.31,0.16-0.66,0.2-1,0.11l-4.79-1.22l-7.43,6.93l0.89,4.85c0.06,0.3,0.01,0.62-0.13,0.9
			c-0.02,0.04-0.04,0.08-0.06,0.11c-0.98,1.63-1.81,3.42-2.47,5.32c-0.11,0.32-0.33,0.59-0.62,0.76l-5.09,3.02l-0.35,10.15
			l4.88,3.37c0.28,0.19,0.48,0.48,0.57,0.8c0.53,1.95,1.23,3.79,2.1,5.49c0.05,0.1,0.09,0.2,0.12,0.31c0.06,0.23,0.06,0.47,0,0.7
			l-1.22,4.77l6.93,7.42l4.83-0.88c0.34-0.06,0.69,0,0.98,0.18c1.72,1.02,3.52,1.85,5.34,2.48c0.33,0.1,0.61,0.33,0.79,0.63
			L335.73,166.77z M352.5,102.63L352.5,102.63L352.5,102.63z M342,153.94c-0.25,0-0.5,0-0.75-0.01
			c-11.8-0.4-21.07-10.33-20.67-22.13c0.4-11.8,10.35-21.07,22.14-20.67c11.8,0.4,21.07,10.33,20.67,22.14
			c-0.2,5.71-2.6,11-6.78,14.91C352.61,151.91,347.45,153.94,342,153.94z M341.98,113.97c-9.94,0-18.2,7.91-18.54,17.92
			c-0.35,10.23,7.68,18.83,17.91,19.18c4.96,0.17,9.68-1.6,13.3-4.99c3.62-3.38,5.71-7.97,5.88-12.92
			c0.35-10.23-7.68-18.83-17.91-19.18C342.4,113.97,342.19,113.97,341.98,113.97z"/>
		<g>
			<polygon class="st17" points="373.6,85.69 368.75,84.39 367.44,79.54 369.34,77.64 371.35,81.79 375.5,83.79 			"/>
			<path class="st17" d="M373.9,82.45c0.88-0.88,0.88-2.32,0-3.21c-0.88-0.88-2.32-0.88-3.2,0.01l2.41-3.62l3.24,1.64l0.71,3.4
				L373.9,82.45z"/>
			<path class="st18" d="M368.96,78.02l3.56-3.56l4.85,1.3l1.3,4.85l-3.56,3.56l-4.85-1.3L368.96,78.02z M375.42,80.93
				c0.88-0.88,0.88-2.32,0-3.21c-0.88-0.88-2.32-0.88-3.2,0.01c-0.88,0.88-0.88,2.31,0,3.2C373.1,81.81,374.53,81.81,375.42,80.93z"
				/>
		</g>
		<g>
			<polygon class="st17" points="175.26,215.15 177.86,214.45 178.56,211.85 177.54,210.83 176.46,213.06 174.24,214.13 			"/>
			<path class="st17" d="M175.1,213.41c-0.47-0.47-0.47-1.25,0-1.72c0.47-0.47,1.24-0.47,1.72,0l-1.3-1.94l-1.74,0.88l-0.38,1.83
				L175.1,213.41z"/>
			<path class="st18" d="M177.75,211.04l-1.91-1.91l-2.6,0.7l-0.7,2.6l1.91,1.91l2.6-0.7L177.75,211.04z M174.28,212.6
				c-0.47-0.47-0.47-1.25,0-1.72c0.47-0.47,1.24-0.47,1.72,0s0.47,1.24,0,1.71C175.53,213.07,174.76,213.07,174.28,212.6z"/>
		</g>
		<g>
			<path class="st18" d="M165.88,72.39l2.16,2.16c0.56,0.56,1.48,0.56,2.05,0l0,0c0.56-0.56,0.56-1.48,0-2.05l-2.16-2.16
				c-0.56-0.56-1.48-0.56-2.05,0l0,0C165.32,70.91,165.32,71.83,165.88,72.39z"/>
			<path class="st17" d="M164.36,67.01c1.67-0.6,3.47,0.18,4.03,1.75c0.56,1.56-0.33,3.32-2,3.91c-1.67,0.6-3.47-0.18-4.03-1.75
				C161.8,69.36,162.69,67.61,164.36,67.01z"/>
			
				<rect x="164.91" y="66.43" transform="matrix(-0.338 -0.9411 0.9411 -0.338 155.5501 249.0937)" class="st18" width="0.93" height="6.83"/>
		</g>
	</g>
	<ellipse id="_x3C_Path_x3E__373_" class="st19" cx="283.34" cy="296.01" rx="131.15" ry="7.66"/>
	<g>
		<g>
			<path class="st20" d="M172.89,96.06c-0.68-2.98-0.37-5.49,0.91-7.52c1.28-2.04,3.4-3.39,6.37-4.07c3.04-0.69,5.56-0.41,7.58,0.85
				c2.01,1.26,3.35,3.35,4.02,6.29c0.48,2.13,0.52,3.96,0.12,5.49c-0.41,1.53-1.2,2.83-2.39,3.89c-1.18,1.07-2.79,1.83-4.81,2.29
				c-2.06,0.47-3.84,0.53-5.33,0.18c-1.5-0.35-2.83-1.14-3.99-2.37C174.19,99.87,173.37,98.19,172.89,96.06z M178.53,94.8
				c0.42,1.84,1.06,3.09,1.93,3.74c0.87,0.65,1.89,0.84,3.07,0.57c1.21-0.27,2.06-0.88,2.54-1.82c0.48-0.94,0.49-2.43,0.03-4.47
				c-0.39-1.72-1.02-2.89-1.9-3.53c-0.87-0.63-1.9-0.82-3.09-0.55c-1.14,0.26-1.96,0.87-2.46,1.83
				C178.15,91.53,178.11,92.94,178.53,94.8z"/>
			<path class="st20" d="M194.45,93.83c-0.46-2.02-0.16-3.83,0.91-5.45c1.06-1.62,2.75-2.69,5.07-3.21c2.65-0.6,4.82-0.29,6.52,0.94
				c1.37,0.99,2.26,2.39,2.67,4.2c0.46,2.03,0.17,3.85-0.89,5.46c-1.05,1.61-2.77,2.68-5.15,3.22c-2.12,0.48-3.96,0.33-5.52-0.45
				C196.14,97.56,194.94,95.99,194.45,93.83z M199.52,92.66c0.27,1.18,0.7,2,1.31,2.45c0.61,0.46,1.27,0.6,1.99,0.44
				c0.73-0.17,1.27-0.58,1.61-1.24c0.34-0.66,0.37-1.61,0.1-2.84c-0.26-1.15-0.69-1.94-1.29-2.4c-0.6-0.45-1.25-0.6-1.95-0.44
				c-0.74,0.17-1.28,0.59-1.64,1.27C199.3,90.58,199.26,91.5,199.52,92.66z"/>
			<path class="st20" d="M214.74,101.42l-4.15-18.25l4.74-1.08l0.44,1.95c0.47-0.97,0.94-1.66,1.43-2.08
				c0.65-0.56,1.42-0.94,2.32-1.14c1.77-0.4,3.29-0.04,4.56,1.1c1.27,1.13,2.14,2.7,2.59,4.69c0.5,2.2,0.35,4-0.44,5.39
				c-0.79,1.4-1.99,2.28-3.6,2.64c-0.78,0.18-1.52,0.21-2.23,0.09c-0.7-0.12-1.37-0.38-1.99-0.79l1.43,6.31L214.74,101.42z
				 M217.18,88.66c0.24,1.05,0.63,1.77,1.19,2.18c0.55,0.41,1.17,0.53,1.84,0.38c0.59-0.13,1.03-0.49,1.32-1.06
				c0.29-0.58,0.3-1.44,0.04-2.61c-0.24-1.07-0.63-1.81-1.16-2.22c-0.53-0.41-1.09-0.54-1.69-0.41c-0.65,0.15-1.13,0.52-1.45,1.13
				C216.95,86.65,216.92,87.52,217.18,88.66z"/>
			<path class="st20" d="M228.84,89.06l4.92-1.62c0.34,0.55,0.73,0.91,1.16,1.08c0.43,0.17,0.96,0.19,1.58,0.05
				c0.68-0.16,1.17-0.42,1.48-0.79c0.24-0.28,0.33-0.58,0.25-0.91c-0.08-0.36-0.34-0.6-0.76-0.71c-0.31-0.08-1.07-0.09-2.3-0.03
				c-1.83,0.09-3.12,0.09-3.86-0.02c-0.74-0.11-1.42-0.42-2.03-0.93c-0.61-0.51-1.01-1.17-1.19-1.97c-0.2-0.87-0.12-1.68,0.25-2.42
				c0.36-0.75,0.95-1.37,1.77-1.89c0.82-0.51,1.97-0.94,3.47-1.28c1.58-0.36,2.77-0.5,3.57-0.43c0.81,0.07,1.52,0.3,2.13,0.69
				c0.62,0.39,1.19,0.98,1.72,1.77l-4.7,1.57c-0.22-0.4-0.5-0.66-0.83-0.79c-0.46-0.18-0.97-0.2-1.53-0.07
				c-0.57,0.13-0.97,0.33-1.18,0.59c-0.22,0.26-0.29,0.54-0.22,0.83c0.07,0.32,0.29,0.53,0.66,0.62c0.37,0.09,1.13,0.08,2.27-0.04
				c1.73-0.19,3.04-0.21,3.94-0.06c0.9,0.15,1.64,0.5,2.22,1.03c0.58,0.53,0.95,1.17,1.13,1.93c0.17,0.76,0.11,1.56-0.18,2.38
				c-0.3,0.83-0.89,1.56-1.79,2.22c-0.89,0.65-2.2,1.17-3.91,1.56c-2.41,0.55-4.21,0.59-5.39,0.14
				C230.3,91.09,229.42,90.26,228.84,89.06z"/>
			<path class="st20" d="M245.35,72.33l5.55-0.03l0.02,4.26l-1.02,8.57l-3.43,0.02l-1.09-8.56L245.35,72.33z M245.63,86.46
				l5.18-0.03l0.03,4.58l-5.18,0.03L245.63,86.46z"/>
		</g>
	</g>
	<g>
		<g>
			<path class="st20" d="M201.27,130.51c-0.04,0-0.08-0.01-0.12-0.02c-3.04-1.18-4.87-2.33-5.81-3.72c-0.69,0.14-1.46,0.05-2.19-0.3
				c-0.71-0.34-1.39-0.93-1.88-1.77c-0.46,0.35-1.02,0.45-1.64,0.25c-0.69-0.22-1.4-0.79-2-1.63c-0.38,0.27-0.77,0.31-1.05,0.29
				c-2.01-0.16-4.74-4.17-4.93-8.43c-0.01-0.19,0.14-0.34,0.32-0.35c0.18-0.02,0.34,0.14,0.35,0.32c0.19,4.05,2.78,7.66,4.31,7.79
				c0.25,0.02,0.46-0.05,0.63-0.19c-0.92-1.61-1.4-3.91-0.69-6.37c0.58-2.03,1.1-2.83,1.71-2.68c1.17,0.29,1.01,4.72,0.4,7.64
				c-0.14,0.66-0.34,1.14-0.57,1.48c0.53,0.79,1.17,1.32,1.72,1.49c0.49,0.16,0.86,0.02,1.13-0.23c-0.53-1.31-0.64-3.09,0.08-5.37
				c0.95-3,1.33-3.08,1.56-3.13c0.16-0.03,0.32,0.02,0.44,0.15c0.62,0.71-0.12,5.36-0.91,7.66c-0.1,0.3-0.23,0.56-0.38,0.78
				c0.42,0.82,1.04,1.38,1.69,1.69c0.52,0.25,1.05,0.34,1.54,0.29c-0.06-0.13-0.12-0.26-0.16-0.39c-0.54-1.45-0.27-3.13,0.8-5.13
				c0.71-1.32,1.3-1.94,1.83-1.94c0,0,0,0,0,0c0.16,0,0.46,0.06,0.67,0.45c0.59,1.09,0.16,4.68-1,6.46
				c-0.27,0.42-0.65,0.74-1.09,0.95c0.91,1.19,2.63,2.24,5.38,3.31c0.17,0.07,0.26,0.26,0.19,0.44
				C201.54,130.43,201.41,130.51,201.27,130.51z M197.45,119.37c0,0-0.38,0-1.24,1.59c-0.98,1.82-1.23,3.31-0.76,4.57
				c0.06,0.15,0.12,0.3,0.2,0.45c0.36-0.15,0.67-0.41,0.89-0.75c0.95-1.45,1.4-4.42,1.05-5.59
				C197.52,119.41,197.45,119.37,197.45,119.37z M192.6,116.52c-0.17,0.33-0.47,1-0.91,2.39c-0.58,1.83-0.58,3.3-0.26,4.43
				c0.02-0.06,0.04-0.11,0.06-0.17C192.29,120.84,192.68,117.64,192.6,116.52z M188.14,114.39c-0.11,0.11-0.44,0.53-0.91,2.18
				c-0.62,2.17-0.24,4.16,0.49,5.58c0.14-0.29,0.24-0.63,0.3-0.95C188.72,117.88,188.52,114.87,188.14,114.39z"/>
			<path class="st20" d="M226.99,165.97c-1.03,0-2.12-0.24-3.09-0.8c-0.16-0.1-0.22-0.3-0.12-0.46c0.09-0.16,0.3-0.21,0.46-0.12
				c2.41,1.42,5.53,0.43,6.17-0.6c0.07-0.12,0.14-0.27,0.1-0.45c-0.95,0.1-2.13-0.15-3.47-0.99c-1.72-1.08-1.85-1.4-1.84-1.65
				c0.01-0.15,0.09-0.28,0.23-0.35c0.67-0.34,3.72,1.06,5,1.9c0.17,0.11,0.31,0.23,0.42,0.35c0.56-0.14,1-0.43,1.29-0.77
				c0.2-0.24,0.33-0.5,0.4-0.76c-0.04,0.01-0.09,0.01-0.14,0.02c-1.08,0.11-2.17-0.36-3.32-1.42c-0.79-0.73-1.1-1.24-1-1.64
				c0.03-0.13,0.14-0.36,0.49-0.44c0.94-0.23,3.25,0.75,4.19,1.79c0.21,0.23,0.36,0.51,0.43,0.8c0.88-0.41,1.82-1.34,2.92-2.89
				c0.11-0.15,0.32-0.19,0.47-0.08c0.15,0.11,0.19,0.32,0.08,0.47c-1.28,1.79-2.34,2.8-3.41,3.21c-0.04,0.48-0.24,0.96-0.59,1.38
				c-0.34,0.41-0.84,0.76-1.48,0.95c0.07,0.3,0.01,0.63-0.19,0.94C230.42,165.25,228.79,165.97,226.99,165.97z M226.39,161.28
				c0.23,0.17,0.55,0.39,1.02,0.68c0.92,0.57,1.74,0.84,2.44,0.89C228.72,162.16,227.25,161.54,226.39,161.28z M228.75,158.4
				c0.04,0.11,0.19,0.38,0.79,0.94c1.01,0.93,1.92,1.34,2.79,1.25c0.07-0.01,0.14-0.02,0.22-0.03c-0.05-0.21-0.15-0.4-0.29-0.56
				C231.3,158.96,229.21,158.29,228.75,158.4z"/>
			<path class="st21" d="M235.95,165.04l-10.54,1.91l-9.57-52.23l-20.34,3.69l-33.14,58.85l3.56,19.42l42.5-7.72l2.91,15.88
				l20.34-3.69l-2.91-15.88l10.54-1.91L235.95,165.04z M182.61,174.73l17.56-30.82l4.9,26.74L182.61,174.73z"/>
		</g>
		<g>
			<path class="st21" d="M320.83,111.17c-0.39-3.61-1.11-6.81-2.16-9.62c-1.05-2.8-2.62-5.55-4.73-8.25
				c-2.1-2.69-4.97-5.03-8.59-7.01c-3.63-1.98-8.41-3.36-14.36-4.13c-12.37-1.61-22.02,0.58-28.94,6.59
				c-6.92,6-11.47,17.51-13.66,34.51c-0.89,6.91-1.11,13.3-0.66,19.17c0.45,5.87,1.53,10.59,3.23,14.16
				c2.33,5.02,5.64,9.03,9.91,12.02c4.27,3,10.12,4.98,17.55,5.95c13.26,1.73,23.08-0.82,29.47-7.64
				c6.39-6.82,10.63-18.34,12.72-34.57C321.55,125.12,321.62,118.06,320.83,111.17z"/>
			<path class="st20" d="M284.53,167.62c-1.63-0.06-3.36-0.2-5.15-0.44c-6.19-0.81-10.98-2.37-14.24-4.66
				c-3.21-2.25-5.65-5.22-7.44-9.07l-0.03-0.07c-1.3-2.72-2.15-6.6-2.53-11.52c-0.41-5.34-0.2-11.28,0.62-17.66
				c2.41-18.75,7.4-26.57,11.16-29.84c4.38-3.8,10.3-5.52,18.08-5.25c1.6,0.05,3.28,0.2,5.02,0.42c5,0.65,8.95,1.76,11.75,3.29
				c2.71,1.48,4.83,3.19,6.3,5.06c1.63,2.08,2.84,4.19,3.62,6.27c0.83,2.21,1.41,4.84,1.74,7.82c0.72,6.3,0.65,12.82-0.2,19.43
				c-1.88,14.57-5.5,24.81-10.77,30.43C298.56,166.01,292.69,167.9,284.53,167.62C284.53,167.62,284.53,167.62,284.53,167.62z"/>
			<g>
				<path class="st21" d="M297.77,111.37l0.09-2.56l-1.57-0.51c-0.06-0.88-0.21-1.74-0.42-2.57l1.33-0.98l-0.91-2.41l-1.65,0.13
					c-0.39-0.78-0.86-1.52-1.37-2.21l0.85-1.43l-1.76-1.87l-1.47,0.75c-0.66-0.56-1.36-1.08-2.11-1.53l0.24-1.64l-2.34-1.06
					l-1.07,1.26c-0.82-0.26-1.66-0.46-2.54-0.59l-0.4-1.6l-2.57-0.09l-0.51,1.57c-0.88,0.07-1.74,0.21-2.57,0.42l-0.99-1.33
					l-2.41,0.9l0.13,1.65c-0.78,0.4-1.52,0.86-2.21,1.38l-1.42-0.85l-1.88,1.75l0.75,1.48c-0.56,0.66-1.08,1.36-1.52,2.11
					l-1.64-0.25l-1.07,2.34l1.26,1.07c-0.26,0.82-0.47,1.67-0.59,2.54l-1.61,0.4l-0.09,2.56l1.58,0.51
					c0.06,0.88,0.21,1.74,0.42,2.57l-1.33,0.98l0.91,2.41l1.65-0.13c0.39,0.78,0.86,1.52,1.37,2.21l-0.85,1.43l1.76,1.87l1.47-0.76
					c0.66,0.56,1.36,1.08,2.11,1.53l-0.25,1.64l2.34,1.06l1.08-1.26c0.82,0.26,1.66,0.46,2.54,0.59l0.4,1.6l2.57,0.09l0.51-1.57
					c0.88-0.07,1.74-0.21,2.57-0.42l0.98,1.33l2.41-0.9l-0.13-1.65c0.78-0.4,1.51-0.86,2.21-1.38l1.42,0.85l1.88-1.75l-0.75-1.48
					c0.56-0.66,1.08-1.36,1.52-2.11l1.64,0.25l1.07-2.34l-1.26-1.07c0.26-0.82,0.47-1.66,0.59-2.54L297.77,111.37z M280.46,119.67
					c-5.61-0.19-10-4.9-9.81-10.51c0.19-5.62,4.9-10.01,10.51-9.82c5.61,0.19,10,4.9,9.81,10.52
					C290.77,115.47,286.07,119.87,280.46,119.67z"/>
			</g>
			<g>
				<path class="st22" d="M308.45,158.44l0.19-1.73l-1.04-0.42c0-0.59-0.05-1.18-0.15-1.75l0.95-0.6l-0.48-1.67l-1.12,0.01
					c-0.23-0.55-0.49-1.07-0.81-1.56l0.64-0.92l-1.09-1.35l-1.04,0.43c-0.41-0.41-0.86-0.79-1.35-1.13l0.25-1.1l-1.52-0.84l-0.8,0.8
					c-0.55-0.23-1.11-0.4-1.68-0.53l-0.19-1.11l-1.73-0.19l-0.42,1.04c-0.59,0-1.17,0.06-1.75,0.16l-0.6-0.95l-1.67,0.49l0.01,1.12
					c-0.54,0.23-1.06,0.49-1.56,0.81l-0.92-0.65l-1.35,1.09l0.43,1.04c-0.4,0.41-0.79,0.86-1.13,1.35l-1.09-0.24l-0.84,1.52
					l0.8,0.79c-0.22,0.55-0.4,1.11-0.53,1.68l-1.11,0.18l-0.19,1.73l1.04,0.43c0,0.59,0.05,1.17,0.15,1.75l-0.95,0.6l0.49,1.67
					l1.12,0c0.23,0.54,0.49,1.06,0.81,1.56l-0.65,0.92l1.09,1.36l1.04-0.44c0.41,0.41,0.86,0.79,1.35,1.13l-0.25,1.1l1.52,0.84
					l0.8-0.8c0.55,0.22,1.11,0.39,1.68,0.52l0.19,1.11l1.73,0.19l0.42-1.04c0.59,0,1.17-0.06,1.75-0.16l0.6,0.95l1.66-0.49l0-1.12
					c0.54-0.23,1.06-0.49,1.56-0.81l0.91,0.65l1.36-1.09l-0.44-1.04c0.41-0.41,0.79-0.86,1.14-1.35l1.09,0.24l0.84-1.52l-0.8-0.79
					c0.22-0.55,0.39-1.11,0.52-1.68L308.45,158.44z M299.74,157.77c-0.8,1.46-2.64,2-4.1,1.2c-1.46-0.8-1.99-2.64-1.19-4.1
					c0.8-1.46,2.63-1.99,4.09-1.19C300,154.48,300.54,156.31,299.74,157.77z"/>
			</g>
			<path class="st23" d="M318.03,129.21l-2.02-1.39c0,0,0,0,0,0c-0.2-0.73-0.47-1.44-0.81-2.1l0.52-2.03l-2.92-3.13l-2.06,0.38
				c-0.64-0.38-1.32-0.7-2.04-0.95c0,0,0,0-0.01,0l-1.25-2.11l-4.28-0.15l-1.39,2.02c0,0-0.01,0-0.01,0
				c-0.73,0.2-1.44,0.47-2.1,0.81l-2.03-0.52l-3.13,2.92l0.38,2.05c0,0,0,0,0,0c-0.39,0.64-0.7,1.33-0.95,2.05l-2.11,1.25
				l-0.15,4.28l2.02,1.39c0.2,0.74,0.47,1.44,0.81,2.11c0,0,0,0,0,0l-0.52,2.02l2.92,3.13l2.05-0.37c0.65,0.38,1.33,0.7,2.06,0.95
				c0,0,0,0,0,0l1.25,2.1l4.28,0.15l1.39-2.01c0.74-0.2,1.45-0.47,2.12-0.81c0,0,0,0,0,0l2.02,0.51l3.13-2.92l-0.38-2.06
				c0.39-0.64,0.7-1.33,0.95-2.05c0,0,0,0,0,0l2.11-1.25L318.03,129.21z M304.68,135.72c-2.66-0.09-4.74-2.33-4.65-4.98
				c0.09-2.66,2.32-4.74,4.98-4.65c2.66,0.09,4.74,2.32,4.65,4.98C309.57,133.72,307.35,135.81,304.68,135.72z"/>
			<path class="st21" d="M332.74,95.03l0.35-0.85c0,0,0,0,0,0c0.25-0.13,0.49-0.29,0.71-0.46l0.79,0.03l0.92-1.32l-0.3-0.73
				c0.09-0.26,0.15-0.54,0.19-0.82c0,0,0,0,0,0l0.68-0.63l-0.28-1.58l-0.85-0.35c0,0,0,0,0,0c-0.13-0.25-0.29-0.49-0.46-0.71
				l0.03-0.78l-1.32-0.92l-0.72,0.3c0,0,0,0,0,0c-0.27-0.09-0.54-0.15-0.83-0.19l-0.63-0.68l-1.58,0.28l-0.35,0.85
				c-0.26,0.13-0.49,0.28-0.71,0.46c0,0,0,0,0,0l-0.78-0.03l-0.92,1.32l0.3,0.72c-0.09,0.27-0.15,0.54-0.19,0.83c0,0,0,0,0,0
				l-0.67,0.62l0.28,1.58l0.85,0.35c0.13,0.26,0.29,0.49,0.46,0.71c0,0,0,0,0,0l-0.03,0.78l1.32,0.92l0.72-0.3
				c0.27,0.09,0.54,0.15,0.83,0.19c0,0,0,0,0,0l0.63,0.68L332.74,95.03z M329.3,90.64c-0.18-0.98,0.48-1.92,1.46-2.1
				c0.98-0.18,1.92,0.48,2.1,1.46c0.18,0.98-0.48,1.92-1.46,2.1C330.42,92.28,329.48,91.63,329.3,90.64z"/>
			<path class="st21" d="M314.19,90.54l-0.52-0.44c0.9-1.06,2.17-2.41,4.06-3.4l0.31,0.6C316.03,88.36,314.74,89.89,314.19,90.54z"
				/>
			<path class="st21" d="M319.59,86.69l-0.27-0.62c2.56-1.1,5.23-1.52,7.94-1.27l-0.06,0.67C324.6,85.23,322.04,85.64,319.59,86.69z
				"/>
			<path class="st21" d="M318.31,91.37l-0.56-0.38c1.39-2.04,4.13-3.82,6.68-4.32l0.13,0.66C322.18,87.81,319.61,89.47,318.31,91.37
				z"/>
			<path class="st23" d="M273.42,156.47c-0.09,0-0.18-0.04-0.24-0.1l-1.42-1.46c-0.72-0.07-1.44-0.2-2.13-0.4l-2.21,0.98
				c-0.11,0.05-0.23,0.04-0.32-0.03l-3.7-2.46c-0.1-0.06-0.15-0.17-0.15-0.29l0.04-2.41c-0.45-0.56-0.85-1.17-1.19-1.81l-1.9-0.74
				c-0.11-0.04-0.19-0.13-0.21-0.25l-0.88-4.35c-0.02-0.11,0.01-0.23,0.1-0.31l1.46-1.42c0.07-0.72,0.2-1.43,0.4-2.13l-0.97-2.21
				c-0.05-0.11-0.04-0.23,0.03-0.32l2.45-3.7c0.06-0.1,0.15-0.16,0.29-0.15l2.41,0.04c0.57-0.45,1.17-0.85,1.81-1.19l0.74-1.9
				c0.04-0.11,0.14-0.19,0.25-0.21l4.35-0.88c0.11-0.02,0.23,0.01,0.31,0.1l1.42,1.46c0.72,0.07,1.44,0.2,2.13,0.4l2.21-0.97
				c0.11-0.05,0.23-0.04,0.32,0.03l3.7,2.45c0.1,0.06,0.15,0.17,0.15,0.29l-0.04,2.41c0.45,0.56,0.85,1.17,1.19,1.81l1.9,0.74
				c0.11,0.04,0.19,0.13,0.21,0.25l0.88,4.35c0.02,0.11-0.01,0.23-0.1,0.31l-1.46,1.42c-0.07,0.71-0.2,1.42-0.4,2.13l0.98,2.21
				c0.05,0.11,0.04,0.23-0.03,0.32l-2.45,3.7c-0.06,0.1-0.16,0.14-0.29,0.15l-2.41-0.04c-0.56,0.45-1.17,0.85-1.81,1.19l-0.74,1.9
				c-0.04,0.11-0.14,0.19-0.25,0.21l-4.35,0.88C273.47,156.47,273.44,156.47,273.42,156.47z M269.61,153.81c0.03,0,0.06,0,0.1,0.01
				c0.72,0.21,1.48,0.35,2.24,0.42c0.08,0.01,0.16,0.04,0.21,0.1l1.38,1.42l3.99-0.81l0.72-1.85c0.03-0.08,0.09-0.14,0.16-0.18
				c0.68-0.35,1.32-0.77,1.9-1.25c0.06-0.05,0.13-0.08,0.22-0.08l2.35,0.04l2.25-3.4l-0.95-2.15c-0.03-0.07-0.04-0.15-0.01-0.23
				c0.21-0.74,0.35-1.49,0.42-2.24c0.01-0.08,0.04-0.16,0.1-0.22l1.42-1.38l-0.81-3.99l-1.84-0.72c-0.08-0.03-0.14-0.09-0.18-0.16
				c-0.35-0.68-0.77-1.31-1.25-1.9c-0.05-0.06-0.08-0.14-0.08-0.22l0.04-2.35l-3.4-2.25l-2.15,0.95c-0.07,0.03-0.15,0.04-0.23,0.02
				c-0.73-0.21-1.49-0.35-2.25-0.42c-0.08-0.01-0.16-0.04-0.21-0.1l-1.38-1.42l-3.99,0.81l-0.72,1.84
				c-0.03,0.08-0.09,0.14-0.16,0.18c-0.67,0.35-1.31,0.77-1.91,1.25c-0.06,0.05-0.14,0.09-0.22,0.08l-2.35-0.04l-2.25,3.4l0.95,2.15
				c0.04,0.09,0.04,0.2-0.01,0.29c-0.19,0.68-0.33,1.43-0.39,2.19c-0.01,0.08-0.04,0.16-0.1,0.21l-1.42,1.38l0.81,3.99l1.84,0.71
				c0.08,0.03,0.15,0.09,0.18,0.17c0.35,0.67,0.77,1.31,1.25,1.89c0.05,0.06,0.08,0.14,0.08,0.22l-0.04,2.35l3.4,2.25l2.15-0.95
				C269.52,153.82,269.56,153.81,269.61,153.81z M272.94,151.62c-1.71,0-3.44-0.48-4.97-1.5c-2.01-1.33-3.38-3.36-3.85-5.72
				c-0.48-2.36-0.01-4.76,1.32-6.77c0,0,0,0,0,0c2.75-4.14,8.36-5.28,12.5-2.54c4.14,2.75,5.28,8.35,2.53,12.5
				C278.73,150.21,275.86,151.62,272.94,151.62z M266,138.01c-1.23,1.86-1.66,4.08-1.22,6.26c0.44,2.18,1.71,4.06,3.57,5.29
				c3.83,2.54,9.02,1.49,11.55-2.34c2.54-3.83,1.49-9.02-2.34-11.56C273.73,133.12,268.54,134.18,266,138.01L266,138.01z"/>
		</g>
		<g>
			<path class="st21" d="M402.27,171.15l-10.62-1.43l7.02-52.63l-20.48-2.76l-49.69,45.74l-2.61,19.57l42.81,5.78l-2.14,16.01
				l20.48,2.76l2.14-16.01l10.62,1.43L402.27,171.15z M348.55,163.9l26.22-23.9l-3.6,26.95L348.55,163.9z"/>
			<path class="st20" d="M380.83,203.68c-0.02,0-0.04,0-0.06-0.01c-0.18-0.03-0.31-0.21-0.27-0.39l15.78-86.54
				c0.03-0.18,0.21-0.3,0.39-0.27c0.18,0.03,0.31,0.21,0.27,0.39l-15.78,86.54C381.14,203.56,380.99,203.68,380.83,203.68z"/>
			<g>
				<path class="st20" d="M394.83,118.19c-0.01,0.31-0.27,0.55-0.57,0.53s-0.55-0.27-0.54-0.57c0.01-0.31,0.27-0.55,0.57-0.53
					C394.6,117.63,394.84,117.89,394.83,118.19z"/>
				<path class="st20" d="M392.58,129.9c-0.01,0.31-0.27,0.55-0.57,0.53s-0.55-0.27-0.54-0.57c0.01-0.31,0.27-0.55,0.57-0.53
					C392.35,129.33,392.59,129.59,392.58,129.9z"/>
				<path class="st20" d="M390.33,141.6c-0.01,0.31-0.27,0.55-0.57,0.54c-0.31-0.01-0.55-0.27-0.53-0.57
					c0.01-0.31,0.27-0.55,0.57-0.54C390.1,141.04,390.34,141.29,390.33,141.6z"/>
				<path class="st24" d="M385.89,153.78c-0.01,0.31-0.27,0.55-0.57,0.54c-0.31-0.01-0.55-0.27-0.54-0.57
					c0.01-0.31,0.27-0.55,0.57-0.53C385.66,153.22,385.9,153.48,385.89,153.78z"/>
				<path class="st20" d="M385.82,165.01c-0.01,0.31-0.27,0.55-0.57,0.53c-0.31-0.01-0.55-0.27-0.54-0.57
					c0.01-0.31,0.27-0.55,0.57-0.53C385.59,164.44,385.83,164.7,385.82,165.01z"/>
				<path class="st24" d="M383.56,176.71c-0.01,0.31-0.27,0.55-0.57,0.53c-0.31-0.01-0.55-0.27-0.54-0.57
					c0.01-0.31,0.27-0.55,0.57-0.53C383.33,176.15,383.57,176.4,383.56,176.71z"/>
				<path class="st20" d="M381.31,188.41c-0.01,0.31-0.27,0.55-0.57,0.53s-0.55-0.27-0.54-0.57c0.01-0.31,0.27-0.55,0.57-0.53
					C381.08,187.85,381.32,188.1,381.31,188.41z"/>
				<path class="st20" d="M379.05,200.11c-0.01,0.31-0.27,0.55-0.57,0.53s-0.55-0.27-0.54-0.57c0.01-0.31,0.27-0.55,0.57-0.53
					C378.83,199.55,379.06,199.81,379.05,200.11z"/>
			</g>
			<path class="st20" d="M385.34,154.1c-0.16,0-0.3-0.11-0.33-0.27c-0.04-0.18,0.08-0.36,0.26-0.4l1.68-0.36
				c0.19-0.04,0.36,0.08,0.4,0.26c0.04,0.18-0.08,0.36-0.26,0.4l-1.68,0.36C385.39,154.1,385.36,154.1,385.34,154.1z"/>
			<g>
				<path class="st24" d="M390.95,147.87c0,0-1.51,3.94-2.02,6.33c-0.51,2.39-0.54,7.73-0.54,7.73"/>
				<path class="st20" d="M388.38,162.27C388.38,162.27,388.38,162.27,388.38,162.27c-0.19,0-0.34-0.15-0.34-0.34
					c0-0.22,0.04-5.4,0.55-7.8c0.51-2.39,1.98-6.22,2.04-6.38c0.07-0.17,0.26-0.26,0.44-0.19c0.17,0.07,0.26,0.26,0.19,0.44
					c-0.02,0.04-1.51,3.95-2.01,6.28c-0.5,2.33-0.53,7.61-0.53,7.66C388.72,162.12,388.57,162.27,388.38,162.27z"/>
			</g>
		</g>
	</g>
	<g>
		<path class="st20" d="M264.7,220.65c0.94-15.15-0.79-42.7,27.7-39.05c30.53,3.91,21.8,39.61,21.8,39.61L264.7,220.65z"/>
		<g>
			<circle class="st23" cx="284.36" cy="199.12" r="12.43"/>
			<path class="st20" d="M285.99,186.71c-5.89-1.01-12.18,3.33-12.8,7.73l23.34,2.15C295.71,191.57,290.66,187.5,285.99,186.71z"/>
			<path class="st20" d="M293.87,198.81c-0.17,3.25-1.94,5.8-3.96,5.7c-2.02-0.1-3.52-2.82-3.35-6.07c0.17-3.25,1.94-5.8,3.96-5.7
				S294.04,195.56,293.87,198.81z"/>
			<path class="st21" d="M284.36,212.22c-7.23,0-13.11-5.88-13.11-13.11c0-7.23,5.88-13.11,13.11-13.11
				c7.23,0,13.11,5.88,13.11,13.11C297.47,206.34,291.59,212.22,284.36,212.22z M284.36,187.36c-6.48,0-11.75,5.27-11.75,11.75
				c0,6.48,5.27,11.75,11.75,11.75c6.48,0,11.75-5.27,11.75-11.75C296.11,192.63,290.84,187.36,284.36,187.36z"/>
		</g>
		<path class="st25" d="M310.72,220.27c-0.03,0-0.05,0-0.08-0.01c-0.18-0.04-0.29-0.23-0.25-0.41c0.02-0.09,2.18-9.26-0.06-18.54
			c-0.04-0.18,0.07-0.36,0.25-0.41c0.18-0.04,0.36,0.07,0.41,0.25c2.28,9.44,0.08,18.76,0.06,18.85
			C311.01,220.17,310.87,220.27,310.72,220.27z"/>
		<path class="st25" d="M308.84,196.25c-0.13,0-0.25-0.07-0.31-0.2c-0.87-1.9-1.95-3.64-3.21-5.18c-0.12-0.14-0.1-0.36,0.05-0.48
			c0.14-0.12,0.36-0.1,0.48,0.05c1.3,1.58,2.4,3.38,3.3,5.33c0.08,0.17,0,0.37-0.17,0.45C308.93,196.24,308.88,196.25,308.84,196.25
			z"/>
		<path class="st20" d="M201.31,291.73c-0.08,0-0.17,0-0.25,0c-1.87-0.05-3.34-1.61-3.29-3.47c0.05-1.87,1.59-3.31,3.47-3.29
			c0.02,0,0.04,0,0.06,0c1.95,0,6.66-2.37,16.49-17.88c0.53-0.83,1.39-1.39,2.37-1.54c0.98-0.14,1.97,0.15,2.71,0.8
			c12.14,10.58,25,17.17,25.13,17.23c1.66,0.85,2.33,2.88,1.48,4.55c-0.85,1.67-2.88,2.33-4.55,1.49
			c-0.51-0.26-11.75-6.01-23.54-15.66C213.16,286.35,207.04,291.73,201.31,291.73z"/>
		<path class="st20" d="M222.23,265.74c-0.1,0-0.19-0.01-0.29-0.02c-1.11-0.16-1.88-1.19-1.72-2.3c0.48-3.37-0.12-15.98-4.38-25.79
			c-0.39-0.89-0.09-1.94,0.72-2.49c9.27-6.31,29-7.07,29.84-7.1c1.11-0.02,2.06,0.84,2.1,1.96c0.04,1.12-0.84,2.06-1.96,2.1
			c-0.18,0.01-17.44,0.67-26.31,5.55c3.78,9.77,4.63,21.94,4,26.35C224.1,265.01,223.23,265.74,222.23,265.74z"/>
		<path class="st21" d="M225.64,263.12c-1.35-3.18-7.43-2.82-11-0.09c-1.91,1.46-4.49,5.84-4.76,7.43
			c-0.27,1.59,0.83,3.03,2.72,2.87c2.33-0.2,5.53-3.59,5.53-3.59c-2.13,2.09,0.62,3.56,4.72,0.54
			C225.13,268.6,227.16,266.68,225.64,263.12z"/>
		<path class="st20" d="M341.99,221.55c-0.03,0-0.06,0-0.09-0.01c-0.18-0.05-0.28-0.24-0.23-0.42c0.9-3.14,1.89-5.06,3.18-6.12
			c-0.2-0.67-0.18-1.45,0.1-2.2c0.27-0.74,0.8-1.47,1.6-2.03c-0.39-0.42-0.54-0.98-0.4-1.61c0.15-0.7,0.67-1.47,1.45-2.13
			c-0.31-0.35-0.38-0.74-0.38-1.02c-0.02-2.02,3.73-5.09,7.96-5.67c0.19-0.03,0.36,0.1,0.38,0.29c0.03,0.18-0.1,0.36-0.29,0.38
			c-4.02,0.55-7.38,3.46-7.37,4.99c0,0.25,0.09,0.45,0.24,0.61c1.52-1.06,3.77-1.74,6.28-1.26c2.08,0.4,2.92,0.84,2.82,1.47
			c-0.18,1.19-4.61,1.43-7.57,1.08c-0.67-0.08-1.16-0.24-1.52-0.44c-0.74,0.6-1.21,1.28-1.33,1.85c-0.11,0.51,0.05,0.86,0.33,1.11
			c1.26-0.65,3.02-0.92,5.35-0.4c3.07,0.68,3.18,1.05,3.25,1.27c0.05,0.16,0.01,0.32-0.11,0.45c-0.65,0.69-5.35,0.36-7.71-0.22
			c-0.31-0.08-0.58-0.18-0.81-0.31c-0.78,0.49-1.29,1.16-1.53,1.83c-0.2,0.54-0.24,1.08-0.15,1.56c0.12-0.07,0.25-0.14,0.37-0.2
			c1.4-0.66,3.09-0.55,5.18,0.34c1.38,0.59,2.05,1.12,2.1,1.65c0.01,0.16-0.02,0.46-0.39,0.7c-1.03,0.69-4.65,0.58-6.53-0.42
			c-0.44-0.24-0.79-0.59-1.04-1.01c-1.11,1.01-2,2.82-2.81,5.65C342.27,221.45,342.13,221.55,341.99,221.55z M345.66,215.24
			c0.19,0.35,0.46,0.63,0.82,0.82c1.53,0.81,4.53,1,5.66,0.54c0.23-0.09,0.26-0.17,0.26-0.17c0,0-0.04-0.38-1.69-1.09
			c-1.9-0.81-3.41-0.92-4.62-0.35C345.94,215.06,345.8,215.14,345.66,215.24z M347.91,210.79c0.06,0.02,0.12,0.03,0.17,0.05
			c2.39,0.58,5.61,0.68,6.72,0.5c-0.34-0.14-1.04-0.38-2.46-0.69C350.47,210.24,349,210.37,347.91,210.79z M348.77,206.99
			c0.3,0.11,0.65,0.18,0.97,0.22c3.37,0.4,6.35-0.07,6.79-0.49c-0.11-0.1-0.57-0.39-2.25-0.72
			C352.06,205.58,350.12,206.13,348.77,206.99z"/>
		<path class="st20" d="M253.93,290.6c0.45-0.14,0.3-0.57-0.2-0.57h-9.16c-17.44-1.85-29.62,0.63-21.95,1.21
			c7.68,0.58-0.54,0.46-6.15,2.58c-5.61,2.12,41.7,2.66,46.01,0C266.45,291.37,247.75,292.58,253.93,290.6z"/>
		<polygon class="st21" points="319.5,293.3 239.82,290.66 236.51,213.4 330.61,215.5 		"/>
		<path class="st20" d="M264.7,291.82c-0.17,0-0.32-0.13-0.34-0.31l-6.39-77.6c-0.02-0.19,0.12-0.35,0.31-0.36
			c0.19-0.01,0.35,0.12,0.36,0.31l6.39,77.6c0.02,0.19-0.12,0.35-0.31,0.36C264.72,291.82,264.71,291.82,264.7,291.82z"/>
		<g>
			<polygon class="st26" points="319.5,293.3 340.92,290.04 347.67,218.2 330.61,215.5 			"/>
			<polygon class="st9" points="319.5,293.3 340.92,290.04 347.67,218.2 330.61,215.5 			"/>
		</g>
		<path class="st20" d="M246.63,275.77l-1.96-45.9c-0.21-4.79,3.68-8.76,8.48-8.65l59.57,1.33c4.97,0.11,8.73,4.54,8.03,9.47
			l-6.6,46.26c-0.6,4.19-4.26,7.26-8.49,7.12l-51-1.69C250.31,283.56,246.82,280.1,246.63,275.77z"/>
		<g>
			<path class="st23" d="M253.06,235.3l9.22,0.29l-0.08,2.38l-5.77-0.18l-0.06,1.77l5.35,0.17l-0.07,2.27l-5.35-0.17l-0.07,2.19
				l5.94,0.19l-0.08,2.52l-9.38-0.3L253.06,235.3z"/>
			<path class="st23" d="M263.99,246.78l0.35-11.13l5.73,0.18c1.06,0.03,1.87,0.15,2.43,0.35c0.56,0.2,1,0.55,1.33,1.06
				c0.33,0.5,0.48,1.11,0.46,1.82c-0.02,0.62-0.17,1.15-0.45,1.59c-0.28,0.44-0.65,0.79-1.12,1.05c-0.3,0.17-0.71,0.3-1.22,0.4
				c0.41,0.15,0.7,0.3,0.88,0.44c0.12,0.1,0.3,0.3,0.53,0.6c0.23,0.31,0.38,0.54,0.46,0.71l1.56,3.28l-3.89-0.12l-1.73-3.46
				c-0.22-0.45-0.42-0.74-0.6-0.88c-0.24-0.18-0.52-0.28-0.83-0.29l-0.3-0.01l-0.14,4.52L263.99,246.78z M267.66,240.28l1.45,0.05
				c0.16,0,0.46-0.04,0.92-0.12c0.23-0.04,0.42-0.15,0.57-0.33c0.15-0.18,0.23-0.4,0.24-0.64c0.01-0.36-0.09-0.64-0.32-0.84
				c-0.22-0.2-0.65-0.31-1.27-0.33l-1.51-0.05L267.66,240.28z"/>
			<path class="st23" d="M276.08,247.17l0.35-11.13l5.73,0.18c1.06,0.03,1.87,0.15,2.43,0.35c0.56,0.2,1,0.55,1.33,1.06
				c0.33,0.5,0.48,1.11,0.46,1.82c-0.02,0.62-0.17,1.15-0.45,1.59c-0.28,0.44-0.65,0.79-1.12,1.05c-0.3,0.17-0.71,0.3-1.22,0.4
				c0.41,0.15,0.7,0.3,0.88,0.44c0.12,0.1,0.3,0.3,0.53,0.6c0.23,0.31,0.38,0.54,0.46,0.71l1.56,3.28l-3.89-0.12l-1.73-3.46
				c-0.22-0.45-0.42-0.74-0.6-0.88c-0.24-0.18-0.52-0.28-0.83-0.29l-0.3-0.01l-0.14,4.52L276.08,247.17z M279.75,240.66l1.45,0.05
				c0.16,0.01,0.46-0.04,0.92-0.12c0.23-0.04,0.42-0.15,0.57-0.33c0.15-0.18,0.23-0.4,0.24-0.64c0.01-0.36-0.09-0.64-0.32-0.84
				c-0.22-0.2-0.65-0.31-1.27-0.33l-1.51-0.05L279.75,240.66z"/>
			<path class="st23" d="M287.61,241.97c0.06-1.82,0.61-3.22,1.65-4.2c1.04-0.98,2.47-1.44,4.28-1.38c1.85,0.06,3.26,0.6,4.23,1.63
				c0.97,1.03,1.43,2.44,1.37,4.23c-0.04,1.3-0.29,2.36-0.76,3.18c-0.46,0.82-1.12,1.45-1.96,1.88c-0.84,0.44-1.88,0.64-3.12,0.6
				c-1.25-0.04-2.29-0.27-3.1-0.7c-0.81-0.43-1.46-1.08-1.94-1.96C287.79,244.37,287.57,243.27,287.61,241.97z M291.05,242.1
				c-0.04,1.12,0.15,1.94,0.55,2.44c0.4,0.5,0.96,0.77,1.68,0.79c0.74,0.02,1.32-0.2,1.74-0.67c0.42-0.47,0.65-1.32,0.69-2.57
				c0.03-1.05-0.15-1.82-0.56-2.32c-0.41-0.5-0.97-0.76-1.7-0.78c-0.69-0.02-1.26,0.21-1.69,0.68
				C291.32,240.16,291.08,240.96,291.05,242.1z"/>
			<path class="st23" d="M300.86,247.96l0.35-11.13l5.73,0.18c1.06,0.03,1.87,0.15,2.43,0.35c0.56,0.2,1,0.55,1.33,1.06
				c0.33,0.5,0.48,1.11,0.46,1.82c-0.02,0.62-0.17,1.15-0.45,1.59c-0.28,0.44-0.65,0.79-1.12,1.05c-0.3,0.17-0.71,0.3-1.22,0.4
				c0.41,0.15,0.7,0.3,0.88,0.44c0.12,0.1,0.3,0.3,0.53,0.6c0.23,0.31,0.38,0.54,0.46,0.71l1.56,3.28l-3.89-0.12l-1.73-3.46
				c-0.22-0.45-0.42-0.74-0.6-0.88c-0.24-0.18-0.52-0.28-0.83-0.29l-0.3-0.01l-0.14,4.52L300.86,247.96z M304.53,241.45l1.45,0.05
				c0.16,0.01,0.46-0.04,0.92-0.12c0.23-0.04,0.42-0.15,0.57-0.33c0.15-0.18,0.23-0.4,0.24-0.64c0.01-0.36-0.09-0.64-0.32-0.84
				c-0.22-0.2-0.65-0.31-1.27-0.33l-1.51-0.05L304.53,241.45z"/>
		</g>
		<path class="st23" d="M306.33,266.87c-0.24,0-0.48-0.1-0.66-0.29l-5.79-6.34l-6.25,5.71c-0.36,0.33-0.92,0.31-1.25-0.06
			l-5.79-6.34l-6.25,5.71c-0.36,0.33-0.92,0.31-1.25-0.06l-5.79-6.34l-6.25,5.71c-0.17,0.16-0.41,0.24-0.64,0.23
			c-0.24-0.01-0.46-0.11-0.62-0.29l-5.79-6.34l-6.25,5.71c-0.36,0.33-0.92,0.3-1.25-0.06c-0.33-0.36-0.31-0.92,0.06-1.25l6.9-6.31
			c0.36-0.33,0.92-0.31,1.25,0.06l5.79,6.34l6.25-5.71c0.17-0.16,0.41-0.24,0.64-0.23c0.24,0.01,0.46,0.11,0.62,0.29l5.79,6.34
			l6.25-5.71c0.36-0.33,0.92-0.31,1.25,0.06l5.79,6.34l6.25-5.71c0.36-0.33,0.92-0.31,1.25,0.06l6.39,6.99
			c0.33,0.36,0.31,0.92-0.06,1.25C306.76,266.79,306.55,266.87,306.33,266.87z"/>
		<g>
			<polygon class="st26" points="199.29,294.94 195.06,292.92 191.28,274.55 193.33,272.29 			"/>
			<g>
				<polygon class="st26" points="199.29,294.94 204.91,291.66 200.09,276.52 193.33,272.29 				"/>
				<polygon class="st21" points="199.29,294.94 204.91,291.66 200.09,276.52 193.33,272.29 				"/>
			</g>
		</g>
		<path class="st20" d="M291.42,298.28c-0.16,0-0.32,0-0.47-0.01c-1.87-0.05-3.34-1.61-3.29-3.47c0.05-1.87,1.59-3.33,3.47-3.29
			c5.21,0.17,16.24-3.03,22.54-9.15c0.39-0.38,0.86-0.66,1.38-0.81c10.68-3.21,14.65,3.27,14.82,3.55l-5.82,3.44
			c0,0,0.02,0.05,0.08,0.12c-0.06-0.09-1.58-2.06-6.39-0.84C309.83,295.05,297.7,298.28,291.42,298.28z"/>
		<g>
			<polygon class="st21" points="291.04,302.78 278.72,302 277.75,279.29 294.31,279.91 			"/>
			<g>
				<polygon class="st26" points="291.04,302.78 293.92,299.91 295.71,285.75 294.31,279.91 				"/>
				<polygon class="st9" points="291.04,302.78 293.92,299.91 295.71,285.75 294.31,279.91 				"/>
			</g>
		</g>
		<path class="st20" d="M362.42,294.18c-0.43,0-0.86-0.13-1.23-0.41c-7.03-5.34-16.54-14.83-20.18-23.98
			c-0.05-0.13-0.09-0.27-0.12-0.41c-1.78-10.57-3.48-32.83-3.55-33.78c-0.08-1.12,0.75-2.09,1.87-2.18
			c1.11-0.08,2.09,0.75,2.18,1.87c0.02,0.23,1.73,22.71,3.47,33.19c3.64,8.9,13.5,18.04,18.79,22.06c0.89,0.68,1.07,1.95,0.39,2.84
			C363.64,293.9,363.03,294.18,362.42,294.18z"/>
		<path class="st20" d="M371.8,295.2c-1.57,0-3.35-0.71-5.29-2.11c-0.91-0.66-1.11-1.93-0.45-2.83c0.66-0.91,1.93-1.11,2.83-0.45
			c1.68,1.21,2.59,1.34,2.91,1.34c1.12,0,2.03,0.91,2.03,2.03C373.83,294.3,372.92,295.2,371.8,295.2z"/>
		<path class="st21" d="M367.08,293.03c2.17-6.45,11.07-5.18,14.14-4.22c3.07,0.96,5.83,2.16,7.49,3.25
			c1.66,1.09,1.69,2.9-0.53,3.93c-2.73,1.28-9.58,0.14-9.58,0.14c3.55,1.55-0.01,4.04-6.23,1.6
			C370.35,296.94,366.32,295.4,367.08,293.03z"/>
		<path class="st20" d="M345.47,238.37c-0.81,5.48-5.34,9.52-9.04,8.98c-3.69-0.54-3.85-5.44-3.04-10.92
			c0.81-5.48,2.27-9.47,5.96-8.93C343.05,228.05,346.28,232.89,345.47,238.37z"/>
		<circle class="st24" cx="256.19" cy="215.94" r="0.55"/>
		<path class="st24" d="M261.83,219.93c0,0.31-0.25,0.55-0.55,0.55s-0.55-0.25-0.55-0.55c0-0.31,0.25-0.55,0.55-0.55
			S261.83,219.63,261.83,219.93z"/>
		<path class="st20" d="M262.45,285.48c0,0.31-0.25,0.55-0.55,0.55c-0.31,0-0.55-0.25-0.55-0.55c0-0.31,0.25-0.55,0.55-0.55
			C262.2,284.93,262.45,285.18,262.45,285.48z"/>
		<path class="st20" d="M267.53,289.48c0,0.31-0.25,0.55-0.55,0.55c-0.31,0-0.55-0.25-0.55-0.55c0-0.31,0.25-0.55,0.55-0.55
			C267.29,288.92,267.53,289.17,267.53,289.48z"/>
	</g>
	<g>
		<path class="st20" d="M170.04,296.13c-1.61,0-3.79-0.98-4.96-2.67c-0.11-0.15-0.07-0.36,0.09-0.47c0.15-0.11,0.36-0.07,0.47,0.09
			c1.26,1.82,4.04,2.79,5.28,2.22c0.13-0.06,0.24-0.14,0.32-0.23c-1.1-0.51-2.11-1.51-2.39-3.03c-0.15-0.86-0.28-2.02,0.43-2.18
			c0.97-0.22,2.24,2.13,2.73,3.91c0.09,0.33,0.12,0.63,0.09,0.91c0.43,0.12,0.85,0.15,1.21,0.1c0.29-0.04,0.71-0.16,0.93-0.5
			c-0.82-0.56-1.37-1.53-1.56-2.83c-0.26-1.85-0.07-2.17,0.14-2.33c0.13-0.1,0.3-0.12,0.47-0.05c0.72,0.31,1.6,2.93,1.77,4.42
			c0.02,0.16,0.02,0.32,0,0.47c0.28,0.11,0.58,0.17,0.91,0.18c0.59,0.03,1.17-0.15,1.63-0.43c-0.1-0.06-0.19-0.13-0.27-0.2
			c-0.7-0.6-0.98-1.56-0.87-2.93c0.09-1.06,0.33-1.64,0.76-1.82c0.15-0.07,0.45-0.13,0.82,0.16c0.73,0.58,1.41,2.43,1.17,3.76
			c-0.05,0.27-0.17,0.54-0.34,0.78c1.24,0.21,2.99-0.13,4.49-0.51c0.18-0.04,0.36,0.07,0.41,0.25c0.04,0.18-0.07,0.36-0.25,0.41
			c-1.83,0.45-3.81,0.82-5.2,0.42c-0.62,0.49-1.49,0.79-2.37,0.79c-0.4-0.01-0.77-0.08-1.11-0.21c-0.27,0.45-0.76,0.76-1.44,0.86
			c-0.45,0.07-0.98,0.02-1.51-0.13c-0.15,0.25-0.38,0.46-0.69,0.6C170.88,296.06,170.48,296.13,170.04,296.13z M169.46,290.53
			c-0.04,0.1-0.11,0.45,0.06,1.38c0.22,1.24,1.03,2.07,1.92,2.51c0-0.14-0.03-0.3-0.08-0.48
			C170.82,292.01,169.81,290.68,169.46,290.53z M173.22,289.94c0,0.25,0.02,0.68,0.12,1.39c0.14,0.97,0.49,1.71,1.03,2.18
			C174.21,292.15,173.61,290.58,173.22,289.94z M177.48,289.35C177.48,289.35,177.48,289.35,177.48,289.35c0,0-0.26,0.13-0.35,1.26
			c-0.1,1.14,0.11,1.91,0.63,2.36c0.12,0.1,0.25,0.19,0.41,0.26c0.19-0.21,0.32-0.45,0.37-0.7c0.18-0.98-0.29-2.42-0.81-3
			C177.59,289.38,177.5,289.35,177.48,289.35z"/>
		<g>
			<polygon class="st20" points="269.05,301.24 270.88,298.06 269.05,294.88 267.08,294.88 268.19,298.06 267.08,301.24 			"/>
			<path class="st20" d="M267.21,299.72c-0.91,0-1.66-0.74-1.66-1.66c0-0.91,0.74-1.65,1.66-1.65l-3.12-0.62l-0.83,2.52l1.39,2.12
				L267.21,299.72z"/>
			<path class="st21" d="M267.48,294.88h-3.67l-1.83,3.18l1.83,3.18h3.67l1.83-3.18L267.48,294.88z M265.65,299.72
				c-0.91,0-1.66-0.74-1.66-1.66c0-0.91,0.74-1.65,1.66-1.65c0.91,0,1.65,0.74,1.65,1.65C267.3,298.98,266.56,299.72,265.65,299.72z
				"/>
		</g>
		<g>
			<polygon class="st26" points="396.9,294.67 395.54,292.31 396.9,289.95 398.36,289.95 397.54,292.31 398.36,294.67 			"/>
			<path class="st26" d="M398.26,293.54c0.68,0,1.23-0.55,1.23-1.23c0-0.68-0.55-1.23-1.23-1.23l2.31-0.46l0.61,1.87l-1.03,1.58
				L398.26,293.54z"/>
			<path class="st20" d="M398.07,289.95h2.73l1.36,2.36l-1.36,2.36h-2.73l-1.36-2.36L398.07,289.95z M399.43,293.54
				c0.68,0,1.23-0.55,1.23-1.23c0-0.68-0.55-1.23-1.23-1.23c-0.68,0-1.23,0.55-1.23,1.23C398.2,292.99,398.75,293.54,399.43,293.54z
				"/>
		</g>
		<g>
			<path class="st20" d="M346.21,297.81h3.06c0.8,0,1.45-0.65,1.45-1.45l0,0c0-0.8-0.65-1.45-1.45-1.45h-3.06
				c-0.8,0-1.45,0.65-1.45,1.45l0,0C344.76,297.15,345.41,297.81,346.21,297.81z"/>
			<path class="st21" d="M341.33,295.08c0.75-1.6,2.58-2.32,4.09-1.62c1.5,0.71,2.11,2.58,1.35,4.18c-0.75,1.6-2.58,2.32-4.09,1.62
				C341.18,298.55,340.57,296.68,341.33,295.08z"/>
			
				<rect x="343.58" y="292.94" transform="matrix(-0.9045 -0.4265 0.4265 -0.9045 528.8592 711.1381)" class="st20" width="0.93" height="6.83"/>
		</g>
	</g>
</g>
</svg>
