<?xml version="1.0" encoding="utf-8"?>
<!-- Generator: Adobe Illustrator 24.3.0, SVG Export Plug-In . SVG Version: 6.00 Build 0)  -->
<svg version="1.1" id="Layer_1" xmlns="http://www.w3.org/2000/svg" xmlns:xlink="http://www.w3.org/1999/xlink" x="0px" y="0px"
	 viewBox="0 0 550 370" style="enable-background:new 0 0 550 370;" xml:space="preserve">
<style type="text/css">
	.st0{fill:#CAE6FE;}
	.st1{fill:#2A365C;}
	.st2{fill:#439AD7;}
	.st3{fill:#009EF3;}
	.st4{fill:#007CE6;}
	.st5{fill:#FEFDFF;}
	.st6{fill:#ABD3F2;}
	.st7{fill:#16162F;}
	.st8{fill:#445279;}
	.st9{opacity:0.2;}
	.st10{opacity:0.3;fill:#FEFDFF;}
	.st11{opacity:0.5;fill:#FEFDFF;}
	.st12{fill:#FBA691;}
	.st13{fill:#FD857D;}
	.st14{fill:#F05B56;}
	.st15{fill:#FFFFFF;stroke:#FFFFFF;stroke-width:0.5;stroke-miterlimit:10;}
	.st16{fill:#ECECEC;}
	.st17{fill:#E1E1E1;}
	.st18{fill:#F0F0F0;}
	.st19{fill:#F5F5F5;}
	.st20{fill:#033557;}
	.st21{fill:#439AD4;}
	.st22{opacity:0.3;fill:#007CFF;}
	.st23{fill:#FFFFFF;}
	.st24{fill:#002A68;}
	.st25{opacity:0.3;fill:#FFFFFF;}
	.st26{fill:#007CFF;}
</style>
<g>
	<g>
		<g>
			<ellipse class="st0" cx="291.94" cy="312.4" rx="151.74" ry="9.6"/>
		</g>
		<g>
			<path class="st0" d="M417.19,138.74c0,0.82-0.33,1.57-0.88,2.11c-0.54,0.55-1.29,0.88-2.11,0.88h-63.95
				c-1.64,0-2.99-1.35-2.99-2.99c0-0.82,0.33-1.57,0.88-2.11c0.54-0.55,1.29-0.88,2.11-0.88h3.02c1.19-2.77,3.95-4.71,7.16-4.71
				c2.16,0,4.11,0.88,5.53,2.3c1.88-3.19,5.36-5.34,9.34-5.34c1.09,0,2.15,0.17,3.14,0.47c2.08-3.91,6.19-6.58,10.93-6.58
				c5.69,0,10.48,3.84,11.93,9.07c1.05-0.52,2.23-0.82,3.49-0.82c3.55,0,6.55,2.37,7.49,5.62h1.93
				C415.85,135.74,417.19,137.09,417.19,138.74z"/>
			<path class="st0" d="M196.54,86.63c0,0.71-0.29,1.35-0.76,1.82c-0.46,0.47-1.11,0.76-1.82,0.76h-55.12
				c-1.42,0-2.58-1.16-2.58-2.58c0-0.71,0.29-1.35,0.76-1.82c0.46-0.47,1.11-0.76,1.82-0.76h2.61c1.03-2.39,3.41-4.06,6.17-4.06
				c1.86,0,3.55,0.76,4.76,1.98c1.62-2.75,4.62-4.6,8.05-4.6c0.94,0,1.85,0.14,2.71,0.4c1.79-3.37,5.34-5.67,9.43-5.67
				c4.91,0,9.04,3.31,10.28,7.82c0.9-0.45,1.92-0.71,3.01-0.71c3.06,0,5.64,2.04,6.45,4.84h1.66
				C195.38,84.05,196.54,85.21,196.54,86.63z"/>
			<path class="st0" d="M299.11,72.81c0,0.72-0.29,1.37-0.77,1.84c-0.47,0.48-1.12,0.77-1.84,0.77h-55.85
				c-1.43,0-2.61-1.18-2.61-2.61c0-0.72,0.29-1.37,0.77-1.84c0.47-0.48,1.12-0.77,1.84-0.77h2.64c1.04-2.42,3.45-4.12,6.25-4.12
				c1.89,0,3.59,0.77,4.83,2.01c1.65-2.79,4.68-4.67,8.15-4.67c0.96,0,1.87,0.14,2.74,0.41c1.82-3.42,5.41-5.74,9.55-5.74
				c4.97,0,9.16,3.36,10.42,7.93c0.92-0.46,1.95-0.72,3.05-0.72c3.1,0,5.72,2.07,6.54,4.91h1.68
				C297.93,70.2,299.11,71.37,299.11,72.81z"/>
		</g>
		<g>
			<g>
				<g>
					<g>
						<path class="st1" d="M419.69,120.64c2.08,0,3.77,1.69,3.77,3.77s-1.69,3.77-3.77,3.77c-2.08,0-3.77-1.69-3.77-3.77
							S417.61,120.64,419.69,120.64z M419.69,121.82c-1.43,0-2.59,1.16-2.59,2.59c0,1.43,1.16,2.59,2.59,2.59s2.59-1.16,2.59-2.59
							C422.28,122.99,421.12,121.82,419.69,121.82z"/>
					</g>
					<g>
						<g>
							<path class="st2" d="M415.86,101.47c2.08,0,3.77,1.69,3.77,3.77s-1.69,3.77-3.77,3.77c-2.08,0-3.77-1.69-3.77-3.77
								S413.78,101.47,415.86,101.47z M415.86,102.66c-1.43,0-2.59,1.16-2.59,2.59s1.16,2.59,2.59,2.59c1.43,0,2.59-1.16,2.59-2.59
								S417.28,102.66,415.86,102.66z"/>
						</g>
					</g>
					<g>
						<g>
							<g>
								<path class="st3" d="M404.38,96.16c0,0.33,0.26,0.59,0.59,0.59h2.61c0.33,0,0.59-0.26,0.59-0.59c0-0.33-0.26-0.59-0.59-0.59
									h-2.61C404.65,95.57,404.38,95.84,404.38,96.16z"/>
							</g>
							<g>
								<path class="st3" d="M399.82,96.16c0,0.33,0.26,0.59,0.59,0.59h2.61c0.33,0,0.59-0.26,0.59-0.59c0-0.33-0.26-0.59-0.59-0.59
									h-2.61C400.08,95.57,399.82,95.84,399.82,96.16z"/>
							</g>
						</g>
						<g>
							<g>
								<path class="st3" d="M403.41,92.5v2.34c0,0.33,0.26,0.59,0.59,0.59c0.33,0,0.59-0.26,0.59-0.59V92.5
									c0-0.33-0.26-0.59-0.59-0.59C403.67,91.91,403.41,92.17,403.41,92.5z"/>
							</g>
							<g>
								<path class="st3" d="M403.41,97.48v2.34c0,0.33,0.26,0.59,0.59,0.59c0.33,0,0.59-0.26,0.59-0.59v-2.34
									c0-0.33-0.26-0.59-0.59-0.59C403.67,96.89,403.41,97.15,403.41,97.48z"/>
							</g>
						</g>
					</g>
					<g>
						<g>
							<g>
								<g>
									<path class="st4" d="M408.64,116.31c0,0.33,0.26,0.59,0.59,0.59h2.61c0.33,0,0.59-0.26,0.59-0.59
										c0-0.33-0.26-0.59-0.59-0.59h-2.61C408.9,115.71,408.64,115.98,408.64,116.31z"/>
								</g>
								<g>
									<path class="st4" d="M404.07,116.31c0,0.33,0.26,0.59,0.59,0.59h2.61c0.33,0,0.59-0.26,0.59-0.59
										c0-0.33-0.26-0.59-0.59-0.59h-2.61C404.34,115.71,404.07,115.98,404.07,116.31z"/>
								</g>
							</g>
							<g>
								<g>
									<path class="st4" d="M407.66,112.64v2.34c0,0.33,0.26,0.59,0.59,0.59c0.33,0,0.59-0.26,0.59-0.59v-2.34
										c0-0.33-0.26-0.59-0.59-0.59C407.92,112.05,407.66,112.32,407.66,112.64z"/>
								</g>
								<g>
									<path class="st4" d="M407.66,117.62v2.34c0,0.33,0.26,0.59,0.59,0.59c0.33,0,0.59-0.26,0.59-0.59v-2.34
										c0-0.33-0.26-0.59-0.59-0.59C407.92,117.03,407.66,117.3,407.66,117.62z"/>
								</g>
							</g>
						</g>
					</g>
				</g>
			</g>
			<g>
				<g>
					<g>
						<path class="st3" d="M166.4,138.91c0,2.08-1.69,3.77-3.77,3.77c-2.08,0-3.77-1.69-3.77-3.77c0-2.08,1.69-3.77,3.77-3.77
							C164.71,135.14,166.4,136.83,166.4,138.91z M165.22,138.91c0-1.43-1.16-2.59-2.59-2.59s-2.59,1.16-2.59,2.59
							c0,1.43,1.16,2.59,2.59,2.59S165.22,140.34,165.22,138.91z"/>
					</g>
					<g>
						<g>
							<path class="st1" d="M181.8,133.82c0,2.08-1.69,3.77-3.77,3.77c-2.08,0-3.77-1.69-3.77-3.77c0-2.08,1.69-3.77,3.77-3.77
								C180.11,130.05,181.8,131.74,181.8,133.82z M180.62,133.82c0-1.43-1.16-2.59-2.59-2.59c-1.43,0-2.59,1.16-2.59,2.59
								c0,1.43,1.16,2.59,2.59,2.59C179.46,136.41,180.62,135.25,180.62,133.82z"/>
						</g>
					</g>
					<g>
						<g>
							<g>
								<path class="st4" d="M182.28,117.63c-0.33,0-0.59,0.26-0.59,0.59v2.61c0,0.33,0.26,0.59,0.59,0.59s0.59-0.26,0.59-0.59
									v-2.61C182.87,117.89,182.61,117.63,182.28,117.63z"/>
							</g>
							<g>
								<path class="st4" d="M182.28,113.06c-0.33,0-0.59,0.26-0.59,0.59v2.61c0,0.33,0.26,0.59,0.59,0.59s0.59-0.26,0.59-0.59
									v-2.61C182.87,113.33,182.61,113.06,182.28,113.06z"/>
							</g>
						</g>
						<g>
							<g>
								<path class="st4" d="M185.94,116.65h-2.34c-0.33,0-0.59,0.26-0.59,0.59c0,0.33,0.26,0.59,0.59,0.59h2.34
									c0.33,0,0.59-0.26,0.59-0.59C186.54,116.92,186.27,116.65,185.94,116.65z"/>
							</g>
							<g>
								<path class="st4" d="M180.96,116.65h-2.34c-0.33,0-0.59,0.26-0.59,0.59c0,0.33,0.26,0.59,0.59,0.59h2.34
									c0.33,0,0.59-0.26,0.59-0.59C181.56,116.92,181.29,116.65,180.96,116.65z"/>
							</g>
						</g>
					</g>
					<g>
						<g>
							<g>
								<g>
									<path class="st2" d="M166.3,121.81c-0.33,0-0.59,0.26-0.59,0.59v2.61c0,0.33,0.26,0.59,0.59,0.59
										c0.33,0,0.59-0.26,0.59-0.59v-2.61C166.89,122.07,166.62,121.81,166.3,121.81z"/>
								</g>
								<g>
									<path class="st2" d="M166.3,117.24c-0.33,0-0.59,0.26-0.59,0.59v2.61c0,0.33,0.26,0.59,0.59,0.59
										c0.33,0,0.59-0.26,0.59-0.59v-2.61C166.89,117.51,166.62,117.24,166.3,117.24z"/>
								</g>
							</g>
							<g>
								<g>
									<path class="st2" d="M169.96,120.83h-2.34c-0.33,0-0.59,0.26-0.59,0.59c0,0.33,0.26,0.59,0.59,0.59h2.34
										c0.33,0,0.59-0.26,0.59-0.59C170.55,121.09,170.28,120.83,169.96,120.83z"/>
								</g>
								<g>
									<path class="st2" d="M164.98,120.83h-2.34c-0.33,0-0.59,0.26-0.59,0.59c0,0.33,0.26,0.59,0.59,0.59h2.34
										c0.33,0,0.59-0.26,0.59-0.59C165.57,121.09,165.3,120.83,164.98,120.83z"/>
								</g>
							</g>
						</g>
					</g>
				</g>
			</g>
			<g>
				<g>
					<path class="st1" d="M178.45,158.75v12.59c0,0.81-0.65,1.45-1.45,1.45h-12.6c-0.55,0-1.03-0.3-1.28-0.76
						c-0.02-0.05-0.05-0.1-0.06-0.15c-0.02-0.07-0.05-0.15-0.07-0.23c0-0.01,0-0.01,0-0.02c0-0.01,0-0.02,0-0.03
						c-0.02-0.08-0.02-0.17-0.02-0.26v-12.59c0-0.76,0.57-1.37,1.3-1.45c0.05,0,0.1,0,0.15,0H177c0.15,0,0.29,0.02,0.43,0.06
						c0,0,0,0,0,0C178.02,157.54,178.45,158.09,178.45,158.75z"/>
				</g>
			</g>
			<g>
				<g>
					<g>
						<path class="st2" d="M427.46,246.24v12.61c0,0.81-0.65,1.46-1.46,1.46h-12.61c-0.55,0-1.03-0.3-1.28-0.76
							c-0.02-0.05-0.05-0.1-0.06-0.15c-0.02-0.07-0.05-0.15-0.07-0.23c0-0.01,0-0.01,0-0.02c0-0.01,0-0.02,0-0.03
							c-0.02-0.08-0.02-0.17-0.02-0.26v-12.61c0-0.76,0.57-1.37,1.3-1.45c0.05,0,0.1-0.01,0.15-0.01h12.61
							c0.15,0,0.29,0.02,0.43,0.06c0,0,0,0,0.01,0C427.03,245.03,427.46,245.58,427.46,246.24z"/>
					</g>
				</g>
				<g>
					<g>
						<path class="st5" d="M419.86,247.93c-2.68,0-4.86,2.18-4.86,4.86c0,2.68,2.18,4.86,4.86,4.86c2.68,0,4.86-2.18,4.86-4.86
							C424.72,250.11,422.54,247.93,419.86,247.93z M420.05,254.59v-1.7h2.2c-0.01,0.6-0.1,1.17-0.26,1.7H420.05z M421.43,256.53
							c0.36-0.45,0.64-0.97,0.85-1.55h1.48c-0.63,1.11-1.68,1.9-2.91,2.17C421.05,256.97,421.25,256.76,421.43,256.53z
							 M421.86,254.98c-0.18,0.48-0.43,0.91-0.73,1.3c-0.47,0.6-0.93,0.9-1.08,0.98l0-2.28H421.86z M420.05,250.4v-2.07
							c0.06,0,0.12,0.01,0.17,0.01c0.24,0.21,1.01,0.91,1.52,2.06H420.05z M422.18,250.4c-0.17-0.42-0.39-0.82-0.65-1.19
							c-0.19-0.27-0.4-0.53-0.62-0.76c1.12,0.27,2.1,0.97,2.72,1.95H422.18z M420.05,252.5v-1.7h1.86c0.2,0.55,0.31,1.12,0.34,1.7
							H420.05z M422.64,252.5c-0.02-0.58-0.13-1.15-0.31-1.7h1.53c0.27,0.53,0.42,1.11,0.46,1.7H422.64z M424.33,252.89
							c-0.01,0.59-0.14,1.16-0.38,1.7h-1.55c0.15-0.53,0.23-1.11,0.24-1.7H424.33z M417.36,254.59h-1.6
							c-0.24-0.54-0.36-1.11-0.38-1.7h1.73C417.13,253.49,417.21,254.06,417.36,254.59z M418.01,250.4
							c0.15-0.34,0.33-0.66,0.54-0.96c0.41-0.59,0.82-0.96,0.99-1.1c0.04,0,0.08-0.01,0.12-0.01v2.07H418.01z M419.66,250.79v1.7
							h-2.15c0.02-0.58,0.14-1.15,0.34-1.7H419.66z M416.08,250.4c0.63-1,1.64-1.71,2.78-1.97c-0.22,0.24-0.44,0.5-0.63,0.77
							c-0.26,0.37-0.48,0.78-0.66,1.19H416.08z M419.66,252.89v1.7h-1.89c-0.16-0.53-0.25-1.1-0.26-1.7H419.66z M415.4,252.5
							c0.04-0.6,0.2-1.17,0.46-1.7h1.57c-0.19,0.55-0.29,1.12-0.31,1.7H415.4z M417.48,254.98c0.2,0.58,0.49,1.1,0.84,1.55
							c0.18,0.23,0.39,0.45,0.6,0.64c-1.25-0.27-2.34-1.07-2.97-2.19H417.48z M419.66,254.98v2.25c-0.3-0.18-1.22-0.85-1.76-2.25
							H419.66z"/>
					</g>
				</g>
			</g>
		</g>
		<g>
			<g>
				<path class="st6" d="M326.55,118.51l1.74,0.57l0.92,0.3l2.61,0.86c0,0,38.92-31.48,28.95-50.24
					c-3.07-5.77-12.35-5.42-17.56,13.89C338.38,101.79,326.55,118.51,326.55,118.51z"/>
				<g>
					<g>
						<path class="st2" d="M328.28,119.09l0.92,0.3c7.82-8.23,13.85-17.96,17.66-24.95c4.52-8.3,6.96-14.64,6.98-14.7
							c0.09-0.23-0.03-0.48-0.25-0.57c-0.23-0.09-0.48,0.03-0.57,0.25c-0.02,0.06-2.45,6.36-6.94,14.61
							C342.26,101.06,336.17,110.86,328.28,119.09z"/>
					</g>
				</g>
			</g>
			<g>
				<path class="st6" d="M225.07,284.52l-1.71,0.11l-0.91,0.06l-2.58,0.17c0,0-27.92-37.75-14.45-52.43
					c4.15-4.52,12.49-2.01,12.67,16.74C218.26,266.55,225.07,284.52,225.07,284.52z"/>
				<g>
					<g>
						<g>
							<path class="st2" d="M223.35,284.63l-0.91,0.06c-5.16-9.32-8.35-19.57-10.15-26.81c-2.15-8.6-2.87-14.93-2.87-14.99
								c-0.03-0.23,0.14-0.43,0.36-0.45c0.23-0.03,0.43,0.14,0.46,0.36c0.01,0.06,0.72,6.35,2.86,14.9
								C214.91,264.96,218.13,275.3,223.35,284.63z"/>
						</g>
					</g>
				</g>
			</g>
			<g>
				<path class="st0" d="M233.69,290.2l-2,1.47l-1.06,0.78l-3.01,2.21c0,0-63.52-24.22-58.56-52.63
					c1.53-8.75,13.66-12.2,28.52,10.52C211.36,273.62,233.69,290.2,233.69,290.2z"/>
				<g>
					<path class="st6" d="M231.69,291.68l-1.06,0.78c-13.57-7.33-25.46-17.34-33.32-24.76c-9.33-8.81-15.16-15.96-15.21-16.03
						c-0.21-0.26-0.17-0.63,0.09-0.84c0.26-0.21,0.63-0.17,0.84,0.09c0.06,0.07,5.84,7.18,15.12,15.93
						C206.04,274.3,218.04,284.39,231.69,291.68z"/>
				</g>
			</g>
			<g>
				<path class="st0" d="M317.52,124.57l1.92,1.83l1.02,0.97l2.88,2.75c0,0,70.47-16.91,69.12-47.63
					c-0.42-9.46-12.77-14.77-31.6,7.22C343.4,110.09,317.52,124.57,317.52,124.57z"/>
				<g>
					<path class="st6" d="M319.43,126.4l1.02,0.97c15.35-5.89,29.29-14.85,38.62-21.61c11.07-8.03,18.21-14.8,18.28-14.87
						c0.26-0.24,0.26-0.64,0.02-0.9c-0.24-0.26-0.64-0.26-0.9-0.02c-0.07,0.07-7.16,6.79-18.17,14.77
						C348.93,111.54,334.86,120.57,319.43,126.4z"/>
				</g>
			</g>
			<g>
				<path class="st6" d="M191.4,104.01c2.62,7.64,10.33,7.08,10.42,13.36c0.09,6.28,4.23,10.88,9.6,9.51
					c5.37-1.37,9.25-2.68,11.98,3.46c2.73,6.14,10.74,8.94,13.66,3.88c0.73-1.26,1.51-2.62,2.28-3.96c0.21-0.37,0.42-0.73,0.62-1.09
					c0.05-0.08,0.1-0.17,0.14-0.25c3.09-5.38,1.71-12.29-3.31-15.92c-2.04-1.47-4.43-2.25-7.07-1.35c-8.28,2.81-5.6-5.74-10.74-9.1
					c-5.92-3.87-10.66,0.98-14.74-2.36C198.57,95.55,188.79,96.38,191.4,104.01z"/>
				<g>
					<g>
						<g>
							<path class="st2" d="M201.53,106.95l37.81,23.33c0.21-0.37,0.42-0.73,0.62-1.09l-37.78-23.31c-0.29-0.18-0.68-0.09-0.86,0.2
								C201.15,106.38,201.24,106.76,201.53,106.95z"/>
						</g>
					</g>
				</g>
			</g>
			<g>
				<path class="st0" d="M197.21,61.35c-1.15,9.92,7.76,13.42,4.51,20.48c-3.25,7.07-1.08,14.41,5.65,15.75
					c6.74,1.33,11.77,1.94,11.54,10.25c-0.23,8.31,7.23,15.71,13.19,11.62c1.48-1.02,3.09-2.12,4.66-3.21
					c0.43-0.3,0.86-0.59,1.28-0.88c0.1-0.07,0.2-0.13,0.29-0.2c6.32-4.36,8.47-12.81,4.79-19.55c-1.49-2.73-3.75-4.87-7.18-5.28
					c-10.74-1.28-3.19-9.4-7.14-15.9c-4.54-7.48-12.43-4.59-15.21-10.5C209.72,55.72,198.36,51.43,197.21,61.35z"/>
				<g>
					<path class="st6" d="M206.96,70.03l29.79,46.22c0.43-0.3,0.86-0.59,1.28-0.88l-29.77-46.18c-0.23-0.36-0.71-0.46-1.07-0.23
						C206.83,69.19,206.73,69.67,206.96,70.03z"/>
				</g>
			</g>
			<g>
				<path class="st6" d="M359.51,229.96c-7.67,2.51-7.22,10.23-13.5,10.24c-6.28,0.01-10.94,4.08-9.64,9.47
					c1.3,5.39,2.56,9.29-3.62,11.93c-6.18,2.64-9.08,10.62-4.07,13.61c1.25,0.74,2.6,1.55,3.93,2.33c0.36,0.21,0.72,0.43,1.08,0.64
					c0.08,0.05,0.16,0.1,0.25,0.15c5.34,3.16,12.27,1.88,15.97-3.1c1.5-2.02,2.31-4.4,1.45-7.05c-2.69-8.31,5.82-5.52,9.25-10.62
					c3.95-5.86-0.83-10.67,2.56-14.71C367.87,237.24,367.18,227.45,359.51,229.96z"/>
				<g>
					<g>
						<g>
							<path class="st2" d="M356.44,240.05l-23.83,37.49c0.36,0.21,0.72,0.43,1.08,0.64l23.81-37.46c0.19-0.29,0.1-0.68-0.19-0.87
								C357.02,239.67,356.63,239.76,356.44,240.05z"/>
						</g>
					</g>
				</g>
			</g>
			<g>
				<path class="st0" d="M388.68,245.96c-9.91-1.29-13.52,7.58-20.54,4.23c-7.02-3.34-14.4-1.27-15.82,5.44
					c-1.42,6.72-2.1,11.74-10.41,11.4c-8.31-0.34-15.81,7.02-11.8,13.03c1,1.5,2.08,3.12,3.14,4.7c0.29,0.43,0.58,0.87,0.86,1.29
					c0.07,0.1,0.13,0.2,0.2,0.3c4.28,6.38,12.7,8.64,19.49,5.05c2.75-1.45,4.92-3.68,5.38-7.11c1.42-10.72,9.45-3.07,15.99-6.93
					c7.54-4.44,4.76-12.36,10.7-15.06C394.14,258.55,398.59,247.24,388.68,245.96z"/>
				<g>
					<path class="st6" d="M379.87,255.59l-46.62,29.17c0.29,0.43,0.58,0.87,0.86,1.29l46.58-29.14c0.36-0.23,0.47-0.71,0.25-1.07
						C380.71,255.48,380.23,255.37,379.87,255.59z"/>
				</g>
			</g>
			<g>
				<g>
					<path class="st6" d="M231.58,207.74c-9.69-11.17-26.94-33.19-32.26-42.03c-6.94-11.55-9.99-20.95-9.04-27.93
						c0.06-0.46,0.49-0.79,0.95-0.72c0.46,0.06,0.79,0.49,0.72,0.95c-1.65,12.21,8.28,30.04,40.47,68.21L231.58,207.74z"/>
				</g>
				<path class="st0" d="M193.99,154.89c0,0-5.64,4.26-12.74-5.96C181.25,148.93,191.74,144.87,193.99,154.89z"/>
				<path class="st0" d="M197.38,160.35c0,0-4.56-5.4,5.24-13.05C202.62,147.29,207.26,157.54,197.38,160.35z"/>
				<path class="st0" d="M191.17,143.18c0,0-6.1-3.57,0.59-14.05C191.76,129.13,199.55,137.24,191.17,143.18z"/>
				<path class="st0" d="M203.85,171.53c0,0-3.87,5.92-14.01-1.3C189.85,170.24,198.34,162.86,203.85,171.53z"/>
				<path class="st0" d="M208.14,176.57c0,0-5.43-4.53,2.9-13.76C211.05,162.81,217.39,172.1,208.14,176.57z"/>
				<path class="st0" d="M213.33,184.05c0,0-3.76,5.99-14.03-1.03C199.3,183.02,207.66,175.48,213.33,184.05z"/>
			</g>
			<g>
				<g>
					<path class="st6" d="M297.65,106.9c5.03-13.91,10.17-25.47,15.3-34.42c6.71-11.69,13.43-18.93,19.99-21.51
						c0.43-0.17,0.93,0.04,1.1,0.48c0.17,0.43-0.04,0.93-0.48,1.1c-11.46,4.51-23.76,24.73-35.59,58.51L297.65,106.9z"/>
				</g>
				<path class="st0" d="M319.8,62.56c0,0-6.47-2.85-1-14.03C318.8,48.53,327.46,55.7,319.8,62.56z"/>
				<path class="st0" d="M316.69,68.17c0,0,2.49-6.62,13.95-1.78C330.64,66.39,323.96,75.44,316.69,68.17z"/>
				<path class="st0" d="M328.65,54.39c0,0,0.14-7.07,12.56-6.33C341.21,48.05,337.92,58.81,328.65,54.39z"/>
				<path class="st0" d="M310.07,79.28c0,0-7.05-0.5-5.69-12.86C304.38,66.41,314.96,70.24,310.07,79.28z"/>
				<path class="st0" d="M307.77,85.48c0,0,1.31-6.95,13.43-4.17C321.2,81.31,316.18,91.37,307.77,85.48z"/>
				<path class="st0" d="M303.77,93.65c0,0-7.06-0.36-5.93-12.75C297.83,80.9,308.48,84.53,303.77,93.65z"/>
			</g>
		</g>
		<g>
			<g>
				<path class="st1" d="M344.29,102.05V301.9c0,6.26-5.08,11.34-11.34,11.34h-99.52c-3.15,0-5.99-1.28-8.05-3.35
					c-2.03-2.05-3.29-4.88-3.29-7.99V102.05c0-6.26,5.08-11.34,11.34-11.34h99.52c1.85,0,3.6,0.44,5.14,1.23
					C341.78,93.81,344.29,97.64,344.29,102.05z"/>
				<path class="st7" d="M344.29,102.05V301.9c0,6.26-5.08,11.34-11.34,11.34h-99.52c-3.15,0-5.99-1.28-8.05-3.35L338.1,91.94
					C341.78,93.81,344.29,97.64,344.29,102.05z"/>
			</g>
			<g>
				<path class="st7" d="M222.09,153.06h-1.64c-1.39,0-2.51-1.12-2.51-2.51v-21.38c0-1.39,1.12-2.51,2.51-2.51h1.64V153.06z"/>
				<path class="st7" d="M344.29,146.15h1.34c1.13,0,2.05-0.92,2.05-2.05v-17.39c0-1.13-0.92-2.05-2.05-2.05h-1.34V146.15z"/>
				<path class="st7" d="M222.09,183.05h-1.64c-1.39,0-2.51-1.12-2.51-2.51v-21.38c0-1.39,1.12-2.51,2.51-2.51h1.64V183.05z"/>
			</g>
			<g>
				<path class="st5" d="M338.64,101.56V302.4c0,2.87-2.32,5.19-5.19,5.19H232.94c-2.14,0-3.97-1.29-4.77-3.14
					c-0.27-0.63-0.42-1.32-0.42-2.05V101.56c0-2.87,2.32-5.19,5.19-5.19h100.51c0.76,0,1.48,0.16,2.13,0.45
					C337.38,97.63,338.64,99.45,338.64,101.56z"/>
				<g>
					<g>
						<g>
							<g>
								<path class="st0" d="M328.38,249.94H267.2c-1.11,0-2.01-0.9-2.01-2.01l0,0c0-1.11,0.9-2.01,2.01-2.01h61.18
									c1.11,0,2.01,0.9,2.01,2.01l0,0C330.4,249.03,329.5,249.94,328.38,249.94z"/>
							</g>
							<g>
								<path class="st0" d="M328.38,258.66H267.2c-1.11,0-2.01-0.9-2.01-2.01l0,0c0-1.11,0.9-2.01,2.01-2.01h61.18
									c1.11,0,2.01,0.9,2.01,2.01l0,0C330.4,257.76,329.5,258.66,328.38,258.66z"/>
							</g>
							<g>
								<path class="st0" d="M328.38,267.38H267.2c-1.11,0-2.01-0.9-2.01-2.01l0,0c0-1.11,0.9-2.01,2.01-2.01h61.18
									c1.11,0,2.01,0.9,2.01,2.01l0,0C330.4,266.48,329.5,267.38,328.38,267.38z"/>
							</g>
						</g>
					</g>
					<rect x="238.28" y="245.92" class="st0" width="21.45" height="21.45"/>
					<g>
						<g>
							<g>
								<g>
									<path class="st0" d="M273.6,122.49h-33.3c-1.11,0-2.01,0.9-2.01,2.01l0,0c0,1.11,0.9,2.01,2.01,2.01h33.3
										c1.11,0,2.01-0.9,2.01-2.01l0,0C275.61,123.39,274.71,122.49,273.6,122.49z"/>
								</g>
								<g>
									<path class="st0" d="M273.6,131.21h-33.3c-1.11,0-2.01,0.9-2.01,2.01l0,0c0,1.11,0.9,2.01,2.01,2.01h33.3
										c1.11,0,2.01-0.9,2.01-2.01l0,0C275.61,132.11,274.71,131.21,273.6,131.21z"/>
								</g>
								<g>
									<path class="st0" d="M273.6,139.93h-33.3c-1.11,0-2.01,0.9-2.01,2.01l0,0c0,1.11,0.9,2.01,2.01,2.01h33.3
										c1.11,0,2.01-0.9,2.01-2.01l0,0C275.61,140.83,274.71,139.93,273.6,139.93z"/>
								</g>
							</g>
						</g>
						<g>
							<g>
								<g>
									<path class="st0" d="M328.32,122.49h-33.3c-1.11,0-2.01,0.9-2.01,2.01l0,0c0,1.11,0.9,2.01,2.01,2.01h33.3
										c1.11,0,2.01-0.9,2.01-2.01l0,0C330.34,123.39,329.44,122.49,328.32,122.49z"/>
								</g>
								<g>
									<path class="st0" d="M328.32,131.21h-33.3c-1.11,0-2.01,0.9-2.01,2.01v0c0,1.11,0.9,2.01,2.01,2.01h33.3
										c1.11,0,2.01-0.9,2.01-2.01v0C330.34,132.11,329.44,131.21,328.32,131.21z"/>
								</g>
								<g>
									<path class="st0" d="M328.32,139.93h-33.3c-1.11,0-2.01,0.9-2.01,2.01l0,0c0,1.11,0.9,2.01,2.01,2.01h33.3
										c1.11,0,2.01-0.9,2.01-2.01l0,0C330.34,140.83,329.44,139.93,328.32,139.93z"/>
								</g>
							</g>
						</g>
					</g>
				</g>
				<g>
					<path class="st1" d="M244.2,97.94l5.5,8.36c1.53,2.33,4.14,3.74,6.93,3.74h53.13c2.79,0,5.4-1.41,6.93-3.74l5.5-8.36
						c0-0.87-0.71-1.58-1.58-1.58h-74.83C244.91,96.37,244.2,97.08,244.2,97.94z"/>
					<path class="st8" d="M301.24,103.99h-45.52c-0.93,0-1.68-0.76-1.68-1.68l0,0c0-0.93,0.76-1.68,1.68-1.68h45.52
						c0.92,0,1.68,0.76,1.68,1.68l0,0C302.92,103.23,302.17,103.99,301.24,103.99z"/>
					<path class="st8" d="M311.85,102.2c0,1.11-0.9,2.02-2.02,2.02c-1.11,0-2.02-0.9-2.02-2.02c0-1.11,0.9-2.02,2.02-2.02
						C310.94,100.18,311.85,101.08,311.85,102.2z"/>
				</g>
			</g>
			<g>
				<g>
					<g>
						<rect x="235.59" y="185.16" class="st3" width="95.75" height="43.5"/>
						<rect x="235.59" y="185.16" class="st4" width="95.75" height="3.45"/>
						<polygon class="st8" points="331.34,182.57 235.59,182.57 243.04,164.92 323.88,164.92 						"/>
						<rect x="231.34" y="182.45" class="st1" width="103.04" height="2.71"/>
						<polygon class="st3" points="303.62,228.66 263.3,228.66 263.3,194.92 284,183.67 303.62,193.81 						"/>
						<rect x="261" y="197.99" class="st4" width="3.39" height="30.67"/>
						<rect x="302.58" y="197.99" class="st4" width="3.39" height="30.67"/>
						<g>
							<rect x="276.57" y="205.95" class="st1" width="13.79" height="22.77"/>
							<rect x="277.95" y="207.34" class="st8" width="11.02" height="21.38"/>
							<path class="st1" d="M288.27,218.68c0,0.64-0.52,1.16-1.16,1.16c-0.64,0-1.16-0.52-1.16-1.16c0-0.64,0.52-1.16,1.16-1.16
								C287.75,217.52,288.27,218.04,288.27,218.68z"/>
							<path class="st1" d="M291.98,205.95h-17.03c-0.57,0-1.03-0.46-1.03-1.03v-0.67h19.09v0.67
								C293.01,205.49,292.55,205.95,291.98,205.95z"/>
							<g>
								<rect x="279.46" y="208.91" class="st0" width="3.4" height="6.92"/>
								<polygon class="st5" points="282.86,209.18 282.86,211.23 279.46,214.63 279.46,212.58 								"/>
								<rect x="279.46" y="208.91" class="st9" width="3.4" height="0.98"/>
							</g>
							<g>
								<rect x="284.25" y="208.91" class="st0" width="3.4" height="6.92"/>
								<polygon class="st5" points="287.65,209.18 287.65,211.23 284.25,214.63 284.25,212.58 								"/>
								<rect x="284.25" y="208.91" class="st9" width="3.4" height="0.98"/>
							</g>
						</g>
						<path class="st1" d="M334.37,182.47H231.34v-1.46c0-1.23,1-2.23,2.23-2.23h98.57c1.23,0,2.23,1,2.23,2.23V182.47z"/>
						<g>
							<g>
								<polygon class="st8" points="313.8,198.02 308.28,198.01 302.54,197.99 283.46,185.13 264.39,197.99 258.65,198.01 
									253.13,198.02 283.46,177.57 								"/>
							</g>
							<g>
								<polygon class="st1" points="308.28,198.01 302.54,197.99 283.46,185.13 264.39,197.99 258.65,198.01 283.46,181.28 
																	"/>
							</g>
						</g>
						<g>
							<g>
								<g>
									<g>
										<g>
											<rect x="245.14" y="203.9" class="st0" width="8.13" height="15.17"/>
											<g>
												<polygon class="st5" points="253.28,203.9 250.41,203.9 245.17,209.15 245.17,213.43 253.28,205.32 												"/>
											</g>
											<g>
												<polygon class="st5" points="253.28,210.32 245.17,218.43 245.17,219.08 246.66,219.08 253.28,212.46 												"/>
											</g>
											<path class="st8" d="M244.03,202.79v17.4h9.24v-17.4H244.03z M245.14,203.9h7v7.01h-7V203.9z M245.14,219.08v-7.01h7
												v7.01H245.14z"/>
										</g>
										<rect x="244.03" y="202.89" class="st9" width="9.24" height="1.79"/>
									</g>
								</g>
								<path class="st1" d="M254.22,202.79h-11.12c-0.47,0-0.85-0.38-0.85-0.85v-0.56h12.82v0.56
									C255.07,202.41,254.69,202.79,254.22,202.79z"/>
							</g>
							<rect x="244.03" y="220.19" class="st4" width="9.24" height="1.78"/>
						</g>
						<g>
							<g>
								<g>
									<g>
										<g>
											<rect x="316.7" y="203.9" class="st0" width="8.13" height="15.17"/>
											<g>
												<polygon class="st5" points="324.83,203.9 321.97,203.9 316.72,209.15 316.72,213.43 324.83,205.32 												"/>
											</g>
											<g>
												<polygon class="st5" points="324.83,210.32 316.72,218.43 316.72,219.08 318.22,219.08 324.83,212.46 												"/>
											</g>
											<path class="st8" d="M315.59,202.79v17.4h9.24v-17.4H315.59z M316.7,203.9h7v7.01h-7V203.9z M316.7,219.08v-7.01h7v7.01
												H316.7z"/>
										</g>
										<rect x="315.59" y="202.89" class="st9" width="9.24" height="1.79"/>
									</g>
								</g>
								<path class="st1" d="M325.77,202.79h-11.12c-0.47,0-0.85-0.38-0.85-0.85v-0.56h12.82v0.56
									C326.62,202.41,326.24,202.79,325.77,202.79z"/>
							</g>
							<rect x="315.59" y="220.19" class="st4" width="9.24" height="1.78"/>
						</g>
						<path class="st1" d="M321.82,168.43h-76.19c-0.27,0-0.49-0.22-0.49-0.49v-0.63c0-0.27,0.22-0.49,0.49-0.49h76.19
							c0.27,0,0.48,0.22,0.48,0.49v0.63C322.31,168.22,322.09,168.43,321.82,168.43z"/>
						<path class="st1" d="M322.84,172.65h-78.82c-0.27,0-0.49-0.22-0.49-0.49v-0.63c0-0.27,0.22-0.48,0.49-0.48h78.82
							c0.27,0,0.48,0.22,0.48,0.48v0.63C323.33,172.43,323.11,172.65,322.84,172.65z"/>
						<path class="st1" d="M326.14,176.87h-84.53c-0.27,0-0.49-0.22-0.49-0.49v-0.63c0-0.27,0.22-0.48,0.49-0.48h84.53
							c0.27,0,0.48,0.22,0.48,0.48v0.63C326.62,176.65,326.41,176.87,326.14,176.87z"/>
						<g>
							<g>
								<rect x="248.65" y="159.35" class="st3" width="10.69" height="12.06"/>
								<rect x="248.65" y="159.35" class="st4" width="10.69" height="3.1"/>
							</g>
							<g>
								<path class="st8" d="M261.58,155.27v1.43c0,0.21-0.02,0.41-0.07,0.61c-0.27,1.17-1.32,2.04-2.58,2.04h-9.86
									c-1.25,0-2.3-0.87-2.58-2.04c-0.05-0.2-0.07-0.4-0.07-0.61v-1.43H261.58z"/>
								<path class="st1" d="M261.51,157.31c-0.27,1.17-1.32,2.04-2.58,2.04h-9.86c-1.25,0-2.3-0.87-2.58-2.04H261.51z"/>
							</g>
						</g>
						<path class="st8" d="M333.11,231.36H233.7c-0.45,0-0.82-0.37-0.82-0.82v-1.07c0-0.45,0.37-0.82,0.82-0.82h99.41
							c0.45,0,0.82,0.37,0.82,0.82v1.07C333.93,230.99,333.56,231.36,333.11,231.36z"/>
						<path class="st1" d="M335.64,234.01H231.17c-0.45,0-0.82-0.37-0.82-0.82v-1.07c0-0.45,0.37-0.82,0.82-0.82h104.47
							c0.45,0,0.82,0.37,0.82,0.82v1.07C336.45,233.65,336.09,234.01,335.64,234.01z"/>
					</g>
					<polygon class="st4" points="264.39,198.03 264.39,202.12 283.73,189.68 302.58,202.12 302.54,198.03 283.46,185.17 					"/>
				</g>
			</g>
			<path class="st10" d="M338.64,101.56V302.4c0,2.87-2.32,5.19-5.19,5.19H232.94c-2.14,0-3.97-1.29-4.77-3.14l107.4-207.63
				C337.38,97.63,338.64,99.45,338.64,101.56z"/>
		</g>
		<g>
			<path class="st2" d="M164.25,276.55l8.33,2.79c1.05,0.35,2.19-0.22,2.55-1.27l7.06-21.11l2.92-8.73l-12.15-4.07l-1.73,5.17
				L162.98,274C162.63,275.05,163.2,276.19,164.25,276.55z"/>
			<path class="st3" d="M171.24,249.33c2.42,2.69,6.07,5.85,10.96,7.62l2.92-8.73l-12.15-4.07L171.24,249.33z"/>
			<g>
				<path class="st1" d="M172.19,279.2l-0.81,2.43l-10.47,31.27c-0.7,2.08-2.95,3.21-5.03,2.51c-2.08-0.7-3.21-2.95-2.51-5.03
					l9.48-28.32l1.8-5.38L172.19,279.2z"/>
				<polygon class="st7" points="172.19,279.2 171.37,281.63 162.84,282.06 164.64,276.68 				"/>
			</g>
			<g>
				<path class="st8" d="M155.23,203.8c-6.41,18.84,3.66,39.31,22.5,45.72c18.84,6.41,39.31-3.66,45.72-22.5
					c6.41-18.84-3.66-39.31-22.5-45.72C182.11,174.89,161.64,184.96,155.23,203.8z M160.46,205.58
					c5.42-15.92,22.78-24.47,38.71-19.05c15.92,5.42,24.47,22.78,19.05,38.71c-5.42,15.92-22.78,24.47-38.71,19.05
					C163.59,238.87,155.05,221.5,160.46,205.58z"/>
				<path class="st11" d="M158.91,217.55c1.18,16.78,15.79,29.47,32.57,28.29c1.44-0.1,2.85-0.3,4.22-0.59
					c3.56-0.76,6.88-2.13,9.84-4c3.09-1.95,5.8-4.43,8-7.31c3.47-4.52,5.69-10.01,6.19-15.94c0.13-1.55,0.15-3.14,0.03-4.74
					c-1.18-16.78-15.79-29.47-32.57-28.29c-1.6,0.11-3.17,0.35-4.69,0.7c-5.8,1.33-10.93,4.3-14.91,8.36
					c-2.54,2.58-4.62,5.61-6.11,8.95c-1.43,3.2-2.33,6.67-2.58,10.3C158.81,214.69,158.81,216.11,158.91,217.55z"/>
				<path class="st11" d="M167.6,194.03l45.95,39.91c3.47-4.52,5.69-10.01,6.19-15.94l-37.23-32.33
					C176.72,187,171.59,189.97,167.6,194.03z"/>
				<path class="st11" d="M158.91,213.29l36.8,31.96c3.56-0.76,6.88-2.13,9.84-4l-44.06-38.27
					C160.06,206.18,159.16,209.66,158.91,213.29z"/>
			</g>
		</g>
		<g>
			<g>
				<g>
					<g>
						<polygon class="st12" points="362.59,297.92 362.21,304.84 367.83,304.97 368.51,297.7 						"/>
						<g>
							<path class="st3" d="M364.44,303.87c0,0,2.89-0.65,3.68-0.61c0.79,0.05,5.87,6.17,7.64,6.59c3.21,0.76,3.02,5.81,1.05,5.99
								c-5.72,0.51-15.38-2.27-15.38-2.27s-0.65-6.52-0.18-8.54C361.71,303.01,362.82,304.41,364.44,303.87z"/>
							<g>
								<g>
									<path class="st5" d="M368.94,309.59c-0.1,0.02-0.21,0-0.3-0.07c-0.18-0.13-0.21-0.38-0.09-0.55
										c0.04-0.06,1.06-1.45,2.28-1.9c1.62-0.6,2.72,0.4,2.76,0.44c0.16,0.15,0.17,0.4,0.02,0.56c-0.15,0.16-0.4,0.17-0.56,0.02
										c-0.03-0.03-0.8-0.7-1.95-0.28c-0.99,0.37-1.91,1.61-1.92,1.62C369.13,309.52,369.04,309.57,368.94,309.59z"/>
								</g>
								<g>
									<path class="st5" d="M367.9,308.35c-0.1,0.02-0.21,0-0.3-0.07c-0.18-0.13-0.22-0.38-0.09-0.55
										c0.04-0.06,1.06-1.45,2.28-1.9c1.62-0.6,2.72,0.4,2.76,0.44c0.16,0.15,0.17,0.4,0.02,0.56c-0.15,0.16-0.4,0.17-0.56,0.02
										c-0.03-0.03-0.8-0.7-1.95-0.28c-1,0.37-1.91,1.61-1.92,1.62C368.09,308.28,368,308.33,367.9,308.35z"/>
								</g>
								<g>
									<path class="st5" d="M370.43,310.66c-0.1,0.02-0.21,0-0.3-0.07c-0.18-0.13-0.22-0.38-0.09-0.55
										c0.04-0.06,1.06-1.45,2.28-1.9c1.62-0.6,2.72,0.4,2.76,0.44c0.16,0.15,0.17,0.4,0.02,0.56c-0.15,0.16-0.4,0.17-0.56,0.02
										c-0.03-0.03-0.8-0.7-1.95-0.28c-1,0.37-1.91,1.61-1.92,1.62C370.62,310.59,370.53,310.64,370.43,310.66z"/>
								</g>
							</g>
						</g>
					</g>
					<g>
						<path class="st1" d="M383.24,213.59c0,0-0.12,1.63-0.33,4.32c-0.05,0.71-0.12,1.5-0.19,2.36c-0.73,9.05-2.13,25.4-3.67,37.01
							c-2.15,16.27-8.94,43-8.94,43l-7-0.24l-0.69-0.03l-1.66-0.05c0,0,1.17-16.91,2.65-31.59c0.98-9.68,1.56-32.6,1.84-47.07
							c0.14-7.46,0.21-12.68,0.21-12.68L383.24,213.59z"/>
					</g>
					<path class="st7" d="M383.24,213.59c0,0-0.12,1.63-0.33,4.32c-0.05,0.71-0.12,1.5-0.19,2.36c-3.23,0.6-12.11,1.02-17.46,1.02
						c0.14-7.46,0.21-12.68,0.21-12.68L383.24,213.59z"/>
					<g>
						<path class="st7" d="M369.25,217.8c-0.01,0.56-0.65,53.27-6.13,82.24l-0.69-0.03c5.49-28.88,6.13-81.67,6.14-82.22
							L369.25,217.8z"/>
					</g>
				</g>
				<g>
					<g>
						<polygon class="st12" points="406.51,299.25 406.28,305.5 400.57,305.19 400.44,298.56 						"/>
						<g>
							<g>
								<g>
									<path class="st3" d="M404.82,305.21c0,0,1.24-1.62,2.21-1.54c0.97,0.08,8.35,6.13,10.9,6.66c2.55,0.53,2.03,2.41,1.54,3.36
										c-0.48,0.96-20.41-0.66-20.41-0.66s-0.46-5.95,0.22-7.75C399.97,303.47,402.81,305.61,404.82,305.21z"/>
									<g>
										<g>
											<path class="st5" d="M408.89,309.41c-0.09,0.03-0.19,0.02-0.28-0.04c-0.17-0.1-0.23-0.32-0.13-0.49
												c0.03-0.06,0.84-1.4,1.9-1.92c1.41-0.69,2.49,0.12,2.54,0.16c0.16,0.12,0.19,0.35,0.07,0.5
												c-0.12,0.16-0.35,0.19-0.5,0.07c-0.03-0.02-0.78-0.57-1.79-0.08c-0.86,0.42-1.58,1.62-1.59,1.64
												C409.05,309.33,408.98,309.39,408.89,309.41z"/>
										</g>
										<g>
											<path class="st5" d="M407.84,308.39c-0.09,0.03-0.19,0.02-0.28-0.04c-0.17-0.1-0.23-0.32-0.13-0.49
												c0.03-0.06,0.84-1.4,1.9-1.92c1.41-0.69,2.49,0.12,2.54,0.16c0.16,0.12,0.19,0.35,0.07,0.5
												c-0.12,0.16-0.35,0.19-0.5,0.07c-0.03-0.02-0.78-0.57-1.79-0.08c-0.87,0.42-1.58,1.62-1.59,1.64
												C408,308.31,407.92,308.37,407.84,308.39z"/>
										</g>
										<g>
											<path class="st5" d="M410.33,310.26c-0.09,0.03-0.19,0.02-0.28-0.04c-0.17-0.1-0.23-0.32-0.13-0.49
												c0.03-0.06,0.84-1.4,1.9-1.92c1.41-0.69,2.49,0.12,2.54,0.16c0.16,0.12,0.19,0.35,0.07,0.5
												c-0.12,0.16-0.35,0.19-0.5,0.07c-0.03-0.02-0.78-0.57-1.79-0.08c-0.87,0.42-1.58,1.62-1.59,1.64
												C410.49,310.18,410.41,310.23,410.33,310.26z"/>
										</g>
									</g>
								</g>
							</g>
						</g>
					</g>
					<path class="st1" d="M407.55,300.88l-5.8-0.43l-0.69-0.05l-1.41-0.11c0,0-3.56-33.92-4.67-42.95
						c-0.96-7.85-5.46-25.48-8.38-36.46c-0.83-3.11-1.53-5.69-1.99-7.36c-0.35-1.31-0.56-2.05-0.56-2.05l19.39-1.88
						c0,0,0.05,0.43,0.14,1.19c0.19,1.57,0.55,4.58,0.99,8.35c1.21,10.29,3.05,26.29,3.77,34.44
						C410.16,274.57,407.55,300.88,407.55,300.88z"/>
					<path class="st7" d="M404.56,219.14l-17.97,1.74c-0.83-3.11-1.53-5.69-1.99-7.36l18.98-2.74
						C403.76,212.36,404.13,215.37,404.56,219.14z"/>
					<g>
						<path class="st7" d="M401.75,300.45l-0.69-0.05c-0.34-10.49-1.37-36.68-3.47-47.79c-2.64-14-8.71-34.38-8.78-34.59l0.66-0.2
							c0.06,0.21,6.15,20.62,8.79,34.66C400.38,263.66,401.41,289.98,401.75,300.45z"/>
					</g>
				</g>
				<g>
					<path class="st12" d="M402.33,161.15c0.38,2.53,0.77,4.97,1.12,7c0.55,3.29,0.97,5.54,0.97,5.54l2.98,8.53
						c1.02,2.92,4.41,4.23,7.12,2.76c0.05-0.02,0.1-0.04,0.14-0.07c0.99-0.76,1.78-2.25,2.51-5.74c0,0,0,0,0,0
						c0.02-0.3,2.66-13.32,2.68-18l-6.03-0.57c-0.26-0.56-1.55,6.13-1.84,5.51c-0.18-0.4-0.37-0.81-0.56-1.22
						c-0.32-0.69-0.65-1.4-0.99-2.13c-0.48-1.03-0.98-2.1-1.48-3.17c-3.69-7.93-7.61-16.32-7.61-16.32
						C400.07,143.97,401.13,153.08,402.33,161.15z"/>
					<path class="st13" d="M402.33,161.15c0.38,2.54,0.77,4.97,1.11,7c3.5-1.32,5.74-3.69,6.99-5.4c-0.48-1.03-0.98-2.1-1.48-3.17
						L402.33,161.15z"/>
					<g>
						<path class="st13" d="M410.34,176.41c0.02,0,0.04,0,0.06,0c0.19-0.01,0.34-0.16,0.36-0.35c0.41-4.55,0.9-7.93,1.23-9.95
							c-0.18-0.4-0.37-0.81-0.57-1.22c-0.32,1.79-0.94,5.59-1.43,11.11C409.97,176.2,410.13,176.39,410.34,176.41z"/>
					</g>
					<path class="st2" d="M412.82,159.09c0,0-0.74,0.99-2.06,2.1c-1.6,1.36-4.58,3.08-7.62,3.3c-2.92-9.16-3.84-20.71-2.95-23.76
						C401.69,142.37,409.36,151.53,412.82,159.09z"/>
					<g>
						<path class="st1" d="M410.77,159.25l0.1,0.06l0.81,0.47l0.19-0.34l7.05-0.19c0.6-0.01,1.09-0.48,1.14-1.07l1.3-14.74
							c0.01-0.07,0.01-0.15,0-0.22l0.27-0.42l-0.85-0.49l-0.03-0.02l-0.02-0.01c-0.17-0.09-0.36-0.13-0.56-0.13l-7.48,0.2
							c-0.6,0.01-1.09,0.48-1.13,1.07l-1.3,14.74C410.2,158.61,410.42,159.02,410.77,159.25z"/>
						<path class="st8" d="M412.3,159.93l7.48-0.2c0.6-0.02,1.09-0.48,1.14-1.07l1.3-14.74c0.06-0.7-0.5-1.29-1.2-1.28l-7.48,0.2
							c-0.6,0.02-1.09,0.48-1.14,1.07l-1.3,14.74C411.04,159.35,411.6,159.95,412.3,159.93z"/>
					</g>
					<path class="st12" d="M421.64,150.37c0.69,0.08,0.12,1.1,0.58,2.52c0.57,1.78-2.38,9.07-2.38,9.07c-2.86,1.3-6.3-0.98-6.3-0.98
						s-0.74-5.56-0.05-8.07c0,0,0.41-2.25,0.53-3.56c0.12-1.31,0.7-2.81,1.12-2.54c0.41,0.27,0.52,1.34,0.53,2.15
						c0.01,0.81,0.17,2.36,0.17,2.36s0.22-1.92,0.26-2.98c0.03-1.06-0.05-2.74,0.6-3.07c0.81-0.41,1.04,1.84,1.14,2.65
						c0.1,0.82-0.22,3.35-0.22,3.35s0.55-2.85,0.41-3.69c-0.14-0.84-0.31-2.49-0.27-3.19c0.04-0.7,0.94-0.58,1.21,0.28
						c0.27,0.86,0.58,2.58,0.65,3.16c0.09,0.74-0.09,3.19-0.09,3.19s0.35-2.8,0.33-3.53c-0.02-0.6-0.2-1.79,0.01-2.48
						c0.21-0.69,1.04-0.82,1.31,0.99c0.26,1.82,0.31,2.03,0.26,2.57c-0.09,0.96-0.25,2.02-0.14,2.41c0.05,0.2,0.28,0.2,0.28,0.2
						L421.64,150.37z"/>
				</g>
				<g>
					<g>
						<g>
							<path class="st2" d="M406.57,211.1c-14.45,4.6-29.13,5.48-44.06,2.66c-0.29-4.06-1.04-17.4-1.61-31.46
								c-0.02-0.47-0.04-0.93-0.06-1.4c-0.01-0.37-0.03-0.75-0.04-1.12c-0.01-0.27-0.02-0.54-0.03-0.81
								c-0.01-0.12-0.01-0.25-0.01-0.37c-0.02-0.37-0.03-0.74-0.04-1.11c-0.01-0.31-0.03-0.61-0.04-0.92c0-0.04,0-0.09,0-0.13
								c0-0.04,0-0.07,0-0.11c-0.01-0.32-0.02-0.65-0.04-0.96c0-0.06-0.01-0.13-0.01-0.19c-0.01-0.39-0.03-0.77-0.04-1.16
								c-0.01-0.27-0.02-0.53-0.03-0.79c0-0.11-0.01-0.21-0.01-0.32c-0.01-0.3-0.02-0.59-0.03-0.89c0-0.09-0.01-0.18-0.01-0.27
								c-0.01-0.27-0.02-0.54-0.02-0.81c0-0.11-0.01-0.23-0.01-0.35c-0.01-0.39-0.03-0.77-0.03-1.15c-0.02-0.37-0.03-0.74-0.03-1.11
								c-0.01-0.25-0.02-0.49-0.03-0.73c-0.02-0.53-0.03-1.06-0.04-1.58c-0.31-12.04-0.27-21.92,0.59-23.28
								c2.01-3.13,11.71-8.18,14.64-10.51l0.03,0.48c0,0,2.07,2.42,4.21,2.1c1.95-0.28,3.31-2.64,3.54-3.07
								c1.59,0.98,5.21,2.5,8.72,4.15c3.52,1.64,6.93,3.39,8.12,4.83c1.01,1.24,2.15,10.87,3.18,22.7l0,0.04
								c0.02,0.22,0.04,0.44,0.06,0.66l0,0.03c0.01,0.17,0.03,0.34,0.05,0.52c0.01,0.11,0.02,0.21,0.03,0.32
								c0.02,0.24,0.04,0.49,0.06,0.73c0.03,0.36,0.06,0.73,0.09,1.1c0.03,0.38,0.06,0.76,0.09,1.15c0.01,0.11,0.02,0.23,0.03,0.34
								c0.02,0.27,0.04,0.54,0.07,0.81c0.01,0.09,0.01,0.18,0.02,0.27c0.02,0.29,0.05,0.59,0.07,0.88l0.02,0.32
								c0.02,0.26,0.04,0.52,0.06,0.79c0.03,0.38,0.06,0.77,0.09,1.15c0,0.06,0.01,0.12,0.01,0.19c0.02,0.32,0.05,0.64,0.07,0.96
								c0,0.04,0.01,0.07,0.01,0.11c0,0.04,0.01,0.09,0.01,0.13c0.03,0.31,0.05,0.61,0.07,0.92c0.03,0.36,0.06,0.73,0.08,1.1
								c0.01,0.12,0.02,0.25,0.03,0.37c0.02,0.27,0.04,0.54,0.06,0.81c0.03,0.37,0.06,0.75,0.08,1.12c0.03,0.47,0.07,0.93,0.1,1.4
								C405.63,193.64,406.38,206.99,406.57,211.1z"/>
						</g>
					</g>
					<g>
						<path class="st3" d="M403.78,168.32l-43.29,2.62c0-0.11-0.01-0.23-0.01-0.35c-0.01-0.39-0.03-0.77-0.03-1.15
							c-0.02-0.37-0.03-0.74-0.03-1.11c-0.01-0.25-0.02-0.49-0.03-0.73L403.5,165c0.02,0.24,0.04,0.49,0.06,0.73
							c0.03,0.36,0.06,0.73,0.09,1.1c0.03,0.38,0.06,0.76,0.09,1.15C403.76,168.09,403.77,168.21,403.78,168.32z"/>
						<path class="st3" d="M404.21,173.93l-43.54,2.63c0-0.04,0-0.09,0-0.13c0-0.04,0-0.07,0-0.11c-0.01-0.32-0.02-0.65-0.04-0.96
							c0-0.06-0.01-0.13-0.01-0.19c-0.01-0.39-0.03-0.77-0.04-1.16c-0.01-0.27-0.02-0.53-0.03-0.79l43.4-2.62
							c0.02,0.26,0.04,0.52,0.06,0.79c0.03,0.38,0.06,0.77,0.09,1.15c0,0.06,0.01,0.12,0.01,0.19c0.02,0.32,0.05,0.64,0.07,0.96
							c0,0.04,0.01,0.07,0.01,0.11C404.21,173.85,404.21,173.89,404.21,173.93z"/>
						<path class="st3" d="M404.64,179.65l-43.74,2.64c-0.02-0.47-0.04-0.93-0.06-1.4c-0.01-0.37-0.03-0.75-0.04-1.12
							c-0.01-0.27-0.02-0.54-0.03-0.81l43.62-2.64c0.02,0.27,0.04,0.54,0.06,0.81c0.03,0.37,0.06,0.75,0.08,1.12
							C404.57,178.72,404.6,179.19,404.64,179.65z"/>
					</g>
					<g>
						<path class="st3" d="M398.57,157.55c1.37,1.63,3.44,5.39,4.38,7.12c0.13,0.24,0.23,0.44,0.31,0.59
							c0.11,0.2,0.17,0.32,0.17,0.32c0.03,0.06,0.08,0.11,0.13,0.14c-0.03-0.35-0.06-0.7-0.09-1.05c-0.01-0.17-0.03-0.35-0.04-0.52
							l0-0.03c-0.19-0.35-0.42-0.77-0.67-1.23c-1.06-1.91-2.56-4.47-3.66-5.79c-0.12-0.14-0.34-0.16-0.48-0.04
							C398.47,157.19,398.45,157.41,398.57,157.55z"/>
					</g>
					<g>
						<path class="st3" d="M369.62,146.01c0,0,0.01,0,0.01,0c5.83-0.54,10.19-3.24,12.82-5.41c2.85-2.35,4.3-4.55,4.37-4.64
							c0.1-0.16,0.06-0.37-0.1-0.47c-0.16-0.1-0.37-0.06-0.47,0.1c-0.06,0.09-5.86,8.75-16.68,9.75c-0.19,0.02-0.33,0.18-0.31,0.37
							C369.27,145.89,369.43,146.02,369.62,146.01z"/>
					</g>
					<g>
						<path class="st3" d="M394.82,203.74c0.18-0.01,0.32-0.16,0.32-0.34c0-0.19-0.15-0.34-0.34-0.34
							c-9.62-0.05-15.63-4.56-18.98-8.34c-3.64-4.11-5.02-8.26-5.03-8.3c-0.06-0.18-0.25-0.28-0.43-0.22
							c-0.18,0.06-0.28,0.25-0.22,0.43c0.06,0.17,1.42,4.31,5.15,8.52c3.44,3.89,9.62,8.54,19.51,8.59
							C394.81,203.74,394.81,203.74,394.82,203.74z"/>
					</g>
					<g>
						<path class="st3" d="M386.69,198.03c0.15-0.01,0.28-0.12,0.31-0.27c0.04-0.18-0.08-0.36-0.27-0.4
							c-8.47-1.75-10.49-8.61-10.51-8.68c-0.05-0.18-0.24-0.29-0.42-0.24c-0.18,0.05-0.29,0.24-0.24,0.42
							c0.02,0.08,0.53,1.87,2.15,3.9c1.49,1.87,4.24,4.3,8.88,5.26C386.63,198.03,386.66,198.03,386.69,198.03z"/>
					</g>
				</g>
				<g>
					<path class="st3" d="M364.55,158.49c-1.16,1.78-2.77,5.76-3.49,7.6c-0.1,0.25-0.18,0.46-0.24,0.62
						c-0.08,0.21-0.13,0.33-0.13,0.34c-0.05,0.13-0.17,0.21-0.3,0.22l-0.01,0c-0.01-0.17-0.01-0.35-0.02-0.52
						c-0.1,0.01-0.2,0.01-0.3,0.01c0.04-0.1,0.14-0.36,0.27-0.71c0.17-0.45,0.41-1.06,0.7-1.76c0.82-2.02,2-4.75,2.94-6.18
						c0.1-0.16,0.31-0.2,0.47-0.1C364.61,158.12,364.65,158.33,364.55,158.49z"/>
				</g>
				<g>
					<path class="st1" d="M367.8,111.22c0,0-0.97-4.28-0.01-5.81c0.96-1.53,2.7-1.2,4.42-3c1.73-1.8,7.39-0.52,9.8-1.11
						c1.33-0.32,2.76-0.23,4.06-0.58c1.85-0.49,2.97,1.31,2.63,3.17c-0.22,1.19-0.7,2.98-2.36,3.54
						C386.35,107.44,369.97,105.46,367.8,111.22z"/>
					<path class="st1" d="M367.64,114.7c0.38,6.26,4.49,10.34,10.75,9.96c6.26-0.38,10.34-5.28,9.96-11.54
						c-0.38-6.26-4.37-10.78-10.63-10.4C370.22,103.17,367.26,108.44,367.64,114.7z"/>
					<g>
						<path class="st13" d="M369.21,117.31c0,0-1.88-2.21-3.06-0.22c-1.18,2,0.99,7.55,4.07,5.97L369.21,117.31z"/>
						<g>
							<g>
								<g>
									<path class="st14" d="M369.43,121.35c-0.12,0.01-0.23-0.06-0.27-0.18c-0.6-1.72-2.45-2.32-2.47-2.32
										c-0.14-0.04-0.22-0.19-0.18-0.34c0.04-0.14,0.19-0.22,0.33-0.18c0.09,0.03,2.13,0.68,2.82,2.66
										c0.05,0.14-0.03,0.29-0.17,0.34C369.48,121.35,369.46,121.35,369.43,121.35z"/>
								</g>
							</g>
						</g>
						<g>
							<path class="st14" d="M367.55,120.58c-0.05,0-0.1-0.01-0.15-0.03c-0.13-0.07-0.17-0.24-0.1-0.36
								c0.01-0.02,0.3-0.53,0.96-0.87c0.13-0.07,0.29-0.02,0.36,0.11c0.07,0.13,0.02,0.29-0.11,0.36c-0.5,0.26-0.73,0.65-0.74,0.66
								C367.72,120.53,367.64,120.58,367.55,120.58z"/>
						</g>
					</g>
					<g>
						<path class="st13" d="M387.13,116.22c0,0,1.6-2.42,3.01-0.58c1.41,1.84-0.08,7.61-3.33,6.42L387.13,116.22z"/>
						<g>
							<g>
								<g>
									<path class="st14" d="M387.4,120.27c0.12-0.01,0.22-0.09,0.25-0.21c0.38-1.78,2.15-2.6,2.17-2.6
										c0.13-0.06,0.19-0.22,0.13-0.35c-0.06-0.13-0.22-0.2-0.35-0.13c-0.08,0.04-2.03,0.93-2.48,2.98
										c-0.03,0.14,0.06,0.29,0.21,0.32C387.35,120.27,387.37,120.27,387.4,120.27z"/>
								</g>
							</g>
						</g>
						<g>
							<g>
								<g>
									<path class="st14" d="M389.17,119.28c0.05,0,0.1-0.02,0.14-0.05c0.12-0.09,0.15-0.26,0.06-0.37
										c-0.01-0.02-0.36-0.49-1.05-0.75c-0.14-0.05-0.29,0.02-0.35,0.16c-0.05,0.14,0.02,0.29,0.16,0.35
										c0.53,0.2,0.81,0.56,0.81,0.56C389,119.24,389.08,119.28,389.17,119.28z"/>
								</g>
							</g>
						</g>
					</g>
					<path class="st12" d="M383.09,127.1l0.34,5.63c0,0-1.51,2.97-3.77,3.3c-2.26,0.34-4.43-2.21-4.43-2.21l-0.35-5.83L383.09,127.1
						z"/>
					<path class="st13" d="M383.09,127.1l0.15,2.5c-1.42,1.78-4.1,2.37-8.14,2.02l-0.22-3.62L383.09,127.1z"/>
					<path class="st12" d="M368.28,117.25c0.04,0.32,0.09,0.65,0.14,0.99c0.14,0.83,0.3,1.69,0.51,2.54
						c0.01,0.03,0.01,0.06,0.02,0.09c1.01,4.11,2.95,8.09,6.7,9.17c8.48,2.46,11.01-4.83,11.95-9.05c0.1-0.47,0.19-0.99,0.26-1.54
						c0-0.02,0.01-0.04,0.01-0.07c0.08-0.62,0.14-1.28,0.18-1.96c0.03-0.5,0.06-1.01,0.07-1.53c0.05-1.25,0.05-2.5,0.03-3.6
						c-0.03-2.53-1.68-4.76-4.1-5.52c-3.48-1.1-8.71-1.83-13.44,1.25c-1.75,1.13-2.77,3.1-2.68,5.18
						C367.98,114.34,368.08,115.75,368.28,117.25z"/>
					<path class="st1" d="M374.9,117.41c0.04,0.6-0.24,1.11-0.63,1.13c-0.38,0.02-0.72-0.45-0.76-1.05
						c-0.04-0.6,0.24-1.11,0.63-1.13S374.87,116.81,374.9,117.41z"/>
					<path class="st1" d="M383.39,116.9c0.04,0.6-0.24,1.11-0.63,1.13c-0.38,0.02-0.72-0.45-0.76-1.05
						c-0.04-0.6,0.24-1.11,0.63-1.13C383.01,115.83,383.35,116.29,383.39,116.9z"/>
					<path class="st1" d="M384.36,113.12c0,0-2.24-0.73-3.87,0.1l0.22,0.92c0,0,2.45-0.36,3.73,0.07
						C384.53,113.85,384.53,113.48,384.36,113.12z"/>
					<path class="st1" d="M371.42,113.9c0,0,2.13-0.99,3.86-0.37l-0.11,0.95c0,0-2.48-0.06-3.69,0.52
						C371.33,114.64,371.3,114.28,371.42,113.9z"/>
					<g>
						<path class="st13" d="M378.75,121.8c-0.44,0.08-0.92-0.01-0.99-0.03c-0.14-0.03-0.24-0.17-0.21-0.32
							c0.03-0.14,0.17-0.24,0.32-0.21c0.26,0.05,0.86,0.1,1.08-0.09c0.04-0.04,0.1-0.11,0.08-0.27c-0.07-0.94-0.89-3.98-0.9-4.01
							c-0.04-0.14,0.05-0.29,0.19-0.33c0.14-0.04,0.29,0.05,0.33,0.19c0.03,0.13,0.84,3.12,0.92,4.1c0.03,0.37-0.13,0.59-0.26,0.71
							C379.15,121.69,378.95,121.76,378.75,121.8z"/>
					</g>
					<path class="st5" d="M375.19,123.62c0.29,1.09,1.13,3.07,3.58,2.92c2.45-0.15,3.03-2.04,3.19-3.33L375.19,123.62z"/>
					<path class="st1" d="M388.11,116.21l-1.21,0.07c0.06-1.23-0.47-2.67-0.9-3.63c-0.96-2.17,0.74-3.26-0.75-4.29
						c-1.49-1.03-5.01-0.34-7.49-0.27c-2.49,0.07-6.48,0.35-7.43,0.63c-0.96,0.28-0.33,1.86,0.1,3.09c0.43,1.22-1.03,2.7-1.21,4.01
						c-0.05,0.38,0,0.93,0.09,1.52l-1.01,0.06c-0.21-1.57-0.32-3.03-0.37-4.22c-0.09-2.08,0.93-4.05,2.68-5.18
						c4.73-3.07,9.96-2.35,13.44-1.25c2.42,0.76,4.07,2.99,4.1,5.52C388.17,113.49,388.16,114.86,388.11,116.21z"/>
					<g>
						<g>
							<path class="st5" d="M379.54,117.55c-0.11-1.76,1.24-3.27,2.99-3.38c1.76-0.11,3.27,1.24,3.38,2.99
								c0.11,1.76-1.24,3.27-2.99,3.38C381.17,120.65,379.65,119.31,379.54,117.55z M380.04,117.52c0.09,1.48,1.37,2.62,2.85,2.53
								c1.48-0.09,2.62-1.37,2.53-2.85c-0.09-1.48-1.37-2.62-2.85-2.53C381.08,114.76,379.95,116.04,380.04,117.52z"/>
						</g>
						<g>
							<path class="st5" d="M370.83,118.08c-0.11-1.76,1.24-3.27,2.99-3.38c1.76-0.11,3.27,1.24,3.38,2.99
								c0.11,1.76-1.24,3.27-2.99,3.38C372.45,121.18,370.94,119.84,370.83,118.08z M371.33,118.05c0.09,1.48,1.37,2.62,2.85,2.53
								c1.48-0.09,2.62-1.37,2.53-2.85c-0.09-1.48-1.37-2.62-2.85-2.53C372.37,115.29,371.24,116.57,371.33,118.05z"/>
						</g>
						<g>
							<path class="st5" d="M385.32,116.17c0.06,0,0.13-0.03,0.17-0.08l0,0c0.01-0.02,1.38-1.51,3.3-1.18
								c0.14,0.02,0.26-0.07,0.29-0.2c0.02-0.14-0.07-0.26-0.2-0.29c-2.2-0.38-3.7,1.27-3.76,1.34c-0.09,0.1-0.08,0.26,0.02,0.35
								C385.19,116.16,385.25,116.18,385.32,116.17z"/>
						</g>
						<g>
							<path class="st5" d="M371.25,117.02c0.08,0,0.16-0.05,0.2-0.13c0.07-0.12,0.03-0.27-0.09-0.34c-0.1-0.06-2.44-1.37-4.34-0.94
								c-0.13,0.03-0.22,0.16-0.19,0.3c0.03,0.13,0.16,0.22,0.3,0.19c1.71-0.39,3.96,0.88,3.98,0.89
								C371.16,117.02,371.2,117.03,371.25,117.02z"/>
						</g>
						<g>
							<path class="st5" d="M376.99,116.99c0.01-0.01,0.55-0.84,1.32-0.89c0.77-0.05,1.35,0.72,1.36,0.73l0.4-0.3
								c-0.03-0.04-0.75-0.99-1.79-0.93c-1.03,0.06-1.69,1.08-1.71,1.12L376.99,116.99z"/>
						</g>
					</g>
				</g>
				<g>
					<path class="st12" d="M363.42,207.83l-2.82,3.85c0,0-1.63-1.02-3.85-2.8c-0.01-0.01-0.01-0.01-0.01-0.01
						c-3.37-2.7-8.1-7.13-10.51-12.35c-3.02-6.52-2.13-11.8-2.13-11.8c0.4-3.87,2.99-11.73,5.05-17.56
						c0.75-2.12,1.44-3.96,1.92-5.26l6.3,1.45l2.7,1.66l-1.04,2.74l-6.95,18.45c0.61,5.41,3.35,10.73,5.99,14.74
						C360.8,205.07,363.42,207.83,363.42,207.83z"/>
					<path class="st13" d="M363.42,207.83l-2.82,3.85c0,0-1.63-1.02-3.85-2.8c-0.01-0.01-0.01-0.01-0.01-0.01
						c-0.49-2.91-0.19-7.02,1.33-7.95C360.8,205.07,363.42,207.83,363.42,207.83z"/>
					<path class="st12" d="M361.92,203.39c0.57,0.04,3.59,0.19,3.26-0.85c-0.36-1.14-3.33-2.48-3.33-2.48s-0.02-0.06,0.01-0.13
						l-0.03-0.24l-0.13-2.45c-0.57,0-1.1,0.12-1.39,0.2c-1.3,0.4-1.12,3.38-1.12,3.38s-1.64,0.59-1.58,1.79
						c0.06,1.2,1.38,1.38,1.38,1.38s-1.81,0.9-1.38,1.92c0.42,1.02,1.79,1.32,1.79,1.32s-1.55,1.02-1.01,1.74s1.8,1.08,1.8,1.08
						s-1.08,1.46,0.02,2.26c1.1,0.8,2.71,0.62,3.75,0.26c1.04-0.36,0.86-1.68-1.18-2.64c0,0,1.8,0.18,2.7-1.32
						c0.75-1.25-1.17-1.79-2.8-2.01c1.28,0.09,3.5,0.05,3.88-1.18C367.06,203.82,362.61,203.44,361.92,203.39z"/>
					<path class="st13" d="M360.07,165l-1.04,2.74c-2.09,0.13-5.84,0.19-9.88-0.58c0.75-2.12,1.44-3.96,1.92-5.26l6.3,1.45
						L360.07,165z"/>
					<path class="st2" d="M360.94,142.75c0,0-7.67,7.7-13.27,21.12c4.39,1.42,8.55,2.42,12.4,2.9c0.51-0.89,2.52-6.63,4.04-10.78
						L360.94,142.75z"/>
				</g>
			</g>
		</g>
	</g>
	<g>
		<path class="st15" d="M167.07,169.96v-0.81c1.08-0.55,1.84-1.62,1.84-2.83c0-0.39-0.02-0.71-0.08-1.13h-1.66v-1.02h1.5
			c-0.08-0.48-0.18-1.12-0.18-1.75c0-1.91,1.31-3.15,3.1-3.15c0.84,0,1.42,0.19,1.76,0.4l-0.32,1.07c-0.29-0.16-0.76-0.32-1.44-0.32
			c-1.26,0-1.78,0.87-1.78,2.02c0,0.69,0.1,1.21,0.19,1.73h2.33v1.02h-2.2c0.05,0.61,0.08,1.23-0.06,1.81
			c-0.18,0.69-0.57,1.28-1.12,1.75v0.03h4.82v1.18H167.07z"/>
	</g>
</g>
</svg>
