<?xml version="1.0" encoding="utf-8"?>
<!-- Generator: Adobe Illustrator 24.3.0, SVG Export Plug-In . SVG Version: 6.00 Build 0)  -->
<svg version="1.1" id="Layer_1" xmlns="http://www.w3.org/2000/svg" xmlns:xlink="http://www.w3.org/1999/xlink" x="0px" y="0px"
	 viewBox="0 0 550 370" style="enable-background:new 0 0 550 370;" xml:space="preserve">
<style type="text/css">
	.st0{fill:#079FF3;}
	.st1{fill:#ECECEC;}
	.st2{fill:#E1E1E1;}
	.st3{fill:#F0F0F0;}
	.st4{fill:#F5F5F5;}
	.st5{fill:#033557;}
	.st6{fill:#439AD4;}
	.st7{opacity:0.3;fill:#007CFF;}
	.st8{fill:#FFFFFF;}
	.st9{fill:#002A68;}
	.st10{opacity:0.3;fill:#FFFFFF;}
	.st11{fill:#007CFF;}
	.st12{opacity:0.2;}
	.st13{fill:#E7E7E7;}
	.st14{opacity:0.9;fill:#FAFAFA;}
	.st15{fill:#CD5B51;}
	.st16{opacity:0.1;fill:#FFFFFF;}
	.st17{fill:#BA221F;}
	.st18{opacity:0.5;}
	.st19{opacity:0.2;fill:#FFFFFF;}
	.st20{opacity:0.1;}
	.st21{opacity:0.5;fill:#FFFFFF;}
	.st22{opacity:0.3;}
	.st23{opacity:0.4;fill:#FFFFFF;}
	.st24{opacity:0.8;fill:#FFFFFF;}
	.st25{opacity:0.6;fill:#FFFFFF;}
	.st26{opacity:0.8;}
	.st27{opacity:0.7;fill:#FFFFFF;}
	.st28{opacity:0.7;}
	.st29{opacity:0.5;fill:#439AD4;}
	.st30{opacity:0.3;fill:#079FF3;}
	.st31{fill:#B1F2F9;}
	.st32{opacity:0.72;fill:#079FF3;}
	.st33{opacity:0.5;fill:#FFBB63;}
	.st34{opacity:0.4;fill:#009A9A;}
	.st35{opacity:0.95;fill:#FFFFFF;}
	.st36{opacity:0.5;fill:#A3E3C8;}
	.st37{fill:none;stroke:#009A9A;stroke-width:1.1231;stroke-linecap:round;stroke-linejoin:round;stroke-miterlimit:10;}
	.st38{fill:#DCF9ED;}
	.st39{clip-path:url(#SVGID_2_);}
	.st40{fill:#C0E8FC;}
	.st41{opacity:0.3;clip-path:url(#SVGID_2_);fill:#079FF3;}
	.st42{clip-path:url(#SVGID_2_);fill:#FFFFFF;}
	.st43{fill:#00669C;}
	.st44{fill:none;stroke:#00669C;stroke-width:1.5379;stroke-linecap:round;stroke-linejoin:round;stroke-miterlimit:10;}
	.st45{fill:#FFFFFF;stroke:#6EBEC6;stroke-width:0.5393;stroke-linecap:round;stroke-linejoin:round;stroke-miterlimit:10;}
	.st46{opacity:0.6;clip-path:url(#SVGID_2_);}
	.st47{opacity:0.6;fill:#B3B3B3;}
	.st48{fill:#FFBB63;}
	.st49{fill:none;stroke:#FFFFFF;stroke-width:1.1534;}
	.st50{fill:none;stroke:#079FF3;stroke-width:3;stroke-miterlimit:10;}
	.st51{fill:#FAFAFA;}
	.st52{fill:#375A64;}
	.st53{opacity:0.4;}
	.st54{fill:#FFBF9D;}
	.st55{fill:#FF9A6C;}
	.st56{fill:#1A2E35;}
	.st57{fill:none;}
	.st58{fill:#966360;}
	.st59{fill:#CE8D84;}
	.st60{opacity:0.43;fill:#01AFB8;}
	.st61{fill:#01AFB8;}
	.st62{fill:#DCFFFF;}
	.st63{fill:#9DEDE9;}
	.st64{opacity:0.25;}
	.st65{fill:none;stroke:#FFFFFF;stroke-width:0.4951;stroke-linecap:round;stroke-linejoin:round;stroke-miterlimit:10;}
	.st66{fill:#78D1CF;}
	.st67{fill:#079E9E;}
	.st68{fill:#2C4D60;}
	.st69{fill:#04A5A5;}
	.st70{fill:#42C3FC;}
	.st71{fill:#12C6C6;}
	.st72{fill:#008989;}
	.st73{fill:#0D9995;}
	.st74{fill:#17AAA3;}
	.st75{fill:#497687;}
	.st76{fill:#3C6275;}
	.st77{fill:#FFFFFF;stroke:#231F20;stroke-width:0.7089;stroke-linecap:round;stroke-miterlimit:10;}
	.st78{clip-path:url(#SVGID_4_);}
	.st79{fill:#1EE2E2;}
	.st80{fill:#376277;}
	.st81{fill:#264656;}
	.st82{fill:#FFCCAF;}
	.st83{fill:#00C2F0;}
	.st84{fill:#FFA180;}
	.st85{opacity:0.08;fill:#FFFFFF;}
	.st86{fill:#2D1857;}
	.st87{fill:#4F4896;}
	.st88{fill:#00B1DA;}
	.st89{fill:#0682CE;}
	.st90{fill:#38EF33;}
	.st91{fill:#22E046;}
</style>
<g>
	<rect x="409.78" y="313.62" class="st1" width="26.77" height="0.2"/>
	<rect x="333.61" y="315.81" class="st1" width="7.03" height="0.2"/>
	<rect x="393.46" y="306.12" class="st1" width="15.51" height="0.2"/>
	<rect x="115.37" y="307.47" class="st1" width="34.91" height="0.2"/>
	<rect x="157.47" y="307.47" class="st1" width="5.12" height="0.2"/>
	<rect x="179.22" y="310.89" class="st1" width="75.7" height="0.2"/>
	<g>
		<path class="st1" d="M265.63,264.57H109.58c-2.54,0-4.61-2.07-4.61-4.61V40.61c0-2.54,2.07-4.61,4.61-4.61h156.04
			c2.54,0,4.61,2.07,4.61,4.61v219.35C270.24,262.5,268.17,264.57,265.63,264.57z M109.58,36.2c-2.43,0-4.41,1.98-4.41,4.41v219.35
			c0,2.43,1.98,4.41,4.41,4.41h156.04c2.43,0,4.41-1.98,4.41-4.41V40.61c0-2.43-1.98-4.41-4.41-4.41H109.58z"/>
		<path class="st1" d="M440.42,264.57H284.37c-2.54,0-4.61-2.07-4.61-4.61V40.61c0-2.54,2.07-4.61,4.61-4.61h156.04
			c2.54,0,4.61,2.07,4.61,4.61v219.35C445.03,262.5,442.96,264.57,440.42,264.57z M284.37,36.2c-2.43,0-4.41,1.98-4.41,4.41v219.35
			c0,2.43,1.98,4.41,4.41,4.41h156.04c2.43,0,4.41-1.98,4.41-4.41V40.61c0-2.43-1.98-4.41-4.41-4.41H284.37z"/>
	</g>
	<rect x="72.97" y="300.61" class="st1" width="404.05" height="0.2"/>
</g>
<g>
	
		<rect x="316.05" y="74.12" transform="matrix(0.0915 0.9958 -0.9958 0.0915 439.4246 -239.7126)" class="st13" width="70.07" height="93.7"/>
	
		<rect x="309.67" y="91.36" transform="matrix(0.9958 -0.0915 0.0915 0.9958 -9.5961 32.6325)" class="st14" width="82.84" height="59.21"/>
	<path class="st2" d="M351.69,98.61l0.49,5.34l-32.05,2.94l1.62,17.62l1.7,18.53l15.63-1.44l25.1-2.31l1.16-0.11l17.37-1.6
		l-0.27-2.99l-4.59,0.42c0.07-2.12,1.58-3.98,3.71-4.46l0.5-0.11l-1.05-11.39l-3.1,0.28L375.8,96.4L351.69,98.61z M324.5,141.78
		l-1.49-16.21l3.59-0.33c0.83,2.62,3.39,4.36,6.15,4.11l0.58-0.05l-0.43-4.63l3.43-0.31l1.49,16.21L324.5,141.78z M338.98,140.45
		l-1.6-17.37l-5.74,0.53l0.42,4.6c-2.12-0.07-3.99-1.58-4.46-3.72l-0.11-0.5l-4.58,0.42l-1.51-16.46l30.89-2.84l1.62,17.62
		l2.64-0.24l4.15-0.38l1.9-0.17l1.49,16.21L338.98,140.45z M356.43,121.33l-0.32-3.5c1.93,0.06,3.63,1.31,4.28,3.14L356.43,121.33z
		 M379.96,120.34l0.85,9.23c-2.62,0.83-4.36,3.39-4.1,6.15l0.05,0.58l4.63-0.43l0.06,0.68l-16.21,1.49l-1.49-16.21l14.27-1.31
		L379.96,120.34z M374.75,97.66l2,21.8l-13.12,1.21l-1.16,0.11l-0.89,0.08c-0.81-2.66-3.37-4.43-6.17-4.17l-0.58,0.05l0.43,4.7
		l-0.32,0.03l-1.62-17.62l-0.38-4.18L374.75,97.66z"/>
</g>
<g>
	
		<rect x="145.32" y="64.81" transform="matrix(-0.1951 0.9808 -0.9808 -0.1951 326.8274 -43.0102)" class="st13" width="71.48" height="95.58"/>
	
		<rect x="150.86" y="70.35" transform="matrix(0.1951 -0.9808 0.9808 0.1951 35.2981 268.2206)" class="st14" width="60.4" height="84.51"/>
	<path class="st2" d="M188.13,90.91l-1.07,5.37l-32.2-6.4l-3.52,17.7l-3.7,18.62l15.71,3.12l25.22,5.02l1.16,0.23l17.45,3.47
		l0.6-3.01l-4.61-0.92c0.68-2.06,2.7-3.44,4.92-3.29l0.52,0.04l2.28-11.44l-3.11-0.62l4.59-23.07L188.13,90.91z M149.03,125.26
		l3.24-16.29l3.6,0.72c0.05,2.8,2.05,5.25,4.83,5.8l0.58,0.12l0.93-4.65l3.44,0.68l-3.24,16.29L149.03,125.26z M163.57,128.15
		l3.47-17.45l-5.77-1.15l-0.92,4.62c-2.06-0.68-3.44-2.7-3.29-4.93l0.04-0.52l-4.6-0.92l3.29-16.54l31.03,6.17l-3.52,17.7l2.65,0.53
		l4.17,0.83l1.91,0.38l-3.24,16.29L163.57,128.15z M186.19,114.51l0.7-3.52c1.87,0.62,3.17,2.34,3.28,4.31L186.19,114.51z
		 M209.49,120.35l-1.85,9.28c-2.8,0.05-5.24,2.05-5.79,4.83l-0.12,0.58l4.65,0.92l-0.13,0.68l-16.29-3.24l3.24-16.29l14.34,2.85
		L209.49,120.35z M210.96,96.66l-4.36,21.91l-13.18-2.62l-1.16-0.23l-0.89-0.18c-0.02-2.84-2.02-5.31-4.83-5.87l-0.58-0.12
		l-0.94,4.72l-0.32-0.06l3.52-17.7l0.84-4.2L210.96,96.66z"/>
</g>
<g>
	<g>
		<path class="st3" d="M314.69,78.09h-7.9c-4.59,0-8.32-3.73-8.32-8.32v-7.9c0-4.59,3.73-8.32,8.32-8.32h7.9
			c4.59,0,8.32,3.73,8.32,8.32v7.9C323.01,74.36,319.28,78.09,314.69,78.09z M306.79,55.97c-3.25,0-5.9,2.64-5.9,5.9v7.9
			c0,3.25,2.64,5.9,5.9,5.9h7.9c3.25,0,5.9-2.64,5.9-5.9v-7.9c0-3.25-2.64-5.9-5.9-5.9H306.79z"/>
	</g>
	<g>
		<polygon class="st2" points="307.46,70.95 295.93,59.43 299.36,56 307.46,64.09 322.12,49.43 325.55,52.85 		"/>
	</g>
</g>
<g>
	<g>
		<path class="st3" d="M145.02,183.9h-6.09c-3.54,0-6.41-2.88-6.41-6.41v-6.09c0-3.54,2.88-6.41,6.41-6.41h6.09
			c3.54,0,6.41,2.88,6.41,6.41v6.09C151.43,181.02,148.56,183.9,145.02,183.9z M138.93,166.86c-2.5,0-4.54,2.04-4.54,4.54v6.09
			c0,2.5,2.04,4.54,4.54,4.54h6.09c2.5,0,4.54-2.04,4.54-4.54v-6.09c0-2.5-2.04-4.54-4.54-4.54H138.93z"/>
	</g>
	<g>
		<polygon class="st2" points="139.45,178.4 130.57,169.52 133.21,166.88 139.45,173.11 150.75,161.81 153.39,164.45 		"/>
	</g>
</g>
<g>
	<g>
		<path class="st3" d="M421.27,233.49h-6.09c-3.54,0-6.41-2.88-6.41-6.41v-6.09c0-3.54,2.88-6.41,6.41-6.41h6.09
			c3.54,0,6.41,2.88,6.41,6.41v6.09C427.68,230.61,424.8,233.49,421.27,233.49z M415.18,216.44c-2.51,0-4.54,2.04-4.54,4.54v6.09
			c0,2.5,2.04,4.54,4.54,4.54h6.09c2.5,0,4.54-2.04,4.54-4.54v-6.09c0-2.51-2.04-4.54-4.54-4.54H415.18z"/>
	</g>
	<g>
		<polygon class="st2" points="415.69,227.98 406.81,219.11 409.45,216.46 415.69,222.7 426.99,211.4 429.63,214.04 		"/>
	</g>
</g>
<ellipse id="_x3C_Path_x3E__1_" class="st4" cx="275" cy="324.85" rx="156.68" ry="9.15"/>
<g>
	<path class="st15" d="M353.74,153.23c1.16-3.2,2.61-6.09,4.17-8.9c0.77-1.4,1.6-2.77,2.45-4.12c0.85-1.36,1.7-2.66,2.67-4.02
		c1.24-1.72,3.63-2.18,5.42-1c1.83,1.21,2.34,3.67,1.13,5.5l-0.03,0.05c-0.78,1.18-1.61,2.46-2.4,3.71
		c-0.79,1.26-1.55,2.54-2.3,3.81c-1.48,2.55-2.88,5.15-3.94,7.7c-0.33,0.78-0.61,1.56-0.83,2.31h-7.66
		C352.7,156.4,353.2,154.79,353.74,153.23z"/>
	<g>
		<g>
			<path class="st6" d="M369.41,127.7c-7.72,1.71-14.26,18.36-14.26,18.36l8.92,5.06c0,0,3.74-3.78,6.44-9.52
				C372.45,137.47,376.3,126.18,369.41,127.7z"/>
		</g>
	</g>
	<path class="st12" d="M372.25,137.06c-0.56,1.77-1.22,3.42-1.75,4.54c-2.69,5.74-6.44,9.52-6.44,9.52l-1.96-1.11
		c3.06-5.56,3.03-12.66,3.03-12.66l6.66-1.15L372.25,137.06z"/>
	<g>
		<path class="st9" d="M359.8,206.25l-0.07-0.01c-1.22-0.21-2.04-1.38-1.83-2.6l2.58-14.78c0.18-1.01,1.14-1.68,2.14-1.51l0.46,0.08
			c0.74,0.13,1.23,0.83,1.1,1.56l-2.82,16.16C361.24,205.89,360.54,206.38,359.8,206.25z"/>
		<path class="st16" d="M359.8,206.25l-0.07-0.01c-1.22-0.21-2.04-1.38-1.83-2.6l2.58-14.78c0.18-1.01,1.14-1.68,2.14-1.51
			l0.46,0.08c0.74,0.13,1.23,0.83,1.1,1.56l-2.82,16.16C361.24,205.89,360.54,206.38,359.8,206.25z"/>
	</g>
	<g>
		<g>
			<polygon class="st15" points="363.32,319.14 357.3,319.07 356.8,305.06 364.76,305.18 			"/>
			<polygon class="st12" points="356.8,305.06 357.09,313.25 363.92,313.35 364.77,305.19 			"/>
		</g>
		<path class="st5" d="M357.17,317.02l6.57,0.1c0.25,0,0.44,0.18,0.46,0.42l0.56,5.38c0.06,0.56-0.42,1.08-0.99,1.06
			c-2.37-0.08-5.78-0.27-8.76-0.32c-3.48-0.05-3.15,0.09-7.23,0.02c-2.47-0.04-2.86-2.55-1.8-2.76c4.83-0.96,5.32-1.01,9.68-3.46
			C356.14,317.2,356.65,317.01,357.17,317.02z"/>
		<g>
			<path class="st11" d="M356.08,317.56c0.05-0.02,0.09-0.06,0.1-0.11c0.01-0.06-0.02-0.12-0.07-0.15
				c-0.27-0.15-2.67-1.41-3.41-1.02c-0.14,0.08-0.23,0.21-0.24,0.38v0c-0.03,0.28,0.06,0.52,0.25,0.7c0.65,0.6,2.38,0.39,3.36,0.21
				C356.06,317.56,356.07,317.56,356.08,317.56z M352.88,316.51c0.46-0.15,1.76,0.37,2.71,0.84c-1.34,0.2-2.33,0.13-2.69-0.21
				c-0.13-0.12-0.18-0.27-0.16-0.46c0.01-0.07,0.03-0.12,0.09-0.15C352.84,316.52,352.86,316.52,352.88,316.51z"/>
			<path class="st6" d="M356.08,317.56c0.01,0,0.03-0.01,0.04-0.02c0.04-0.03,0.07-0.08,0.06-0.13c-0.01-0.07-0.14-1.7-0.89-2.34
				c-0.23-0.2-0.5-0.28-0.79-0.26l0,0c-0.39,0.03-0.51,0.23-0.54,0.39c-0.12,0.68,1.29,2.01,2.02,2.34
				C356,317.57,356.04,317.57,356.08,317.56z M354.37,315.13c0.04-0.01,0.09-0.02,0.15-0.03l0,0c0.22-0.02,0.41,0.04,0.58,0.19
				c0.5,0.42,0.69,1.4,0.76,1.87c-0.73-0.46-1.7-1.5-1.62-1.91C354.24,315.23,354.25,315.17,354.37,315.13z M354.51,314.96
				L354.51,314.96L354.51,314.96z"/>
		</g>
		<path class="st5" d="M370.18,252.72c8.97-30.78,17.32-52.15,15.35-67.42l-21.27,0.25c0,0-11.26,49.89-10.42,67.94
			c0.87,18.77,1.98,54.44,1.98,54.44l9.7,0.14C365.52,308.07,372.71,273.68,370.18,252.72z"/>
		<path class="st12" d="M373.79,240.31c4.75-15.69,9.01-26.6,11.47-35.74C371.17,209.54,371.45,226.72,373.79,240.31z"/>
		<polygon class="st9" points="354.46,305.78 355.05,309.94 365.71,310.13 366.35,306.2 		"/>
		<polygon class="st5" points="354.46,305.78 355.05,309.94 365.71,310.13 366.35,306.2 		"/>
	</g>
	<g>
		<polygon class="st15" points="404.45,319.14 398.41,319.07 395.27,305.06 403.03,305.18 		"/>
		<polygon class="st12" points="395.27,305.06 397.09,313.15 403.85,313.25 403.04,305.19 		"/>
	</g>
	<path class="st5" d="M397.95,317.83l6.57-0.13c0.25,0,0.45,0.16,0.48,0.4l0.77,5.35c0.08,0.55-0.38,1.09-0.95,1.09
		c-2.37,0.01-3.12-0.16-6.1-0.1c-3.48,0.07-1.87,0.16-5.96,0.24c-2.47,0.05-2.96-2.44-1.91-2.7c3.32-0.82,4.15-2.18,5.61-3.66
		C396.85,317.95,397.43,317.85,397.95,317.83z"/>
	<g>
		<path class="st6" d="M399.16,318.25c0.05,0,0.1-0.03,0.13-0.08c0.03-0.05,0.02-0.12-0.02-0.16c-0.21-0.22-2.11-2.17-2.93-2.02
			c-0.16,0.03-0.28,0.13-0.35,0.28h0c-0.11,0.26-0.1,0.51,0.03,0.74c0.44,0.77,2.15,1.1,3.13,1.24
			C399.15,318.25,399.15,318.25,399.16,318.25z M396.44,316.26c0.48,0,1.56,0.9,2.32,1.64c-1.33-0.22-2.25-0.6-2.5-1.03
			c-0.09-0.15-0.09-0.31-0.01-0.49c0.03-0.07,0.07-0.1,0.13-0.11C396.4,316.26,396.42,316.26,396.44,316.26z"/>
		<path class="st11" d="M399.16,318.25c0.01,0,0.03,0,0.04-0.01c0.05-0.01,0.09-0.05,0.1-0.1c0.02-0.07,0.39-1.66-0.13-2.5
			c-0.16-0.26-0.38-0.42-0.67-0.49l0,0c-0.38-0.09-0.56,0.06-0.63,0.2c-0.33,0.61,0.61,2.31,1.2,2.85
			C399.09,318.23,399.12,318.25,399.16,318.25z M398.29,315.41c0.04,0,0.09,0.01,0.15,0.02h0c0.21,0.05,0.37,0.17,0.49,0.36
			c0.34,0.55,0.23,1.54,0.15,2.02c-0.56-0.66-1.15-1.95-0.96-2.32C398.13,315.47,398.16,315.41,398.29,315.41z M398.47,315.29
			L398.47,315.29L398.47,315.29z"/>
	</g>
	<path class="st5" d="M397.57,253.69c3.3-30.78,6.04-53.46,1.26-68.73l-22.16,0.6c0,0,0.55,50.86,4.71,68.91
		c4.32,18.77,13.28,53.47,13.28,53.47l9.72,0.14C404.38,308.07,403.96,274.65,397.57,253.69z"/>
	<polygon class="st9" points="393.24,305.78 393.87,309.94 404.77,310.13 405.39,306.2 	"/>
	<polygon class="st5" points="393.24,305.78 393.87,309.94 404.77,310.13 405.39,306.2 	"/>
	<path class="st6" d="M372.51,126.77c6.52-0.79,13.32-0.44,20.32,0.72c3.73,0.62,6.65,3.53,7.19,7.25c1.25,8.62,3.2,25.6-0.33,52.09
		c-3.19,1.01-12.59,0.94-20.07,0.4c-0.81-0.06-2.8-1.95-2.8-1.95s-1.79,1.54-2.82,1.42c-4.95-0.59-8.89-1.44-9.8-2.41
		c-2.03-4.81-3.29-17.02,2.08-27.94c0.06-6.54-1.24-13.9-1.34-20.92C364.87,131.05,368.12,127.31,372.51,126.77z"/>
	<path class="st15" d="M383.95,115.62c0.6,4.49,1.51,9.69,4.68,12.23c-1.18,3.1-4.15,5.88-8.51,6.1c-4.8,0.25-4.06-3.58-3.27-5.61
		c2.04-2.29,1.06-4.83,0.54-6.64L383.95,115.62z"/>
	<path class="st12" d="M382.62,117.81c-0.03-0.29-0.08-0.57-0.12-0.85l-5.1,4.74c0.31,1.08,0.78,2.43,0.68,3.83
		C380.61,123.84,382.93,120.53,382.62,117.81z"/>
	<path class="st15" d="M385.63,109.1c-0.76,5.93-0.9,9.44-4.11,12.27c-4.83,4.26-12.01,0.99-13.04-5.06
		c-0.93-5.45,0.46-14.23,6.45-16.17C380.83,98.24,386.38,103.17,385.63,109.1z"/>
	<path class="st9" d="M376.13,112.46c-0.03,0.48-0.31,0.86-0.63,0.84c-0.32-0.02-0.55-0.44-0.52-0.92c0.03-0.49,0.31-0.86,0.63-0.84
		C375.93,111.56,376.16,111.98,376.13,112.46z"/>
	<path class="st9" d="M370.07,112.2c-0.03,0.48-0.31,0.86-0.63,0.84c-0.32-0.02-0.55-0.44-0.52-0.92c0.03-0.49,0.31-0.86,0.63-0.84
		C369.87,111.3,370.1,111.71,370.07,112.2z"/>
	<path class="st9" d="M377.8,112.61h-4.49c-0.37,0-0.66,0.28-0.7,0.63c-0.61-0.25-1.09-0.15-1.38-0.01
		c-0.05-0.35-0.34-0.63-0.7-0.63h-3.42c-0.4,0-0.72,0.32-0.72,0.72v2.08c0,0.4,0.32,0.72,0.72,0.72h3.42c0.4,0,0.72-0.32,0.72-0.72
		v-1.7c0.15-0.11,0.62-0.38,1.35-0.02v1.72c0,0.4,0.32,0.72,0.72,0.72h4.49c0.4,0,0.72-0.32,0.72-0.72v-2.08
		C378.52,112.93,378.2,112.61,377.8,112.61z M370.83,115.41c0,0.16-0.14,0.3-0.3,0.3h-3.42c-0.17,0-0.3-0.13-0.3-0.3v-2.08
		c0-0.17,0.13-0.3,0.3-0.3h3.42c0.16,0,0.3,0.14,0.3,0.3V115.41z M378.1,115.41c0,0.17-0.13,0.3-0.3,0.3h-4.49
		c-0.17,0-0.3-0.13-0.3-0.3v-2.08c0-0.17,0.13-0.3,0.3-0.3h4.49c0.16,0,0.3,0.14,0.3,0.3V115.41z"/>
	<path class="st17" d="M371.92,113.5c0,0-1.22,2.22-2.39,3.22c0.63,0.77,1.9,0.63,1.9,0.63L371.92,113.5z"/>
	<path class="st9" d="M377.3,109.8c0.05-0.01,0.09-0.03,0.13-0.07c0.11-0.11,0.12-0.29,0.01-0.4c-1.1-1.14-2.4-0.92-2.45-0.91
		c-0.16,0.03-0.26,0.18-0.23,0.33c0.03,0.15,0.18,0.26,0.33,0.23l0,0c0.04-0.01,1.06-0.17,1.94,0.74
		C377.1,109.8,377.21,109.83,377.3,109.8z"/>
	<path class="st9" d="M368.23,109.73c0.09,0.02,0.19-0.01,0.26-0.08c0.87-0.9,1.88-0.73,1.93-0.72c0.15,0.03,0.3-0.07,0.33-0.23
		c0.03-0.15-0.07-0.3-0.23-0.33c-0.06-0.01-1.35-0.25-2.44,0.88c-0.11,0.11-0.11,0.29,0.01,0.4
		C368.12,109.69,368.17,109.72,368.23,109.73z"/>
	<g>
		<path class="st11" d="M386.95,125.63c0.14,1.38-1.5,6.25-7.26,8.34c2.22,0.02,3.19,2.84,3.19,2.84s7.64-4.07,6.73-8.98
			C389.01,125.54,386.95,125.63,386.95,125.63z"/>
		<path class="st11" d="M377.9,126.01c0.14,1.35-1.42,4.17,1.78,7.96c-2.22,0.02-3.55,2.23-3.55,2.23s-2.96-4.21-0.63-9.09
			C376.69,126.08,377.9,126.01,377.9,126.01z"/>
	</g>
	<g class="st18">
		<path class="st8" d="M386.95,125.63c0.14,1.38-1.5,6.25-7.26,8.34c2.22,0.02,3.19,2.84,3.19,2.84s7.64-4.07,6.73-8.98
			C389.01,125.54,386.95,125.63,386.95,125.63z"/>
		<path class="st8" d="M377.9,126.01c0.14,1.35-1.42,4.17,1.78,7.96c-2.22,0.02-3.55,2.23-3.55,2.23s-2.96-4.21-0.63-9.09
			C376.69,126.08,377.9,126.01,377.9,126.01z"/>
	</g>
	<polygon class="st9" points="362.8,189.06 400.81,190.08 400.81,185.3 363.37,184.29 	"/>
	<polygon class="st10" points="362.8,189.06 400.81,190.08 400.81,185.3 363.37,184.29 	"/>
	<path class="st9" d="M389.32,188.29l1.24,19.55l10.08-0.64c1.32-0.08,2.33-1.22,2.24-2.55l-0.96-15.19
		c-0.07-1.09-1.01-1.92-2.1-1.85L389.32,188.29z"/>
	<path class="st10" d="M389.32,188.29l1.24,19.55l10.08-0.64c1.32-0.08,2.33-1.22,2.24-2.55l-0.96-15.19
		c-0.07-1.09-1.01-1.92-2.1-1.85L389.32,188.29z"/>
	<path class="st12" d="M390.55,207.85l1.2-0.08c1.24-0.08,2.18-1.15,2.1-2.39l-0.98-15.46c-0.06-1.02-0.94-1.8-1.97-1.73l-1.59,0.1
		L390.55,207.85z"/>
	<path class="st19" d="M392.92,190.66l-0.04-0.61c-0.07-1.09-1.01-1.92-2.1-1.85l9.03-0.57c1.09-0.07,2.03,0.76,2.1,1.85l0.04,0.61
		l0.09,1.49c0.06,0.95-0.66,1.77-1.61,1.83l-5.6,0.35c-0.95,0.06-1.77-0.66-1.83-1.61L392.92,190.66z"/>
	<path class="st9" d="M396.81,191.81c0.02,0.37,0.35,0.66,0.72,0.64c0.37-0.02,0.66-0.35,0.64-0.72c-0.02-0.37-0.35-0.66-0.72-0.64
		C397.07,191.11,396.79,191.43,396.81,191.81z"/>
	<path class="st9" d="M375.92,186.95c0,0.38,0.3,0.68,0.68,0.68c0.38,0,0.68-0.3,0.68-0.68c0-0.38-0.3-0.68-0.68-0.68
		C376.22,186.27,375.92,186.57,375.92,186.95z"/>
	
		<rect x="396.35" y="193.57" transform="matrix(0.998 -0.063 0.063 0.998 -11.8468 25.4951)" class="st20" width="3.41" height="13.79"/>
	<path class="st9" d="M382.65,114.53c0,0-1.81,0.17-1.32-2.37c0.49-2.55-2.02-5.07-1.3-7.51c0.71-2.44-7.02-0.54-7.58-2.44
		c-0.56-1.9-0.68,3.44-3.08,2.71c-2.09-0.63,0.64-3.13,0.64-3.13s-3.19,1.82-3.19,0c0-1.79,3.76-1.73,5.1-2.05
		c3.8-0.91,12.08-5.38,14.42,6c0,0,3.55,2.48-1.61,9.7L382.65,114.53z"/>
	<path class="st12" d="M400.32,136.87c0.66,4.97,1.38,12.05,1.38,21.41c-5.11-4.43-9.59-16.46-9.59-16.46v-4.79l3.82-3.06
		L400.32,136.87z"/>
	<g>
		<polygon class="st11" points="365.19,150.75 355,144.91 354.2,147.66 363.37,152.86 		"/>
		<polygon class="st21" points="365.19,150.75 355,144.91 354.2,147.66 363.37,152.86 		"/>
	</g>
	<path class="st6" d="M371.05,99.2c0,0,7.97-7.46,15.23-1.29c6.05,5.15,0.89,13.16,0.89,13.16l-2.9-3.4l-5.64-4.88l-5.18-2.99
		L371.05,99.2z"/>
	<g>
		<path class="st11" d="M366.79,98.68c3.51-2.69,14.1,2.33,20.48,12.46l-0.03,0.08c-1.8-1.97-11.72-12.44-17.71-11.15
			C369.53,100.08,364.63,100.34,366.79,98.68z"/>
	</g>
	<g class="st22">
		<path class="st8" d="M366.79,98.68c3.51-2.69,14.1,2.33,20.48,12.46l-0.03,0.08c-1.8-1.97-11.72-12.44-17.71-11.15
			C369.53,100.08,364.63,100.34,366.79,98.68z"/>
	</g>
	<g>
		<path class="st11" d="M373.65,97.02c2.69-1.53,7.93-3.47,12.8,0.67c5.21,4.44,2.32,10.97,1.31,12.86l-0.49-0.22
			c0.03-0.08,2.85-7.61-1.14-10.99c-3.25-2.75-7.18-1.28-9.23-0.15l-0.14,0.08l-0.14-0.09c-0.67-0.42-1.73-1.06-2.96-1.68
			l-0.45-0.23L373.65,97.02z"/>
		<path class="st10" d="M373.65,97.02c2.69-1.53,7.93-3.47,12.8,0.67c5.21,4.44,2.32,10.97,1.31,12.86l-0.49-0.22
			c0.03-0.08,2.85-7.61-1.14-10.99c-3.25-2.75-7.18-1.28-9.23-0.15l-0.14,0.08l-0.14-0.09c-0.67-0.42-1.73-1.06-2.96-1.68
			l-0.45-0.23L373.65,97.02z"/>
	</g>
	<path class="st9" d="M372.89,119.81c-0.27,0-0.55-0.02-0.85-0.08c-0.08-0.01-0.14-0.09-0.12-0.17c0.01-0.08,0.09-0.14,0.17-0.12
		c2.2,0.39,3.5-0.96,3.51-0.98c0.06-0.06,0.15-0.06,0.21-0.01c0.06,0.06,0.06,0.15,0.01,0.21
		C375.77,118.72,374.72,119.81,372.89,119.81z"/>
	<g>
		<path class="st21" d="M393.47,146.69h-10.82l0.35,1.25c0.21,0.74,0.88,1.25,1.65,1.25h6.42c0.63,0,1.21-0.34,1.51-0.9
			L393.47,146.69z"/>
		<path class="st11" d="M387.38,147.88c0,0.37,0.3,0.67,0.67,0.67s0.67-0.3,0.67-0.67c0-0.37-0.3-0.67-0.67-0.67
			S387.38,147.51,387.38,147.88z"/>
	</g>
	<g>
		<path class="st21" d="M374.98,146.62h-8.71l0.29,1.25c0.17,0.74,0.71,1.25,1.33,1.25h5.17c0.51,0,0.97-0.34,1.22-0.9
			L374.98,146.62z"/>
		<path class="st11" d="M369.23,147.88c0,0.37,0.3,0.67,0.67,0.67s0.67-0.3,0.67-0.67c0-0.37-0.3-0.67-0.67-0.67
			S369.23,147.51,369.23,147.88z"/>
	</g>
	<g>
		<polygon class="st9" points="378.23,113.13 383.24,112.79 383.2,112.25 377.76,112.63 		"/>
	</g>
	<path class="st15" d="M387.26,115.29c-0.85,1.36-2.25,2.2-3.55,2.48c-1.95,0.41-2.81-1.37-2.18-3.14c0.57-1.6,2.28-3.73,4.19-3.35
		C387.6,111.66,388.23,113.73,387.26,115.29z"/>
	<g>
		<path class="st9" d="M376.47,154.75l-0.4,1.26c-0.05,0.17,0.12,0.32,0.28,0.24l1.18-0.6l7.06-8.31c0.15-0.18,0.13-0.44-0.05-0.59
			l-0.41-0.35c-0.18-0.15-0.44-0.13-0.59,0.05L376.47,154.75z"/>
		<path class="st21" d="M376.47,154.75l-0.4,1.26c-0.05,0.17,0.12,0.32,0.28,0.24l1.18-0.6l7.06-8.31c0.15-0.18,0.13-0.44-0.05-0.59
			l-0.41-0.35c-0.18-0.15-0.44-0.13-0.59,0.05L376.47,154.75z"/>
		<path class="st21" d="M383.96,146.31l-7.36,8.66l-0.5,1.22c-0.04-0.05-0.06-0.11-0.04-0.18l0.4-1.26l7.06-8.31
			C383.64,146.31,383.81,146.27,383.96,146.31z"/>
	</g>
	<g>
		<path class="st15" d="M387.59,155.07l-4.86-2.39l-1.12,6.4c0,0,4.66,1.63,5.93-0.71L387.59,155.07z"/>
		<path class="st15" d="M377.39,154.46l-0.01,2.31c-0.01,0.92,0.66,1.71,1.56,1.86l2.67,0.46l1.12-6.4l-3.41-0.09
			C378.27,152.56,377.4,153.41,377.39,154.46z"/>
	</g>
	<path class="st15" d="M385.32,158.52c3.47,2.16,7.01,3.99,11.01,5.39c1.01,0.34,2.04,0.67,3.17,0.9c1.14,0.22,2.31,0.43,3.85,0.34
		c0.77-0.06,1.66-0.19,2.73-0.71c0.53-0.27,1.1-0.65,1.61-1.18c0.12-0.13,0.26-0.28,0.35-0.4l0.23-0.31
		c0.16-0.21,0.28-0.42,0.41-0.64c0.97-1.78,1.09-3.39,1.1-4.74c0-1.37-0.2-2.57-0.44-3.71c-0.24-1.14-0.55-2.2-0.89-3.24
		c-0.68-2.06-1.51-3.99-2.38-5.86c-0.89-1.86-1.83-3.68-2.85-5.44c-1.03-1.78-2.03-3.47-3.23-5.23c-1.29-1.89-3.88-2.38-5.77-1.09
		c-1.84,1.26-2.36,3.74-1.19,5.62l0.05,0.07c0.94,1.51,1.96,3.17,2.88,4.78c0.92,1.63,1.84,3.26,2.66,4.92
		c0.84,1.64,1.6,3.3,2.22,4.92c0.63,1.6,1.1,3.26,1.19,4.47c0.03,0.25,0.02,0.46,0.02,0.62c-0.42,0.03-0.95,0.03-1.49-0.02
		c-0.81-0.07-1.68-0.18-2.56-0.35c-3.54-0.67-7.3-1.75-10.94-2.82l-0.07-0.02c-1.1-0.32-2.25,0.3-2.57,1.4
		C384.16,157.09,384.55,158.04,385.32,158.52z"/>
	<g>
		<g>
			<path class="st6" d="M395.94,128.44c8.44,2.66,13.19,20.36,13.19,20.36l-9.14,3.57c0,0-4.33-3.08-7.38-8.9
				C391.67,141.71,389.2,126.32,395.94,128.44z"/>
		</g>
	</g>
	<g>
		<polygon class="st11" points="409.12,146.69 397.92,151.13 399.57,153.46 409.84,149.4 		"/>
		<polygon class="st21" points="409.12,146.69 397.92,151.13 399.57,153.46 409.84,149.4 		"/>
	</g>
	<g>
		<polygon class="st9" points="356.53,148.88 373.06,148.88 384.68,169.12 384.23,169.57 367.7,169.57 356.08,149.33 		"/>
		<polygon class="st19" points="356.53,148.88 373.06,148.88 384.68,169.12 384.23,169.57 367.7,169.57 356.08,149.33 		"/>
		<polygon class="st9" points="367.7,169.57 384.23,169.57 372.61,149.33 356.08,149.33 		"/>
		<polygon class="st23" points="367.7,169.57 384.23,169.57 372.61,149.33 356.08,149.33 		"/>
		<g>
			<polygon class="st11" points="360.76,148.59 367.06,148.59 368.39,150.91 368.21,151.09 361.91,151.09 360.58,148.77 			"/>
			<polygon class="st21" points="360.76,148.59 367.06,148.59 368.39,150.91 368.21,151.09 361.91,151.09 360.58,148.77 			"/>
			<polygon class="st11" points="361.91,151.09 360.58,148.77 366.87,148.77 368.21,151.09 			"/>
			<polygon class="st19" points="361.91,151.09 360.58,148.77 366.87,148.77 368.21,151.09 			"/>
		</g>
	</g>
	<path class="st15" d="M352.38,161.82c-0.19-1.27-0.12-2.35,0-3.34c0.04-0.29,0.09-0.56,0.14-0.84h7.75
		c-0.23,0.69-0.42,1.35-0.54,1.95c-0.11,0.53-0.15,1.01-0.13,1.27c0,0.08,0,0.13,0,0.16c0.06,0.03,0.12,0.06,0.19,0.09
		c0.5,0.23,1.13,0.42,1.78,0.61c1.31,0.36,2.81,0.67,4.22,1.02l0.15,0.04c0.66,0.17,1.22,0.66,1.44,1.36
		c0.33,1.06-0.26,2.2-1.32,2.53c-1.66,0.52-3.25,0.82-5.01,0.92c-0.88,0.05-1.78,0.03-2.78-0.09c-0.5-0.08-1.03-0.18-1.62-0.37
		c-0.58-0.19-1.25-0.44-2-1.03c-0.2-0.16-0.39-0.33-0.58-0.52c-0.18-0.2-0.42-0.47-0.53-0.65c-0.24-0.35-0.43-0.71-0.6-1.08
		C352.65,163.14,352.48,162.45,352.38,161.82z"/>
	<g>
		<path class="st15" d="M365.78,166.68l5.75-0.79l-3.32-5.32c0,0-4.85,0.71-4.52,3.71L365.78,166.68z"/>
		<path class="st15" d="M373.81,162.65l-1.03-2.38c-0.37-0.85-1.37-1.23-2.21-0.83l-2.35,1.13l3.32,5.32l1.74-1.25
			C373.89,164.18,374.11,163.36,373.81,162.65z"/>
	</g>
</g>
<g>
	<g>
		<g>
			<polygon class="st11" points="157.49,184.17 163.91,184.17 163.91,186.7 162.87,186.7 162.87,198.09 158.54,198.09 158.54,186.7 
				157.49,186.7 			"/>
		</g>
		<g class="st12">
			<polygon points="157.49,184.17 163.91,184.17 163.91,186.7 162.87,186.7 162.87,198.09 158.54,198.09 158.54,186.7 157.49,186.7 
							"/>
		</g>
		<polygon class="st11" points="195.47,176.05 218.28,211.15 218.28,242.64 164.28,242.64 164.28,211.15 		"/>
		<polygon class="st21" points="195.47,176.05 218.28,211.15 218.28,242.64 164.28,242.64 164.28,211.15 		"/>
		<polygon class="st11" points="170.42,177.48 173.89,172.16 195.47,172.16 220.89,211.15 199.31,211.15 170.42,211.15 		"/>
		<polygon class="st6" points="170.42,177.48 173.89,172.16 195.47,172.16 220.89,211.15 199.31,211.15 170.42,211.15 		"/>
		<g>
			<g>
				<polygon class="st5" points="199.31,211.15 173.89,172.16 148.47,211.15 				"/>
			</g>
		</g>
		<polygon class="st11" points="173.89,176.05 196.7,211.15 196.7,242.64 151.08,242.64 151.08,211.15 		"/>
		<polygon class="st24" points="173.89,176.05 196.7,211.15 196.7,242.64 151.08,242.64 151.08,211.15 		"/>
		<g>
			<rect x="179.51" y="196.25" class="st11" width="4.61" height="12.23"/>
			<rect x="163.36" y="196.25" class="st11" width="4.61" height="12.23"/>
			<rect x="167.97" y="195.68" class="st11" width="11.54" height="13.38"/>
			<g>
				<rect x="167.97" y="195.68" class="st23" width="11.54" height="13.38"/>
			</g>
			<rect x="169.42" y="197.12" class="st9" width="8.65" height="10.5"/>
		</g>
		<g>
			<g>
				<g>
					
						<rect x="166.77" y="220.13" transform="matrix(-1 -1.224647e-16 1.224647e-16 -1 347.4839 462.7733)" class="st11" width="13.95" height="22.51"/>
					
						<rect x="166.77" y="220.13" transform="matrix(-1 -1.224647e-16 1.224647e-16 -1 347.4839 462.7733)" class="st10" width="13.95" height="22.51"/>
				</g>
				<polygon class="st11" points="167.63,215.41 179.85,215.41 182.82,220.93 164.66,220.93 				"/>
			</g>
			<g>
				<rect x="174.01" y="223.95" class="st9" width="4.27" height="18.69"/>
				<rect x="169.2" y="223.95" class="st9" width="4.27" height="18.69"/>
			</g>
		</g>
	</g>
	<g>
		<g>
			<rect x="144.6" y="265.38" class="st11" width="64.98" height="55.07"/>
			<rect x="144.6" y="265.38" class="st25" width="64.98" height="55.07"/>
		</g>
		<g>
			<rect x="192.67" y="265.38" class="st11" width="32.09" height="55.07"/>
			<rect x="192.67" y="265.38" class="st24" width="32.09" height="55.07"/>
		</g>
		<g>
			<rect x="173.84" y="270.93" class="st11" width="12.78" height="14.83"/>
			<g>
				<rect x="173.84" y="270.93" class="st5" width="12.78" height="14.83"/>
			</g>
			<rect x="175.44" y="272.52" class="st24" width="9.59" height="11.63"/>
		</g>
		<g>
			<rect x="197.07" y="271.56" class="st6" width="5.11" height="13.55"/>
			<rect x="214.96" y="271.56" class="st6" width="5.11" height="13.55"/>
			<rect x="202.18" y="270.93" class="st11" width="12.78" height="14.83"/>
			<g>
				<rect x="202.18" y="270.93" class="st5" width="12.78" height="14.83"/>
			</g>
			<rect x="203.78" y="272.52" class="st24" width="9.59" height="11.63"/>
		</g>
		<g>
			<g>
				<g>
					<rect x="159.63" y="295.96" class="st11" width="15.18" height="24.49"/>
					<rect x="159.63" y="295.96" class="st5" width="15.18" height="24.49"/>
				</g>
				<polygon class="st5" points="173.86,290.83 160.57,290.83 157.34,296.83 177.1,296.83 				"/>
			</g>
			<g class="st26">
				<rect x="162.28" y="300.12" class="st8" width="4.65" height="20.33"/>
				<rect x="167.51" y="300.12" class="st8" width="4.65" height="20.33"/>
			</g>
		</g>
		<g>
			<g>
				<g>
					<polygon class="st11" points="216.82,265.85 204.13,242.29 150.07,242.29 137.37,265.85 					"/>
					<polygon class="st6" points="216.82,265.85 204.13,242.29 150.07,242.29 137.37,265.85 					"/>
				</g>
				<g>
					<polygon class="st11" points="232,265.85 219.3,242.29 198.13,242.29 185.44,265.85 					"/>
					<polygon class="st5" points="232,265.85 219.3,242.29 198.13,242.29 185.44,265.85 					"/>
				</g>
			</g>
			<g>
				<polygon class="st11" points="162.18,261.83 162.18,242.29 187.17,242.29 176.64,261.83 				"/>
				<polygon class="st24" points="162.18,261.83 162.18,242.29 187.17,242.29 176.64,261.83 				"/>
				
					<rect x="161.44" y="246.65" transform="matrix(-1 -1.224647e-16 1.224647e-16 -1 338.0657 508.4758)" class="st11" width="15.18" height="15.18"/>
				
					<rect x="161.44" y="246.65" transform="matrix(-1 -1.224647e-16 1.224647e-16 -1 338.0657 508.4758)" class="st25" width="15.18" height="15.18"/>
				<g>
					<path class="st11" d="M165.83,259.99h6.4c0.58,0,1.05-0.47,1.05-1.05v-0.77h-8.5v0.77
						C164.78,259.52,165.25,259.99,165.83,259.99z"/>
					<path class="st9" d="M166.35,251.95c0-1.48,1.2-2.69,2.69-2.69s2.69,1.2,2.69,2.69l0,5.8h-5.37L166.35,251.95z"/>
				</g>
				<polygon class="st11" points="171.72,247.52 174.53,242.29 187.17,242.29 184.35,247.52 				"/>
				<polygon class="st12" points="171.72,247.52 174.53,242.29 187.17,242.29 184.35,247.52 				"/>
				<polygon class="st11" points="176.1,242.29 178.91,247.52 159.15,247.52 161.97,242.29 				"/>
			</g>
		</g>
		<g>
			<rect x="150.95" y="270.93" class="st11" width="12.78" height="14.83"/>
			<g>
				<rect x="150.95" y="270.93" class="st5" width="12.78" height="14.83"/>
			</g>
			<rect x="152.54" y="272.52" class="st24" width="9.59" height="11.63"/>
		</g>
	</g>
</g>
<g>
	<path class="st9" d="M227.3,319.91h118.92c2.21,0,3.84-1.79,3.64-3.99l-14.92-170.53c-0.19-2.21-2.14-3.99-4.34-3.99H211.68
		c-2.21,0-3.84,1.79-3.64,3.99l14.92,170.53C223.15,318.12,225.09,319.91,227.3,319.91z"/>
	<path class="st9" d="M229.01,319.91h118.92c2.21,0,3.84-1.79,3.64-3.99l-14.92-170.53c-0.19-2.21-2.14-3.99-4.34-3.99H213.39
		c-2.21,0-3.84,1.79-3.64,3.99l14.92,170.53C224.86,318.12,226.81,319.91,229.01,319.91z"/>
	<path class="st21" d="M229.01,319.91h118.92c2.21,0,3.84-1.79,3.64-3.99l-14.92-170.53c-0.19-2.21-2.14-3.99-4.34-3.99H213.39
		c-2.21,0-3.84,1.79-3.64,3.99l14.92,170.53C224.86,318.12,226.81,319.91,229.01,319.91z"/>
	<polygon class="st12" points="325.59,151.25 339.86,313.72 232.67,313.72 218.41,151.25 	"/>
</g>
<path class="st8" d="M326.25,151.25l4.11,52.4c1.07,13.58,2.67,27.11,4.82,40.57l10.51,65.83H238.5l-10.52-65.99
	c-2.14-13.44-3.75-26.95-4.81-40.52l-4.1-52.28H326.25z"/>
<path class="st6" d="M255.11,172.08h40.19c1.33,0,2.28-1.08,2.12-2.41l-0.32-2.61c-0.16-1.33-1.37-2.41-2.71-2.41H254.2
	c-1.33,0-2.28,1.08-2.12,2.41l0.32,2.61C252.57,171,253.78,172.08,255.11,172.08z"/>
<g>
	<path class="st11" d="M238.14,226.1h86.28c1.33,0,2.28-1.08,2.12-2.41l-0.32-2.61c-0.16-1.33-1.37-2.41-2.71-2.41h-86.28
		c-1.33,0-2.28,1.08-2.12,2.41l0.32,2.61C235.6,225.02,236.81,226.1,238.14,226.1z"/>
	<path class="st6" d="M238.14,226.1h86.28c1.33,0,2.28-1.08,2.12-2.41l-0.32-2.61c-0.16-1.33-1.37-2.41-2.71-2.41h-86.28
		c-1.33,0-2.28,1.08-2.12,2.41l0.32,2.61C235.6,225.02,236.81,226.1,238.14,226.1z"/>
</g>
<g>
	<g>
		<path class="st5" d="M291.32,183.21c-13.4,0-26.79,0-40.19,0c-0.83,0-0.94-1.29-0.11-1.29c13.4,0,26.79,0,40.19,0
			C292.03,181.92,292.15,183.21,291.32,183.21L291.32,183.21z"/>
	</g>
	<g>
		<path class="st5" d="M234,186.78c19.27,0,38.53,0,57.8,0c0.83,0,0.94,1.29,0.11,1.29c-19.27,0-38.53,0-57.8,0
			C233.29,188.06,233.17,186.78,234,186.78L234,186.78z"/>
	</g>
</g>
<g>
	<path class="st9" d="M300.18,188.28h19.61c1.33,0,2.28-1.08,2.12-2.41l-0.32-2.61c-0.16-1.33-1.37-2.41-2.71-2.41h-19.61
		c-1.33,0-2.28,1.08-2.12,2.41l0.32,2.61C297.64,187.2,298.85,188.28,300.18,188.28z"/>
	<path class="st27" d="M300.18,188.28h19.61c1.33,0,2.28-1.08,2.12-2.41l-0.32-2.61c-0.16-1.33-1.37-2.41-2.71-2.41h-19.61
		c-1.33,0-2.28,1.08-2.12,2.41l0.32,2.61C297.64,187.2,298.85,188.28,300.18,188.28z"/>
	<g>
		<path class="st9" d="M311.23,203.23h10.39c1.33,0,2.28-1.08,2.12-2.41l-0.17-1.37c-0.16-1.33-1.37-2.41-2.71-2.41h-10.39
			c-1.33,0-2.28,1.08-2.12,2.41l0.17,1.37C308.69,202.15,309.9,203.23,311.23,203.23z"/>
		<path class="st9" d="M279.48,203.23h24.11c1.33,0,2.28-1.08,2.12-2.41l-0.17-1.37c-0.16-1.33-1.37-2.41-2.71-2.41h-24.11
			c-1.33,0-2.28,1.08-2.12,2.41l0.17,1.37C276.94,202.15,278.15,203.23,279.48,203.23z"/>
		<path class="st9" d="M253.73,203.23h18.1c1.33,0,2.28-1.08,2.12-2.41l-0.17-1.37c-0.16-1.33-1.37-2.41-2.71-2.41h-18.1
			c-1.33,0-2.28,1.08-2.12,2.41l0.17,1.37C251.18,202.15,252.39,203.23,253.73,203.23z"/>
		<path class="st9" d="M236.55,203.23h9.53c1.33,0,2.28-1.08,2.12-2.41l-0.17-1.37c-0.16-1.33-1.37-2.41-2.71-2.41h-9.53
			c-1.33,0-2.28,1.08-2.12,2.41l0.17,1.37C234,202.15,235.21,203.23,236.55,203.23z"/>
		<path class="st9" d="M304.63,212.28h18.1c1.33,0,2.28-1.08,2.12-2.41l-0.17-1.37c-0.16-1.33-1.37-2.41-2.71-2.41h-18.1
			c-1.33,0-2.28,1.08-2.12,2.41l0.17,1.37C302.08,211.2,303.29,212.28,304.63,212.28z"/>
		<path class="st9" d="M275.44,212.28h21.53c1.33,0,2.28-1.08,2.12-2.41l-0.17-1.37c-0.16-1.33-1.37-2.41-2.71-2.41h-21.53
			c-1.33,0-2.28,1.08-2.12,2.41l0.17,1.37C272.9,211.2,274.11,212.28,275.44,212.28z"/>
		<path class="st9" d="M257.4,212.28h10.39c1.33,0,2.28-1.08,2.12-2.41l-0.17-1.37c-0.16-1.33-1.37-2.41-2.71-2.41h-10.39
			c-1.33,0-2.28,1.08-2.12,2.41l0.17,1.37C254.86,211.2,256.07,212.28,257.4,212.28z"/>
		<path class="st9" d="M237.65,212.28h12.1c1.33,0,2.28-1.08,2.12-2.41l-0.17-1.37c-0.16-1.33-1.37-2.41-2.71-2.41h-12.1
			c-1.33,0-2.28,1.08-2.12,2.41l0.17,1.37C235.11,211.2,236.32,212.28,237.65,212.28z"/>
	</g>
	<g class="st28">
		<path class="st8" d="M311.23,203.23h10.39c1.33,0,2.28-1.08,2.12-2.41l-0.17-1.37c-0.16-1.33-1.37-2.41-2.71-2.41h-10.39
			c-1.33,0-2.28,1.08-2.12,2.41l0.17,1.37C308.69,202.15,309.9,203.23,311.23,203.23z"/>
		<path class="st8" d="M279.48,203.23h24.11c1.33,0,2.28-1.08,2.12-2.41l-0.17-1.37c-0.16-1.33-1.37-2.41-2.71-2.41h-24.11
			c-1.33,0-2.28,1.08-2.12,2.41l0.17,1.37C276.94,202.15,278.15,203.23,279.48,203.23z"/>
		<path class="st8" d="M253.73,203.23h18.1c1.33,0,2.28-1.08,2.12-2.41l-0.17-1.37c-0.16-1.33-1.37-2.41-2.71-2.41h-18.1
			c-1.33,0-2.28,1.08-2.12,2.41l0.17,1.37C251.18,202.15,252.39,203.23,253.73,203.23z"/>
		<path class="st8" d="M236.55,203.23h9.53c1.33,0,2.28-1.08,2.12-2.41l-0.17-1.37c-0.16-1.33-1.37-2.41-2.71-2.41h-9.53
			c-1.33,0-2.28,1.08-2.12,2.41l0.17,1.37C234,202.15,235.21,203.23,236.55,203.23z"/>
		<path class="st8" d="M304.63,212.28h18.1c1.33,0,2.28-1.08,2.12-2.41l-0.17-1.37c-0.16-1.33-1.37-2.41-2.71-2.41h-18.1
			c-1.33,0-2.28,1.08-2.12,2.41l0.17,1.37C302.08,211.2,303.29,212.28,304.63,212.28z"/>
		<path class="st8" d="M275.44,212.28h21.53c1.33,0,2.28-1.08,2.12-2.41l-0.17-1.37c-0.16-1.33-1.37-2.41-2.71-2.41h-21.53
			c-1.33,0-2.28,1.08-2.12,2.41l0.17,1.37C272.9,211.2,274.11,212.28,275.44,212.28z"/>
		<path class="st8" d="M257.4,212.28h10.39c1.33,0,2.28-1.08,2.12-2.41l-0.17-1.37c-0.16-1.33-1.37-2.41-2.71-2.41h-10.39
			c-1.33,0-2.28,1.08-2.12,2.41l0.17,1.37C254.86,211.2,256.07,212.28,257.4,212.28z"/>
		<path class="st8" d="M237.65,212.28h12.1c1.33,0,2.28-1.08,2.12-2.41l-0.17-1.37c-0.16-1.33-1.37-2.41-2.71-2.41h-12.1
			c-1.33,0-2.28,1.08-2.12,2.41l0.17,1.37C235.11,211.2,236.32,212.28,237.65,212.28z"/>
	</g>
</g>
<g>
	<g>
		<g>
			<path class="st5" d="M272.05,303.47c-9.31,0-18.61,0-27.92,0c-0.83,0-0.94-1.29-0.11-1.29c9.31,0,18.61,0,27.92,0
				C272.77,302.18,272.88,303.47,272.05,303.47L272.05,303.47z"/>
		</g>
		<g>
			<path class="st5" d="M336.28,303.47c-9.31,0-18.61,0-27.92,0c-0.83,0-0.94-1.29-0.11-1.29c9.31,0,18.61,0,27.92,0
				C337,302.18,337.11,303.47,336.28,303.47L336.28,303.47z"/>
		</g>
	</g>
</g>
<g>
	<g>
		<g>
			<path class="st5" d="M331.44,263.89c-11.88,0-23.76,0-35.64,0c-0.83,0-0.94-1.29-0.11-1.29c11.88,0,23.76,0,35.64,0
				C332.15,262.61,332.26,263.89,331.44,263.89L331.44,263.89z"/>
		</g>
		<g>
			<path class="st5" d="M296.29,267.55c11.88,0,23.76,0,35.64,0c0.83,0,0.94,1.29,0.11,1.29c-11.88,0-23.76,0-35.64,0
				C295.58,268.84,295.46,267.55,296.29,267.55L296.29,267.55z"/>
		</g>
		<g>
			<path class="st5" d="M296.9,272.5c11.88,0,23.76,0,35.64,0c0.83,0,0.94,1.29,0.11,1.29c-11.88,0-23.76,0-35.64,0
				C296.18,273.79,296.07,272.5,296.9,272.5L296.9,272.5z"/>
		</g>
		<g>
			<path class="st5" d="M297.5,277.45c11.88,0,23.76,0,35.64,0c0.83,0,0.94,1.29,0.11,1.29c-11.88,0-23.76,0-35.64,0
				C296.79,278.73,296.67,277.45,297.5,277.45L297.5,277.45z"/>
		</g>
		<g>
			<path class="st5" d="M298.11,282.39c11.88,0,23.76,0,35.64,0c0.83,0,0.94,1.29,0.11,1.29c-11.88,0-23.76,0-35.64,0
				C297.39,283.68,297.28,282.39,298.11,282.39L298.11,282.39z"/>
		</g>
		<g>
			<path class="st5" d="M278.15,263.89c-9.31,0-18.61,0-27.92,0c-0.83,0-0.94-1.29-0.11-1.29c9.31,0,18.61,0,27.92,0
				C278.87,262.61,278.98,263.89,278.15,263.89L278.15,263.89z"/>
		</g>
		<g>
			<path class="st5" d="M250.72,267.55c9.31,0,18.61,0,27.92,0c0.83,0,0.94,1.29,0.11,1.29c-9.31,0-18.61,0-27.92,0
				C250.01,268.84,249.9,267.55,250.72,267.55L250.72,267.55z"/>
		</g>
		<g>
			<path class="st5" d="M251.33,272.5c9.31,0,18.61,0,27.92,0c0.83,0,0.94,1.29,0.11,1.29c-9.31,0-18.61,0-27.92,0
				C250.62,273.79,250.5,272.5,251.33,272.5L251.33,272.5z"/>
		</g>
		<g>
			<path class="st5" d="M251.94,277.45c9.31,0,18.61,0,27.92,0c0.83,0,0.94,1.29,0.11,1.29c-9.31,0-18.61,0-27.92,0
				C251.22,278.73,251.11,277.45,251.94,277.45L251.94,277.45z"/>
		</g>
		<g>
			<path class="st5" d="M252.54,282.39c9.31,0,18.61,0,27.92,0c0.83,0,0.94,1.29,0.11,1.29c-9.31,0-18.61,0-27.92,0
				C251.83,283.68,251.71,282.39,252.54,282.39L252.54,282.39z"/>
		</g>
	</g>
</g>
<g>
	<g>
		<path class="st6" d="M236.91,238.42L236.91,238.42l0.73,6h0l0.73,6h0l0.73,6h16.77h0.64h28.13h0.64h28.13h0.64h16.77l-0.81-6.64h0
			l-0.73-6h0l-0.73-6h0l-0.73-6h-16.77h-0.64H282.3h-0.64h-28.13h-0.64H236.1L236.91,238.42z M253.28,235.1l0.33,2.68h-16.13
			l-0.66-5.36h16.13L253.28,235.1z M254.66,241.1l-0.33-2.68h28.13l0.33,2.68l0.33,2.68h-28.13L254.66,241.1z M283.11,238.42h28.13
			l0.33,2.68l0.33,2.68h-28.13l-0.33-2.68L283.11,238.42z M312.64,249.78H284.5l-0.33-2.68l-0.33-2.68h28.13l0.33,2.68
			L312.64,249.78z M283.86,249.78h-28.13l-0.33-2.68l-0.33-2.68h28.13l0.33,2.68L283.86,249.78z M282.06,235.1l0.33,2.68h-28.13
			l-0.33-2.68l-0.33-2.68h28.13L282.06,235.1z M310.84,235.1l0.33,2.68h-28.13l-0.33-2.68l-0.33-2.68h28.13L310.84,235.1z
			 M327.94,237.78h-16.13l-0.33-2.68l-0.33-2.68h16.13L327.94,237.78z M328.68,243.78h-16.13l-0.33-2.68l-0.33-2.68h16.13
			L328.68,243.78z M329.41,249.78h-16.13l-0.33-2.68l-0.33-2.68h16.13L329.41,249.78z M313.69,253.11l-0.33-2.68h16.13l0.66,5.36
			h-16.13L313.69,253.11z M284.91,253.11l-0.33-2.68h28.13l0.33,2.68l0.33,2.68h-28.13L284.91,253.11z M256.13,253.11l-0.33-2.68
			h28.13l0.33,2.68l0.33,2.68h-28.13L256.13,253.11z M239.03,250.43h16.13l0.33,2.68l0.33,2.68h-16.13L239.03,250.43z
			 M238.29,244.42h16.13l0.33,2.68l0.33,2.68h-16.13L238.29,244.42z M237.56,238.42h16.13l0.33,2.68l0.33,2.68h-16.13L237.56,238.42
			z"/>
		<path class="st29" d="M236.91,238.42L236.91,238.42l0.73,6h0l0.73,6h0l0.73,6h16.77h0.64h28.13h0.64h28.13h0.64h16.77l-0.81-6.64
			h0l-0.73-6h0l-0.73-6h0l-0.73-6h-16.77h-0.64H282.3h-0.64h-28.13h-0.64H236.1L236.91,238.42z M253.28,235.1l0.33,2.68h-16.13
			l-0.66-5.36h16.13L253.28,235.1z M254.66,241.1l-0.33-2.68h28.13l0.33,2.68l0.33,2.68h-28.13L254.66,241.1z M283.11,238.42h28.13
			l0.33,2.68l0.33,2.68h-28.13l-0.33-2.68L283.11,238.42z M312.64,249.78H284.5l-0.33-2.68l-0.33-2.68h28.13l0.33,2.68
			L312.64,249.78z M283.86,249.78h-28.13l-0.33-2.68l-0.33-2.68h28.13l0.33,2.68L283.86,249.78z M282.06,235.1l0.33,2.68h-28.13
			l-0.33-2.68l-0.33-2.68h28.13L282.06,235.1z M310.84,235.1l0.33,2.68h-28.13l-0.33-2.68l-0.33-2.68h28.13L310.84,235.1z
			 M327.94,237.78h-16.13l-0.33-2.68l-0.33-2.68h16.13L327.94,237.78z M328.68,243.78h-16.13l-0.33-2.68l-0.33-2.68h16.13
			L328.68,243.78z M329.41,249.78h-16.13l-0.33-2.68l-0.33-2.68h16.13L329.41,249.78z M313.69,253.11l-0.33-2.68h16.13l0.66,5.36
			h-16.13L313.69,253.11z M284.91,253.11l-0.33-2.68h28.13l0.33,2.68l0.33,2.68h-28.13L284.91,253.11z M256.13,253.11l-0.33-2.68
			h28.13l0.33,2.68l0.33,2.68h-28.13L256.13,253.11z M239.03,250.43h16.13l0.33,2.68l0.33,2.68h-16.13L239.03,250.43z
			 M238.29,244.42h16.13l0.33,2.68l0.33,2.68h-16.13L238.29,244.42z M237.56,238.42h16.13l0.33,2.68l0.33,2.68h-16.13L237.56,238.42
			z"/>
	</g>
</g>
<g>
	<path class="st6" d="M242.37,267.95h2.66c0.49,0,0.85-0.4,0.79-0.9l-0.33-2.66c-0.06-0.49-0.51-0.9-1.01-0.9h-2.66
		c-0.49,0-0.85,0.4-0.79,0.9l0.33,2.66C241.42,267.55,241.87,267.95,242.37,267.95z"/>
	<path class="st11" d="M242.96,272.81h2.66c0.49,0,0.85-0.4,0.79-0.9l-0.33-2.66c-0.06-0.49-0.51-0.9-1.01-0.9h-2.66
		c-0.49,0-0.85,0.4-0.79,0.9l0.33,2.66C242.02,272.41,242.47,272.81,242.96,272.81z"/>
	<path class="st6" d="M243.56,277.67h2.66c0.49,0,0.85-0.4,0.79-0.9l-0.33-2.66c-0.06-0.49-0.51-0.9-1.01-0.9h-2.66
		c-0.49,0-0.85,0.4-0.79,0.9l0.33,2.66C242.61,277.27,243.06,277.67,243.56,277.67z"/>
	<path class="st11" d="M244.15,282.53h2.66c0.49,0,0.85-0.4,0.79-0.9l-0.33-2.66c-0.06-0.49-0.51-0.9-1.01-0.9h-2.66
		c-0.49,0-0.85,0.4-0.79,0.9l0.33,2.66C243.21,282.12,243.66,282.53,244.15,282.53z"/>
	<path class="st5" d="M242.96,272.81h2.66c0.49,0,0.85-0.4,0.79-0.9l-0.33-2.66c-0.06-0.49-0.51-0.9-1.01-0.9h-2.66
		c-0.49,0-0.85,0.4-0.79,0.9l0.33,2.66C242.02,272.41,242.47,272.81,242.96,272.81z"/>
	<path class="st5" d="M244.15,282.53h2.66c0.49,0,0.85-0.4,0.79-0.9l-0.33-2.66c-0.06-0.49-0.51-0.9-1.01-0.9h-2.66
		c-0.49,0-0.85,0.4-0.79,0.9l0.33,2.66C243.21,282.12,243.66,282.53,244.15,282.53z"/>
</g>
<g>
	<path class="st6" d="M255.83,138.47h10.49l-1.66-3.95c-0.52-1.24,0.58-2.45,2.23-2.45h10.28c1.65,0,2.97,1.21,2.66,2.45l-0.97,3.95
		h10.49c3.17,0,5.96,2.57,6.24,5.74l0.81,9.22c0.16,1.83-1.19,3.31-3.02,3.31H255c-1.83,0-3.44-1.48-3.6-3.31l-0.81-9.22
		C250.32,141.04,252.66,138.47,255.83,138.47z"/>
	<polygon class="st12" points="278.87,138.47 266.32,138.47 265.35,136.15 279.44,136.15 	"/>
	<g>
		<path class="st9" d="M287.32,151.22c0.09,0.99,0.96,1.79,1.94,1.79c0.99,0,1.72-0.8,1.63-1.79c-0.09-0.99-0.96-1.79-1.94-1.79
			C287.97,149.43,287.24,150.23,287.32,151.22z"/>
		<path class="st9" d="M256.53,151.22c0.09,0.99,0.96,1.79,1.94,1.79c0.99,0,1.72-0.8,1.63-1.79c-0.09-0.99-0.96-1.79-1.94-1.79
			C257.17,149.43,256.44,150.23,256.53,151.22z"/>
	</g>
</g>
<g>
	<g>
		<g>
			<path class="st6" d="M324.49,296.94l-47.51,9.29c-2.32,0.45-4.42-1.03-4.68-3.32l-0.81-7.22c-0.25-2.28,1.43-4.51,3.75-4.97
				l47.51-9.29c2.32-0.45,4.42,1.03,4.68,3.32l0.8,7.22C328.49,294.26,326.81,296.48,324.49,296.94z M275.38,291.93
				c-1.65,0.32-2.84,1.9-2.66,3.52l0.81,7.22c0.18,1.62,1.67,2.67,3.31,2.35l47.51-9.29c1.65-0.32,2.84-1.9,2.66-3.52l-0.81-7.22
				c-0.18-1.62-1.67-2.67-3.31-2.35L275.38,291.93z"/>
		</g>
		<g>
			<path class="st6" d="M282.11,298.78l-2.4,0.47l-0.34,1.18l-1.22,0.24l1.74-5.53l1.18-0.23l2.87,4.62l-1.25,0.25L282.11,298.78z
				 M281.63,297.96l-1.04-1.78l-0.6,2.1L281.63,297.96z"/>
			<path class="st6" d="M287.37,293.91c0.35,0.08,0.64,0.25,0.85,0.49c0.21,0.24,0.34,0.55,0.38,0.93c0.04,0.37-0.01,0.71-0.16,1.03
				c-0.15,0.31-0.39,0.58-0.71,0.79c-0.32,0.21-0.71,0.36-1.17,0.45l-1.04,0.2l0.16,1.4l-1.19,0.23l-0.57-5.08l2.24-0.44
				C286.61,293.83,287.01,293.82,287.37,293.91z M287.18,296.26c0.17-0.19,0.24-0.42,0.21-0.7c-0.03-0.29-0.15-0.49-0.35-0.6
				c-0.2-0.12-0.49-0.14-0.84-0.07l-0.97,0.19l0.2,1.76l0.97-0.19C286.75,296.58,287.01,296.45,287.18,296.26z"/>
			<path class="st6" d="M292.69,292.87c0.35,0.08,0.64,0.25,0.85,0.49c0.21,0.24,0.34,0.55,0.38,0.93c0.04,0.37-0.01,0.71-0.16,1.03
				c-0.15,0.31-0.39,0.58-0.71,0.79c-0.32,0.21-0.71,0.36-1.17,0.45l-1.04,0.2l0.16,1.4l-1.19,0.23l-0.57-5.08l2.24-0.44
				C291.93,292.79,292.34,292.78,292.69,292.87z M292.51,295.22c0.17-0.19,0.24-0.42,0.21-0.7c-0.03-0.29-0.15-0.49-0.35-0.6
				c-0.2-0.12-0.49-0.14-0.84-0.07l-0.97,0.19l0.2,1.76l0.97-0.19C292.07,295.54,292.34,295.41,292.51,295.22z"/>
			<path class="st6" d="M298.42,296.7l-1.15-1.22l-0.06,0.01l-1.04,0.2l0.16,1.41l-1.2,0.23l-0.57-5.08l2.24-0.44
				c0.46-0.09,0.86-0.09,1.22-0.01c0.35,0.08,0.64,0.25,0.85,0.49c0.21,0.24,0.34,0.55,0.38,0.93s-0.01,0.72-0.17,1.03
				c-0.15,0.31-0.39,0.57-0.72,0.78l1.34,1.41L298.42,296.7z M297.69,292.87c-0.2-0.12-0.49-0.14-0.84-0.07l-0.97,0.19l0.2,1.77
				l0.97-0.19c0.36-0.07,0.62-0.2,0.79-0.39c0.17-0.19,0.24-0.43,0.21-0.71C298.01,293.19,297.89,292.99,297.69,292.87z"/>
			<path class="st6" d="M301.58,295.83c-0.46-0.14-0.83-0.39-1.12-0.74c-0.29-0.35-0.46-0.78-0.52-1.27
				c-0.06-0.5,0.02-0.97,0.22-1.42c0.2-0.45,0.5-0.83,0.91-1.14c0.4-0.31,0.88-0.52,1.41-0.62c0.54-0.1,1.03-0.09,1.48,0.06
				c0.45,0.14,0.82,0.39,1.12,0.74c0.29,0.35,0.46,0.78,0.52,1.27c0.06,0.5-0.02,0.97-0.22,1.42c-0.2,0.45-0.5,0.83-0.91,1.14
				c-0.4,0.31-0.87,0.52-1.41,0.62C302.53,295.99,302.03,295.97,301.58,295.83z M303.76,294.52c0.23-0.19,0.4-0.42,0.51-0.69
				c0.11-0.27,0.15-0.57,0.12-0.88c-0.03-0.31-0.14-0.58-0.3-0.8c-0.17-0.22-0.38-0.37-0.64-0.46c-0.26-0.09-0.54-0.1-0.85-0.05
				c-0.3,0.06-0.57,0.18-0.8,0.37c-0.23,0.19-0.4,0.42-0.52,0.69c-0.11,0.27-0.15,0.57-0.12,0.88c0.04,0.31,0.14,0.58,0.3,0.8
				c0.17,0.22,0.38,0.37,0.64,0.46c0.26,0.09,0.54,0.1,0.85,0.05C303.26,294.82,303.53,294.7,303.76,294.52z"/>
			<path class="st6" d="M311.01,289.06l-1.67,5.51l-1.18,0.23l-2.79-4.64l1.29-0.25l1.98,3.32l1.19-3.94L311.01,289.06z"/>
			<path class="st6" d="M315.9,292.32l0.11,0.94l-4,0.78l-0.57-5.08l3.9-0.76l0.11,0.94l-2.71,0.53l0.12,1.1l2.4-0.47l0.1,0.91
				l-2.4,0.47l0.13,1.17L315.9,292.32z"/>
			<path class="st6" d="M316.39,288l2.35-0.46c0.56-0.11,1.07-0.1,1.52,0.03c0.45,0.13,0.82,0.36,1.1,0.69
				c0.28,0.34,0.45,0.76,0.51,1.26c0.06,0.51-0.01,0.98-0.21,1.4c-0.2,0.43-0.5,0.79-0.9,1.08c-0.41,0.29-0.89,0.5-1.45,0.61
				l-2.35,0.46L316.39,288z M319.13,291.67c0.52-0.1,0.91-0.32,1.19-0.67c0.28-0.34,0.39-0.76,0.33-1.24
				c-0.05-0.48-0.25-0.84-0.59-1.06c-0.34-0.22-0.77-0.28-1.28-0.18l-1.09,0.21l0.35,3.15L319.13,291.67z"/>
		</g>
	</g>
</g>
</svg>
