<?xml version="1.0" encoding="utf-8"?>
<!-- Generator: Adobe Illustrator 24.3.0, SVG Export Plug-In . SVG Version: 6.00 Build 0)  -->
<svg version="1.1" id="Layer_1" xmlns="http://www.w3.org/2000/svg" xmlns:xlink="http://www.w3.org/1999/xlink" x="0px" y="0px"
	 viewBox="0 0 550 370" style="enable-background:new 0 0 550 370;" xml:space="preserve">
<style type="text/css">
	.st0{fill:#079FF3;}
	.st1{fill:#ECECEC;}
	.st2{fill:#E1E1E1;}
	.st3{fill:#F0F0F0;}
	.st4{fill:#F5F5F5;}
	.st5{fill:#033557;}
	.st6{fill:#439AD4;}
	.st7{opacity:0.3;fill:#007CFF;}
	.st8{fill:#FFFFFF;}
	.st9{fill:#002A68;}
	.st10{opacity:0.3;fill:#FFFFFF;}
	.st11{fill:#007CFF;}
	.st12{opacity:0.2;}
	.st13{fill:#E7E7E7;}
	.st14{opacity:0.9;fill:#FAFAFA;}
	.st15{fill:#CD5B51;}
	.st16{opacity:0.1;fill:#FFFFFF;}
	.st17{fill:#BA221F;}
	.st18{opacity:0.5;}
	.st19{opacity:0.2;fill:#FFFFFF;}
	.st20{opacity:0.1;}
	.st21{opacity:0.5;fill:#FFFFFF;}
	.st22{opacity:0.3;}
	.st23{opacity:0.4;fill:#FFFFFF;}
	.st24{opacity:0.8;fill:#FFFFFF;}
	.st25{opacity:0.6;fill:#FFFFFF;}
	.st26{opacity:0.8;}
	.st27{opacity:0.7;fill:#FFFFFF;}
	.st28{opacity:0.7;}
	.st29{opacity:0.5;fill:#439AD4;}
	.st30{opacity:0.3;fill:#079FF3;}
	.st31{fill:#B1F2F9;}
	.st32{opacity:0.72;fill:#079FF3;}
	.st33{opacity:0.5;fill:#FFBB63;}
	.st34{opacity:0.4;fill:#009A9A;}
	.st35{opacity:0.95;fill:#FFFFFF;}
	.st36{opacity:0.5;fill:#A3E3C8;}
	.st37{fill:none;stroke:#009A9A;stroke-width:1.1231;stroke-linecap:round;stroke-linejoin:round;stroke-miterlimit:10;}
	.st38{fill:#DCF9ED;}
	.st39{clip-path:url(#SVGID_2_);}
	.st40{fill:#C0E8FC;}
	.st41{opacity:0.3;clip-path:url(#SVGID_2_);fill:#079FF3;}
	.st42{clip-path:url(#SVGID_2_);fill:#FFFFFF;}
	.st43{fill:#00669C;}
	.st44{fill:none;stroke:#00669C;stroke-width:1.5379;stroke-linecap:round;stroke-linejoin:round;stroke-miterlimit:10;}
	.st45{font-family:'D-DINExp-Bold';}
	.st46{font-size:5.3931px;}
	.st47{fill:#FFFFFF;stroke:#6EBEC6;stroke-width:0.5393;stroke-linecap:round;stroke-linejoin:round;stroke-miterlimit:10;}
	.st48{opacity:0.6;clip-path:url(#SVGID_2_);}
	.st49{opacity:0.6;fill:#B3B3B3;}
	.st50{fill:#FFBB63;}
	.st51{fill:none;stroke:#FFFFFF;stroke-width:1.1534;}
	.st52{fill:none;stroke:#079FF3;stroke-width:3;stroke-miterlimit:10;}
	.st53{fill:#FAFAFA;}
	.st54{fill:#375A64;}
	.st55{opacity:0.4;}
	.st56{fill:#FFBF9D;}
	.st57{fill:#FF9A6C;}
	.st58{fill:#1A2E35;}
	.st59{fill:none;}
	.st60{fill:#966360;}
	.st61{fill:#CE8D84;}
	.st62{opacity:0.43;fill:#01AFB8;}
	.st63{fill:#01AFB8;}
	.st64{fill:#DCFFFF;}
	.st65{fill:#9DEDE9;}
	.st66{opacity:0.25;}
	.st67{fill:none;stroke:#FFFFFF;stroke-width:0.4951;stroke-linecap:round;stroke-linejoin:round;stroke-miterlimit:10;}
	.st68{fill:#78D1CF;}
	.st69{fill:#079E9E;}
	.st70{fill:#2C4D60;}
	.st71{fill:#04A5A5;}
	.st72{fill:#42C3FC;}
	.st73{fill:#12C6C6;}
	.st74{fill:#008989;}
	.st75{fill:#0D9995;}
	.st76{fill:#17AAA3;}
	.st77{fill:#497687;}
	.st78{fill:#3C6275;}
	.st79{fill:#FFFFFF;stroke:#231F20;stroke-width:0.7089;stroke-linecap:round;stroke-miterlimit:10;}
	.st80{clip-path:url(#SVGID_4_);}
	.st81{fill:#1EE2E2;}
	.st82{fill:#376277;}
	.st83{fill:#264656;}
	.st84{fill:#FFCCAF;}
	.st85{fill:#00C2F0;}
	.st86{fill:#FFA180;}
	.st87{opacity:0.08;fill:#FFFFFF;}
	.st88{fill:#2D1857;}
	.st89{fill:#4F4896;}
	.st90{fill:#00B1DA;}
	.st91{fill:#0682CE;}
	.st92{fill:#38EF33;}
	.st93{fill:#22E046;}
</style>
<path class="st0" d="M231.66,87.42c1.63-2.94,1.91-5.69,1.66-7.95c-0.46-4.11-2.99-7.74-6.71-9.57c-6.31-3.1-12.53,0.73-12.53,0.73
	c0.4-14.92-14.52-12.92-14.52-12.92c-17.32,2.8-15.85,13.32-15.85,13.32c-0.87-0.83-1.8-1.44-2.71-1.88
	c-2.42-1.18-5.21-1.35-7.79-0.6c-10.93,3.17-9.88,12.34-9.88,12.34c-12.12-0.67-13.19,10.66-13.19,10.66
	c-0.67,10.66,11.19,11.19,11.19,11.19c0.02,0.11,0.03,0.21,0.05,0.32c1.46,8.89,10.19,14.65,18.89,12.35
	c6.57-1.74,8.63-6.81,8.63-6.81c2.77,3.67,5.61,5.65,8.08,6.7c3.25,1.37,6.94,1.18,10.07-0.43c9.1-4.69,9.43-11.19,9.43-11.19
	c3.33,3.2,9.59,2.26,9.59,2.26c8.28-1.52,9.51-7.31,9.7-8.74c0.03-0.26,0.07-0.51,0.1-0.77C236.9,89.46,231.66,87.42,231.66,87.42z
	 M232.37,99.24c-0.38,0.88-1.01,1.64-1.81,2.17c-2.66,1.76-9.15,4.73-15.17-3.01c-0.25-0.33-0.65-0.53-1.07-0.51
	c-0.7,0.04-1.51,0.7-0.8,3.92c0.02,0.09,0.03,0.18,0.03,0.27c0.01,1.22-0.31,9.83-11.33,11.31c0,0-7.39,0.76-12.2-7.8
	c-0.2-0.36-0.58-0.59-1-0.59h-0.01c-0.45,0-0.86,0.27-1.05,0.68c-0.95,2.16-4.6,8.63-13.72,7.73c0,0-9.99-0.82-10.78-12.41
	c0,0-13.32-0.27-11.59-10.39c0,0,1.86-10.26,13.45-8.13c0,0-2.26-8.66,8.39-12.12c0,0,5.23-1.49,10.15,4.07
	c0.31,0.35,0.81,0.46,1.24,0.28l0.2-0.09c0.5-0.22,0.76-0.77,0.62-1.3c-0.74-2.6-1.7-10.11,10.43-12.95c0,0,9.72-2.8,14.12,3.06
	c0,0,2.48,2.84,0.99,9.18c-0.15,0.62,0.32,1.21,0.96,1.21c0.2,0,0.4-0.06,0.56-0.18c1.41-0.99,8.7-5.64,14.81-0.49
	c0,0,7.15,7.65,0.03,13.7c-0.41,0.35-0.58,0.91-0.42,1.43l0.01,0.02c0.15,0.48,0.55,0.84,1.05,0.93
	C230.54,89.62,235.74,91.35,232.37,99.24z"/>
<path class="st30" d="M276.17,279.05c0-43.7-35.43-79.13-79.13-79.13c-43.7,0-79.13,35.43-79.13,79.13v56.63h158.35L276.17,279.05z"
	/>
<path class="st30" d="M434.34,183.83c0-43.7-35.43-79.13-79.13-79.13c-43.7,0-79.13,35.43-79.13,79.13V336h158.35L434.34,183.83z"/>
<path class="st30" d="M334.6,210.83c0,56.02-45.41,101.42-101.42,101.42c-56.02,0-101.42-45.41-101.42-101.42
	s44.32-86.06,100.33-86.06C288.1,124.77,334.6,154.82,334.6,210.83z"/>
<path class="st8" d="M225.21,153.52c0,0,0.69-3.47-2.72-4.52c0,0,1.38-3.74-2.32-8.26c-3.56-4.35-9.18-1.53-9.18-1.53
	s-2.3-5.12-8.08-4.5c-6.59,0.71-7.41,6.3-7.41,6.3s-7.53-1.67-8.54,5.66c0,0-7.42,0.77-6.29,6.86H225.21z"/>
<g>
	<rect x="127.48" y="278.67" class="st31" width="65.81" height="57.01"/>
	<rect x="190.35" y="165.34" class="st31" width="66.54" height="144.1"/>
	<rect x="173.51" y="201.42" class="st31" width="40.01" height="70.99"/>
	<rect x="326.12" y="126.4" class="st31" width="40.01" height="70.99"/>
	<rect x="359.57" y="140.08" class="st31" width="40.01" height="70.99"/>
</g>
<g>
	<g>
		<polygon class="st0" points="214.04,231.7 159.15,231.7 147.92,252.59 225.27,252.59 		"/>
		<g>
			<polygon class="st5" points="155.94,237.67 154.34,240.65 218.85,240.65 217.24,237.67 			"/>
			<polygon class="st5" points="215.64,234.68 214.04,231.7 159.15,231.7 157.55,234.68 			"/>
			<polygon class="st5" points="149.53,249.6 147.92,252.59 225.27,252.59 223.66,249.6 			"/>
			<polygon class="st5" points="222.06,246.62 220.45,243.63 152.74,243.63 151.13,246.62 			"/>
		</g>
	</g>
	<g>
		<rect x="147.92" y="293.81" class="st32" width="77.34" height="40.99"/>
		<rect x="147.92" y="258.26" class="st32" width="77.34" height="29.88"/>
		<rect x="147.96" y="258.26" class="st33" width="77.27" height="1.91"/>
		<rect x="147.96" y="293.81" class="st33" width="77.27" height="1.91"/>
	</g>
	<rect x="143.33" y="288.14" class="st5" width="86.53" height="5.67"/>
	<rect x="143.33" y="290.98" class="st0" width="86.53" height="2.84"/>
	<rect x="143.33" y="252.59" class="st5" width="86.53" height="5.67"/>
	<rect x="143.33" y="255.43" class="st0" width="86.53" height="2.84"/>
	<g>
		<g>
			<rect x="153.82" y="262.8" class="st24" width="15.22" height="20.6"/>
			<g>
				<path class="st5" d="M171.46,283.96H151.4c-0.31,0-0.56-0.25-0.56-0.56s0.25-0.56,0.56-0.56h20.05c0.31,0,0.56,0.25,0.56,0.56
					S171.77,283.96,171.46,283.96z"/>
			</g>
		</g>
		<g>
			<rect x="178.98" y="262.8" class="st24" width="15.22" height="20.6"/>
			<g>
				<path class="st5" d="M196.62,283.96h-20.05c-0.31,0-0.56-0.25-0.56-0.56s0.25-0.56,0.56-0.56h20.05c0.31,0,0.56,0.25,0.56,0.56
					S196.93,283.96,196.62,283.96z"/>
			</g>
		</g>
		<g>
			<rect x="204.15" y="262.8" class="st24" width="15.22" height="20.6"/>
			<g>
				<path class="st5" d="M221.79,283.96h-20.05c-0.31,0-0.56-0.25-0.56-0.56s0.25-0.56,0.56-0.56h20.05c0.31,0,0.56,0.25,0.56,0.56
					S222.1,283.96,221.79,283.96z"/>
			</g>
		</g>
		<g>
			<g>
				<rect x="153.82" y="299.81" class="st5" width="17.78" height="30.59"/>
			</g>
			<g>
				<rect x="151.4" y="330.4" class="st5" width="22.61" height="4.4"/>
			</g>
		</g>
		<g>
			<rect x="178.98" y="299.81" class="st24" width="15.22" height="20.6"/>
			<g>
				<path class="st5" d="M196.62,320.97h-20.05c-0.31,0-0.56-0.25-0.56-0.56s0.25-0.56,0.56-0.56h20.05c0.31,0,0.56,0.25,0.56,0.56
					S196.93,320.97,196.62,320.97z"/>
			</g>
		</g>
		<g>
			<rect x="204.15" y="299.81" class="st24" width="15.22" height="20.6"/>
			<g>
				<path class="st5" d="M221.79,320.97h-20.05c-0.31,0-0.56-0.25-0.56-0.56s0.25-0.56,0.56-0.56h20.05c0.31,0,0.56,0.25,0.56,0.56
					S222.1,320.97,221.79,320.97z"/>
			</g>
		</g>
	</g>
</g>
<g>
	<g>
		<g>
			<polygon class="st5" points="413.38,169.75 344.52,169.75 344.52,153.81 413.38,162.34 			"/>
		</g>
		<rect x="344.52" y="168.2" class="st34" width="68.86" height="1.56"/>
	</g>
	<rect x="336.29" y="169.75" class="st32" width="85.33" height="28.13"/>
	<g>
		<rect x="331.75" y="197.75" class="st5" width="94.42" height="6.23"/>
		<rect x="331.75" y="200.87" class="st30" width="94.42" height="3.11"/>
	</g>
	<g>
		<rect x="343.65" y="177.46" class="st35" width="70.61" height="12.72"/>
		<g>
			<path class="st5" d="M415.58,190.74h-73.25c-0.31,0-0.56-0.25-0.56-0.56s0.25-0.56,0.56-0.56h73.25c0.31,0,0.56,0.25,0.56,0.56
				S415.89,190.74,415.58,190.74z"/>
		</g>
	</g>
	<g>
		<rect x="336.29" y="203.98" class="st32" width="85.33" height="28.13"/>
		<rect x="336.29" y="203.98" class="st36" width="85.33" height="1.91"/>
	</g>
	<g>
		<rect x="331.75" y="231.98" class="st5" width="94.42" height="6.23"/>
		<rect x="331.75" y="235.1" class="st30" width="94.42" height="3.11"/>
	</g>
	<g>
		<rect x="343.65" y="211.69" class="st35" width="70.61" height="12.72"/>
		<g>
			<path class="st5" d="M415.58,224.97h-73.25c-0.31,0-0.56-0.25-0.56-0.56s0.25-0.56,0.56-0.56h73.25c0.31,0,0.56,0.25,0.56,0.56
				S415.89,224.97,415.58,224.97z"/>
		</g>
	</g>
	<g>
		<rect x="336.29" y="238.21" class="st32" width="85.33" height="28.13"/>
		<rect x="336.29" y="238.21" class="st36" width="85.33" height="1.91"/>
	</g>
	<g>
		<rect x="343.65" y="245.92" class="st35" width="70.61" height="12.72"/>
		<g>
			<path class="st5" d="M415.58,259.2h-73.25c-0.31,0-0.56-0.25-0.56-0.56s0.25-0.56,0.56-0.56h73.25c0.31,0,0.56,0.25,0.56,0.56
				S415.89,259.2,415.58,259.2z"/>
		</g>
	</g>
	<g>
		<rect x="336.29" y="272.44" class="st32" width="85.33" height="28.13"/>
		<rect x="336.29" y="272.44" class="st36" width="85.33" height="1.91"/>
	</g>
	<g>
		<rect x="331.75" y="300.44" class="st5" width="94.42" height="6.23"/>
		<rect x="331.75" y="303.56" class="st30" width="94.42" height="3.11"/>
	</g>
	<g>
		<rect x="343.65" y="280.15" class="st35" width="70.61" height="12.72"/>
		<line class="st37" x1="342.33" y1="292.87" x2="415.58" y2="292.87"/>
	</g>
	<g>
		<rect x="336.29" y="306.67" class="st32" width="85.33" height="28.13"/>
		<rect x="336.29" y="306.67" class="st36" width="85.33" height="1.91"/>
	</g>
	<g>
		<rect x="344.77" y="314.38" class="st35" width="40.55" height="12.72"/>
		<line class="st37" x1="342.33" y1="327.1" x2="387.77" y2="327.1"/>
	</g>
	<g>
		<rect x="397.14" y="310.98" class="st35" width="13.55" height="20.41"/>
		<rect x="393.57" y="331.39" class="st38" width="20.69" height="3.28"/>
	</g>
	<g>
		<rect x="331.75" y="266.21" class="st5" width="94.42" height="6.23"/>
		<rect x="331.75" y="269.33" class="st30" width="94.42" height="3.11"/>
	</g>
</g>
<g>
	<g>
		<g>
			<path class="st5" d="M346.12,324.57V97.57c0-6.08-4.93-11.02-11.02-11.02H230.08c-6.08,0-11.02,4.93-11.02,11.02v226.99
				c0,6.08,4.93,11.02,11.02,11.02h105.03C341.19,335.58,346.12,330.65,346.12,324.57z"/>
		</g>
	</g>
</g>
<g>
	<g>
		<path class="st0" d="M336.88,324.57V97.57c0-6.08-4.93-11.02-11.02-11.02H220.84c-6.08,0-11.02,4.93-11.02,11.02v226.99
			c0,6.08,4.93,11.02,11.02,11.02h105.03C331.95,335.58,336.88,330.65,336.88,324.57z"/>
	</g>
</g>
<g>
	<defs>
		<path id="SVGID_1_" d="M333.18,320.61V101.54c0-5.8-4.7-10.5-10.5-10.5h-98.67c-5.8,0-10.5,4.7-10.5,10.5v219.07
			c0,5.8,4.7,10.5,10.5,10.5h98.67C328.48,331.1,333.18,326.4,333.18,320.61z"/>
	</defs>
	<clipPath id="SVGID_2_">
		<use xlink:href="#SVGID_1_"  style="overflow:visible;"/>
	</clipPath>
	<g class="st39">
		<path class="st40" d="M221.91,91.04h102.87c5.26,0,9.53,5.07,9.53,11.33v216.55c0,6.26-4.27,11.33-9.53,11.33H222.61
			c-5.26,0-9.53-5.07-9.53-11.33V102.37C213.08,96.11,216.65,91.04,221.91,91.04z"/>
	</g>
	<path class="st41" d="M241.77,158.71h-34.19v-29.55h34.19V158.71z M241.77,226.56h-34.19v18.67h34.19V226.56z M241.77,253.86
		h-34.19v18.67h34.19V253.86z M241.77,281.16h-34.19v18.67h34.19V281.16z M241.77,167.34h-34.19v50.59h34.19V167.34z M305.82,129.16
		H250.4v29.55h55.42V129.16z M250.4,167.34v40.53h39.34v29.86h47.81v-29.86V197.2v-29.86H250.4z M337.55,316.75v-40.53h-39.34
		v-29.86H250.4v29.86v10.67v29.86H337.55z M369.88,129.16h-55.42v29.55h55.42V129.16z M281.38,214.06H250.4v23.67h30.98V214.06z
		 M337.58,246.36H306.6v23.67h30.98V246.36z"/>
	<g class="st39">
		<g>
			<circle class="st8" cx="312.96" cy="258.81" r="6.44"/>
			<g>
				<g>
					<path class="st0" d="M312.96,250.29c-4.64,0-8.4,3.76-8.4,8.4c0,5.23,4.63,11.03,7.01,13.67c0.75,0.83,2.03,0.83,2.78,0
						c2.39-2.63,7.01-8.39,7.01-13.68C321.36,254.05,317.6,250.29,312.96,250.29z M312.96,264.78c-3.29,0-5.96-2.67-5.96-5.96
						c0-3.29,2.67-5.96,5.96-5.96c3.29,0,5.96,2.67,5.96,5.96C318.92,262.11,316.25,264.78,312.96,264.78z"/>
				</g>
			</g>
			<g>
				<polygon class="st0" points="312.96,255.5 309.07,258.64 310.11,258.64 310.11,262.12 311.98,262.12 311.98,259.66 
					313.94,259.66 313.94,262.11 315.81,262.11 315.81,258.64 316.85,258.64 				"/>
			</g>
		</g>
	</g>
	<g class="st39">
		<g>
			<circle class="st8" cx="225.33" cy="281.14" r="6.44"/>
			<g>
				<g>
					<path class="st0" d="M225.33,272.62c-4.64,0-8.4,3.76-8.4,8.4c0,5.23,4.63,11.03,7.01,13.67c0.75,0.83,2.03,0.83,2.78,0
						c2.39-2.63,7.01-8.39,7.01-13.68C233.73,276.38,229.97,272.62,225.33,272.62z M225.33,287.11c-3.29,0-5.96-2.67-5.96-5.96
						c0-3.29,2.67-5.96,5.96-5.96c3.29,0,5.96,2.67,5.96,5.96C231.29,284.44,228.62,287.11,225.33,287.11z"/>
				</g>
			</g>
			<g>
				<polygon class="st0" points="225.33,277.83 221.44,280.97 222.48,280.97 222.48,284.45 224.35,284.45 224.35,281.99 
					226.31,281.99 226.31,284.44 228.18,284.44 228.18,280.97 229.22,280.97 				"/>
			</g>
		</g>
	</g>
	<g class="st39">
		<g>
			<circle class="st8" cx="229.94" cy="141.04" r="6.44"/>
			<g>
				<g>
					<path class="st0" d="M229.94,132.52c-4.64,0-8.4,3.76-8.4,8.4c0,5.23,4.63,11.03,7.01,13.67c0.75,0.83,2.03,0.83,2.78,0
						c2.39-2.63,7.01-8.39,7.01-13.68C238.34,136.28,234.58,132.52,229.94,132.52z M229.94,147.01c-3.29,0-5.96-2.67-5.96-5.96
						c0-3.29,2.67-5.96,5.96-5.96s5.96,2.67,5.96,5.96C235.9,144.34,233.23,147.01,229.94,147.01z"/>
				</g>
			</g>
			<g>
				<polygon class="st0" points="229.94,137.73 226.05,140.87 227.09,140.87 227.09,144.35 228.96,144.35 228.96,141.89 
					230.92,141.89 230.92,144.34 232.79,144.34 232.79,140.87 233.83,140.87 				"/>
			</g>
		</g>
	</g>
	<rect x="213.52" y="101.2" class="st42" width="119.67" height="20.49"/>
	<g class="st39">
		<g>
			<rect x="211.06" y="89.06" class="st5" width="124.58" height="14.06"/>
			<circle class="st43" cx="273.35" cy="97.53" r="2.07"/>
			<rect x="211.06" y="314.37" class="st9" width="124.58" height="18.06"/>
		</g>
		<g>
			<line class="st44" x1="262.58" y1="321.92" x2="284.8" y2="321.92"/>
		</g>
	</g>
	<g class="st39">
		<g>
			<path class="st0" d="M323.09,116.65h-24.77c-1.97,0-3.57-1.6-3.57-3.57v-0.79c0-1.97,1.6-3.57,3.57-3.57h24.77
				c1.97,0,3.57,1.6,3.57,3.57v0.79C326.67,115.05,325.07,116.65,323.09,116.65z"/>
			<text transform="matrix(1 0 0 1 301.2754 114.6875)" class="st8 st45 st46">SEARCH</text>
		</g>
		<g>
			<path class="st47" d="M286.6,116.65h-46.35c-2.19,0-3.97-1.78-3.97-3.97l0,0c0-2.19,1.78-3.97,3.97-3.97h46.35
				c2.19,0,3.97,1.78,3.97,3.97l0,0C290.57,114.88,288.79,116.65,286.6,116.65z"/>
			<g>
				<text transform="matrix(1 0 0 1 244.8735 114.6875)" class="st0 st45 st46">•••••••••</text>
			</g>
		</g>
		<g>
			<g>
				<g>
					<g>
						<path class="st0" d="M230.23,109.63h-9.51c-0.14,0-0.25-0.11-0.25-0.25s0.11-0.25,0.25-0.25h9.51c0.14,0,0.25,0.11,0.25,0.25
							S230.37,109.63,230.23,109.63z"/>
					</g>
					<g>
						<path class="st0" d="M230.23,112.88h-9.51c-0.14,0-0.25-0.11-0.25-0.25s0.11-0.25,0.25-0.25h9.51c0.14,0,0.25,0.11,0.25,0.25
							S230.37,112.88,230.23,112.88z"/>
					</g>
					<g>
						<path class="st0" d="M230.23,116.13h-9.51c-0.14,0-0.25-0.11-0.25-0.25s0.11-0.25,0.25-0.25h9.51c0.14,0,0.25,0.11,0.25,0.25
							S230.37,116.13,230.23,116.13z"/>
					</g>
				</g>
				<g>
					<g>
						<circle class="st0" cx="223.34" cy="109.39" r="0.89"/>
					</g>
					<g>
						<path class="st0" d="M228.5,112.68c0,0.49-0.4,0.89-0.89,0.89c-0.49,0-0.89-0.4-0.89-0.89s0.4-0.89,0.89-0.89
							C228.1,111.79,228.5,112.19,228.5,112.68z"/>
					</g>
					<g>
						<path class="st0" d="M225.14,115.98c0,0.49-0.4,0.89-0.89,0.89c-0.49,0-0.89-0.4-0.89-0.89c0-0.49,0.4-0.89,0.89-0.89
							C224.74,115.09,225.14,115.49,225.14,115.98z"/>
					</g>
				</g>
			</g>
		</g>
	</g>
	<g class="st48">
		<polygon class="st8" points="334.23,196.14 334.23,143.97 247.83,331.1 271.92,331.1 		"/>
	</g>
	<path class="st41" d="M355.58,311.14c0.4-0.35,0.76-0.72,1.1-1.11c0.1-0.11,0.19-0.22,0.28-0.33c0.26-0.32,0.51-0.65,0.74-0.99
		c0.06-0.09,0.13-0.18,0.18-0.27c0.27-0.43,0.52-0.87,0.73-1.33c0.04-0.08,0.06-0.15,0.1-0.23c0.18-0.4,0.33-0.8,0.47-1.21
		c0.03-0.1,0.07-0.2,0.1-0.31c0.29-0.98,0.46-2,0.5-3.02c0-0.07,0-0.14,0-0.21c0.01-0.48,0-0.96-0.05-1.44c0-0.04,0-0.08-0.01-0.12
		c-0.06-0.54-0.14-1.07-0.27-1.59c0,0,0,0,0,0l0,0c-0.45-1.87-1.34-3.67-2.69-5.22l-35.78-41.19c-3.44-3.94-8.84-5.14-13.47-3.46
		l-3.71-4.34c0,0,0,0,0,0c9.36-8.12,15.66-19.78,16.7-33.1c2.12-26.94-18-50.49-44.94-52.61c-26.94-2.12-50.49,18-52.61,44.94
		c-2.12,26.94,18,50.49,44.94,52.61c10.51,0.83,20.49-1.74,28.9-6.77c0,0,0,0,0,0l4.16,4.87c-0.23,0.41-0.43,0.84-0.61,1.27l0,0
		c0,0,0,0,0,0c-0.43,1.03-0.7,2.11-0.84,3.21c0,0.03-0.01,0.06-0.01,0.08c-0.12,1.07-0.11,2.16,0.05,3.23
		c0.01,0.07,0.02,0.13,0.03,0.2c0.08,0.46,0.18,0.91,0.31,1.36c0.02,0.08,0.04,0.16,0.07,0.24c0.15,0.5,0.33,0.98,0.55,1.46
		c0.03,0.07,0.07,0.14,0.11,0.21c0.19,0.4,0.4,0.78,0.64,1.16c0.07,0.12,0.15,0.24,0.22,0.35c0.29,0.44,0.61,0.87,0.96,1.27
		l35.79,41.19c1.1,1.26,2.4,2.24,3.82,2.94c1.41,0.7,2.94,1.11,4.49,1.23c1.49,0.12,3-0.05,4.45-0.47
		C352.62,313.19,354.2,312.35,355.58,311.14C355.58,311.14,355.58,311.14,355.58,311.14z M268.35,250.64
		c-23.63-1.86-41.28-22.52-39.42-46.15c1.86-23.63,22.52-41.28,46.15-39.43c23.63,1.86,41.28,22.52,39.42,46.15
		C312.64,234.85,291.98,252.5,268.35,250.64z"/>
</g>
<g>
	<g>
		
			<ellipse transform="matrix(0.6363 -0.7714 0.7714 0.6363 -52.5782 290.7778)" class="st21" cx="282.1" cy="201.15" rx="45.01" ry="45.01"/>
		<path class="st49" d="M284.95,156.23c-24.81-1.57-46.19,17.26-47.77,42.07c-1.57,24.81,17.26,46.19,42.07,47.77
			c24.81,1.57,46.19-17.26,47.77-42.07C328.59,179.19,309.76,157.81,284.95,156.23z M279.52,241.9
			c-22.5-1.43-39.59-20.83-38.16-43.33c1.43-22.5,20.83-39.59,43.33-38.16c22.5,1.43,39.59,20.83,38.16,43.33
			C321.42,226.24,302.02,243.33,279.52,241.9z"/>
		<path class="st24" d="M287.45,164.42c-7.74-0.49-15.06,1.52-21.18,5.32c4.97-2.11,10.5-3.13,16.25-2.77
			c19.77,1.25,34.79,18.3,33.53,38.07c-0.76,12.03-7.38,22.29-16.89,28.21c12.1-5.13,20.93-16.75,21.82-30.76
			C322.24,182.72,307.23,165.67,287.45,164.42z"/>
		<path class="st0" d="M285.2,152.32c-26.97-1.71-50.21,18.76-51.92,45.73c-1.71,26.97,18.76,50.21,45.73,51.92
			c26.97,1.71,50.21-18.76,51.92-45.73C332.64,177.28,312.16,154.03,285.2,152.32z M279.38,243.99
			c-23.66-1.5-41.62-21.89-40.12-45.55c1.5-23.66,21.89-41.62,45.55-40.12c23.66,1.5,41.62,21.89,40.12,45.55
			C323.43,227.53,303.04,245.49,279.38,243.99z"/>
		<path class="st5" d="M284.95,156.23c-24.81-1.57-46.19,17.26-47.77,42.07c-1.57,24.81,17.26,46.19,42.07,47.77
			c24.81,1.57,46.19-17.26,47.77-42.07C328.59,179.19,309.76,157.81,284.95,156.23z M279.38,243.99
			c-23.66-1.5-41.62-21.89-40.12-45.55c1.5-23.66,21.89-41.62,45.55-40.12c23.66,1.5,41.62,21.89,40.12,45.55
			C323.43,227.53,303.04,245.49,279.38,243.99z"/>
		<g>
			<path class="st9" d="M314.72,237.6c-2.15,1.92-4.47,3.65-6.93,5.17l11.85,13.45c0.78,0.89,1.86,1.38,2.96,1.45
				c1.1,0.07,2.23-0.28,3.12-1.07c1.79-1.57,1.96-4.29,0.39-6.08L314.72,237.6z"/>
		</g>
		<path class="st5" d="M314.72,237.6c-2.15,1.92-4.47,3.65-6.93,5.17l1.53,1.74c2.45-1.54,4.76-3.27,6.91-5.2L314.72,237.6z"/>
		<g>
			<path class="st50" d="M350.14,302.26l-36.4-40.64c-4.55-5.05-4.14-12.83,0.91-17.38l0,0c5.05-4.55,12.83-4.14,17.38,0.91l0,0
				l36.4,40.64c4.55,5.05,4.14,12.83-0.91,17.38l0,0c-2.56,2.31-5.83,3.34-9.02,3.14l0,0C355.41,306.11,352.38,304.75,350.14,302.26
				L350.14,302.26z"/>
			<path class="st10" d="M358.32,288.49c3.19,0.2,6.46-0.83,9.02-3.14c0.13-0.12,0.24-0.25,0.37-0.37l-35.68-39.84
				c-4.55-5.05-12.33-5.46-17.38-0.91c-0.13,0.12-0.24,0.25-0.37,0.37l35.69,39.84C352.2,286.94,355.23,288.3,358.32,288.49z"/>
			<path class="st33" d="M368,295.59c-2.56,2.31-5.83,3.34-9.02,3.14c-3.1-0.2-6.12-1.56-8.37-4.04l-36.4-40.64
				c-1.38-1.53-2.3-3.31-2.77-5.18c-1.66,4.21-0.94,9.17,2.29,12.76l36.4,40.64c2.24,2.49,5.27,3.85,8.37,4.04
				c3.19,0.2,6.46-0.83,9.02-3.14c3.52-3.17,4.78-7.91,3.68-12.2C370.52,292.68,369.46,294.27,368,295.59z"/>
		</g>
	</g>
	<g>
		<path class="st0" d="M303.35,218.28h-42.49c-2.27,0-4.12-1.84-4.12-4.12v-26.02c0-2.27,1.84-4.12,4.12-4.12h42.49
			c2.27,0,4.12,1.84,4.12,4.12v26.02C307.46,216.44,305.62,218.28,303.35,218.28z"/>
		<g>
			<path class="st51" d="M266.07,208l0.66,1.63c0.04,0.1,0.13,0.16,0.23,0.17l1.76,0.12c0.24,0.02,0.34,0.32,0.15,0.47l-1.35,1.13
				c-0.08,0.07-0.11,0.17-0.09,0.27l0.43,1.71c0.06,0.23-0.2,0.42-0.4,0.29l-1.49-0.94c-0.09-0.05-0.2-0.05-0.29,0l-1.49,0.94
				c-0.2,0.13-0.46-0.06-0.4-0.29l0.43-1.71c0.03-0.1-0.01-0.21-0.09-0.27l-1.35-1.13c-0.19-0.15-0.09-0.46,0.15-0.47l1.76-0.12
				c0.1-0.01,0.19-0.07,0.23-0.17l0.66-1.63C265.67,207.78,265.98,207.78,266.07,208z M273.71,208l-0.66,1.63
				c-0.04,0.1-0.13,0.16-0.23,0.17l-1.76,0.12c-0.24,0.02-0.34,0.32-0.15,0.47l1.35,1.13c0.08,0.07,0.11,0.17,0.09,0.27l-0.43,1.71
				c-0.06,0.23,0.2,0.42,0.4,0.29l1.49-0.94c0.09-0.05,0.2-0.05,0.29,0l1.49,0.94c0.2,0.13,0.46-0.06,0.4-0.29l-0.43-1.71
				c-0.03-0.1,0.01-0.21,0.09-0.27l1.35-1.13c0.19-0.15,0.09-0.46-0.15-0.47l-1.76-0.12c-0.1-0.01-0.19-0.07-0.23-0.17l-0.66-1.63
				C274.12,207.78,273.8,207.78,273.71,208z M281.85,208l-0.66,1.63c-0.04,0.1-0.13,0.16-0.23,0.17l-1.76,0.12
				c-0.24,0.02-0.34,0.32-0.15,0.47l1.35,1.13c0.08,0.07,0.11,0.17,0.09,0.27l-0.43,1.71c-0.06,0.23,0.2,0.42,0.4,0.29l1.49-0.94
				c0.09-0.05,0.2-0.05,0.29,0l1.49,0.94c0.2,0.13,0.46-0.06,0.4-0.29l-0.43-1.71c-0.03-0.1,0.01-0.21,0.09-0.27l1.35-1.13
				c0.19-0.15,0.09-0.46-0.15-0.47l-1.76-0.12c-0.1-0.01-0.19-0.07-0.23-0.17l-0.66-1.63C282.26,207.78,281.94,207.78,281.85,208z
				 M289.99,208l-0.66,1.63c-0.04,0.1-0.13,0.16-0.23,0.17l-1.76,0.12c-0.24,0.02-0.34,0.32-0.15,0.47l1.35,1.13
				c0.08,0.07,0.11,0.17,0.09,0.27l-0.43,1.71c-0.06,0.23,0.2,0.42,0.4,0.29l1.49-0.94c0.09-0.05,0.2-0.05,0.29,0l1.49,0.94
				c0.2,0.13,0.46-0.06,0.4-0.29l-0.43-1.71c-0.03-0.1,0.01-0.21,0.09-0.27l1.35-1.13c0.19-0.15,0.09-0.46-0.15-0.47l-1.76-0.12
				c-0.1-0.01-0.19-0.07-0.23-0.17l-0.66-1.63C290.4,207.78,290.08,207.78,289.99,208z M298.13,208l-0.66,1.63
				c-0.04,0.1-0.13,0.16-0.23,0.17l-1.76,0.12c-0.24,0.02-0.34,0.32-0.15,0.47l1.35,1.13c0.08,0.07,0.11,0.17,0.09,0.27l-0.43,1.71
				c-0.06,0.23,0.2,0.42,0.4,0.29l1.49-0.94c0.09-0.05,0.2-0.05,0.29,0l1.49,0.94c0.2,0.13,0.46-0.06,0.4-0.29l-0.43-1.71
				c-0.03-0.1,0.01-0.21,0.09-0.27l1.35-1.13c0.19-0.15,0.09-0.46-0.15-0.47l-1.76-0.12c-0.1-0.01-0.19-0.07-0.23-0.17l-0.66-1.63
				C298.53,207.78,298.22,207.78,298.13,208z"/>
			<path class="st50" d="M266.07,208l0.66,1.63c0.04,0.1,0.13,0.16,0.23,0.17l1.76,0.12c0.24,0.02,0.34,0.32,0.15,0.47l-1.35,1.13
				c-0.08,0.07-0.11,0.17-0.09,0.27l0.43,1.71c0.06,0.23-0.2,0.42-0.4,0.29l-1.49-0.94c-0.09-0.05-0.2-0.05-0.29,0l-1.49,0.94
				c-0.2,0.13-0.46-0.06-0.4-0.29l0.43-1.71c0.03-0.1-0.01-0.21-0.09-0.27l-1.35-1.13c-0.19-0.15-0.09-0.46,0.15-0.47l1.76-0.12
				c0.1-0.01,0.19-0.07,0.23-0.17l0.66-1.63C265.67,207.78,265.98,207.78,266.07,208z M273.71,208l-0.66,1.63
				c-0.04,0.1-0.13,0.16-0.23,0.17l-1.76,0.12c-0.24,0.02-0.34,0.32-0.15,0.47l1.35,1.13c0.08,0.07,0.11,0.17,0.09,0.27l-0.43,1.71
				c-0.06,0.23,0.2,0.42,0.4,0.29l1.49-0.94c0.09-0.05,0.2-0.05,0.29,0l1.49,0.94c0.2,0.13,0.46-0.06,0.4-0.29l-0.43-1.71
				c-0.03-0.1,0.01-0.21,0.09-0.27l1.35-1.13c0.19-0.15,0.09-0.46-0.15-0.47l-1.76-0.12c-0.1-0.01-0.19-0.07-0.23-0.17l-0.66-1.63
				C274.12,207.78,273.8,207.78,273.71,208z M281.85,208l-0.66,1.63c-0.04,0.1-0.13,0.16-0.23,0.17l-1.76,0.12
				c-0.24,0.02-0.34,0.32-0.15,0.47l1.35,1.13c0.08,0.07,0.11,0.17,0.09,0.27l-0.43,1.71c-0.06,0.23,0.2,0.42,0.4,0.29l1.49-0.94
				c0.09-0.05,0.2-0.05,0.29,0l1.49,0.94c0.2,0.13,0.46-0.06,0.4-0.29l-0.43-1.71c-0.03-0.1,0.01-0.21,0.09-0.27l1.35-1.13
				c0.19-0.15,0.09-0.46-0.15-0.47l-1.76-0.12c-0.1-0.01-0.19-0.07-0.23-0.17l-0.66-1.63C282.26,207.78,281.94,207.78,281.85,208z
				 M289.99,208l-0.66,1.63c-0.04,0.1-0.13,0.16-0.23,0.17l-1.76,0.12c-0.24,0.02-0.34,0.32-0.15,0.47l1.35,1.13
				c0.08,0.07,0.11,0.17,0.09,0.27l-0.43,1.71c-0.06,0.23,0.2,0.42,0.4,0.29l1.49-0.94c0.09-0.05,0.2-0.05,0.29,0l1.49,0.94
				c0.2,0.13,0.46-0.06,0.4-0.29l-0.43-1.71c-0.03-0.1,0.01-0.21,0.09-0.27l1.35-1.13c0.19-0.15,0.09-0.46-0.15-0.47l-1.76-0.12
				c-0.1-0.01-0.19-0.07-0.23-0.17l-0.66-1.63C290.4,207.78,290.08,207.78,289.99,208z M298.13,208l-0.66,1.63
				c-0.04,0.1-0.13,0.16-0.23,0.17l-1.76,0.12c-0.24,0.02-0.34,0.32-0.15,0.47l1.35,1.13c0.08,0.07,0.11,0.17,0.09,0.27l-0.43,1.71
				c-0.06,0.23,0.2,0.42,0.4,0.29l1.49-0.94c0.09-0.05,0.2-0.05,0.29,0l1.49,0.94c0.2,0.13,0.46-0.06,0.4-0.29l-0.43-1.71
				c-0.03-0.1,0.01-0.21,0.09-0.27l1.35-1.13c0.19-0.15,0.09-0.46-0.15-0.47l-1.76-0.12c-0.1-0.01-0.19-0.07-0.23-0.17l-0.66-1.63
				C298.53,207.78,298.22,207.78,298.13,208z"/>
		</g>
		<g>
			<g>
				<rect x="281.5" y="194.01" class="st8" width="22.16" height="1.36"/>
				<rect x="281.5" y="197.78" class="st8" width="22.16" height="1.36"/>
				<rect x="281.5" y="190.25" class="st8" width="22.16" height="1.36"/>
				<rect x="281.5" y="201.54" class="st8" width="11.52" height="1.36"/>
			</g>
			<polygon class="st8" points="269.03,188.45 260.54,195.29 262.82,195.29 262.82,202.9 266.9,202.88 266.9,197.52 271.16,197.52 
				271.16,202.88 275.24,202.86 275.24,195.29 277.53,195.29 			"/>
		</g>
	</g>
</g>
<line class="st52" x1="109.96" y1="335.68" x2="440.04" y2="335.68"/>
<path class="st0" d="M412.66,57.42c1.63-2.94,1.91-5.69,1.66-7.95c-0.46-4.11-2.99-7.74-6.71-9.57c-6.31-3.1-12.53,0.73-12.53,0.73
	c0.4-14.92-14.52-12.92-14.52-12.92c-17.32,2.8-15.85,13.32-15.85,13.32c-0.87-0.83-1.8-1.44-2.71-1.88
	c-2.42-1.18-5.21-1.35-7.79-0.6c-10.93,3.17-9.88,12.34-9.88,12.34c-12.12-0.67-13.19,10.66-13.19,10.66
	c-0.67,10.66,11.19,11.19,11.19,11.19c0.02,0.11,0.03,0.21,0.05,0.32c1.46,8.89,10.19,14.65,18.89,12.35
	c6.57-1.74,8.63-6.81,8.63-6.81c2.77,3.67,5.61,5.65,8.08,6.7c3.25,1.37,6.94,1.18,10.07-0.43c9.1-4.69,9.43-11.19,9.43-11.19
	c3.33,3.2,9.59,2.26,9.59,2.26c8.28-1.52,9.51-7.31,9.7-8.74c0.03-0.26,0.07-0.51,0.1-0.77C417.9,59.46,412.66,57.42,412.66,57.42z
	 M413.37,69.24c-0.38,0.88-1.01,1.64-1.81,2.17c-2.66,1.76-9.15,4.73-15.17-3.01c-0.25-0.33-0.65-0.53-1.07-0.51
	c-0.7,0.04-1.51,0.7-0.8,3.92c0.02,0.09,0.03,0.18,0.03,0.27c0.01,1.22-0.31,9.83-11.33,11.31c0,0-7.39,0.76-12.2-7.8
	c-0.2-0.36-0.58-0.59-1-0.59h-0.01c-0.45,0-0.86,0.27-1.05,0.68c-0.95,2.16-4.6,8.63-13.72,7.73c0,0-9.99-0.82-10.78-12.41
	c0,0-13.32-0.27-11.59-10.39c0,0,1.86-10.26,13.45-8.13c0,0-2.26-8.66,8.39-12.12c0,0,5.23-1.49,10.15,4.07
	c0.31,0.35,0.81,0.46,1.24,0.28l0.2-0.09c0.5-0.22,0.76-0.77,0.62-1.3c-0.74-2.6-1.7-10.11,10.43-12.95c0,0,9.72-2.8,14.12,3.06
	c0,0,2.48,2.84,0.99,9.18c-0.15,0.62,0.32,1.21,0.96,1.21c0.2,0,0.4-0.06,0.56-0.18c1.41-0.99,8.7-5.64,14.81-0.49
	c0,0,7.15,7.65,0.03,13.7c-0.41,0.35-0.58,0.91-0.42,1.43l0.01,0.02c0.15,0.48,0.55,0.84,1.05,0.93
	C411.54,59.62,416.74,61.35,413.37,69.24z"/>
</svg>
