<?xml version="1.0" encoding="utf-8"?>
<!-- Generator: Adobe Illustrator 24.3.0, SVG Export Plug-In . SVG Version: 6.00 Build 0)  -->
<svg version="1.1" id="Layer_1" xmlns="http://www.w3.org/2000/svg" xmlns:xlink="http://www.w3.org/1999/xlink" x="0px" y="0px"
	 viewBox="0 0 550 370" style="enable-background:new 0 0 550 370;" xml:space="preserve">
<style type="text/css">
	.st0{fill:url(#SVGID_1_);}
	.st1{fill:#42DBB2;}
	.st2{fill:none;stroke:#28BCAE;stroke-width:1.2008;stroke-linecap:round;stroke-linejoin:round;stroke-miterlimit:10;}
	.st3{fill:#A8FFE3;}
	.st4{fill:none;stroke:#8AE0D6;stroke-width:1.2008;stroke-linecap:round;stroke-linejoin:round;stroke-miterlimit:10;}
	.st5{fill:none;stroke:#8AE0D6;stroke-width:1.1299;stroke-linecap:round;stroke-linejoin:round;stroke-miterlimit:10;}
	.st6{fill:#0A2832;}
	.st7{fill:#00D5FC;}
	.st8{opacity:0.4;fill:#FAFFFF;}
	.st9{fill:#FFF8D3;}
	.st10{fill:#033557;}
	.st11{fill:#079FF3;}
	.st12{fill:#AC92F9;}
	.st13{fill:#008ECC;}
	.st14{fill:#FFE58E;}
	.st15{fill:#FFD125;}
	.st16{fill:#FF9966;}
	.st17{fill:#F38457;}
	.st18{fill:#3F3F3F;}
	.st19{clip-path:url(#SVGID_3_);fill:#033557;}
	.st20{clip-path:url(#SVGID_5_);fill:#033557;}
	.st21{fill:#315272;}
	.st22{fill:#BADFFA;}
	.st23{fill:#FDFCF7;}
	.st24{fill:#00273D;}
	.st25{opacity:0.2;fill:#1D4461;}
	.st26{fill:#C3D5E8;}
	.st27{fill:#F7FCFD;}
	.st28{fill:#FFFFFF;}
</style>
<g>
	<g>
		<g>
			<g>
				
					<rect x="149.4" y="186.96" transform="matrix(-1 -4.164192e-11 4.164192e-11 -1 357.165 502.9525)" class="st10" width="58.36" height="129.03"/>
				
					<rect x="145.04" y="181.18" transform="matrix(-1 -4.162283e-11 4.162283e-11 -1 357.2484 369.6507)" class="st10" width="67.17" height="7.3"/>
				<g>
					<g>
						<g>
							
								<rect x="189.45" y="192.66" transform="matrix(-1 -4.170898e-11 4.170898e-11 -1 393.5626 411.0171)" class="st21" width="14.65" height="25.69"/>
							<g>
								
									<rect x="190.78" y="194.04" transform="matrix(-1 -4.142654e-11 4.142654e-11 -1 393.6255 411.0576)" class="st22" width="12.07" height="22.97"/>
								<g>
									<polygon class="st23" points="199.62,194.04 202.85,197.23 202.85,199.56 197.26,194.04 									"/>
									<polygon class="st23" points="190.78,204.02 202.85,215.92 202.85,217.01 202.29,217.01 190.78,205.67 									"/>
									<polygon class="st23" points="196.21,194.04 202.85,200.58 202.85,203.71 193.04,194.04 									"/>
									<polygon class="st23" points="190.78,209.99 197.9,217.01 194.73,217.01 190.78,213.12 									"/>
									<polygon class="st23" points="190.78,198.93 202.85,210.82 202.85,214.56 190.78,202.66 									"/>
								</g>
							</g>
						</g>
						<g>
							
								<rect x="171.26" y="192.66" transform="matrix(-1 -4.170898e-11 4.170898e-11 -1 357.17 411.0171)" class="st21" width="14.65" height="25.69"/>
							<g>
								
									<rect x="172.58" y="194.04" transform="matrix(-1 -4.142654e-11 4.142654e-11 -1 357.2329 411.0576)" class="st22" width="12.07" height="22.97"/>
								<g>
									<polygon class="st23" points="181.42,194.04 184.65,197.23 184.65,199.56 179.06,194.04 									"/>
									<polygon class="st23" points="172.58,204.02 184.65,215.92 184.65,217.01 184.09,217.01 172.58,205.67 									"/>
									<polygon class="st23" points="178.02,194.04 184.65,200.58 184.65,203.71 174.85,194.04 									"/>
									<polygon class="st23" points="172.58,209.99 179.7,217.01 176.53,217.01 172.58,213.12 									"/>
									<polygon class="st23" points="172.58,198.93 184.65,210.82 184.65,214.56 172.58,202.66 									"/>
								</g>
							</g>
						</g>
						<g>
							
								<rect x="153.06" y="192.66" transform="matrix(-1 -4.220547e-11 4.220547e-11 -1 320.7774 411.0171)" class="st21" width="14.65" height="25.69"/>
							<g>
								
									<rect x="154.38" y="194.04" transform="matrix(-1 -4.142654e-11 4.142654e-11 -1 320.8403 411.0576)" class="st22" width="12.07" height="22.97"/>
								<g>
									<polygon class="st23" points="163.22,194.04 166.46,197.23 166.46,199.56 160.86,194.04 									"/>
									<polygon class="st23" points="154.38,204.02 166.46,215.92 166.46,217.01 165.89,217.01 154.38,205.67 									"/>
									<polygon class="st23" points="159.82,194.04 166.46,200.58 166.46,203.71 156.65,194.04 									"/>
									<polygon class="st23" points="154.38,209.99 161.51,217.01 158.34,217.01 154.38,213.12 									"/>
									<polygon class="st23" points="154.38,198.93 166.46,210.82 166.46,214.56 154.38,202.66 									"/>
								</g>
							</g>
						</g>
					</g>
					<g>
						<g>
							
								<rect x="189.46" y="222.87" transform="matrix(-1 -4.158508e-11 4.158508e-11 -1 393.5794 471.4272)" class="st21" width="14.65" height="25.69"/>
							<g>
								
									<rect x="190.78" y="224.25" transform="matrix(-1 -4.233026e-11 4.233026e-11 -1 393.6423 471.4678)" class="st22" width="12.07" height="22.97"/>
								<g>
									<polygon class="st23" points="199.62,224.25 202.86,227.44 202.86,229.76 197.26,224.25 									"/>
									<polygon class="st23" points="190.78,234.23 202.86,246.13 202.86,247.22 202.29,247.22 190.78,235.88 									"/>
									<polygon class="st23" points="196.22,224.25 202.86,230.79 202.86,233.91 193.05,224.25 									"/>
									<polygon class="st23" points="190.78,240.2 197.91,247.22 194.74,247.22 190.78,243.32 									"/>
									<polygon class="st23" points="190.78,229.13 202.86,241.03 202.86,244.76 190.78,232.86 									"/>
								</g>
							</g>
						</g>
						<g>
							
								<rect x="171.27" y="222.87" transform="matrix(-1 -4.158508e-11 4.158508e-11 -1 357.1868 471.4272)" class="st21" width="14.65" height="25.69"/>
							<g>
								
									<rect x="172.59" y="224.25" transform="matrix(-1 -4.142654e-11 4.142654e-11 -1 357.2497 471.4678)" class="st22" width="12.07" height="22.97"/>
								<g>
									<polygon class="st23" points="181.43,224.25 184.66,227.44 184.66,229.76 179.07,224.25 									"/>
									<polygon class="st23" points="172.59,234.23 184.66,246.13 184.66,247.22 184.1,247.22 172.59,235.88 									"/>
									<polygon class="st23" points="178.03,224.25 184.66,230.79 184.66,233.91 174.85,224.25 									"/>
									<polygon class="st23" points="172.59,240.2 179.71,247.22 176.54,247.22 172.59,243.32 									"/>
									<polygon class="st23" points="172.59,229.13 184.66,241.03 184.66,244.76 172.59,232.86 									"/>
								</g>
							</g>
						</g>
						<g>
							
								<rect x="153.07" y="222.87" transform="matrix(-1 -4.158508e-11 4.158508e-11 -1 320.7942 471.4272)" class="st21" width="14.65" height="25.69"/>
							<g>
								
									<rect x="154.39" y="224.25" transform="matrix(-1 -4.142654e-11 4.142654e-11 -1 320.8571 471.4678)" class="st22" width="12.07" height="22.97"/>
								<g>
									<polygon class="st23" points="163.23,224.25 166.47,227.44 166.47,229.76 160.87,224.25 									"/>
									<polygon class="st23" points="154.39,234.23 166.47,246.13 166.47,247.22 165.9,247.22 154.39,235.88 									"/>
									<polygon class="st23" points="159.83,224.25 166.47,230.79 166.47,233.91 156.66,224.25 									"/>
									<polygon class="st23" points="154.39,240.2 161.52,247.22 158.34,247.22 154.39,243.32 									"/>
									<polygon class="st23" points="154.39,229.13 166.47,241.03 166.47,244.76 154.39,232.86 									"/>
								</g>
							</g>
						</g>
					</g>
					<g>
						<g>
							
								<rect x="189.46" y="253.07" transform="matrix(-1 -4.096424e-11 4.096424e-11 -1 393.5736 531.8373)" class="st21" width="14.65" height="25.69"/>
							<g>
								
									<rect x="190.78" y="254.45" transform="matrix(-1 -4.217971e-11 4.217971e-11 -1 393.6365 531.8779)" class="st22" width="12.07" height="22.97"/>
								<g>
									<polygon class="st23" points="199.62,254.45 202.86,257.64 202.86,259.97 197.26,254.45 									"/>
									<polygon class="st23" points="190.78,264.43 202.86,276.33 202.86,277.42 202.29,277.42 190.78,266.08 									"/>
									<polygon class="st23" points="196.22,254.45 202.86,260.99 202.86,264.12 193.05,254.45 									"/>
									<polygon class="st23" points="190.78,270.4 197.91,277.42 194.73,277.42 190.78,273.53 									"/>
									<polygon class="st23" points="190.78,259.34 202.86,271.23 202.86,274.97 190.78,263.07 									"/>
								</g>
							</g>
						</g>
						<g>
							
								<rect x="171.26" y="253.07" transform="matrix(-1 -4.170898e-11 4.170898e-11 -1 357.181 531.8373)" class="st21" width="14.65" height="25.69"/>
							<g>
								
									<rect x="172.58" y="254.45" transform="matrix(-1 -4.127599e-11 4.127599e-11 -1 357.2439 531.8779)" class="st22" width="12.07" height="22.97"/>
								<g>
									<polygon class="st23" points="181.42,254.45 184.66,257.64 184.66,259.97 179.06,254.45 									"/>
									<polygon class="st23" points="172.58,264.43 184.66,276.33 184.66,277.42 184.1,277.42 172.58,266.08 									"/>
									<polygon class="st23" points="178.02,254.45 184.66,260.99 184.66,264.12 174.85,254.45 									"/>
									<polygon class="st23" points="172.58,270.4 179.71,277.42 176.54,277.42 172.58,273.53 									"/>
									<polygon class="st23" points="172.58,259.34 184.66,271.23 184.66,274.97 172.58,263.07 									"/>
								</g>
							</g>
						</g>
						<g>
							
								<rect x="153.07" y="253.07" transform="matrix(-1 -4.170898e-11 4.170898e-11 -1 320.7885 531.8373)" class="st21" width="14.65" height="25.69"/>
							<g>
								
									<rect x="154.39" y="254.45" transform="matrix(-1 -4.142654e-11 4.142654e-11 -1 320.8513 531.8779)" class="st22" width="12.07" height="22.97"/>
								<g>
									<polygon class="st23" points="163.23,254.45 166.46,257.64 166.46,259.97 160.87,254.45 									"/>
									<polygon class="st23" points="154.39,264.43 166.46,276.33 166.46,277.42 165.9,277.42 154.39,266.08 									"/>
									<polygon class="st23" points="159.83,254.45 166.46,260.99 166.46,264.12 156.66,254.45 									"/>
									<polygon class="st23" points="154.39,270.4 161.51,277.42 158.34,277.42 154.39,273.53 									"/>
									<polygon class="st23" points="154.39,259.34 166.46,271.23 166.46,274.97 154.39,263.07 									"/>
								</g>
							</g>
						</g>
					</g>
					<g>
						<g>
							
								<rect x="189.46" y="283.3" transform="matrix(-1 -4.170898e-11 4.170898e-11 -1 393.5785 592.282)" class="st21" width="14.65" height="25.69"/>
							<g>
								
									<rect x="190.78" y="284.68" transform="matrix(-1 -4.142654e-11 4.142654e-11 -1 393.6414 592.3226)" class="st22" width="12.07" height="22.97"/>
								<g>
									<polygon class="st23" points="199.62,284.68 202.86,287.86 202.86,290.19 197.26,284.68 									"/>
									<polygon class="st23" points="190.78,294.66 202.86,306.55 202.86,307.65 202.29,307.65 190.78,296.3 									"/>
									<polygon class="st23" points="196.22,284.68 202.86,291.22 202.86,294.34 193.05,284.68 									"/>
									<polygon class="st23" points="190.78,300.63 197.91,307.65 194.74,307.65 190.78,303.75 									"/>
									<polygon class="st23" points="190.78,289.56 202.86,301.46 202.86,305.19 190.78,293.29 									"/>
								</g>
							</g>
						</g>
						<g>
							
								<rect x="171.27" y="283.3" transform="matrix(-1 -4.158508e-11 4.158508e-11 -1 357.1859 592.282)" class="st21" width="14.65" height="25.69"/>
							<g>
								
									<rect x="172.59" y="284.68" transform="matrix(-1 -4.142654e-11 4.142654e-11 -1 357.2488 592.3226)" class="st22" width="12.07" height="22.97"/>
								<g>
									<polygon class="st23" points="181.43,284.68 184.66,287.86 184.66,290.19 179.07,284.68 									"/>
									<polygon class="st23" points="172.59,294.66 184.66,306.55 184.66,307.65 184.1,307.65 172.59,296.3 									"/>
									<polygon class="st23" points="178.03,284.68 184.66,291.22 184.66,294.34 174.85,284.68 									"/>
									<polygon class="st23" points="172.59,300.63 179.71,307.65 176.54,307.65 172.59,303.75 									"/>
									<polygon class="st23" points="172.59,289.56 184.66,301.46 184.66,305.19 172.59,293.29 									"/>
								</g>
							</g>
						</g>
						<g>
							
								<rect x="153.07" y="283.3" transform="matrix(-1 -4.158508e-11 4.158508e-11 -1 320.7933 592.282)" class="st21" width="14.65" height="25.69"/>
							<g>
								
									<rect x="154.39" y="284.68" transform="matrix(-1 -4.142654e-11 4.142654e-11 -1 320.8562 592.3226)" class="st22" width="12.07" height="22.97"/>
								<g>
									<polygon class="st23" points="163.23,284.68 166.47,287.86 166.47,290.19 160.87,284.68 									"/>
									<polygon class="st23" points="154.39,294.66 166.47,306.55 166.47,307.65 165.9,307.65 154.39,296.3 									"/>
									<polygon class="st23" points="159.83,284.68 166.47,291.22 166.47,294.34 156.66,284.68 									"/>
									<polygon class="st23" points="154.39,300.63 161.52,307.65 158.34,307.65 154.39,303.75 									"/>
									<polygon class="st23" points="154.39,289.56 166.47,301.46 166.47,305.19 154.39,293.29 									"/>
								</g>
							</g>
						</g>
					</g>
				</g>
			</g>
			<g>
				
					<rect x="339.73" y="157.35" transform="matrix(-1 -4.492729e-11 4.492729e-11 -1 739.5803 473.2793)" class="st11" width="60.12" height="158.58"/>
				
					<rect x="335.23" y="151.56" transform="matrix(-1 -4.486956e-11 4.486956e-11 -1 739.6661 311.1431)" class="st10" width="69.2" height="8.02"/>
				<g>
					
						<rect x="338.16" y="175.22" transform="matrix(-1 -4.490775e-11 4.490775e-11 -1 739.6257 352.808)" class="st10" width="63.31" height="2.36"/>
					<g>
						<g>
							
								<rect x="371.72" y="162.24" transform="matrix(-1 -4.483626e-11 4.483626e-11 -1 767.5881 335.8995)" class="st10" width="24.14" height="11.42"/>
							<g>
								
									<rect x="373.03" y="163.42" transform="matrix(-1 -4.488111e-11 4.488111e-11 -1 767.6669 335.8299)" class="st22" width="21.6" height="8.98"/>
								<g>
									<g>
										<g>
											<polygon class="st23" points="391.91,163.42 394.63,166.35 394.63,168.46 389.95,163.42 											"/>
										</g>
										<g>
											<polygon class="st23" points="376.3,163.42 384.65,172.41 382.69,172.41 374.34,163.42 											"/>
										</g>
										<g>
											<polygon class="st23" points="373.03,163.42 373.27,163.42 381.62,172.41 378.71,172.41 373.03,166.3 											"/>
										</g>
										<g>
											<polygon class="st23" points="384.44,163.42 392.79,172.41 390.83,172.41 382.48,163.42 											"/>
										</g>
										<g>
											<polygon class="st23" points="388.97,163.42 394.63,169.51 394.63,172.41 393.81,172.41 385.46,163.42 											"/>
										</g>
									</g>
								</g>
							</g>
						</g>
						<g>
							
								<rect x="343.74" y="162.24" transform="matrix(-1 -4.498725e-11 4.498725e-11 -1 711.6212 335.8995)" class="st10" width="24.14" height="11.42"/>
							<g>
								
									<rect x="345.05" y="163.42" transform="matrix(-1 -4.488111e-11 4.488111e-11 -1 711.6999 335.8299)" class="st22" width="21.6" height="8.98"/>
								<g>
									<g>
										<g>
											<polygon class="st23" points="363.93,163.42 366.65,166.35 366.65,168.46 361.97,163.42 											"/>
										</g>
										<g>
											<polygon class="st23" points="348.32,163.42 356.67,172.41 354.71,172.41 346.36,163.42 											"/>
										</g>
										<g>
											<polygon class="st23" points="345.05,163.42 345.28,163.42 353.64,172.41 350.73,172.41 345.05,166.3 											"/>
										</g>
										<g>
											<polygon class="st23" points="356.46,163.42 364.81,172.41 362.85,172.41 354.5,163.42 											"/>
										</g>
										<g>
											<polygon class="st23" points="360.99,163.42 366.65,169.51 366.65,172.41 365.83,172.41 357.48,163.42 											"/>
										</g>
									</g>
								</g>
							</g>
						</g>
					</g>
				</g>
				<g>
					
						<rect x="338.22" y="193.27" transform="matrix(-1 -4.490775e-11 4.490775e-11 -1 739.7518 388.8983)" class="st10" width="63.31" height="2.36"/>
					<g>
						<g>
							
								<rect x="371.79" y="180.29" transform="matrix(-1 -4.483626e-11 4.483626e-11 -1 767.7142 371.9898)" class="st10" width="24.14" height="11.42"/>
							<g>
								
									<rect x="373.1" y="181.47" transform="matrix(-1 -4.488111e-11 4.488111e-11 -1 767.793 371.9202)" class="st22" width="21.6" height="8.98"/>
								<g>
									<g>
										<g>
											<polygon class="st23" points="391.97,181.47 394.7,184.4 394.7,186.51 390.02,181.47 											"/>
										</g>
										<g>
											<polygon class="st23" points="376.36,181.47 384.71,190.45 382.76,190.45 374.41,181.47 											"/>
										</g>
										<g>
											<polygon class="st23" points="373.1,181.47 373.33,181.47 381.68,190.45 378.78,190.45 373.1,184.34 											"/>
										</g>
										<g>
											<polygon class="st23" points="384.5,181.47 392.85,190.45 390.9,190.45 382.54,181.47 											"/>
										</g>
										<g>
											<polygon class="st23" points="389.04,181.47 394.7,187.56 394.7,190.45 393.88,190.45 385.52,181.47 											"/>
										</g>
									</g>
								</g>
							</g>
						</g>
						<g>
							
								<rect x="343.8" y="180.29" transform="matrix(-1 -4.491175e-11 4.491175e-11 -1 711.7472 371.9898)" class="st10" width="24.14" height="11.42"/>
							<g>
								
									<rect x="345.11" y="181.47" transform="matrix(-1 -4.488111e-11 4.488111e-11 -1 711.826 371.9202)" class="st22" width="21.6" height="8.98"/>
								<g>
									<g>
										<g>
											<polygon class="st23" points="363.99,181.47 366.71,184.4 366.71,186.51 362.03,181.47 											"/>
										</g>
										<g>
											<polygon class="st23" points="348.38,181.47 356.73,190.45 354.77,190.45 346.42,181.47 											"/>
										</g>
										<g>
											<polygon class="st23" points="345.11,181.47 345.35,181.47 353.7,190.45 350.79,190.45 345.11,184.34 											"/>
										</g>
										<g>
											<polygon class="st23" points="356.52,181.47 364.87,190.45 362.91,190.45 354.56,181.47 											"/>
										</g>
										<g>
											<polygon class="st23" points="361.05,181.47 366.71,187.56 366.71,190.45 365.89,190.45 357.54,181.47 											"/>
										</g>
									</g>
								</g>
							</g>
						</g>
					</g>
				</g>
				<g>
					
						<rect x="338.28" y="211.31" transform="matrix(-1 -4.485047e-11 4.485047e-11 -1 739.8779 424.9886)" class="st10" width="63.31" height="2.36"/>
					<g>
						<g>
							
								<rect x="371.85" y="198.33" transform="matrix(-1 -4.513779e-11 4.513779e-11 -1 767.8402 408.0801)" class="st10" width="24.14" height="11.42"/>
							<g>
								
									<rect x="373.16" y="199.51" transform="matrix(-1 -4.488111e-11 4.488111e-11 -1 767.919 408.0105)" class="st22" width="21.6" height="8.98"/>
								<g>
									<g>
										<g>
											<polygon class="st23" points="392.04,199.51 394.76,202.45 394.76,204.55 390.08,199.51 											"/>
										</g>
										<g>
											<polygon class="st23" points="376.43,199.51 384.78,208.5 382.82,208.5 374.47,199.51 											"/>
										</g>
										<g>
											<polygon class="st23" points="373.16,199.51 373.39,199.51 381.74,208.5 378.84,208.5 373.16,202.39 											"/>
										</g>
										<g>
											<polygon class="st23" points="384.57,199.51 392.92,208.5 390.96,208.5 382.61,199.51 											"/>
										</g>
										<g>
											<polygon class="st23" points="389.1,199.51 394.76,205.6 394.76,208.5 393.94,208.5 385.59,199.51 											"/>
										</g>
									</g>
								</g>
							</g>
						</g>
						<g>
							
								<rect x="343.87" y="198.33" transform="matrix(-1 -4.476121e-11 4.476121e-11 -1 711.8732 408.0801)" class="st10" width="24.14" height="11.42"/>
							<g>
								
									<rect x="345.17" y="199.51" transform="matrix(-1 -4.488111e-11 4.488111e-11 -1 711.952 408.0105)" class="st22" width="21.6" height="8.98"/>
								<g>
									<g>
										<g>
											<polygon class="st23" points="364.05,199.51 366.78,202.45 366.78,204.55 362.09,199.51 											"/>
										</g>
										<g>
											<polygon class="st23" points="348.44,199.51 356.79,208.5 354.84,208.5 346.49,199.51 											"/>
										</g>
										<g>
											<polygon class="st23" points="345.17,199.51 345.41,199.51 353.76,208.5 350.85,208.5 345.17,202.39 											"/>
										</g>
										<g>
											<polygon class="st23" points="356.58,199.51 364.93,208.5 362.97,208.5 354.62,199.51 											"/>
										</g>
										<g>
											<polygon class="st23" points="361.12,199.51 366.78,205.6 366.78,208.5 365.95,208.5 357.6,199.51 											"/>
										</g>
									</g>
								</g>
							</g>
						</g>
					</g>
				</g>
				<g>
					
						<rect x="338.35" y="229.36" transform="matrix(-1 -4.487889e-11 4.487889e-11 -1 740.0039 461.0789)" class="st10" width="63.31" height="2.36"/>
					<g>
						<g>
							
								<rect x="371.91" y="216.38" transform="matrix(-1 -4.468571e-11 4.468571e-11 -1 767.9663 444.1704)" class="st10" width="24.14" height="11.42"/>
							<g>
								
									<rect x="373.22" y="217.56" transform="matrix(-1 -4.488111e-11 4.488111e-11 -1 768.045 444.1008)" class="st22" width="21.6" height="8.98"/>
								<g>
									<g>
										<g>
											<polygon class="st23" points="392.1,217.56 394.82,220.49 394.82,222.6 390.14,217.56 											"/>
										</g>
										<g>
											<polygon class="st23" points="376.49,217.56 384.84,226.54 382.88,226.54 374.53,217.56 											"/>
										</g>
										<g>
											<polygon class="st23" points="373.22,217.56 373.46,217.56 381.81,226.54 378.9,226.54 373.22,220.43 											"/>
										</g>
										<g>
											<polygon class="st23" points="384.63,217.56 392.98,226.54 391.02,226.54 382.67,217.56 											"/>
										</g>
										<g>
											<polygon class="st23" points="389.16,217.56 394.82,223.65 394.82,226.54 394,226.54 385.65,217.56 											"/>
										</g>
									</g>
								</g>
							</g>
						</g>
						<g>
							
								<rect x="343.93" y="216.38" transform="matrix(-1 -4.468571e-11 4.468571e-11 -1 711.9993 444.1704)" class="st10" width="24.14" height="11.42"/>
							<g>
								
									<rect x="345.24" y="217.56" transform="matrix(-1 -4.538604e-11 4.538604e-11 -1 712.0781 444.1008)" class="st22" width="21.6" height="8.98"/>
								<g>
									<g>
										<g>
											<polygon class="st23" points="364.12,217.56 366.84,220.49 366.84,222.6 362.16,217.56 											"/>
										</g>
										<g>
											<polygon class="st23" points="348.51,217.56 356.86,226.54 354.9,226.54 346.55,217.56 											"/>
										</g>
										<g>
											<polygon class="st23" points="345.24,217.56 345.47,217.56 353.82,226.54 350.92,226.54 345.24,220.43 											"/>
										</g>
										<g>
											<polygon class="st23" points="356.64,217.56 365,226.54 363.04,226.54 354.69,217.56 											"/>
										</g>
										<g>
											<polygon class="st23" points="361.18,217.56 366.84,223.65 366.84,226.54 366.02,226.54 357.67,217.56 											"/>
										</g>
									</g>
								</g>
							</g>
						</g>
					</g>
				</g>
				<g>
					
						<rect x="338.41" y="247.4" transform="matrix(-1 -4.485047e-11 4.485047e-11 -1 740.1299 497.1693)" class="st10" width="63.31" height="2.36"/>
					<g>
						<g>
							
								<rect x="371.98" y="234.42" transform="matrix(-1 -4.521329e-11 4.521329e-11 -1 768.0923 480.2607)" class="st10" width="24.14" height="11.42"/>
							<g>
								
									<rect x="373.28" y="235.61" transform="matrix(-1 -4.488111e-11 4.488111e-11 -1 768.1711 480.1911)" class="st22" width="21.6" height="8.98"/>
								<g>
									<g>
										<g>
											<polygon class="st23" points="392.16,235.61 394.89,238.54 394.89,240.64 390.2,235.61 											"/>
										</g>
										<g>
											<polygon class="st23" points="376.55,235.61 384.9,244.59 382.95,244.59 374.59,235.61 											"/>
										</g>
										<g>
											<polygon class="st23" points="373.28,235.61 373.52,235.61 381.87,244.59 378.96,244.59 373.28,238.48 											"/>
										</g>
										<g>
											<polygon class="st23" points="384.69,235.61 393.04,244.59 391.08,244.59 382.73,235.61 											"/>
										</g>
										<g>
											<polygon class="st23" points="389.23,235.61 394.89,241.69 394.89,244.59 394.06,244.59 385.71,235.61 											"/>
										</g>
									</g>
								</g>
							</g>
						</g>
						<g>
							
								<rect x="343.99" y="234.42" transform="matrix(-1 -4.476121e-11 4.476121e-11 -1 712.1254 480.2607)" class="st10" width="24.14" height="11.42"/>
							<g>
								
									<rect x="345.3" y="235.61" transform="matrix(-1 -4.488111e-11 4.488111e-11 -1 712.2041 480.1911)" class="st22" width="21.6" height="8.98"/>
								<g>
									<g>
										<g>
											<polygon class="st23" points="364.18,235.61 366.9,238.54 366.9,240.64 362.22,235.61 											"/>
										</g>
										<g>
											<polygon class="st23" points="348.57,235.61 356.92,244.59 354.96,244.59 346.61,235.61 											"/>
										</g>
										<g>
											<polygon class="st23" points="345.3,235.61 345.54,235.61 353.89,244.59 350.98,244.59 345.3,238.48 											"/>
										</g>
										<g>
											<polygon class="st23" points="356.71,235.61 365.06,244.59 363.1,244.59 354.75,235.61 											"/>
										</g>
										<g>
											<polygon class="st23" points="361.24,235.61 366.9,241.69 366.9,244.59 366.08,244.59 357.73,235.61 											"/>
										</g>
									</g>
								</g>
							</g>
						</g>
					</g>
				</g>
				<g>
					
						<rect x="338.47" y="265.45" transform="matrix(-1 -4.499391e-11 4.499391e-11 -1 740.256 533.2595)" class="st21" width="63.31" height="2.36"/>
					<g>
						<g>
							
								<rect x="372.04" y="252.47" transform="matrix(-1 -4.513779e-11 4.513779e-11 -1 768.2184 516.351)" class="st10" width="24.14" height="11.42"/>
							<g>
								
									<rect x="373.35" y="253.65" transform="matrix(-1 -4.488111e-11 4.488111e-11 -1 768.2972 516.2814)" class="st22" width="21.6" height="8.98"/>
								<g>
									<g>
										<g>
											<polygon class="st23" points="392.22,253.65 394.95,256.58 394.95,258.69 390.27,253.65 											"/>
										</g>
										<g>
											<polygon class="st23" points="376.62,253.65 384.97,262.63 383.01,262.63 374.66,253.65 											"/>
										</g>
										<g>
											<polygon class="st23" points="373.35,253.65 373.58,253.65 381.93,262.63 379.03,262.63 373.35,256.52 											"/>
										</g>
										<g>
											<polygon class="st23" points="384.75,253.65 393.11,262.63 391.15,262.63 382.8,253.65 											"/>
										</g>
										<g>
											<polygon class="st23" points="389.29,253.65 394.95,259.74 394.95,262.63 394.13,262.63 385.78,253.65 											"/>
										</g>
									</g>
								</g>
							</g>
						</g>
						<g>
							
								<rect x="344.06" y="252.47" transform="matrix(-1 -4.468571e-11 4.468571e-11 -1 712.2514 516.351)" class="st10" width="24.14" height="11.42"/>
							<g>
								
									<rect x="345.36" y="253.65" transform="matrix(-1 -4.488111e-11 4.488111e-11 -1 712.3302 516.2814)" class="st22" width="21.6" height="8.98"/>
								<g>
									<g>
										<g>
											<polygon class="st23" points="364.24,253.65 366.97,256.58 366.97,258.69 362.28,253.65 											"/>
										</g>
										<g>
											<polygon class="st23" points="348.63,253.65 356.98,262.63 355.02,262.63 346.67,253.65 											"/>
										</g>
										<g>
											<polygon class="st23" points="345.36,253.65 345.6,253.65 353.95,262.63 351.04,262.63 345.36,256.52 											"/>
										</g>
										<g>
											<polygon class="st23" points="356.77,253.65 365.12,262.63 363.16,262.63 354.81,253.65 											"/>
										</g>
										<g>
											<polygon class="st23" points="361.3,253.65 366.97,259.74 366.97,262.63 366.14,262.63 357.79,253.65 											"/>
										</g>
									</g>
								</g>
							</g>
						</g>
					</g>
				</g>
				<g>
					
						<rect x="338.54" y="283.49" transform="matrix(-1 -4.487889e-11 4.487889e-11 -1 740.3821 569.3499)" class="st21" width="63.31" height="2.36"/>
					<g>
						<g>
							
								<rect x="372.1" y="270.51" transform="matrix(-1 -4.521329e-11 4.521329e-11 -1 768.3444 552.4413)" class="st21" width="24.14" height="11.42"/>
							<g>
								
									<rect x="373.41" y="271.7" transform="matrix(-1 -4.488111e-11 4.488111e-11 -1 768.4232 552.3717)" class="st22" width="21.6" height="8.98"/>
								<g>
									<g>
										<g>
											<polygon class="st23" points="392.29,271.7 395.01,274.63 395.01,276.73 390.33,271.7 											"/>
										</g>
										<g>
											<polygon class="st23" points="376.68,271.7 385.03,280.68 383.07,280.68 374.72,271.7 											"/>
										</g>
										<g>
											<polygon class="st23" points="373.41,271.7 373.65,271.7 382,280.68 379.09,280.68 373.41,274.57 											"/>
										</g>
										<g>
											<polygon class="st23" points="384.82,271.7 393.17,280.68 391.21,280.68 382.86,271.7 											"/>
										</g>
										<g>
											<polygon class="st23" points="389.35,271.7 395.01,277.78 395.01,280.68 394.19,280.68 385.84,271.7 											"/>
										</g>
									</g>
								</g>
							</g>
						</g>
						<g>
							
								<rect x="344.12" y="270.51" transform="matrix(-1 -4.476121e-11 4.476121e-11 -1 712.3774 552.4413)" class="st21" width="24.14" height="11.42"/>
							<g>
								
									<rect x="345.43" y="271.7" transform="matrix(-1 -4.488111e-11 4.488111e-11 -1 712.4562 552.3717)" class="st22" width="21.6" height="8.98"/>
								<g>
									<g>
										<g>
											<polygon class="st23" points="364.3,271.7 367.03,274.63 367.03,276.73 362.35,271.7 											"/>
										</g>
										<g>
											<polygon class="st23" points="348.69,271.7 357.05,280.68 355.09,280.68 346.74,271.7 											"/>
										</g>
										<g>
											<polygon class="st23" points="345.43,271.7 345.66,271.7 354.01,280.68 351.11,280.68 345.43,274.57 											"/>
										</g>
										<g>
											<polygon class="st23" points="356.83,271.7 365.18,280.68 363.23,280.68 354.88,271.7 											"/>
										</g>
										<g>
											<polygon class="st23" points="361.37,271.7 367.03,277.78 367.03,280.68 366.21,280.68 357.86,271.7 											"/>
										</g>
									</g>
								</g>
							</g>
						</g>
					</g>
				</g>
				<g>
					
						<rect x="338.6" y="301.54" transform="matrix(-1 -4.502277e-11 4.502277e-11 -1 740.5081 605.4401)" class="st21" width="63.31" height="2.36"/>
					<g>
						<g>
							
								<rect x="372.17" y="288.56" transform="matrix(-1 -4.468571e-11 4.468571e-11 -1 768.4705 588.5316)" class="st21" width="24.14" height="11.42"/>
							<g>
								
									<rect x="373.47" y="289.74" transform="matrix(-1 -4.496504e-11 4.496504e-11 -1 768.5493 588.462)" class="st22" width="21.6" height="8.98"/>
								<g>
									<g>
										<g>
											<polygon class="st23" points="392.35,289.74 395.08,292.67 395.08,294.78 390.39,289.74 											"/>
										</g>
										<g>
											<polygon class="st23" points="376.74,289.74 385.09,298.72 383.13,298.72 374.78,289.74 											"/>
										</g>
										<g>
											<polygon class="st23" points="373.47,289.74 373.71,289.74 382.06,298.72 379.15,298.72 373.47,292.61 											"/>
										</g>
										<g>
											<polygon class="st23" points="384.88,289.74 393.23,298.72 391.27,298.72 382.92,289.74 											"/>
										</g>
										<g>
											<polygon class="st23" points="389.41,289.74 395.08,295.83 395.08,298.72 394.25,298.72 385.9,289.74 											"/>
										</g>
									</g>
								</g>
							</g>
						</g>
						<g>
							
								<rect x="344.18" y="288.56" transform="matrix(-1 -4.476121e-11 4.476121e-11 -1 712.5035 588.5316)" class="st21" width="24.14" height="11.42"/>
							<g>
								
									<rect x="345.49" y="289.74" transform="matrix(-1 -4.488111e-11 4.488111e-11 -1 712.5823 588.462)" class="st22" width="21.6" height="8.98"/>
								<g>
									<g>
										<g>
											<polygon class="st23" points="364.37,289.74 367.09,292.67 367.09,294.78 362.41,289.74 											"/>
										</g>
										<g>
											<polygon class="st23" points="348.76,289.74 357.11,298.72 355.15,298.72 346.8,289.74 											"/>
										</g>
										<g>
											<polygon class="st23" points="345.49,289.74 345.73,289.74 354.08,298.72 351.17,298.72 345.49,292.61 											"/>
										</g>
										<g>
											<polygon class="st23" points="356.9,289.74 365.25,298.72 363.29,298.72 354.94,289.74 											"/>
										</g>
										<g>
											<polygon class="st23" points="361.43,289.74 367.09,295.83 367.09,298.72 366.27,298.72 357.92,289.74 											"/>
										</g>
									</g>
								</g>
							</g>
						</g>
					</g>
				</g>
			</g>
		</g>
		<g>
			<g>
				<g>
					<g>
						<g>
							<polygon class="st11" points="198.94,279.69 127.07,279.69 136.65,265.55 188.82,265.83 							"/>
							<polygon class="st11" points="183.62,279.69 142.4,279.69 163.02,259.7 							"/>
						</g>
						<g>
							<rect x="127.07" y="279.65" class="st24" width="71.92" height="36.35"/>
							<g>
								<rect x="145.73" y="279.6" class="st10" width="34.55" height="36.39"/>
								<polygon class="st10" points="183.46,283.11 142.25,283.11 162.86,263.12 								"/>
							</g>
						</g>
					</g>
					<g>
						<g>
							<polygon class="st11" points="169.9,285.66 156.16,285.66 163.03,277.5 							"/>
							<polygon class="st22" points="167.39,284.6 158.67,284.6 163.03,279.43 							"/>
						</g>
						<rect x="156.8" y="291.53" class="st11" width="12.41" height="23.02"/>
						<g>
							
								<rect x="129.38" y="291.51" transform="matrix(-1 -2.581814e-11 2.581814e-11 -1 273.0631 598.5333)" class="st11" width="14.3" height="15.51"/>
							<g>
								
									<rect x="130.67" y="292.86" transform="matrix(-1 -2.284274e-11 2.284274e-11 -1 273.1245 598.3297)" class="st22" width="11.79" height="12.61"/>
								<g>
									<g>
										<polygon class="st23" points="139.3,292.86 142.45,295.97 142.45,298.24 136.99,292.86 										"/>
										<polygon class="st23" points="135.98,292.86 142.45,299.24 142.45,302.29 132.88,292.86 										"/>
									</g>
									<g>
										<polygon class="st22" points="130.67,305.47 131.95,305.47 130.67,304.21 										"/>
										<polygon class="st23" points="130.67,304.21 131.95,305.47 133.58,305.47 130.67,302.6 										"/>
										<polygon class="st23" points="130.67,301.27 134.93,305.47 138.63,305.47 130.67,297.62 										"/>
									</g>
								</g>
							</g>
						</g>
						<g>
							
								<rect x="182.51" y="291.52" transform="matrix(-1 -2.581814e-11 2.581814e-11 -1 379.3143 598.5442)" class="st11" width="14.3" height="15.51"/>
							<g>
								
									<rect x="183.8" y="292.87" transform="matrix(-1 -2.299728e-11 2.299728e-11 -1 379.3757 598.3406)" class="st22" width="11.79" height="12.61"/>
								<g>
									<g>
										<polygon class="st23" points="192.42,292.87 195.58,295.98 195.58,298.25 190.12,292.87 										"/>
										<polygon class="st23" points="189.1,292.87 195.58,299.25 195.58,302.3 186.01,292.87 										"/>
									</g>
									<g>
										<polygon class="st22" points="183.8,305.48 185.08,305.48 183.8,304.21 										"/>
										<polygon class="st23" points="183.8,304.21 185.08,305.48 186.71,305.48 183.8,302.61 										"/>
										<polygon class="st23" points="183.8,301.27 188.06,305.48 191.76,305.48 183.8,297.63 										"/>
									</g>
								</g>
							</g>
						</g>
					</g>
				</g>
				<polygon class="st25" points="127.07,279.65 127.15,285 147.44,281.72 163.11,268.64 180.29,283.17 199.39,283.98 
					198.99,279.65 180.29,279.6 162.86,263.12 145.78,279.68 				"/>
			</g>
			<g>
				<g>
					<g>
						<polygon class="st11" points="343.19,279.83 414.63,279.83 405.11,263.97 356.99,263.97 						"/>
						<polygon class="st11" points="381.96,279.84 422.93,279.84 402.44,259.96 						"/>
					</g>
					<g>
						
							<rect x="343.14" y="279.79" transform="matrix(-1 -4.491175e-11 4.491175e-11 -1 757.7731 595.7217)" class="st24" width="71.49" height="36.13"/>
						<g>
							<g>
								<g>
									<rect x="385.27" y="279.75" class="st10" width="34.35" height="36.18"/>
								</g>
								<g>
									<g>
										<polygon class="st10" points="402.6,263.36 419.58,279.84 385.62,279.84 										"/>
									</g>
								</g>
							</g>
						</g>
					</g>
				</g>
				<g>
					<g>
						<g>
							<circle class="st11" cx="373.73" cy="298.21" r="6.6"/>
							<g>
								<circle class="st22" cx="373.73" cy="298.2" r="5.47"/>
								<g>
									<g>
										<g>
											<path class="st23" d="M377.32,294.07l-7.71,7.71c-0.44-0.51-0.79-1.1-1.03-1.75l6.99-6.99
												C376.22,293.28,376.82,293.63,377.32,294.07z"/>
										</g>
										<g>
											<path class="st23" d="M368.26,298.2c0-0.25,0.02-0.5,0.06-0.74l4.68-4.68c0.24-0.03,0.49-0.06,0.74-0.06
												c0.37,0,0.74,0.04,1.09,0.11l-6.45,6.45C368.3,298.93,368.26,298.57,368.26,298.2z"/>
										</g>
										<g>
											<path class="st23" d="M379.18,297.75l-5.9,5.9c-0.54-0.04-1.05-0.16-1.53-0.35l7.08-7.08
												C379.02,296.7,379.14,297.21,379.18,297.75z"/>
										</g>
									</g>
								</g>
							</g>
						</g>
						<g>
							<circle class="st11" cx="353.7" cy="298.2" r="6.6"/>
							<g>
								<circle class="st22" cx="353.7" cy="298.19" r="5.47"/>
								<g>
									<g>
										<g>
											<path class="st23" d="M357.3,294.07l-7.71,7.71c-0.44-0.51-0.79-1.1-1.03-1.75l6.99-6.99
												C356.19,293.27,356.79,293.62,357.3,294.07z"/>
										</g>
										<g>
											<path class="st23" d="M348.23,298.19c0-0.25,0.02-0.5,0.06-0.74l4.68-4.68c0.24-0.03,0.49-0.06,0.74-0.06
												c0.37,0,0.74,0.04,1.09,0.11l-6.45,6.45C348.27,298.92,348.23,298.56,348.23,298.19z"/>
										</g>
										<g>
											<path class="st23" d="M359.15,297.74l-5.9,5.9c-0.54-0.04-1.05-0.16-1.53-0.35l7.08-7.08
												C358.99,296.69,359.11,297.2,359.15,297.74z"/>
										</g>
									</g>
								</g>
							</g>
						</g>
					</g>
					<g>
						
							<rect x="396.28" y="291.61" transform="matrix(-1 -4.541757e-11 4.541757e-11 -1 804.8922 606.0957)" class="st11" width="12.34" height="22.88"/>
						<g>
							<circle class="st11" cx="402.48" cy="280.79" r="5.92"/>
							<g>
								<circle class="st22" cx="402.48" cy="280.78" r="4.91"/>
								<g>
									<g>
										<g>
											<path class="st23" d="M405.7,277.08l-6.92,6.92c-0.4-0.46-0.71-0.99-0.92-1.57l6.27-6.27
												C404.71,276.37,405.24,276.68,405.7,277.08z"/>
										</g>
										<g>
											<path class="st23" d="M397.57,280.78c0-0.23,0.02-0.45,0.05-0.66l4.2-4.2c0.22-0.03,0.44-0.05,0.66-0.05
												c0.33,0,0.66,0.03,0.97,0.1l-5.79,5.79C397.6,281.44,397.57,281.11,397.57,280.78z"/>
										</g>
										<g>
											<path class="st23" d="M407.37,280.38l-5.29,5.29c-0.48-0.04-0.94-0.15-1.37-0.31l6.35-6.35
												C407.22,279.44,407.33,279.9,407.37,280.38z"/>
										</g>
									</g>
								</g>
							</g>
						</g>
					</g>
				</g>
			</g>
		</g>
	</g>
	<g>
		<g>
			<g>
				<path class="st11" d="M337.42,315.99H212.04c-9.23,0-16.71-7.48-16.71-16.71V105.43c0-9.23,7.48-16.71,16.71-16.71h125.38
					c9.23,0,16.71,7.48,16.71,16.71v193.85C354.13,308.51,346.65,315.99,337.42,315.99z"/>
				<path class="st23" d="M337.91,308.42H211.62c-5.13,0-9.28-4.16-9.28-9.28V105.56c0-5.13,4.16-9.28,9.28-9.28h126.29
					c5.13,0,9.28,4.16,9.28,9.28v193.58C347.19,304.27,343.03,308.42,337.91,308.42z"/>
			</g>
			<g>
				<g>
					<path class="st10" d="M265.75,298.14h-48.53c-3.98,0-7.2-3.22-7.2-7.2v-41.91c0-3.98,3.22-7.2,7.2-7.2h48.53
						c3.98,0,7.2,3.22,7.2,7.2v41.91C272.95,294.92,269.73,298.14,265.75,298.14z"/>
					<g>
						<path class="st23" d="M234.1,293.22h-15.94c-1.67,0-3.03-1.36-3.03-3.03v-40.26c0-1.67,1.36-3.03,3.03-3.03h15.94
							c1.67,0,3.03,1.36,3.03,3.03v40.26C237.13,291.86,235.77,293.22,234.1,293.22z"/>
						<g>
							<g>
								<rect x="241.9" y="253.62" class="st23" width="25.08" height="3.28"/>
								<rect x="241.9" y="258.81" class="st23" width="18" height="3.28"/>
								<rect x="241.9" y="263.99" class="st23" width="21" height="3.28"/>
							</g>
							<g>
								<rect x="241.9" y="274.37" class="st23" width="25.08" height="3.28"/>
								<rect x="241.9" y="279.56" class="st23" width="18.82" height="3.28"/>
								<rect x="241.9" y="284.74" class="st23" width="22.54" height="3.28"/>
								<rect x="241.9" y="289.93" class="st23" width="12.92" height="3.28"/>
							</g>
						</g>
					</g>
				</g>
				<g>
					<path class="st10" d="M332.6,270.62h-48.53c-3.98,0-7.2-3.22-7.2-7.2V249c0-3.98,3.22-7.2,7.2-7.2h48.53
						c3.98,0,7.2,3.22,7.2,7.2v14.42C339.8,267.4,336.58,270.62,332.6,270.62z"/>
					<g>
						<g>
							<rect x="281.3" y="247.41" class="st23" width="48.05" height="3.28"/>
							<rect x="281.3" y="252.6" class="st23" width="34.49" height="3.28"/>
						</g>
						<g>
							<polygon class="st23" points="284.06,261.62 285.18,259.26 286.51,261.55 289.11,261.74 287.23,263.74 287.85,266.41 
								285.42,264.93 283.15,266.41 283.46,263.79 281.26,261.87 							"/>
							<polygon class="st23" points="295.75,261.63 296.87,259.27 298.21,261.56 300.8,261.76 298.92,263.75 299.55,266.43 
								297.11,264.95 294.85,266.43 295.16,263.8 292.96,261.89 							"/>
							<polygon class="st23" points="307.45,261.62 308.57,259.26 309.9,261.55 312.5,261.75 310.62,263.74 311.24,266.41 
								308.81,264.93 306.54,266.41 306.85,263.79 304.65,261.87 							"/>
							<polygon class="st23" points="319.15,261.62 320.27,259.26 321.61,261.55 324.2,261.74 322.32,263.74 322.94,266.41 
								320.51,264.93 318.25,266.41 318.56,263.79 316.36,261.87 							"/>
							<polygon class="st23" points="330.84,261.61 331.96,259.25 333.3,261.54 335.9,261.74 334.02,263.74 334.64,266.41 
								332.2,264.93 329.94,266.41 330.25,263.78 328.05,261.87 							"/>
						</g>
					</g>
				</g>
				<g>
					<path class="st10" d="M332.61,298.14h-48.53c-3.98,0-7.2-3.22-7.2-7.2v-6.72c0-3.98,3.22-7.2,7.2-7.2h48.53
						c3.98,0,7.2,3.22,7.2,7.2v6.72C339.82,294.91,336.59,298.14,332.61,298.14z"/>
					<g>
						<g>
							<g>
								<path class="st23" d="M286.86,290.53l0.97-1.15c0.53,0.46,1.21,0.78,1.83,0.78c0.7,0,1.05-0.28,1.05-0.72
									c0-0.47-0.42-0.62-1.07-0.89l-0.97-0.41c-0.77-0.31-1.5-0.95-1.5-2.03c0-1.23,1.1-2.22,2.65-2.22
									c0.86,0,1.75,0.34,2.39,0.98l-0.85,1.06c-0.49-0.38-0.96-0.58-1.54-0.58c-0.58,0-0.95,0.24-0.95,0.67
									c0,0.46,0.49,0.62,1.14,0.88l0.95,0.38c0.91,0.37,1.48,0.97,1.48,2.02c0,1.24-1.03,2.31-2.8,2.31
									C288.64,291.61,287.62,291.24,286.86,290.53z"/>
								<path class="st23" d="M294.25,284.03h4.66v1.41h-2.98v1.49h2.54v1.41h-2.54v1.71h3.09v1.41h-4.78V284.03z"/>
								<path class="st23" d="M302.46,284.03h2.01l2.34,7.44h-1.78l-0.97-3.77c-0.21-0.74-0.41-1.62-0.6-2.4h-0.05
									c-0.18,0.79-0.38,1.66-0.58,2.4l-0.98,3.77h-1.72L302.46,284.03z M301.67,288.39h3.58v1.31h-3.58V288.39z"/>
								<path class="st23" d="M308.19,284.03h2.68c1.58,0,2.87,0.55,2.87,2.32c0,1.71-1.29,2.45-2.87,2.45h-1v2.68h-1.68V284.03z
									 M310.73,287.46c0.88,0,1.36-0.38,1.36-1.11c0-0.74-0.48-0.98-1.36-0.98h-0.86v2.09H310.73z M310.56,288.35l1.16-1.08
									l2.37,4.2h-1.88L310.56,288.35z"/>
								<path class="st23" d="M315.4,287.79c0-2.47,1.63-3.9,3.51-3.9c0.96,0,1.74,0.45,2.24,0.97l-0.89,1.08
									c-0.37-0.35-0.77-0.59-1.31-0.59c-1.02,0-1.83,0.9-1.83,2.39c0,1.53,0.71,2.42,1.8,2.42c0.61,0,1.09-0.3,1.46-0.7l0.89,1.06
									c-0.62,0.72-1.44,1.09-2.4,1.09C316.97,291.61,315.4,290.3,315.4,287.79z"/>
								<path class="st23" d="M322.96,284.03h1.68v2.87h2.57v-2.87h1.68v7.44h-1.68v-3.11h-2.57v3.11h-1.68V284.03z"/>
							</g>
						</g>
					</g>
				</g>
				<g>
					<g>
						<rect x="209.61" y="105.87" class="st26" width="36.31" height="45.85"/>
						<g>
							<rect x="210.02" y="187.53" class="st26" width="21.41" height="45.85"/>
							<rect x="233.95" y="187.53" class="st26" width="21.41" height="45.85"/>
							<rect x="257.88" y="187.53" class="st26" width="21.41" height="45.85"/>
						</g>
						<rect x="269.34" y="105.8" class="st26" width="36.14" height="26.06"/>
						<rect x="286.37" y="187.56" class="st26" width="53.59" height="32.26"/>
						<rect x="286.37" y="221.57" class="st26" width="53.59" height="11.8"/>
						<rect x="312.53" y="105.8" class="st26" width="27.47" height="63.37"/>
						<rect x="312.5" y="170.6" class="st26" width="27.47" height="11.21"/>
						<rect x="269.33" y="133.49" class="st26" width="36.14" height="18.16"/>
						<rect x="209.53" y="157.81" class="st26" width="53.24" height="24"/>
						<rect x="264.21" y="157.81" class="st26" width="41.25" height="24"/>
						<rect x="248.52" y="105.85" class="st26" width="14.31" height="45.8"/>
					</g>
					<g>
						<g>
							<g>
								<g>
									<g>
										<circle class="st10" cx="285.81" cy="143.44" r="20.25"/>
									</g>
									<g>
										<polygon class="st10" points="295.84,159.4 275.61,159.4 285.73,172.26 										"/>
									</g>
								</g>
							</g>
							<g>
								<g>
									<rect x="274.33" y="139.85" class="st27" width="22.43" height="15.13"/>
									<polygon class="st27" points="299.81,141.8 271.64,141.8 285.73,128.61 									"/>
								</g>
								<g>
									<g>
										<rect x="286.61" y="143.2" class="st10" width="6.54" height="11.77"/>
										<rect x="277.17" y="143.21" class="st10" width="6.54" height="5.95"/>
									</g>
								</g>
							</g>
						</g>
						<g>
							<g>
								<circle class="st10" cx="220.38" cy="205.75" r="8.21"/>
								<polygon class="st10" points="224.45,212.22 216.24,212.22 220.35,217.44 								"/>
							</g>
							<g>
								<g>
									<rect x="215.72" y="204.3" class="st27" width="9.1" height="6.13"/>
									<polygon class="st27" points="226.05,205.09 214.63,205.09 220.34,199.74 									"/>
								</g>
								<g>
									<rect x="220.7" y="205.66" class="st10" width="2.65" height="4.77"/>
									<rect x="216.87" y="205.66" class="st10" width="2.65" height="2.41"/>
								</g>
							</g>
						</g>
						<g>
							<g>
								<circle class="st10" cx="314.05" cy="201.6" r="8.21"/>
								<polygon class="st10" points="318.12,208.07 309.91,208.07 314.02,213.29 								"/>
							</g>
							<g>
								<g>
									<rect x="309.4" y="200.15" class="st27" width="9.1" height="6.13"/>
									<polygon class="st27" points="319.73,200.94 308.3,200.94 314.02,195.59 									"/>
								</g>
								<g>
									<rect x="314.37" y="201.51" class="st10" width="2.65" height="4.77"/>
									<rect x="310.55" y="201.51" class="st10" width="2.65" height="2.41"/>
								</g>
							</g>
						</g>
						<g>
							<g>
								<circle class="st10" cx="226.65" cy="123.13" r="8.21"/>
								<polygon class="st10" points="230.72,129.6 222.51,129.6 226.62,134.82 								"/>
							</g>
							<g>
								<g>
									<rect x="222" y="121.67" class="st27" width="9.1" height="6.13"/>
									<polygon class="st27" points="232.33,122.46 220.9,122.46 226.62,117.12 									"/>
								</g>
								<g>
									<g>
										<rect x="226.97" y="123.03" class="st10" width="2.65" height="4.77"/>
										<rect x="223.15" y="123.03" class="st10" width="2.65" height="2.41"/>
									</g>
								</g>
							</g>
						</g>
					</g>
				</g>
			</g>
		</g>
		<g>
			<path class="st11" d="M316.37,173.77c-15.64,17.85-42.88,19.65-60.73,4.02s-19.65-42.88-4.02-60.73s42.88-19.65,60.73-4.02
				S332,155.91,316.37,173.77z M257.18,121.92c-12.95,14.79-11.46,37.35,3.33,50.31c14.79,12.95,37.35,11.46,50.31-3.33
				c12.95-14.79,11.46-37.35-3.33-50.31C292.7,105.64,270.13,107.13,257.18,121.92z"/>
			<g>
				
					<rect x="325.09" y="162.67" transform="matrix(0.6589 -0.7522 0.7522 0.6589 -26.9617 310.9441)" class="st11" width="8.57" height="45.06"/>
				<path class="st10" d="M388.93,233.7l-3.58,4.09c-2.48,2.84-6.79,3.12-9.63,0.64l-41.95-36.74c-2.84-2.48-3.12-6.79-0.64-9.63
					l3.58-4.09c2.48-2.84,6.79-3.12,9.63-0.64l41.95,36.74C391.13,226.56,391.41,230.87,388.93,233.7z"/>
			</g>
		</g>
	</g>
	<g>
		<g>
			<g>
				<g>
					<polygon class="st11" points="369.93,104.69 369.93,114.66 372.76,116.69 370.38,118.05 370.27,122.13 372.99,124.06 
						370.38,126.21 370.16,132.21 377.75,137.99 377.29,105.03 					"/>
					<circle class="st11" cx="373.84" cy="91.69" r="14.07"/>
				</g>
				<circle class="st28" cx="373.75" cy="83.62" r="4.13"/>
			</g>
			<g>
				<g>
					<polygon class="st11" points="170.84,142.72 167.59,133.29 164.25,132.29 166.06,130.23 164.84,126.34 161.64,125.4 
						163.4,122.52 161.66,116.77 152.61,113.78 163.76,144.79 					"/>
					<circle class="st11" cx="171.37" cy="156.28" r="14.07"/>
				</g>
				<circle class="st28" cx="174.08" cy="163.88" r="4.13"/>
			</g>
		</g>
		<g>
			<g>
				<polygon class="st28" points="175.61,98.93 177.86,91.44 180.07,98.86 177.44,106.71 				"/>
				<polygon class="st28" points="178.17,101.23 170.68,98.98 178.09,96.77 185.94,99.41 				"/>
			</g>
			<g>
				<polygon class="st28" points="387.1,129.17 389.35,121.68 391.56,129.1 388.93,136.95 				"/>
				<polygon class="st28" points="389.66,131.47 382.17,129.22 389.58,127.01 397.43,129.65 				"/>
			</g>
			<g>
				<polygon class="st11" points="224.38,71.67 226.63,64.18 228.85,71.6 226.21,79.45 				"/>
				<polygon class="st11" points="226.94,73.97 219.45,71.72 226.86,69.51 234.71,72.15 				"/>
			</g>
			<g>
				<polygon class="st11" points="307.3,75.53 309.55,68.04 311.76,75.46 309.13,83.31 				"/>
				<polygon class="st11" points="309.86,77.83 302.37,75.58 309.78,73.37 317.63,76.01 				"/>
			</g>
			<g>
				<g>
					<g>
						<polygon class="st11" points="269.75,58.35 271.06,54 272.35,58.31 270.81,62.87 						"/>
					</g>
					<g>
						<polygon class="st11" points="271.24,59.69 266.89,58.38 271.2,57.1 275.76,58.63 						"/>
					</g>
				</g>
			</g>
		</g>
	</g>
</g>
</svg>
